%TF.GenerationSoftware,KiCad,Pcbnew,(5.1.6)-1*%
%TF.CreationDate,2020-12-18T22:44:24+08:00*%
%TF.ProjectId,_______,2c00e03e-2735-4ef2-9e6b-696361645f70,1.0.1*%
%TF.SameCoordinates,Original*%
%TF.FileFunction,Copper,L2,Bot*%
%TF.FilePolarity,Positive*%
%FSLAX46Y46*%
G04 Gerber Fmt 4.6, Leading zero omitted, Abs format (unit mm)*
G04 Created by KiCad (PCBNEW (5.1.6)-1) date 2020-12-18 22:44:24*
%MOMM*%
%LPD*%
G01*
G04 APERTURE LIST*
%TA.AperFunction,ComponentPad*%
%ADD10O,1.700000X1.700000*%
%TD*%
%TA.AperFunction,ComponentPad*%
%ADD11R,1.700000X1.700000*%
%TD*%
%TA.AperFunction,ViaPad*%
%ADD12C,0.800000*%
%TD*%
%TA.AperFunction,Conductor*%
%ADD13C,0.200000*%
%TD*%
%TA.AperFunction,Conductor*%
%ADD14C,0.254000*%
%TD*%
G04 APERTURE END LIST*
D10*
%TO.P,J1,2*%
%TO.N,GND*%
X20000000Y-22540000D03*
D11*
%TO.P,J1,1*%
%TO.N,+15V*%
X20000000Y-20000000D03*
%TD*%
%TO.P,J2,1*%
%TO.N,Net-(C3-Pad2)*%
X20000000Y-38460000D03*
D10*
%TO.P,J2,2*%
%TO.N,GND*%
X20000000Y-41000000D03*
%TD*%
D11*
%TO.P,J3,1*%
%TO.N,Net-(C4-Pad2)*%
X20000000Y-58460000D03*
D10*
%TO.P,J3,2*%
%TO.N,GND*%
X20000000Y-61000000D03*
%TD*%
%TO.P,J4,2*%
%TO.N,Net-(C10-Pad1)*%
X37000000Y-38460000D03*
D11*
%TO.P,J4,1*%
%TO.N,GND*%
X37000000Y-41000000D03*
%TD*%
D10*
%TO.P,J5,2*%
%TO.N,Net-(C11-Pad1)*%
X37000000Y-58460000D03*
D11*
%TO.P,J5,1*%
%TO.N,GND*%
X37000000Y-61000000D03*
%TD*%
%TO.P,J6,1*%
%TO.N,Net-(C16-Pad2)*%
X89000000Y-70960000D03*
D10*
%TO.P,J6,2*%
%TO.N,GND*%
X89000000Y-73500000D03*
%TD*%
%TO.P,J7,2*%
%TO.N,GND*%
X50000000Y-81000000D03*
D11*
%TO.P,J7,1*%
%TO.N,Net-(C17-Pad2)*%
X50000000Y-78460000D03*
%TD*%
%TO.P,J8,1*%
%TO.N,Net-(C18-Pad2)*%
X50000000Y-38460000D03*
D10*
%TO.P,J8,2*%
%TO.N,GND*%
X50000000Y-41000000D03*
%TD*%
%TO.P,J9,2*%
%TO.N,Net-(C22-Pad1)*%
X106000000Y-70960000D03*
D11*
%TO.P,J9,1*%
%TO.N,GND*%
X106000000Y-73500000D03*
%TD*%
%TO.P,J10,1*%
%TO.N,GND*%
X67000000Y-73500000D03*
D10*
%TO.P,J10,2*%
%TO.N,Net-(C23-Pad1)*%
X67000000Y-70960000D03*
%TD*%
%TO.P,J11,2*%
%TO.N,Net-(C24-Pad1)*%
X67000000Y-81000000D03*
D11*
%TO.P,J11,1*%
%TO.N,GND*%
X67000000Y-78460000D03*
%TD*%
D10*
%TO.P,J12,2*%
%TO.N,Net-(C26-Pad1)*%
X67000000Y-38460000D03*
D11*
%TO.P,J12,1*%
%TO.N,GND*%
X67000000Y-41000000D03*
%TD*%
D10*
%TO.P,J13,2*%
%TO.N,GND*%
X86000000Y-41000000D03*
D11*
%TO.P,J13,1*%
%TO.N,Net-(C31-Pad2)*%
X86000000Y-38460000D03*
%TD*%
D10*
%TO.P,J14,2*%
%TO.N,GND*%
X20000000Y-81040000D03*
D11*
%TO.P,J14,1*%
%TO.N,Net-(C32-Pad2)*%
X20000000Y-78500000D03*
%TD*%
%TO.P,J15,1*%
%TO.N,Net-(C33-Pad2)*%
X50020000Y-58500000D03*
D10*
%TO.P,J15,2*%
%TO.N,GND*%
X50020000Y-61040000D03*
%TD*%
D11*
%TO.P,J16,1*%
%TO.N,GND*%
X106000000Y-41000000D03*
D10*
%TO.P,J16,2*%
%TO.N,Net-(C37-Pad1)*%
X106000000Y-38460000D03*
%TD*%
D11*
%TO.P,J17,1*%
%TO.N,GND*%
X37000000Y-81000000D03*
D10*
%TO.P,J17,2*%
%TO.N,Net-(C41-Pad1)*%
X37000000Y-78460000D03*
%TD*%
D11*
%TO.P,J18,1*%
%TO.N,GND*%
X67000000Y-61000000D03*
D10*
%TO.P,J18,2*%
%TO.N,Net-(C42-Pad1)*%
X67000000Y-58460000D03*
%TD*%
D12*
%TO.N,GND*%
X78500000Y-34000000D03*
X75500000Y-34000000D03*
X77000000Y-32000000D03*
X87000000Y-33500000D03*
X85500000Y-32000000D03*
X88500000Y-32000000D03*
X99000000Y-33500000D03*
X100500000Y-32000000D03*
X97500000Y-32000000D03*
X103500000Y-32000000D03*
X102000000Y-33500000D03*
X106000000Y-43000000D03*
X108000000Y-41000000D03*
X104000000Y-41000000D03*
X99000000Y-43500000D03*
X100500000Y-42000000D03*
X97500000Y-42000000D03*
X96000000Y-43500000D03*
X94500000Y-42000000D03*
X93000000Y-43500000D03*
X75000000Y-53500000D03*
X73500000Y-52000000D03*
X76500000Y-52000000D03*
X78000000Y-53500000D03*
X84000000Y-62000000D03*
X85500000Y-60500000D03*
X91000000Y-57500000D03*
X92500000Y-56000000D03*
X94000000Y-57500000D03*
X91500000Y-64500000D03*
X94500000Y-64500000D03*
X96000000Y-66000000D03*
X93000000Y-66000000D03*
X106000000Y-75500000D03*
X108000000Y-73500000D03*
X99000000Y-76000000D03*
X97500000Y-74500000D03*
X96000000Y-76000000D03*
X94500000Y-74500000D03*
X93000000Y-76000000D03*
X91500000Y-74500000D03*
X89000000Y-75500000D03*
X87000000Y-73500000D03*
X91000000Y-73500000D03*
X67000000Y-75500000D03*
X67000000Y-76500000D03*
X69000000Y-78500000D03*
X65000000Y-78500000D03*
X65000000Y-73500000D03*
X69000000Y-73500000D03*
X54000000Y-83500000D03*
X52500000Y-82000000D03*
X55500000Y-82000000D03*
X57000000Y-83500000D03*
X58500000Y-82000000D03*
X51000000Y-73500000D03*
X52500000Y-72000000D03*
X49500000Y-72000000D03*
X54000000Y-73500000D03*
X55500000Y-72000000D03*
X33000000Y-83500000D03*
X34500000Y-82000000D03*
X31500000Y-82000000D03*
X30000000Y-83500000D03*
X28500000Y-82000000D03*
X27000000Y-83500000D03*
X25500000Y-82000000D03*
X20000000Y-83000000D03*
X18000000Y-81000000D03*
X33000000Y-73500000D03*
X30000000Y-73500000D03*
X31500000Y-72000000D03*
X34500000Y-72000000D03*
X27000000Y-63500000D03*
X28500000Y-62000000D03*
X25500000Y-62000000D03*
X30000000Y-63500000D03*
X31500000Y-62000000D03*
X20000000Y-63000000D03*
X18000000Y-61000000D03*
X37000000Y-63000000D03*
X39000000Y-61000000D03*
X50000000Y-63000000D03*
X48000000Y-61000000D03*
X52000000Y-61000000D03*
X54000000Y-63500000D03*
X52500000Y-62000000D03*
X55500000Y-62000000D03*
X60000000Y-63500000D03*
X61500000Y-62000000D03*
X63000000Y-63500000D03*
X64500000Y-62000000D03*
X65000000Y-61000000D03*
X67000000Y-63000000D03*
X69000000Y-61000000D03*
X54000000Y-53500000D03*
X55500000Y-52000000D03*
X52500000Y-52000000D03*
X33000000Y-54000000D03*
X30000000Y-54000000D03*
X31500000Y-52500000D03*
X34500000Y-52500000D03*
X30000000Y-43500000D03*
X28500000Y-42000000D03*
X27000000Y-43500000D03*
X25500000Y-42000000D03*
X31500000Y-42000000D03*
X37000000Y-43000000D03*
X39000000Y-41000000D03*
X20000000Y-43000000D03*
X18000000Y-41000000D03*
X20000000Y-24500000D03*
X22000000Y-22500000D03*
X18000000Y-22500000D03*
X18000000Y-24500000D03*
X22000000Y-24500000D03*
X54000000Y-33500000D03*
X51000000Y-33500000D03*
X52500000Y-32000000D03*
X49500000Y-32000000D03*
X55500000Y-32000000D03*
X67000000Y-43000000D03*
X69000000Y-41000000D03*
X65000000Y-41000000D03*
X50000000Y-43000000D03*
X52000000Y-41000000D03*
X48000000Y-41000000D03*
X54000000Y-43500000D03*
X52500000Y-42000000D03*
X55500000Y-42000000D03*
X57000000Y-43500000D03*
X58500000Y-42000000D03*
X86000000Y-43000000D03*
X88000000Y-41000000D03*
X84000000Y-41000000D03*
%TO.N,+15V*%
X80500000Y-28500000D03*
X80500000Y-33500000D03*
%TD*%
D13*
%TO.N,+15V*%
X80500000Y-28500000D02*
X80500000Y-33500000D01*
%TD*%
D14*
%TO.N,GND*%
G36*
X109840000Y-87340000D02*
G01*
X13660000Y-87340000D01*
X13660000Y-81396890D01*
X18558524Y-81396890D01*
X18603175Y-81544099D01*
X18728359Y-81806920D01*
X18902412Y-82040269D01*
X19118645Y-82235178D01*
X19368748Y-82384157D01*
X19643109Y-82481481D01*
X19873000Y-82360814D01*
X19873000Y-81167000D01*
X20127000Y-81167000D01*
X20127000Y-82360814D01*
X20356891Y-82481481D01*
X20631252Y-82384157D01*
X20881355Y-82235178D01*
X21097588Y-82040269D01*
X21239508Y-81850000D01*
X35511928Y-81850000D01*
X35524188Y-81974482D01*
X35560498Y-82094180D01*
X35619463Y-82204494D01*
X35698815Y-82301185D01*
X35795506Y-82380537D01*
X35905820Y-82439502D01*
X36025518Y-82475812D01*
X36150000Y-82488072D01*
X36714250Y-82485000D01*
X36873000Y-82326250D01*
X36873000Y-81127000D01*
X37127000Y-81127000D01*
X37127000Y-82326250D01*
X37285750Y-82485000D01*
X37850000Y-82488072D01*
X37974482Y-82475812D01*
X38094180Y-82439502D01*
X38204494Y-82380537D01*
X38301185Y-82301185D01*
X38380537Y-82204494D01*
X38439502Y-82094180D01*
X38475812Y-81974482D01*
X38488072Y-81850000D01*
X38485388Y-81356890D01*
X48558524Y-81356890D01*
X48603175Y-81504099D01*
X48728359Y-81766920D01*
X48902412Y-82000269D01*
X49118645Y-82195178D01*
X49368748Y-82344157D01*
X49643109Y-82441481D01*
X49873000Y-82320814D01*
X49873000Y-81127000D01*
X50127000Y-81127000D01*
X50127000Y-82320814D01*
X50356891Y-82441481D01*
X50631252Y-82344157D01*
X50881355Y-82195178D01*
X51097588Y-82000269D01*
X51271641Y-81766920D01*
X51396825Y-81504099D01*
X51441476Y-81356890D01*
X51320155Y-81127000D01*
X50127000Y-81127000D01*
X49873000Y-81127000D01*
X48679845Y-81127000D01*
X48558524Y-81356890D01*
X38485388Y-81356890D01*
X38485000Y-81285750D01*
X38326250Y-81127000D01*
X37127000Y-81127000D01*
X36873000Y-81127000D01*
X35673750Y-81127000D01*
X35515000Y-81285750D01*
X35511928Y-81850000D01*
X21239508Y-81850000D01*
X21271641Y-81806920D01*
X21396825Y-81544099D01*
X21441476Y-81396890D01*
X21320155Y-81167000D01*
X20127000Y-81167000D01*
X19873000Y-81167000D01*
X18679845Y-81167000D01*
X18558524Y-81396890D01*
X13660000Y-81396890D01*
X13660000Y-77650000D01*
X18511928Y-77650000D01*
X18511928Y-79350000D01*
X18524188Y-79474482D01*
X18560498Y-79594180D01*
X18619463Y-79704494D01*
X18698815Y-79801185D01*
X18795506Y-79880537D01*
X18905820Y-79939502D01*
X18986466Y-79963966D01*
X18902412Y-80039731D01*
X18728359Y-80273080D01*
X18603175Y-80535901D01*
X18558524Y-80683110D01*
X18679845Y-80913000D01*
X19873000Y-80913000D01*
X19873000Y-80893000D01*
X20127000Y-80893000D01*
X20127000Y-80913000D01*
X21320155Y-80913000D01*
X21441476Y-80683110D01*
X21396825Y-80535901D01*
X21271641Y-80273080D01*
X21179837Y-80150000D01*
X35511928Y-80150000D01*
X35515000Y-80714250D01*
X35673750Y-80873000D01*
X36873000Y-80873000D01*
X36873000Y-80853000D01*
X37127000Y-80853000D01*
X37127000Y-80873000D01*
X38326250Y-80873000D01*
X38485000Y-80714250D01*
X38488072Y-80150000D01*
X38475812Y-80025518D01*
X38439502Y-79905820D01*
X38380537Y-79795506D01*
X38301185Y-79698815D01*
X38204494Y-79619463D01*
X38094180Y-79560498D01*
X38021620Y-79538487D01*
X38153475Y-79406632D01*
X38315990Y-79163411D01*
X38427932Y-78893158D01*
X38485000Y-78606260D01*
X38485000Y-78313740D01*
X38427932Y-78026842D01*
X38315990Y-77756589D01*
X38218043Y-77610000D01*
X48511928Y-77610000D01*
X48511928Y-79310000D01*
X48524188Y-79434482D01*
X48560498Y-79554180D01*
X48619463Y-79664494D01*
X48698815Y-79761185D01*
X48795506Y-79840537D01*
X48905820Y-79899502D01*
X48986466Y-79923966D01*
X48902412Y-79999731D01*
X48728359Y-80233080D01*
X48603175Y-80495901D01*
X48558524Y-80643110D01*
X48679845Y-80873000D01*
X49873000Y-80873000D01*
X49873000Y-80853000D01*
X50127000Y-80853000D01*
X50127000Y-80873000D01*
X51320155Y-80873000D01*
X51441476Y-80643110D01*
X51396825Y-80495901D01*
X51271641Y-80233080D01*
X51097588Y-79999731D01*
X51013534Y-79923966D01*
X51094180Y-79899502D01*
X51204494Y-79840537D01*
X51301185Y-79761185D01*
X51380537Y-79664494D01*
X51439502Y-79554180D01*
X51475812Y-79434482D01*
X51488072Y-79310000D01*
X65511928Y-79310000D01*
X65524188Y-79434482D01*
X65560498Y-79554180D01*
X65619463Y-79664494D01*
X65698815Y-79761185D01*
X65795506Y-79840537D01*
X65905820Y-79899502D01*
X65978380Y-79921513D01*
X65846525Y-80053368D01*
X65684010Y-80296589D01*
X65572068Y-80566842D01*
X65515000Y-80853740D01*
X65515000Y-81146260D01*
X65572068Y-81433158D01*
X65684010Y-81703411D01*
X65846525Y-81946632D01*
X66053368Y-82153475D01*
X66296589Y-82315990D01*
X66566842Y-82427932D01*
X66853740Y-82485000D01*
X67146260Y-82485000D01*
X67433158Y-82427932D01*
X67703411Y-82315990D01*
X67946632Y-82153475D01*
X68153475Y-81946632D01*
X68315990Y-81703411D01*
X68427932Y-81433158D01*
X68485000Y-81146260D01*
X68485000Y-80853740D01*
X68427932Y-80566842D01*
X68315990Y-80296589D01*
X68153475Y-80053368D01*
X68021620Y-79921513D01*
X68094180Y-79899502D01*
X68204494Y-79840537D01*
X68301185Y-79761185D01*
X68380537Y-79664494D01*
X68439502Y-79554180D01*
X68475812Y-79434482D01*
X68488072Y-79310000D01*
X68485000Y-78745750D01*
X68326250Y-78587000D01*
X67127000Y-78587000D01*
X67127000Y-78607000D01*
X66873000Y-78607000D01*
X66873000Y-78587000D01*
X65673750Y-78587000D01*
X65515000Y-78745750D01*
X65511928Y-79310000D01*
X51488072Y-79310000D01*
X51488072Y-77610000D01*
X65511928Y-77610000D01*
X65515000Y-78174250D01*
X65673750Y-78333000D01*
X66873000Y-78333000D01*
X66873000Y-77133750D01*
X67127000Y-77133750D01*
X67127000Y-78333000D01*
X68326250Y-78333000D01*
X68485000Y-78174250D01*
X68488072Y-77610000D01*
X68475812Y-77485518D01*
X68439502Y-77365820D01*
X68380537Y-77255506D01*
X68301185Y-77158815D01*
X68204494Y-77079463D01*
X68094180Y-77020498D01*
X67974482Y-76984188D01*
X67850000Y-76971928D01*
X67285750Y-76975000D01*
X67127000Y-77133750D01*
X66873000Y-77133750D01*
X66714250Y-76975000D01*
X66150000Y-76971928D01*
X66025518Y-76984188D01*
X65905820Y-77020498D01*
X65795506Y-77079463D01*
X65698815Y-77158815D01*
X65619463Y-77255506D01*
X65560498Y-77365820D01*
X65524188Y-77485518D01*
X65511928Y-77610000D01*
X51488072Y-77610000D01*
X51475812Y-77485518D01*
X51439502Y-77365820D01*
X51380537Y-77255506D01*
X51301185Y-77158815D01*
X51204494Y-77079463D01*
X51094180Y-77020498D01*
X50974482Y-76984188D01*
X50850000Y-76971928D01*
X49150000Y-76971928D01*
X49025518Y-76984188D01*
X48905820Y-77020498D01*
X48795506Y-77079463D01*
X48698815Y-77158815D01*
X48619463Y-77255506D01*
X48560498Y-77365820D01*
X48524188Y-77485518D01*
X48511928Y-77610000D01*
X38218043Y-77610000D01*
X38153475Y-77513368D01*
X37946632Y-77306525D01*
X37703411Y-77144010D01*
X37433158Y-77032068D01*
X37146260Y-76975000D01*
X36853740Y-76975000D01*
X36566842Y-77032068D01*
X36296589Y-77144010D01*
X36053368Y-77306525D01*
X35846525Y-77513368D01*
X35684010Y-77756589D01*
X35572068Y-78026842D01*
X35515000Y-78313740D01*
X35515000Y-78606260D01*
X35572068Y-78893158D01*
X35684010Y-79163411D01*
X35846525Y-79406632D01*
X35978380Y-79538487D01*
X35905820Y-79560498D01*
X35795506Y-79619463D01*
X35698815Y-79698815D01*
X35619463Y-79795506D01*
X35560498Y-79905820D01*
X35524188Y-80025518D01*
X35511928Y-80150000D01*
X21179837Y-80150000D01*
X21097588Y-80039731D01*
X21013534Y-79963966D01*
X21094180Y-79939502D01*
X21204494Y-79880537D01*
X21301185Y-79801185D01*
X21380537Y-79704494D01*
X21439502Y-79594180D01*
X21475812Y-79474482D01*
X21488072Y-79350000D01*
X21488072Y-77650000D01*
X21475812Y-77525518D01*
X21439502Y-77405820D01*
X21380537Y-77295506D01*
X21301185Y-77198815D01*
X21204494Y-77119463D01*
X21094180Y-77060498D01*
X20974482Y-77024188D01*
X20850000Y-77011928D01*
X19150000Y-77011928D01*
X19025518Y-77024188D01*
X18905820Y-77060498D01*
X18795506Y-77119463D01*
X18698815Y-77198815D01*
X18619463Y-77295506D01*
X18560498Y-77405820D01*
X18524188Y-77525518D01*
X18511928Y-77650000D01*
X13660000Y-77650000D01*
X13660000Y-74350000D01*
X65511928Y-74350000D01*
X65524188Y-74474482D01*
X65560498Y-74594180D01*
X65619463Y-74704494D01*
X65698815Y-74801185D01*
X65795506Y-74880537D01*
X65905820Y-74939502D01*
X66025518Y-74975812D01*
X66150000Y-74988072D01*
X66714250Y-74985000D01*
X66873000Y-74826250D01*
X66873000Y-73627000D01*
X67127000Y-73627000D01*
X67127000Y-74826250D01*
X67285750Y-74985000D01*
X67850000Y-74988072D01*
X67974482Y-74975812D01*
X68094180Y-74939502D01*
X68204494Y-74880537D01*
X68301185Y-74801185D01*
X68380537Y-74704494D01*
X68439502Y-74594180D01*
X68475812Y-74474482D01*
X68488072Y-74350000D01*
X68485388Y-73856890D01*
X87558524Y-73856890D01*
X87603175Y-74004099D01*
X87728359Y-74266920D01*
X87902412Y-74500269D01*
X88118645Y-74695178D01*
X88368748Y-74844157D01*
X88643109Y-74941481D01*
X88873000Y-74820814D01*
X88873000Y-73627000D01*
X89127000Y-73627000D01*
X89127000Y-74820814D01*
X89356891Y-74941481D01*
X89631252Y-74844157D01*
X89881355Y-74695178D01*
X90097588Y-74500269D01*
X90209672Y-74350000D01*
X104511928Y-74350000D01*
X104524188Y-74474482D01*
X104560498Y-74594180D01*
X104619463Y-74704494D01*
X104698815Y-74801185D01*
X104795506Y-74880537D01*
X104905820Y-74939502D01*
X105025518Y-74975812D01*
X105150000Y-74988072D01*
X105714250Y-74985000D01*
X105873000Y-74826250D01*
X105873000Y-73627000D01*
X106127000Y-73627000D01*
X106127000Y-74826250D01*
X106285750Y-74985000D01*
X106850000Y-74988072D01*
X106974482Y-74975812D01*
X107094180Y-74939502D01*
X107204494Y-74880537D01*
X107301185Y-74801185D01*
X107380537Y-74704494D01*
X107439502Y-74594180D01*
X107475812Y-74474482D01*
X107488072Y-74350000D01*
X107485000Y-73785750D01*
X107326250Y-73627000D01*
X106127000Y-73627000D01*
X105873000Y-73627000D01*
X104673750Y-73627000D01*
X104515000Y-73785750D01*
X104511928Y-74350000D01*
X90209672Y-74350000D01*
X90271641Y-74266920D01*
X90396825Y-74004099D01*
X90441476Y-73856890D01*
X90320155Y-73627000D01*
X89127000Y-73627000D01*
X88873000Y-73627000D01*
X87679845Y-73627000D01*
X87558524Y-73856890D01*
X68485388Y-73856890D01*
X68485000Y-73785750D01*
X68326250Y-73627000D01*
X67127000Y-73627000D01*
X66873000Y-73627000D01*
X65673750Y-73627000D01*
X65515000Y-73785750D01*
X65511928Y-74350000D01*
X13660000Y-74350000D01*
X13660000Y-72650000D01*
X65511928Y-72650000D01*
X65515000Y-73214250D01*
X65673750Y-73373000D01*
X66873000Y-73373000D01*
X66873000Y-73353000D01*
X67127000Y-73353000D01*
X67127000Y-73373000D01*
X68326250Y-73373000D01*
X68485000Y-73214250D01*
X68488072Y-72650000D01*
X68475812Y-72525518D01*
X68439502Y-72405820D01*
X68380537Y-72295506D01*
X68301185Y-72198815D01*
X68204494Y-72119463D01*
X68094180Y-72060498D01*
X68021620Y-72038487D01*
X68153475Y-71906632D01*
X68315990Y-71663411D01*
X68427932Y-71393158D01*
X68485000Y-71106260D01*
X68485000Y-70813740D01*
X68427932Y-70526842D01*
X68315990Y-70256589D01*
X68218043Y-70110000D01*
X87511928Y-70110000D01*
X87511928Y-71810000D01*
X87524188Y-71934482D01*
X87560498Y-72054180D01*
X87619463Y-72164494D01*
X87698815Y-72261185D01*
X87795506Y-72340537D01*
X87905820Y-72399502D01*
X87986466Y-72423966D01*
X87902412Y-72499731D01*
X87728359Y-72733080D01*
X87603175Y-72995901D01*
X87558524Y-73143110D01*
X87679845Y-73373000D01*
X88873000Y-73373000D01*
X88873000Y-73353000D01*
X89127000Y-73353000D01*
X89127000Y-73373000D01*
X90320155Y-73373000D01*
X90441476Y-73143110D01*
X90396825Y-72995901D01*
X90271641Y-72733080D01*
X90209673Y-72650000D01*
X104511928Y-72650000D01*
X104515000Y-73214250D01*
X104673750Y-73373000D01*
X105873000Y-73373000D01*
X105873000Y-73353000D01*
X106127000Y-73353000D01*
X106127000Y-73373000D01*
X107326250Y-73373000D01*
X107485000Y-73214250D01*
X107488072Y-72650000D01*
X107475812Y-72525518D01*
X107439502Y-72405820D01*
X107380537Y-72295506D01*
X107301185Y-72198815D01*
X107204494Y-72119463D01*
X107094180Y-72060498D01*
X107021620Y-72038487D01*
X107153475Y-71906632D01*
X107315990Y-71663411D01*
X107427932Y-71393158D01*
X107485000Y-71106260D01*
X107485000Y-70813740D01*
X107427932Y-70526842D01*
X107315990Y-70256589D01*
X107153475Y-70013368D01*
X106946632Y-69806525D01*
X106703411Y-69644010D01*
X106433158Y-69532068D01*
X106146260Y-69475000D01*
X105853740Y-69475000D01*
X105566842Y-69532068D01*
X105296589Y-69644010D01*
X105053368Y-69806525D01*
X104846525Y-70013368D01*
X104684010Y-70256589D01*
X104572068Y-70526842D01*
X104515000Y-70813740D01*
X104515000Y-71106260D01*
X104572068Y-71393158D01*
X104684010Y-71663411D01*
X104846525Y-71906632D01*
X104978380Y-72038487D01*
X104905820Y-72060498D01*
X104795506Y-72119463D01*
X104698815Y-72198815D01*
X104619463Y-72295506D01*
X104560498Y-72405820D01*
X104524188Y-72525518D01*
X104511928Y-72650000D01*
X90209673Y-72650000D01*
X90097588Y-72499731D01*
X90013534Y-72423966D01*
X90094180Y-72399502D01*
X90204494Y-72340537D01*
X90301185Y-72261185D01*
X90380537Y-72164494D01*
X90439502Y-72054180D01*
X90475812Y-71934482D01*
X90488072Y-71810000D01*
X90488072Y-70110000D01*
X90475812Y-69985518D01*
X90439502Y-69865820D01*
X90380537Y-69755506D01*
X90301185Y-69658815D01*
X90204494Y-69579463D01*
X90094180Y-69520498D01*
X89974482Y-69484188D01*
X89850000Y-69471928D01*
X88150000Y-69471928D01*
X88025518Y-69484188D01*
X87905820Y-69520498D01*
X87795506Y-69579463D01*
X87698815Y-69658815D01*
X87619463Y-69755506D01*
X87560498Y-69865820D01*
X87524188Y-69985518D01*
X87511928Y-70110000D01*
X68218043Y-70110000D01*
X68153475Y-70013368D01*
X67946632Y-69806525D01*
X67703411Y-69644010D01*
X67433158Y-69532068D01*
X67146260Y-69475000D01*
X66853740Y-69475000D01*
X66566842Y-69532068D01*
X66296589Y-69644010D01*
X66053368Y-69806525D01*
X65846525Y-70013368D01*
X65684010Y-70256589D01*
X65572068Y-70526842D01*
X65515000Y-70813740D01*
X65515000Y-71106260D01*
X65572068Y-71393158D01*
X65684010Y-71663411D01*
X65846525Y-71906632D01*
X65978380Y-72038487D01*
X65905820Y-72060498D01*
X65795506Y-72119463D01*
X65698815Y-72198815D01*
X65619463Y-72295506D01*
X65560498Y-72405820D01*
X65524188Y-72525518D01*
X65511928Y-72650000D01*
X13660000Y-72650000D01*
X13660000Y-61356890D01*
X18558524Y-61356890D01*
X18603175Y-61504099D01*
X18728359Y-61766920D01*
X18902412Y-62000269D01*
X19118645Y-62195178D01*
X19368748Y-62344157D01*
X19643109Y-62441481D01*
X19873000Y-62320814D01*
X19873000Y-61127000D01*
X20127000Y-61127000D01*
X20127000Y-62320814D01*
X20356891Y-62441481D01*
X20631252Y-62344157D01*
X20881355Y-62195178D01*
X21097588Y-62000269D01*
X21209672Y-61850000D01*
X35511928Y-61850000D01*
X35524188Y-61974482D01*
X35560498Y-62094180D01*
X35619463Y-62204494D01*
X35698815Y-62301185D01*
X35795506Y-62380537D01*
X35905820Y-62439502D01*
X36025518Y-62475812D01*
X36150000Y-62488072D01*
X36714250Y-62485000D01*
X36873000Y-62326250D01*
X36873000Y-61127000D01*
X37127000Y-61127000D01*
X37127000Y-62326250D01*
X37285750Y-62485000D01*
X37850000Y-62488072D01*
X37974482Y-62475812D01*
X38094180Y-62439502D01*
X38204494Y-62380537D01*
X38301185Y-62301185D01*
X38380537Y-62204494D01*
X38439502Y-62094180D01*
X38475812Y-61974482D01*
X38488072Y-61850000D01*
X38485606Y-61396890D01*
X48578524Y-61396890D01*
X48623175Y-61544099D01*
X48748359Y-61806920D01*
X48922412Y-62040269D01*
X49138645Y-62235178D01*
X49388748Y-62384157D01*
X49663109Y-62481481D01*
X49893000Y-62360814D01*
X49893000Y-61167000D01*
X50147000Y-61167000D01*
X50147000Y-62360814D01*
X50376891Y-62481481D01*
X50651252Y-62384157D01*
X50901355Y-62235178D01*
X51117588Y-62040269D01*
X51259508Y-61850000D01*
X65511928Y-61850000D01*
X65524188Y-61974482D01*
X65560498Y-62094180D01*
X65619463Y-62204494D01*
X65698815Y-62301185D01*
X65795506Y-62380537D01*
X65905820Y-62439502D01*
X66025518Y-62475812D01*
X66150000Y-62488072D01*
X66714250Y-62485000D01*
X66873000Y-62326250D01*
X66873000Y-61127000D01*
X67127000Y-61127000D01*
X67127000Y-62326250D01*
X67285750Y-62485000D01*
X67850000Y-62488072D01*
X67974482Y-62475812D01*
X68094180Y-62439502D01*
X68204494Y-62380537D01*
X68301185Y-62301185D01*
X68380537Y-62204494D01*
X68439502Y-62094180D01*
X68475812Y-61974482D01*
X68488072Y-61850000D01*
X68485000Y-61285750D01*
X68326250Y-61127000D01*
X67127000Y-61127000D01*
X66873000Y-61127000D01*
X65673750Y-61127000D01*
X65515000Y-61285750D01*
X65511928Y-61850000D01*
X51259508Y-61850000D01*
X51291641Y-61806920D01*
X51416825Y-61544099D01*
X51461476Y-61396890D01*
X51340155Y-61167000D01*
X50147000Y-61167000D01*
X49893000Y-61167000D01*
X48699845Y-61167000D01*
X48578524Y-61396890D01*
X38485606Y-61396890D01*
X38485000Y-61285750D01*
X38326250Y-61127000D01*
X37127000Y-61127000D01*
X36873000Y-61127000D01*
X35673750Y-61127000D01*
X35515000Y-61285750D01*
X35511928Y-61850000D01*
X21209672Y-61850000D01*
X21271641Y-61766920D01*
X21396825Y-61504099D01*
X21441476Y-61356890D01*
X21320155Y-61127000D01*
X20127000Y-61127000D01*
X19873000Y-61127000D01*
X18679845Y-61127000D01*
X18558524Y-61356890D01*
X13660000Y-61356890D01*
X13660000Y-57610000D01*
X18511928Y-57610000D01*
X18511928Y-59310000D01*
X18524188Y-59434482D01*
X18560498Y-59554180D01*
X18619463Y-59664494D01*
X18698815Y-59761185D01*
X18795506Y-59840537D01*
X18905820Y-59899502D01*
X18986466Y-59923966D01*
X18902412Y-59999731D01*
X18728359Y-60233080D01*
X18603175Y-60495901D01*
X18558524Y-60643110D01*
X18679845Y-60873000D01*
X19873000Y-60873000D01*
X19873000Y-60853000D01*
X20127000Y-60853000D01*
X20127000Y-60873000D01*
X21320155Y-60873000D01*
X21441476Y-60643110D01*
X21396825Y-60495901D01*
X21271641Y-60233080D01*
X21209673Y-60150000D01*
X35511928Y-60150000D01*
X35515000Y-60714250D01*
X35673750Y-60873000D01*
X36873000Y-60873000D01*
X36873000Y-60853000D01*
X37127000Y-60853000D01*
X37127000Y-60873000D01*
X38326250Y-60873000D01*
X38485000Y-60714250D01*
X38488072Y-60150000D01*
X38475812Y-60025518D01*
X38439502Y-59905820D01*
X38380537Y-59795506D01*
X38301185Y-59698815D01*
X38204494Y-59619463D01*
X38094180Y-59560498D01*
X38021620Y-59538487D01*
X38153475Y-59406632D01*
X38315990Y-59163411D01*
X38427932Y-58893158D01*
X38485000Y-58606260D01*
X38485000Y-58313740D01*
X38427932Y-58026842D01*
X38315990Y-57756589D01*
X38244770Y-57650000D01*
X48531928Y-57650000D01*
X48531928Y-59350000D01*
X48544188Y-59474482D01*
X48580498Y-59594180D01*
X48639463Y-59704494D01*
X48718815Y-59801185D01*
X48815506Y-59880537D01*
X48925820Y-59939502D01*
X49006466Y-59963966D01*
X48922412Y-60039731D01*
X48748359Y-60273080D01*
X48623175Y-60535901D01*
X48578524Y-60683110D01*
X48699845Y-60913000D01*
X49893000Y-60913000D01*
X49893000Y-60893000D01*
X50147000Y-60893000D01*
X50147000Y-60913000D01*
X51340155Y-60913000D01*
X51461476Y-60683110D01*
X51416825Y-60535901D01*
X51291641Y-60273080D01*
X51199837Y-60150000D01*
X65511928Y-60150000D01*
X65515000Y-60714250D01*
X65673750Y-60873000D01*
X66873000Y-60873000D01*
X66873000Y-60853000D01*
X67127000Y-60853000D01*
X67127000Y-60873000D01*
X68326250Y-60873000D01*
X68485000Y-60714250D01*
X68488072Y-60150000D01*
X68475812Y-60025518D01*
X68439502Y-59905820D01*
X68380537Y-59795506D01*
X68301185Y-59698815D01*
X68204494Y-59619463D01*
X68094180Y-59560498D01*
X68021620Y-59538487D01*
X68153475Y-59406632D01*
X68315990Y-59163411D01*
X68427932Y-58893158D01*
X68485000Y-58606260D01*
X68485000Y-58313740D01*
X68427932Y-58026842D01*
X68315990Y-57756589D01*
X68153475Y-57513368D01*
X67946632Y-57306525D01*
X67703411Y-57144010D01*
X67433158Y-57032068D01*
X67146260Y-56975000D01*
X66853740Y-56975000D01*
X66566842Y-57032068D01*
X66296589Y-57144010D01*
X66053368Y-57306525D01*
X65846525Y-57513368D01*
X65684010Y-57756589D01*
X65572068Y-58026842D01*
X65515000Y-58313740D01*
X65515000Y-58606260D01*
X65572068Y-58893158D01*
X65684010Y-59163411D01*
X65846525Y-59406632D01*
X65978380Y-59538487D01*
X65905820Y-59560498D01*
X65795506Y-59619463D01*
X65698815Y-59698815D01*
X65619463Y-59795506D01*
X65560498Y-59905820D01*
X65524188Y-60025518D01*
X65511928Y-60150000D01*
X51199837Y-60150000D01*
X51117588Y-60039731D01*
X51033534Y-59963966D01*
X51114180Y-59939502D01*
X51224494Y-59880537D01*
X51321185Y-59801185D01*
X51400537Y-59704494D01*
X51459502Y-59594180D01*
X51495812Y-59474482D01*
X51508072Y-59350000D01*
X51508072Y-57650000D01*
X51495812Y-57525518D01*
X51459502Y-57405820D01*
X51400537Y-57295506D01*
X51321185Y-57198815D01*
X51224494Y-57119463D01*
X51114180Y-57060498D01*
X50994482Y-57024188D01*
X50870000Y-57011928D01*
X49170000Y-57011928D01*
X49045518Y-57024188D01*
X48925820Y-57060498D01*
X48815506Y-57119463D01*
X48718815Y-57198815D01*
X48639463Y-57295506D01*
X48580498Y-57405820D01*
X48544188Y-57525518D01*
X48531928Y-57650000D01*
X38244770Y-57650000D01*
X38153475Y-57513368D01*
X37946632Y-57306525D01*
X37703411Y-57144010D01*
X37433158Y-57032068D01*
X37146260Y-56975000D01*
X36853740Y-56975000D01*
X36566842Y-57032068D01*
X36296589Y-57144010D01*
X36053368Y-57306525D01*
X35846525Y-57513368D01*
X35684010Y-57756589D01*
X35572068Y-58026842D01*
X35515000Y-58313740D01*
X35515000Y-58606260D01*
X35572068Y-58893158D01*
X35684010Y-59163411D01*
X35846525Y-59406632D01*
X35978380Y-59538487D01*
X35905820Y-59560498D01*
X35795506Y-59619463D01*
X35698815Y-59698815D01*
X35619463Y-59795506D01*
X35560498Y-59905820D01*
X35524188Y-60025518D01*
X35511928Y-60150000D01*
X21209673Y-60150000D01*
X21097588Y-59999731D01*
X21013534Y-59923966D01*
X21094180Y-59899502D01*
X21204494Y-59840537D01*
X21301185Y-59761185D01*
X21380537Y-59664494D01*
X21439502Y-59554180D01*
X21475812Y-59434482D01*
X21488072Y-59310000D01*
X21488072Y-57610000D01*
X21475812Y-57485518D01*
X21439502Y-57365820D01*
X21380537Y-57255506D01*
X21301185Y-57158815D01*
X21204494Y-57079463D01*
X21094180Y-57020498D01*
X20974482Y-56984188D01*
X20850000Y-56971928D01*
X19150000Y-56971928D01*
X19025518Y-56984188D01*
X18905820Y-57020498D01*
X18795506Y-57079463D01*
X18698815Y-57158815D01*
X18619463Y-57255506D01*
X18560498Y-57365820D01*
X18524188Y-57485518D01*
X18511928Y-57610000D01*
X13660000Y-57610000D01*
X13660000Y-41356890D01*
X18558524Y-41356890D01*
X18603175Y-41504099D01*
X18728359Y-41766920D01*
X18902412Y-42000269D01*
X19118645Y-42195178D01*
X19368748Y-42344157D01*
X19643109Y-42441481D01*
X19873000Y-42320814D01*
X19873000Y-41127000D01*
X20127000Y-41127000D01*
X20127000Y-42320814D01*
X20356891Y-42441481D01*
X20631252Y-42344157D01*
X20881355Y-42195178D01*
X21097588Y-42000269D01*
X21209672Y-41850000D01*
X35511928Y-41850000D01*
X35524188Y-41974482D01*
X35560498Y-42094180D01*
X35619463Y-42204494D01*
X35698815Y-42301185D01*
X35795506Y-42380537D01*
X35905820Y-42439502D01*
X36025518Y-42475812D01*
X36150000Y-42488072D01*
X36714250Y-42485000D01*
X36873000Y-42326250D01*
X36873000Y-41127000D01*
X37127000Y-41127000D01*
X37127000Y-42326250D01*
X37285750Y-42485000D01*
X37850000Y-42488072D01*
X37974482Y-42475812D01*
X38094180Y-42439502D01*
X38204494Y-42380537D01*
X38301185Y-42301185D01*
X38380537Y-42204494D01*
X38439502Y-42094180D01*
X38475812Y-41974482D01*
X38488072Y-41850000D01*
X38485388Y-41356890D01*
X48558524Y-41356890D01*
X48603175Y-41504099D01*
X48728359Y-41766920D01*
X48902412Y-42000269D01*
X49118645Y-42195178D01*
X49368748Y-42344157D01*
X49643109Y-42441481D01*
X49873000Y-42320814D01*
X49873000Y-41127000D01*
X50127000Y-41127000D01*
X50127000Y-42320814D01*
X50356891Y-42441481D01*
X50631252Y-42344157D01*
X50881355Y-42195178D01*
X51097588Y-42000269D01*
X51209672Y-41850000D01*
X65511928Y-41850000D01*
X65524188Y-41974482D01*
X65560498Y-42094180D01*
X65619463Y-42204494D01*
X65698815Y-42301185D01*
X65795506Y-42380537D01*
X65905820Y-42439502D01*
X66025518Y-42475812D01*
X66150000Y-42488072D01*
X66714250Y-42485000D01*
X66873000Y-42326250D01*
X66873000Y-41127000D01*
X67127000Y-41127000D01*
X67127000Y-42326250D01*
X67285750Y-42485000D01*
X67850000Y-42488072D01*
X67974482Y-42475812D01*
X68094180Y-42439502D01*
X68204494Y-42380537D01*
X68301185Y-42301185D01*
X68380537Y-42204494D01*
X68439502Y-42094180D01*
X68475812Y-41974482D01*
X68488072Y-41850000D01*
X68485388Y-41356890D01*
X84558524Y-41356890D01*
X84603175Y-41504099D01*
X84728359Y-41766920D01*
X84902412Y-42000269D01*
X85118645Y-42195178D01*
X85368748Y-42344157D01*
X85643109Y-42441481D01*
X85873000Y-42320814D01*
X85873000Y-41127000D01*
X86127000Y-41127000D01*
X86127000Y-42320814D01*
X86356891Y-42441481D01*
X86631252Y-42344157D01*
X86881355Y-42195178D01*
X87097588Y-42000269D01*
X87209672Y-41850000D01*
X104511928Y-41850000D01*
X104524188Y-41974482D01*
X104560498Y-42094180D01*
X104619463Y-42204494D01*
X104698815Y-42301185D01*
X104795506Y-42380537D01*
X104905820Y-42439502D01*
X105025518Y-42475812D01*
X105150000Y-42488072D01*
X105714250Y-42485000D01*
X105873000Y-42326250D01*
X105873000Y-41127000D01*
X106127000Y-41127000D01*
X106127000Y-42326250D01*
X106285750Y-42485000D01*
X106850000Y-42488072D01*
X106974482Y-42475812D01*
X107094180Y-42439502D01*
X107204494Y-42380537D01*
X107301185Y-42301185D01*
X107380537Y-42204494D01*
X107439502Y-42094180D01*
X107475812Y-41974482D01*
X107488072Y-41850000D01*
X107485000Y-41285750D01*
X107326250Y-41127000D01*
X106127000Y-41127000D01*
X105873000Y-41127000D01*
X104673750Y-41127000D01*
X104515000Y-41285750D01*
X104511928Y-41850000D01*
X87209672Y-41850000D01*
X87271641Y-41766920D01*
X87396825Y-41504099D01*
X87441476Y-41356890D01*
X87320155Y-41127000D01*
X86127000Y-41127000D01*
X85873000Y-41127000D01*
X84679845Y-41127000D01*
X84558524Y-41356890D01*
X68485388Y-41356890D01*
X68485000Y-41285750D01*
X68326250Y-41127000D01*
X67127000Y-41127000D01*
X66873000Y-41127000D01*
X65673750Y-41127000D01*
X65515000Y-41285750D01*
X65511928Y-41850000D01*
X51209672Y-41850000D01*
X51271641Y-41766920D01*
X51396825Y-41504099D01*
X51441476Y-41356890D01*
X51320155Y-41127000D01*
X50127000Y-41127000D01*
X49873000Y-41127000D01*
X48679845Y-41127000D01*
X48558524Y-41356890D01*
X38485388Y-41356890D01*
X38485000Y-41285750D01*
X38326250Y-41127000D01*
X37127000Y-41127000D01*
X36873000Y-41127000D01*
X35673750Y-41127000D01*
X35515000Y-41285750D01*
X35511928Y-41850000D01*
X21209672Y-41850000D01*
X21271641Y-41766920D01*
X21396825Y-41504099D01*
X21441476Y-41356890D01*
X21320155Y-41127000D01*
X20127000Y-41127000D01*
X19873000Y-41127000D01*
X18679845Y-41127000D01*
X18558524Y-41356890D01*
X13660000Y-41356890D01*
X13660000Y-37610000D01*
X18511928Y-37610000D01*
X18511928Y-39310000D01*
X18524188Y-39434482D01*
X18560498Y-39554180D01*
X18619463Y-39664494D01*
X18698815Y-39761185D01*
X18795506Y-39840537D01*
X18905820Y-39899502D01*
X18986466Y-39923966D01*
X18902412Y-39999731D01*
X18728359Y-40233080D01*
X18603175Y-40495901D01*
X18558524Y-40643110D01*
X18679845Y-40873000D01*
X19873000Y-40873000D01*
X19873000Y-40853000D01*
X20127000Y-40853000D01*
X20127000Y-40873000D01*
X21320155Y-40873000D01*
X21441476Y-40643110D01*
X21396825Y-40495901D01*
X21271641Y-40233080D01*
X21209673Y-40150000D01*
X35511928Y-40150000D01*
X35515000Y-40714250D01*
X35673750Y-40873000D01*
X36873000Y-40873000D01*
X36873000Y-40853000D01*
X37127000Y-40853000D01*
X37127000Y-40873000D01*
X38326250Y-40873000D01*
X38485000Y-40714250D01*
X38488072Y-40150000D01*
X38475812Y-40025518D01*
X38439502Y-39905820D01*
X38380537Y-39795506D01*
X38301185Y-39698815D01*
X38204494Y-39619463D01*
X38094180Y-39560498D01*
X38021620Y-39538487D01*
X38153475Y-39406632D01*
X38315990Y-39163411D01*
X38427932Y-38893158D01*
X38485000Y-38606260D01*
X38485000Y-38313740D01*
X38427932Y-38026842D01*
X38315990Y-37756589D01*
X38218043Y-37610000D01*
X48511928Y-37610000D01*
X48511928Y-39310000D01*
X48524188Y-39434482D01*
X48560498Y-39554180D01*
X48619463Y-39664494D01*
X48698815Y-39761185D01*
X48795506Y-39840537D01*
X48905820Y-39899502D01*
X48986466Y-39923966D01*
X48902412Y-39999731D01*
X48728359Y-40233080D01*
X48603175Y-40495901D01*
X48558524Y-40643110D01*
X48679845Y-40873000D01*
X49873000Y-40873000D01*
X49873000Y-40853000D01*
X50127000Y-40853000D01*
X50127000Y-40873000D01*
X51320155Y-40873000D01*
X51441476Y-40643110D01*
X51396825Y-40495901D01*
X51271641Y-40233080D01*
X51209673Y-40150000D01*
X65511928Y-40150000D01*
X65515000Y-40714250D01*
X65673750Y-40873000D01*
X66873000Y-40873000D01*
X66873000Y-40853000D01*
X67127000Y-40853000D01*
X67127000Y-40873000D01*
X68326250Y-40873000D01*
X68485000Y-40714250D01*
X68488072Y-40150000D01*
X68475812Y-40025518D01*
X68439502Y-39905820D01*
X68380537Y-39795506D01*
X68301185Y-39698815D01*
X68204494Y-39619463D01*
X68094180Y-39560498D01*
X68021620Y-39538487D01*
X68153475Y-39406632D01*
X68315990Y-39163411D01*
X68427932Y-38893158D01*
X68485000Y-38606260D01*
X68485000Y-38313740D01*
X68427932Y-38026842D01*
X68315990Y-37756589D01*
X68218043Y-37610000D01*
X84511928Y-37610000D01*
X84511928Y-39310000D01*
X84524188Y-39434482D01*
X84560498Y-39554180D01*
X84619463Y-39664494D01*
X84698815Y-39761185D01*
X84795506Y-39840537D01*
X84905820Y-39899502D01*
X84986466Y-39923966D01*
X84902412Y-39999731D01*
X84728359Y-40233080D01*
X84603175Y-40495901D01*
X84558524Y-40643110D01*
X84679845Y-40873000D01*
X85873000Y-40873000D01*
X85873000Y-40853000D01*
X86127000Y-40853000D01*
X86127000Y-40873000D01*
X87320155Y-40873000D01*
X87441476Y-40643110D01*
X87396825Y-40495901D01*
X87271641Y-40233080D01*
X87209673Y-40150000D01*
X104511928Y-40150000D01*
X104515000Y-40714250D01*
X104673750Y-40873000D01*
X105873000Y-40873000D01*
X105873000Y-40853000D01*
X106127000Y-40853000D01*
X106127000Y-40873000D01*
X107326250Y-40873000D01*
X107485000Y-40714250D01*
X107488072Y-40150000D01*
X107475812Y-40025518D01*
X107439502Y-39905820D01*
X107380537Y-39795506D01*
X107301185Y-39698815D01*
X107204494Y-39619463D01*
X107094180Y-39560498D01*
X107021620Y-39538487D01*
X107153475Y-39406632D01*
X107315990Y-39163411D01*
X107427932Y-38893158D01*
X107485000Y-38606260D01*
X107485000Y-38313740D01*
X107427932Y-38026842D01*
X107315990Y-37756589D01*
X107153475Y-37513368D01*
X106946632Y-37306525D01*
X106703411Y-37144010D01*
X106433158Y-37032068D01*
X106146260Y-36975000D01*
X105853740Y-36975000D01*
X105566842Y-37032068D01*
X105296589Y-37144010D01*
X105053368Y-37306525D01*
X104846525Y-37513368D01*
X104684010Y-37756589D01*
X104572068Y-38026842D01*
X104515000Y-38313740D01*
X104515000Y-38606260D01*
X104572068Y-38893158D01*
X104684010Y-39163411D01*
X104846525Y-39406632D01*
X104978380Y-39538487D01*
X104905820Y-39560498D01*
X104795506Y-39619463D01*
X104698815Y-39698815D01*
X104619463Y-39795506D01*
X104560498Y-39905820D01*
X104524188Y-40025518D01*
X104511928Y-40150000D01*
X87209673Y-40150000D01*
X87097588Y-39999731D01*
X87013534Y-39923966D01*
X87094180Y-39899502D01*
X87204494Y-39840537D01*
X87301185Y-39761185D01*
X87380537Y-39664494D01*
X87439502Y-39554180D01*
X87475812Y-39434482D01*
X87488072Y-39310000D01*
X87488072Y-37610000D01*
X87475812Y-37485518D01*
X87439502Y-37365820D01*
X87380537Y-37255506D01*
X87301185Y-37158815D01*
X87204494Y-37079463D01*
X87094180Y-37020498D01*
X86974482Y-36984188D01*
X86850000Y-36971928D01*
X85150000Y-36971928D01*
X85025518Y-36984188D01*
X84905820Y-37020498D01*
X84795506Y-37079463D01*
X84698815Y-37158815D01*
X84619463Y-37255506D01*
X84560498Y-37365820D01*
X84524188Y-37485518D01*
X84511928Y-37610000D01*
X68218043Y-37610000D01*
X68153475Y-37513368D01*
X67946632Y-37306525D01*
X67703411Y-37144010D01*
X67433158Y-37032068D01*
X67146260Y-36975000D01*
X66853740Y-36975000D01*
X66566842Y-37032068D01*
X66296589Y-37144010D01*
X66053368Y-37306525D01*
X65846525Y-37513368D01*
X65684010Y-37756589D01*
X65572068Y-38026842D01*
X65515000Y-38313740D01*
X65515000Y-38606260D01*
X65572068Y-38893158D01*
X65684010Y-39163411D01*
X65846525Y-39406632D01*
X65978380Y-39538487D01*
X65905820Y-39560498D01*
X65795506Y-39619463D01*
X65698815Y-39698815D01*
X65619463Y-39795506D01*
X65560498Y-39905820D01*
X65524188Y-40025518D01*
X65511928Y-40150000D01*
X51209673Y-40150000D01*
X51097588Y-39999731D01*
X51013534Y-39923966D01*
X51094180Y-39899502D01*
X51204494Y-39840537D01*
X51301185Y-39761185D01*
X51380537Y-39664494D01*
X51439502Y-39554180D01*
X51475812Y-39434482D01*
X51488072Y-39310000D01*
X51488072Y-37610000D01*
X51475812Y-37485518D01*
X51439502Y-37365820D01*
X51380537Y-37255506D01*
X51301185Y-37158815D01*
X51204494Y-37079463D01*
X51094180Y-37020498D01*
X50974482Y-36984188D01*
X50850000Y-36971928D01*
X49150000Y-36971928D01*
X49025518Y-36984188D01*
X48905820Y-37020498D01*
X48795506Y-37079463D01*
X48698815Y-37158815D01*
X48619463Y-37255506D01*
X48560498Y-37365820D01*
X48524188Y-37485518D01*
X48511928Y-37610000D01*
X38218043Y-37610000D01*
X38153475Y-37513368D01*
X37946632Y-37306525D01*
X37703411Y-37144010D01*
X37433158Y-37032068D01*
X37146260Y-36975000D01*
X36853740Y-36975000D01*
X36566842Y-37032068D01*
X36296589Y-37144010D01*
X36053368Y-37306525D01*
X35846525Y-37513368D01*
X35684010Y-37756589D01*
X35572068Y-38026842D01*
X35515000Y-38313740D01*
X35515000Y-38606260D01*
X35572068Y-38893158D01*
X35684010Y-39163411D01*
X35846525Y-39406632D01*
X35978380Y-39538487D01*
X35905820Y-39560498D01*
X35795506Y-39619463D01*
X35698815Y-39698815D01*
X35619463Y-39795506D01*
X35560498Y-39905820D01*
X35524188Y-40025518D01*
X35511928Y-40150000D01*
X21209673Y-40150000D01*
X21097588Y-39999731D01*
X21013534Y-39923966D01*
X21094180Y-39899502D01*
X21204494Y-39840537D01*
X21301185Y-39761185D01*
X21380537Y-39664494D01*
X21439502Y-39554180D01*
X21475812Y-39434482D01*
X21488072Y-39310000D01*
X21488072Y-37610000D01*
X21475812Y-37485518D01*
X21439502Y-37365820D01*
X21380537Y-37255506D01*
X21301185Y-37158815D01*
X21204494Y-37079463D01*
X21094180Y-37020498D01*
X20974482Y-36984188D01*
X20850000Y-36971928D01*
X19150000Y-36971928D01*
X19025518Y-36984188D01*
X18905820Y-37020498D01*
X18795506Y-37079463D01*
X18698815Y-37158815D01*
X18619463Y-37255506D01*
X18560498Y-37365820D01*
X18524188Y-37485518D01*
X18511928Y-37610000D01*
X13660000Y-37610000D01*
X13660000Y-28398061D01*
X79465000Y-28398061D01*
X79465000Y-28601939D01*
X79504774Y-28801898D01*
X79582795Y-28990256D01*
X79696063Y-29159774D01*
X79765000Y-29228711D01*
X79765001Y-32771288D01*
X79696063Y-32840226D01*
X79582795Y-33009744D01*
X79504774Y-33198102D01*
X79465000Y-33398061D01*
X79465000Y-33601939D01*
X79504774Y-33801898D01*
X79582795Y-33990256D01*
X79696063Y-34159774D01*
X79840226Y-34303937D01*
X80009744Y-34417205D01*
X80198102Y-34495226D01*
X80398061Y-34535000D01*
X80601939Y-34535000D01*
X80801898Y-34495226D01*
X80990256Y-34417205D01*
X81159774Y-34303937D01*
X81303937Y-34159774D01*
X81417205Y-33990256D01*
X81495226Y-33801898D01*
X81535000Y-33601939D01*
X81535000Y-33398061D01*
X81495226Y-33198102D01*
X81417205Y-33009744D01*
X81303937Y-32840226D01*
X81235000Y-32771289D01*
X81235000Y-29228711D01*
X81303937Y-29159774D01*
X81417205Y-28990256D01*
X81495226Y-28801898D01*
X81535000Y-28601939D01*
X81535000Y-28398061D01*
X81495226Y-28198102D01*
X81417205Y-28009744D01*
X81303937Y-27840226D01*
X81159774Y-27696063D01*
X80990256Y-27582795D01*
X80801898Y-27504774D01*
X80601939Y-27465000D01*
X80398061Y-27465000D01*
X80198102Y-27504774D01*
X80009744Y-27582795D01*
X79840226Y-27696063D01*
X79696063Y-27840226D01*
X79582795Y-28009744D01*
X79504774Y-28198102D01*
X79465000Y-28398061D01*
X13660000Y-28398061D01*
X13660000Y-22896890D01*
X18558524Y-22896890D01*
X18603175Y-23044099D01*
X18728359Y-23306920D01*
X18902412Y-23540269D01*
X19118645Y-23735178D01*
X19368748Y-23884157D01*
X19643109Y-23981481D01*
X19873000Y-23860814D01*
X19873000Y-22667000D01*
X20127000Y-22667000D01*
X20127000Y-23860814D01*
X20356891Y-23981481D01*
X20631252Y-23884157D01*
X20881355Y-23735178D01*
X21097588Y-23540269D01*
X21271641Y-23306920D01*
X21396825Y-23044099D01*
X21441476Y-22896890D01*
X21320155Y-22667000D01*
X20127000Y-22667000D01*
X19873000Y-22667000D01*
X18679845Y-22667000D01*
X18558524Y-22896890D01*
X13660000Y-22896890D01*
X13660000Y-19150000D01*
X18511928Y-19150000D01*
X18511928Y-20850000D01*
X18524188Y-20974482D01*
X18560498Y-21094180D01*
X18619463Y-21204494D01*
X18698815Y-21301185D01*
X18795506Y-21380537D01*
X18905820Y-21439502D01*
X18986466Y-21463966D01*
X18902412Y-21539731D01*
X18728359Y-21773080D01*
X18603175Y-22035901D01*
X18558524Y-22183110D01*
X18679845Y-22413000D01*
X19873000Y-22413000D01*
X19873000Y-22393000D01*
X20127000Y-22393000D01*
X20127000Y-22413000D01*
X21320155Y-22413000D01*
X21441476Y-22183110D01*
X21396825Y-22035901D01*
X21271641Y-21773080D01*
X21097588Y-21539731D01*
X21013534Y-21463966D01*
X21094180Y-21439502D01*
X21204494Y-21380537D01*
X21301185Y-21301185D01*
X21380537Y-21204494D01*
X21439502Y-21094180D01*
X21475812Y-20974482D01*
X21488072Y-20850000D01*
X21488072Y-19150000D01*
X21475812Y-19025518D01*
X21439502Y-18905820D01*
X21380537Y-18795506D01*
X21301185Y-18698815D01*
X21204494Y-18619463D01*
X21094180Y-18560498D01*
X20974482Y-18524188D01*
X20850000Y-18511928D01*
X19150000Y-18511928D01*
X19025518Y-18524188D01*
X18905820Y-18560498D01*
X18795506Y-18619463D01*
X18698815Y-18698815D01*
X18619463Y-18795506D01*
X18560498Y-18905820D01*
X18524188Y-19025518D01*
X18511928Y-19150000D01*
X13660000Y-19150000D01*
X13660000Y-13660000D01*
X109840001Y-13660000D01*
X109840000Y-87340000D01*
G37*
X109840000Y-87340000D02*
X13660000Y-87340000D01*
X13660000Y-81396890D01*
X18558524Y-81396890D01*
X18603175Y-81544099D01*
X18728359Y-81806920D01*
X18902412Y-82040269D01*
X19118645Y-82235178D01*
X19368748Y-82384157D01*
X19643109Y-82481481D01*
X19873000Y-82360814D01*
X19873000Y-81167000D01*
X20127000Y-81167000D01*
X20127000Y-82360814D01*
X20356891Y-82481481D01*
X20631252Y-82384157D01*
X20881355Y-82235178D01*
X21097588Y-82040269D01*
X21239508Y-81850000D01*
X35511928Y-81850000D01*
X35524188Y-81974482D01*
X35560498Y-82094180D01*
X35619463Y-82204494D01*
X35698815Y-82301185D01*
X35795506Y-82380537D01*
X35905820Y-82439502D01*
X36025518Y-82475812D01*
X36150000Y-82488072D01*
X36714250Y-82485000D01*
X36873000Y-82326250D01*
X36873000Y-81127000D01*
X37127000Y-81127000D01*
X37127000Y-82326250D01*
X37285750Y-82485000D01*
X37850000Y-82488072D01*
X37974482Y-82475812D01*
X38094180Y-82439502D01*
X38204494Y-82380537D01*
X38301185Y-82301185D01*
X38380537Y-82204494D01*
X38439502Y-82094180D01*
X38475812Y-81974482D01*
X38488072Y-81850000D01*
X38485388Y-81356890D01*
X48558524Y-81356890D01*
X48603175Y-81504099D01*
X48728359Y-81766920D01*
X48902412Y-82000269D01*
X49118645Y-82195178D01*
X49368748Y-82344157D01*
X49643109Y-82441481D01*
X49873000Y-82320814D01*
X49873000Y-81127000D01*
X50127000Y-81127000D01*
X50127000Y-82320814D01*
X50356891Y-82441481D01*
X50631252Y-82344157D01*
X50881355Y-82195178D01*
X51097588Y-82000269D01*
X51271641Y-81766920D01*
X51396825Y-81504099D01*
X51441476Y-81356890D01*
X51320155Y-81127000D01*
X50127000Y-81127000D01*
X49873000Y-81127000D01*
X48679845Y-81127000D01*
X48558524Y-81356890D01*
X38485388Y-81356890D01*
X38485000Y-81285750D01*
X38326250Y-81127000D01*
X37127000Y-81127000D01*
X36873000Y-81127000D01*
X35673750Y-81127000D01*
X35515000Y-81285750D01*
X35511928Y-81850000D01*
X21239508Y-81850000D01*
X21271641Y-81806920D01*
X21396825Y-81544099D01*
X21441476Y-81396890D01*
X21320155Y-81167000D01*
X20127000Y-81167000D01*
X19873000Y-81167000D01*
X18679845Y-81167000D01*
X18558524Y-81396890D01*
X13660000Y-81396890D01*
X13660000Y-77650000D01*
X18511928Y-77650000D01*
X18511928Y-79350000D01*
X18524188Y-79474482D01*
X18560498Y-79594180D01*
X18619463Y-79704494D01*
X18698815Y-79801185D01*
X18795506Y-79880537D01*
X18905820Y-79939502D01*
X18986466Y-79963966D01*
X18902412Y-80039731D01*
X18728359Y-80273080D01*
X18603175Y-80535901D01*
X18558524Y-80683110D01*
X18679845Y-80913000D01*
X19873000Y-80913000D01*
X19873000Y-80893000D01*
X20127000Y-80893000D01*
X20127000Y-80913000D01*
X21320155Y-80913000D01*
X21441476Y-80683110D01*
X21396825Y-80535901D01*
X21271641Y-80273080D01*
X21179837Y-80150000D01*
X35511928Y-80150000D01*
X35515000Y-80714250D01*
X35673750Y-80873000D01*
X36873000Y-80873000D01*
X36873000Y-80853000D01*
X37127000Y-80853000D01*
X37127000Y-80873000D01*
X38326250Y-80873000D01*
X38485000Y-80714250D01*
X38488072Y-80150000D01*
X38475812Y-80025518D01*
X38439502Y-79905820D01*
X38380537Y-79795506D01*
X38301185Y-79698815D01*
X38204494Y-79619463D01*
X38094180Y-79560498D01*
X38021620Y-79538487D01*
X38153475Y-79406632D01*
X38315990Y-79163411D01*
X38427932Y-78893158D01*
X38485000Y-78606260D01*
X38485000Y-78313740D01*
X38427932Y-78026842D01*
X38315990Y-77756589D01*
X38218043Y-77610000D01*
X48511928Y-77610000D01*
X48511928Y-79310000D01*
X48524188Y-79434482D01*
X48560498Y-79554180D01*
X48619463Y-79664494D01*
X48698815Y-79761185D01*
X48795506Y-79840537D01*
X48905820Y-79899502D01*
X48986466Y-79923966D01*
X48902412Y-79999731D01*
X48728359Y-80233080D01*
X48603175Y-80495901D01*
X48558524Y-80643110D01*
X48679845Y-80873000D01*
X49873000Y-80873000D01*
X49873000Y-80853000D01*
X50127000Y-80853000D01*
X50127000Y-80873000D01*
X51320155Y-80873000D01*
X51441476Y-80643110D01*
X51396825Y-80495901D01*
X51271641Y-80233080D01*
X51097588Y-79999731D01*
X51013534Y-79923966D01*
X51094180Y-79899502D01*
X51204494Y-79840537D01*
X51301185Y-79761185D01*
X51380537Y-79664494D01*
X51439502Y-79554180D01*
X51475812Y-79434482D01*
X51488072Y-79310000D01*
X65511928Y-79310000D01*
X65524188Y-79434482D01*
X65560498Y-79554180D01*
X65619463Y-79664494D01*
X65698815Y-79761185D01*
X65795506Y-79840537D01*
X65905820Y-79899502D01*
X65978380Y-79921513D01*
X65846525Y-80053368D01*
X65684010Y-80296589D01*
X65572068Y-80566842D01*
X65515000Y-80853740D01*
X65515000Y-81146260D01*
X65572068Y-81433158D01*
X65684010Y-81703411D01*
X65846525Y-81946632D01*
X66053368Y-82153475D01*
X66296589Y-82315990D01*
X66566842Y-82427932D01*
X66853740Y-82485000D01*
X67146260Y-82485000D01*
X67433158Y-82427932D01*
X67703411Y-82315990D01*
X67946632Y-82153475D01*
X68153475Y-81946632D01*
X68315990Y-81703411D01*
X68427932Y-81433158D01*
X68485000Y-81146260D01*
X68485000Y-80853740D01*
X68427932Y-80566842D01*
X68315990Y-80296589D01*
X68153475Y-80053368D01*
X68021620Y-79921513D01*
X68094180Y-79899502D01*
X68204494Y-79840537D01*
X68301185Y-79761185D01*
X68380537Y-79664494D01*
X68439502Y-79554180D01*
X68475812Y-79434482D01*
X68488072Y-79310000D01*
X68485000Y-78745750D01*
X68326250Y-78587000D01*
X67127000Y-78587000D01*
X67127000Y-78607000D01*
X66873000Y-78607000D01*
X66873000Y-78587000D01*
X65673750Y-78587000D01*
X65515000Y-78745750D01*
X65511928Y-79310000D01*
X51488072Y-79310000D01*
X51488072Y-77610000D01*
X65511928Y-77610000D01*
X65515000Y-78174250D01*
X65673750Y-78333000D01*
X66873000Y-78333000D01*
X66873000Y-77133750D01*
X67127000Y-77133750D01*
X67127000Y-78333000D01*
X68326250Y-78333000D01*
X68485000Y-78174250D01*
X68488072Y-77610000D01*
X68475812Y-77485518D01*
X68439502Y-77365820D01*
X68380537Y-77255506D01*
X68301185Y-77158815D01*
X68204494Y-77079463D01*
X68094180Y-77020498D01*
X67974482Y-76984188D01*
X67850000Y-76971928D01*
X67285750Y-76975000D01*
X67127000Y-77133750D01*
X66873000Y-77133750D01*
X66714250Y-76975000D01*
X66150000Y-76971928D01*
X66025518Y-76984188D01*
X65905820Y-77020498D01*
X65795506Y-77079463D01*
X65698815Y-77158815D01*
X65619463Y-77255506D01*
X65560498Y-77365820D01*
X65524188Y-77485518D01*
X65511928Y-77610000D01*
X51488072Y-77610000D01*
X51475812Y-77485518D01*
X51439502Y-77365820D01*
X51380537Y-77255506D01*
X51301185Y-77158815D01*
X51204494Y-77079463D01*
X51094180Y-77020498D01*
X50974482Y-76984188D01*
X50850000Y-76971928D01*
X49150000Y-76971928D01*
X49025518Y-76984188D01*
X48905820Y-77020498D01*
X48795506Y-77079463D01*
X48698815Y-77158815D01*
X48619463Y-77255506D01*
X48560498Y-77365820D01*
X48524188Y-77485518D01*
X48511928Y-77610000D01*
X38218043Y-77610000D01*
X38153475Y-77513368D01*
X37946632Y-77306525D01*
X37703411Y-77144010D01*
X37433158Y-77032068D01*
X37146260Y-76975000D01*
X36853740Y-76975000D01*
X36566842Y-77032068D01*
X36296589Y-77144010D01*
X36053368Y-77306525D01*
X35846525Y-77513368D01*
X35684010Y-77756589D01*
X35572068Y-78026842D01*
X35515000Y-78313740D01*
X35515000Y-78606260D01*
X35572068Y-78893158D01*
X35684010Y-79163411D01*
X35846525Y-79406632D01*
X35978380Y-79538487D01*
X35905820Y-79560498D01*
X35795506Y-79619463D01*
X35698815Y-79698815D01*
X35619463Y-79795506D01*
X35560498Y-79905820D01*
X35524188Y-80025518D01*
X35511928Y-80150000D01*
X21179837Y-80150000D01*
X21097588Y-80039731D01*
X21013534Y-79963966D01*
X21094180Y-79939502D01*
X21204494Y-79880537D01*
X21301185Y-79801185D01*
X21380537Y-79704494D01*
X21439502Y-79594180D01*
X21475812Y-79474482D01*
X21488072Y-79350000D01*
X21488072Y-77650000D01*
X21475812Y-77525518D01*
X21439502Y-77405820D01*
X21380537Y-77295506D01*
X21301185Y-77198815D01*
X21204494Y-77119463D01*
X21094180Y-77060498D01*
X20974482Y-77024188D01*
X20850000Y-77011928D01*
X19150000Y-77011928D01*
X19025518Y-77024188D01*
X18905820Y-77060498D01*
X18795506Y-77119463D01*
X18698815Y-77198815D01*
X18619463Y-77295506D01*
X18560498Y-77405820D01*
X18524188Y-77525518D01*
X18511928Y-77650000D01*
X13660000Y-77650000D01*
X13660000Y-74350000D01*
X65511928Y-74350000D01*
X65524188Y-74474482D01*
X65560498Y-74594180D01*
X65619463Y-74704494D01*
X65698815Y-74801185D01*
X65795506Y-74880537D01*
X65905820Y-74939502D01*
X66025518Y-74975812D01*
X66150000Y-74988072D01*
X66714250Y-74985000D01*
X66873000Y-74826250D01*
X66873000Y-73627000D01*
X67127000Y-73627000D01*
X67127000Y-74826250D01*
X67285750Y-74985000D01*
X67850000Y-74988072D01*
X67974482Y-74975812D01*
X68094180Y-74939502D01*
X68204494Y-74880537D01*
X68301185Y-74801185D01*
X68380537Y-74704494D01*
X68439502Y-74594180D01*
X68475812Y-74474482D01*
X68488072Y-74350000D01*
X68485388Y-73856890D01*
X87558524Y-73856890D01*
X87603175Y-74004099D01*
X87728359Y-74266920D01*
X87902412Y-74500269D01*
X88118645Y-74695178D01*
X88368748Y-74844157D01*
X88643109Y-74941481D01*
X88873000Y-74820814D01*
X88873000Y-73627000D01*
X89127000Y-73627000D01*
X89127000Y-74820814D01*
X89356891Y-74941481D01*
X89631252Y-74844157D01*
X89881355Y-74695178D01*
X90097588Y-74500269D01*
X90209672Y-74350000D01*
X104511928Y-74350000D01*
X104524188Y-74474482D01*
X104560498Y-74594180D01*
X104619463Y-74704494D01*
X104698815Y-74801185D01*
X104795506Y-74880537D01*
X104905820Y-74939502D01*
X105025518Y-74975812D01*
X105150000Y-74988072D01*
X105714250Y-74985000D01*
X105873000Y-74826250D01*
X105873000Y-73627000D01*
X106127000Y-73627000D01*
X106127000Y-74826250D01*
X106285750Y-74985000D01*
X106850000Y-74988072D01*
X106974482Y-74975812D01*
X107094180Y-74939502D01*
X107204494Y-74880537D01*
X107301185Y-74801185D01*
X107380537Y-74704494D01*
X107439502Y-74594180D01*
X107475812Y-74474482D01*
X107488072Y-74350000D01*
X107485000Y-73785750D01*
X107326250Y-73627000D01*
X106127000Y-73627000D01*
X105873000Y-73627000D01*
X104673750Y-73627000D01*
X104515000Y-73785750D01*
X104511928Y-74350000D01*
X90209672Y-74350000D01*
X90271641Y-74266920D01*
X90396825Y-74004099D01*
X90441476Y-73856890D01*
X90320155Y-73627000D01*
X89127000Y-73627000D01*
X88873000Y-73627000D01*
X87679845Y-73627000D01*
X87558524Y-73856890D01*
X68485388Y-73856890D01*
X68485000Y-73785750D01*
X68326250Y-73627000D01*
X67127000Y-73627000D01*
X66873000Y-73627000D01*
X65673750Y-73627000D01*
X65515000Y-73785750D01*
X65511928Y-74350000D01*
X13660000Y-74350000D01*
X13660000Y-72650000D01*
X65511928Y-72650000D01*
X65515000Y-73214250D01*
X65673750Y-73373000D01*
X66873000Y-73373000D01*
X66873000Y-73353000D01*
X67127000Y-73353000D01*
X67127000Y-73373000D01*
X68326250Y-73373000D01*
X68485000Y-73214250D01*
X68488072Y-72650000D01*
X68475812Y-72525518D01*
X68439502Y-72405820D01*
X68380537Y-72295506D01*
X68301185Y-72198815D01*
X68204494Y-72119463D01*
X68094180Y-72060498D01*
X68021620Y-72038487D01*
X68153475Y-71906632D01*
X68315990Y-71663411D01*
X68427932Y-71393158D01*
X68485000Y-71106260D01*
X68485000Y-70813740D01*
X68427932Y-70526842D01*
X68315990Y-70256589D01*
X68218043Y-70110000D01*
X87511928Y-70110000D01*
X87511928Y-71810000D01*
X87524188Y-71934482D01*
X87560498Y-72054180D01*
X87619463Y-72164494D01*
X87698815Y-72261185D01*
X87795506Y-72340537D01*
X87905820Y-72399502D01*
X87986466Y-72423966D01*
X87902412Y-72499731D01*
X87728359Y-72733080D01*
X87603175Y-72995901D01*
X87558524Y-73143110D01*
X87679845Y-73373000D01*
X88873000Y-73373000D01*
X88873000Y-73353000D01*
X89127000Y-73353000D01*
X89127000Y-73373000D01*
X90320155Y-73373000D01*
X90441476Y-73143110D01*
X90396825Y-72995901D01*
X90271641Y-72733080D01*
X90209673Y-72650000D01*
X104511928Y-72650000D01*
X104515000Y-73214250D01*
X104673750Y-73373000D01*
X105873000Y-73373000D01*
X105873000Y-73353000D01*
X106127000Y-73353000D01*
X106127000Y-73373000D01*
X107326250Y-73373000D01*
X107485000Y-73214250D01*
X107488072Y-72650000D01*
X107475812Y-72525518D01*
X107439502Y-72405820D01*
X107380537Y-72295506D01*
X107301185Y-72198815D01*
X107204494Y-72119463D01*
X107094180Y-72060498D01*
X107021620Y-72038487D01*
X107153475Y-71906632D01*
X107315990Y-71663411D01*
X107427932Y-71393158D01*
X107485000Y-71106260D01*
X107485000Y-70813740D01*
X107427932Y-70526842D01*
X107315990Y-70256589D01*
X107153475Y-70013368D01*
X106946632Y-69806525D01*
X106703411Y-69644010D01*
X106433158Y-69532068D01*
X106146260Y-69475000D01*
X105853740Y-69475000D01*
X105566842Y-69532068D01*
X105296589Y-69644010D01*
X105053368Y-69806525D01*
X104846525Y-70013368D01*
X104684010Y-70256589D01*
X104572068Y-70526842D01*
X104515000Y-70813740D01*
X104515000Y-71106260D01*
X104572068Y-71393158D01*
X104684010Y-71663411D01*
X104846525Y-71906632D01*
X104978380Y-72038487D01*
X104905820Y-72060498D01*
X104795506Y-72119463D01*
X104698815Y-72198815D01*
X104619463Y-72295506D01*
X104560498Y-72405820D01*
X104524188Y-72525518D01*
X104511928Y-72650000D01*
X90209673Y-72650000D01*
X90097588Y-72499731D01*
X90013534Y-72423966D01*
X90094180Y-72399502D01*
X90204494Y-72340537D01*
X90301185Y-72261185D01*
X90380537Y-72164494D01*
X90439502Y-72054180D01*
X90475812Y-71934482D01*
X90488072Y-71810000D01*
X90488072Y-70110000D01*
X90475812Y-69985518D01*
X90439502Y-69865820D01*
X90380537Y-69755506D01*
X90301185Y-69658815D01*
X90204494Y-69579463D01*
X90094180Y-69520498D01*
X89974482Y-69484188D01*
X89850000Y-69471928D01*
X88150000Y-69471928D01*
X88025518Y-69484188D01*
X87905820Y-69520498D01*
X87795506Y-69579463D01*
X87698815Y-69658815D01*
X87619463Y-69755506D01*
X87560498Y-69865820D01*
X87524188Y-69985518D01*
X87511928Y-70110000D01*
X68218043Y-70110000D01*
X68153475Y-70013368D01*
X67946632Y-69806525D01*
X67703411Y-69644010D01*
X67433158Y-69532068D01*
X67146260Y-69475000D01*
X66853740Y-69475000D01*
X66566842Y-69532068D01*
X66296589Y-69644010D01*
X66053368Y-69806525D01*
X65846525Y-70013368D01*
X65684010Y-70256589D01*
X65572068Y-70526842D01*
X65515000Y-70813740D01*
X65515000Y-71106260D01*
X65572068Y-71393158D01*
X65684010Y-71663411D01*
X65846525Y-71906632D01*
X65978380Y-72038487D01*
X65905820Y-72060498D01*
X65795506Y-72119463D01*
X65698815Y-72198815D01*
X65619463Y-72295506D01*
X65560498Y-72405820D01*
X65524188Y-72525518D01*
X65511928Y-72650000D01*
X13660000Y-72650000D01*
X13660000Y-61356890D01*
X18558524Y-61356890D01*
X18603175Y-61504099D01*
X18728359Y-61766920D01*
X18902412Y-62000269D01*
X19118645Y-62195178D01*
X19368748Y-62344157D01*
X19643109Y-62441481D01*
X19873000Y-62320814D01*
X19873000Y-61127000D01*
X20127000Y-61127000D01*
X20127000Y-62320814D01*
X20356891Y-62441481D01*
X20631252Y-62344157D01*
X20881355Y-62195178D01*
X21097588Y-62000269D01*
X21209672Y-61850000D01*
X35511928Y-61850000D01*
X35524188Y-61974482D01*
X35560498Y-62094180D01*
X35619463Y-62204494D01*
X35698815Y-62301185D01*
X35795506Y-62380537D01*
X35905820Y-62439502D01*
X36025518Y-62475812D01*
X36150000Y-62488072D01*
X36714250Y-62485000D01*
X36873000Y-62326250D01*
X36873000Y-61127000D01*
X37127000Y-61127000D01*
X37127000Y-62326250D01*
X37285750Y-62485000D01*
X37850000Y-62488072D01*
X37974482Y-62475812D01*
X38094180Y-62439502D01*
X38204494Y-62380537D01*
X38301185Y-62301185D01*
X38380537Y-62204494D01*
X38439502Y-62094180D01*
X38475812Y-61974482D01*
X38488072Y-61850000D01*
X38485606Y-61396890D01*
X48578524Y-61396890D01*
X48623175Y-61544099D01*
X48748359Y-61806920D01*
X48922412Y-62040269D01*
X49138645Y-62235178D01*
X49388748Y-62384157D01*
X49663109Y-62481481D01*
X49893000Y-62360814D01*
X49893000Y-61167000D01*
X50147000Y-61167000D01*
X50147000Y-62360814D01*
X50376891Y-62481481D01*
X50651252Y-62384157D01*
X50901355Y-62235178D01*
X51117588Y-62040269D01*
X51259508Y-61850000D01*
X65511928Y-61850000D01*
X65524188Y-61974482D01*
X65560498Y-62094180D01*
X65619463Y-62204494D01*
X65698815Y-62301185D01*
X65795506Y-62380537D01*
X65905820Y-62439502D01*
X66025518Y-62475812D01*
X66150000Y-62488072D01*
X66714250Y-62485000D01*
X66873000Y-62326250D01*
X66873000Y-61127000D01*
X67127000Y-61127000D01*
X67127000Y-62326250D01*
X67285750Y-62485000D01*
X67850000Y-62488072D01*
X67974482Y-62475812D01*
X68094180Y-62439502D01*
X68204494Y-62380537D01*
X68301185Y-62301185D01*
X68380537Y-62204494D01*
X68439502Y-62094180D01*
X68475812Y-61974482D01*
X68488072Y-61850000D01*
X68485000Y-61285750D01*
X68326250Y-61127000D01*
X67127000Y-61127000D01*
X66873000Y-61127000D01*
X65673750Y-61127000D01*
X65515000Y-61285750D01*
X65511928Y-61850000D01*
X51259508Y-61850000D01*
X51291641Y-61806920D01*
X51416825Y-61544099D01*
X51461476Y-61396890D01*
X51340155Y-61167000D01*
X50147000Y-61167000D01*
X49893000Y-61167000D01*
X48699845Y-61167000D01*
X48578524Y-61396890D01*
X38485606Y-61396890D01*
X38485000Y-61285750D01*
X38326250Y-61127000D01*
X37127000Y-61127000D01*
X36873000Y-61127000D01*
X35673750Y-61127000D01*
X35515000Y-61285750D01*
X35511928Y-61850000D01*
X21209672Y-61850000D01*
X21271641Y-61766920D01*
X21396825Y-61504099D01*
X21441476Y-61356890D01*
X21320155Y-61127000D01*
X20127000Y-61127000D01*
X19873000Y-61127000D01*
X18679845Y-61127000D01*
X18558524Y-61356890D01*
X13660000Y-61356890D01*
X13660000Y-57610000D01*
X18511928Y-57610000D01*
X18511928Y-59310000D01*
X18524188Y-59434482D01*
X18560498Y-59554180D01*
X18619463Y-59664494D01*
X18698815Y-59761185D01*
X18795506Y-59840537D01*
X18905820Y-59899502D01*
X18986466Y-59923966D01*
X18902412Y-59999731D01*
X18728359Y-60233080D01*
X18603175Y-60495901D01*
X18558524Y-60643110D01*
X18679845Y-60873000D01*
X19873000Y-60873000D01*
X19873000Y-60853000D01*
X20127000Y-60853000D01*
X20127000Y-60873000D01*
X21320155Y-60873000D01*
X21441476Y-60643110D01*
X21396825Y-60495901D01*
X21271641Y-60233080D01*
X21209673Y-60150000D01*
X35511928Y-60150000D01*
X35515000Y-60714250D01*
X35673750Y-60873000D01*
X36873000Y-60873000D01*
X36873000Y-60853000D01*
X37127000Y-60853000D01*
X37127000Y-60873000D01*
X38326250Y-60873000D01*
X38485000Y-60714250D01*
X38488072Y-60150000D01*
X38475812Y-60025518D01*
X38439502Y-59905820D01*
X38380537Y-59795506D01*
X38301185Y-59698815D01*
X38204494Y-59619463D01*
X38094180Y-59560498D01*
X38021620Y-59538487D01*
X38153475Y-59406632D01*
X38315990Y-59163411D01*
X38427932Y-58893158D01*
X38485000Y-58606260D01*
X38485000Y-58313740D01*
X38427932Y-58026842D01*
X38315990Y-57756589D01*
X38244770Y-57650000D01*
X48531928Y-57650000D01*
X48531928Y-59350000D01*
X48544188Y-59474482D01*
X48580498Y-59594180D01*
X48639463Y-59704494D01*
X48718815Y-59801185D01*
X48815506Y-59880537D01*
X48925820Y-59939502D01*
X49006466Y-59963966D01*
X48922412Y-60039731D01*
X48748359Y-60273080D01*
X48623175Y-60535901D01*
X48578524Y-60683110D01*
X48699845Y-60913000D01*
X49893000Y-60913000D01*
X49893000Y-60893000D01*
X50147000Y-60893000D01*
X50147000Y-60913000D01*
X51340155Y-60913000D01*
X51461476Y-60683110D01*
X51416825Y-60535901D01*
X51291641Y-60273080D01*
X51199837Y-60150000D01*
X65511928Y-60150000D01*
X65515000Y-60714250D01*
X65673750Y-60873000D01*
X66873000Y-60873000D01*
X66873000Y-60853000D01*
X67127000Y-60853000D01*
X67127000Y-60873000D01*
X68326250Y-60873000D01*
X68485000Y-60714250D01*
X68488072Y-60150000D01*
X68475812Y-60025518D01*
X68439502Y-59905820D01*
X68380537Y-59795506D01*
X68301185Y-59698815D01*
X68204494Y-59619463D01*
X68094180Y-59560498D01*
X68021620Y-59538487D01*
X68153475Y-59406632D01*
X68315990Y-59163411D01*
X68427932Y-58893158D01*
X68485000Y-58606260D01*
X68485000Y-58313740D01*
X68427932Y-58026842D01*
X68315990Y-57756589D01*
X68153475Y-57513368D01*
X67946632Y-57306525D01*
X67703411Y-57144010D01*
X67433158Y-57032068D01*
X67146260Y-56975000D01*
X66853740Y-56975000D01*
X66566842Y-57032068D01*
X66296589Y-57144010D01*
X66053368Y-57306525D01*
X65846525Y-57513368D01*
X65684010Y-57756589D01*
X65572068Y-58026842D01*
X65515000Y-58313740D01*
X65515000Y-58606260D01*
X65572068Y-58893158D01*
X65684010Y-59163411D01*
X65846525Y-59406632D01*
X65978380Y-59538487D01*
X65905820Y-59560498D01*
X65795506Y-59619463D01*
X65698815Y-59698815D01*
X65619463Y-59795506D01*
X65560498Y-59905820D01*
X65524188Y-60025518D01*
X65511928Y-60150000D01*
X51199837Y-60150000D01*
X51117588Y-60039731D01*
X51033534Y-59963966D01*
X51114180Y-59939502D01*
X51224494Y-59880537D01*
X51321185Y-59801185D01*
X51400537Y-59704494D01*
X51459502Y-59594180D01*
X51495812Y-59474482D01*
X51508072Y-59350000D01*
X51508072Y-57650000D01*
X51495812Y-57525518D01*
X51459502Y-57405820D01*
X51400537Y-57295506D01*
X51321185Y-57198815D01*
X51224494Y-57119463D01*
X51114180Y-57060498D01*
X50994482Y-57024188D01*
X50870000Y-57011928D01*
X49170000Y-57011928D01*
X49045518Y-57024188D01*
X48925820Y-57060498D01*
X48815506Y-57119463D01*
X48718815Y-57198815D01*
X48639463Y-57295506D01*
X48580498Y-57405820D01*
X48544188Y-57525518D01*
X48531928Y-57650000D01*
X38244770Y-57650000D01*
X38153475Y-57513368D01*
X37946632Y-57306525D01*
X37703411Y-57144010D01*
X37433158Y-57032068D01*
X37146260Y-56975000D01*
X36853740Y-56975000D01*
X36566842Y-57032068D01*
X36296589Y-57144010D01*
X36053368Y-57306525D01*
X35846525Y-57513368D01*
X35684010Y-57756589D01*
X35572068Y-58026842D01*
X35515000Y-58313740D01*
X35515000Y-58606260D01*
X35572068Y-58893158D01*
X35684010Y-59163411D01*
X35846525Y-59406632D01*
X35978380Y-59538487D01*
X35905820Y-59560498D01*
X35795506Y-59619463D01*
X35698815Y-59698815D01*
X35619463Y-59795506D01*
X35560498Y-59905820D01*
X35524188Y-60025518D01*
X35511928Y-60150000D01*
X21209673Y-60150000D01*
X21097588Y-59999731D01*
X21013534Y-59923966D01*
X21094180Y-59899502D01*
X21204494Y-59840537D01*
X21301185Y-59761185D01*
X21380537Y-59664494D01*
X21439502Y-59554180D01*
X21475812Y-59434482D01*
X21488072Y-59310000D01*
X21488072Y-57610000D01*
X21475812Y-57485518D01*
X21439502Y-57365820D01*
X21380537Y-57255506D01*
X21301185Y-57158815D01*
X21204494Y-57079463D01*
X21094180Y-57020498D01*
X20974482Y-56984188D01*
X20850000Y-56971928D01*
X19150000Y-56971928D01*
X19025518Y-56984188D01*
X18905820Y-57020498D01*
X18795506Y-57079463D01*
X18698815Y-57158815D01*
X18619463Y-57255506D01*
X18560498Y-57365820D01*
X18524188Y-57485518D01*
X18511928Y-57610000D01*
X13660000Y-57610000D01*
X13660000Y-41356890D01*
X18558524Y-41356890D01*
X18603175Y-41504099D01*
X18728359Y-41766920D01*
X18902412Y-42000269D01*
X19118645Y-42195178D01*
X19368748Y-42344157D01*
X19643109Y-42441481D01*
X19873000Y-42320814D01*
X19873000Y-41127000D01*
X20127000Y-41127000D01*
X20127000Y-42320814D01*
X20356891Y-42441481D01*
X20631252Y-42344157D01*
X20881355Y-42195178D01*
X21097588Y-42000269D01*
X21209672Y-41850000D01*
X35511928Y-41850000D01*
X35524188Y-41974482D01*
X35560498Y-42094180D01*
X35619463Y-42204494D01*
X35698815Y-42301185D01*
X35795506Y-42380537D01*
X35905820Y-42439502D01*
X36025518Y-42475812D01*
X36150000Y-42488072D01*
X36714250Y-42485000D01*
X36873000Y-42326250D01*
X36873000Y-41127000D01*
X37127000Y-41127000D01*
X37127000Y-42326250D01*
X37285750Y-42485000D01*
X37850000Y-42488072D01*
X37974482Y-42475812D01*
X38094180Y-42439502D01*
X38204494Y-42380537D01*
X38301185Y-42301185D01*
X38380537Y-42204494D01*
X38439502Y-42094180D01*
X38475812Y-41974482D01*
X38488072Y-41850000D01*
X38485388Y-41356890D01*
X48558524Y-41356890D01*
X48603175Y-41504099D01*
X48728359Y-41766920D01*
X48902412Y-42000269D01*
X49118645Y-42195178D01*
X49368748Y-42344157D01*
X49643109Y-42441481D01*
X49873000Y-42320814D01*
X49873000Y-41127000D01*
X50127000Y-41127000D01*
X50127000Y-42320814D01*
X50356891Y-42441481D01*
X50631252Y-42344157D01*
X50881355Y-42195178D01*
X51097588Y-42000269D01*
X51209672Y-41850000D01*
X65511928Y-41850000D01*
X65524188Y-41974482D01*
X65560498Y-42094180D01*
X65619463Y-42204494D01*
X65698815Y-42301185D01*
X65795506Y-42380537D01*
X65905820Y-42439502D01*
X66025518Y-42475812D01*
X66150000Y-42488072D01*
X66714250Y-42485000D01*
X66873000Y-42326250D01*
X66873000Y-41127000D01*
X67127000Y-41127000D01*
X67127000Y-42326250D01*
X67285750Y-42485000D01*
X67850000Y-42488072D01*
X67974482Y-42475812D01*
X68094180Y-42439502D01*
X68204494Y-42380537D01*
X68301185Y-42301185D01*
X68380537Y-42204494D01*
X68439502Y-42094180D01*
X68475812Y-41974482D01*
X68488072Y-41850000D01*
X68485388Y-41356890D01*
X84558524Y-41356890D01*
X84603175Y-41504099D01*
X84728359Y-41766920D01*
X84902412Y-42000269D01*
X85118645Y-42195178D01*
X85368748Y-42344157D01*
X85643109Y-42441481D01*
X85873000Y-42320814D01*
X85873000Y-41127000D01*
X86127000Y-41127000D01*
X86127000Y-42320814D01*
X86356891Y-42441481D01*
X86631252Y-42344157D01*
X86881355Y-42195178D01*
X87097588Y-42000269D01*
X87209672Y-41850000D01*
X104511928Y-41850000D01*
X104524188Y-41974482D01*
X104560498Y-42094180D01*
X104619463Y-42204494D01*
X104698815Y-42301185D01*
X104795506Y-42380537D01*
X104905820Y-42439502D01*
X105025518Y-42475812D01*
X105150000Y-42488072D01*
X105714250Y-42485000D01*
X105873000Y-42326250D01*
X105873000Y-41127000D01*
X106127000Y-41127000D01*
X106127000Y-42326250D01*
X106285750Y-42485000D01*
X106850000Y-42488072D01*
X106974482Y-42475812D01*
X107094180Y-42439502D01*
X107204494Y-42380537D01*
X107301185Y-42301185D01*
X107380537Y-42204494D01*
X107439502Y-42094180D01*
X107475812Y-41974482D01*
X107488072Y-41850000D01*
X107485000Y-41285750D01*
X107326250Y-41127000D01*
X106127000Y-41127000D01*
X105873000Y-41127000D01*
X104673750Y-41127000D01*
X104515000Y-41285750D01*
X104511928Y-41850000D01*
X87209672Y-41850000D01*
X87271641Y-41766920D01*
X87396825Y-41504099D01*
X87441476Y-41356890D01*
X87320155Y-41127000D01*
X86127000Y-41127000D01*
X85873000Y-41127000D01*
X84679845Y-41127000D01*
X84558524Y-41356890D01*
X68485388Y-41356890D01*
X68485000Y-41285750D01*
X68326250Y-41127000D01*
X67127000Y-41127000D01*
X66873000Y-41127000D01*
X65673750Y-41127000D01*
X65515000Y-41285750D01*
X65511928Y-41850000D01*
X51209672Y-41850000D01*
X51271641Y-41766920D01*
X51396825Y-41504099D01*
X51441476Y-41356890D01*
X51320155Y-41127000D01*
X50127000Y-41127000D01*
X49873000Y-41127000D01*
X48679845Y-41127000D01*
X48558524Y-41356890D01*
X38485388Y-41356890D01*
X38485000Y-41285750D01*
X38326250Y-41127000D01*
X37127000Y-41127000D01*
X36873000Y-41127000D01*
X35673750Y-41127000D01*
X35515000Y-41285750D01*
X35511928Y-41850000D01*
X21209672Y-41850000D01*
X21271641Y-41766920D01*
X21396825Y-41504099D01*
X21441476Y-41356890D01*
X21320155Y-41127000D01*
X20127000Y-41127000D01*
X19873000Y-41127000D01*
X18679845Y-41127000D01*
X18558524Y-41356890D01*
X13660000Y-41356890D01*
X13660000Y-37610000D01*
X18511928Y-37610000D01*
X18511928Y-39310000D01*
X18524188Y-39434482D01*
X18560498Y-39554180D01*
X18619463Y-39664494D01*
X18698815Y-39761185D01*
X18795506Y-39840537D01*
X18905820Y-39899502D01*
X18986466Y-39923966D01*
X18902412Y-39999731D01*
X18728359Y-40233080D01*
X18603175Y-40495901D01*
X18558524Y-40643110D01*
X18679845Y-40873000D01*
X19873000Y-40873000D01*
X19873000Y-40853000D01*
X20127000Y-40853000D01*
X20127000Y-40873000D01*
X21320155Y-40873000D01*
X21441476Y-40643110D01*
X21396825Y-40495901D01*
X21271641Y-40233080D01*
X21209673Y-40150000D01*
X35511928Y-40150000D01*
X35515000Y-40714250D01*
X35673750Y-40873000D01*
X36873000Y-40873000D01*
X36873000Y-40853000D01*
X37127000Y-40853000D01*
X37127000Y-40873000D01*
X38326250Y-40873000D01*
X38485000Y-40714250D01*
X38488072Y-40150000D01*
X38475812Y-40025518D01*
X38439502Y-39905820D01*
X38380537Y-39795506D01*
X38301185Y-39698815D01*
X38204494Y-39619463D01*
X38094180Y-39560498D01*
X38021620Y-39538487D01*
X38153475Y-39406632D01*
X38315990Y-39163411D01*
X38427932Y-38893158D01*
X38485000Y-38606260D01*
X38485000Y-38313740D01*
X38427932Y-38026842D01*
X38315990Y-37756589D01*
X38218043Y-37610000D01*
X48511928Y-37610000D01*
X48511928Y-39310000D01*
X48524188Y-39434482D01*
X48560498Y-39554180D01*
X48619463Y-39664494D01*
X48698815Y-39761185D01*
X48795506Y-39840537D01*
X48905820Y-39899502D01*
X48986466Y-39923966D01*
X48902412Y-39999731D01*
X48728359Y-40233080D01*
X48603175Y-40495901D01*
X48558524Y-40643110D01*
X48679845Y-40873000D01*
X49873000Y-40873000D01*
X49873000Y-40853000D01*
X50127000Y-40853000D01*
X50127000Y-40873000D01*
X51320155Y-40873000D01*
X51441476Y-40643110D01*
X51396825Y-40495901D01*
X51271641Y-40233080D01*
X51209673Y-40150000D01*
X65511928Y-40150000D01*
X65515000Y-40714250D01*
X65673750Y-40873000D01*
X66873000Y-40873000D01*
X66873000Y-40853000D01*
X67127000Y-40853000D01*
X67127000Y-40873000D01*
X68326250Y-40873000D01*
X68485000Y-40714250D01*
X68488072Y-40150000D01*
X68475812Y-40025518D01*
X68439502Y-39905820D01*
X68380537Y-39795506D01*
X68301185Y-39698815D01*
X68204494Y-39619463D01*
X68094180Y-39560498D01*
X68021620Y-39538487D01*
X68153475Y-39406632D01*
X68315990Y-39163411D01*
X68427932Y-38893158D01*
X68485000Y-38606260D01*
X68485000Y-38313740D01*
X68427932Y-38026842D01*
X68315990Y-37756589D01*
X68218043Y-37610000D01*
X84511928Y-37610000D01*
X84511928Y-39310000D01*
X84524188Y-39434482D01*
X84560498Y-39554180D01*
X84619463Y-39664494D01*
X84698815Y-39761185D01*
X84795506Y-39840537D01*
X84905820Y-39899502D01*
X84986466Y-39923966D01*
X84902412Y-39999731D01*
X84728359Y-40233080D01*
X84603175Y-40495901D01*
X84558524Y-40643110D01*
X84679845Y-40873000D01*
X85873000Y-40873000D01*
X85873000Y-40853000D01*
X86127000Y-40853000D01*
X86127000Y-40873000D01*
X87320155Y-40873000D01*
X87441476Y-40643110D01*
X87396825Y-40495901D01*
X87271641Y-40233080D01*
X87209673Y-40150000D01*
X104511928Y-40150000D01*
X104515000Y-40714250D01*
X104673750Y-40873000D01*
X105873000Y-40873000D01*
X105873000Y-40853000D01*
X106127000Y-40853000D01*
X106127000Y-40873000D01*
X107326250Y-40873000D01*
X107485000Y-40714250D01*
X107488072Y-40150000D01*
X107475812Y-40025518D01*
X107439502Y-39905820D01*
X107380537Y-39795506D01*
X107301185Y-39698815D01*
X107204494Y-39619463D01*
X107094180Y-39560498D01*
X107021620Y-39538487D01*
X107153475Y-39406632D01*
X107315990Y-39163411D01*
X107427932Y-38893158D01*
X107485000Y-38606260D01*
X107485000Y-38313740D01*
X107427932Y-38026842D01*
X107315990Y-37756589D01*
X107153475Y-37513368D01*
X106946632Y-37306525D01*
X106703411Y-37144010D01*
X106433158Y-37032068D01*
X106146260Y-36975000D01*
X105853740Y-36975000D01*
X105566842Y-37032068D01*
X105296589Y-37144010D01*
X105053368Y-37306525D01*
X104846525Y-37513368D01*
X104684010Y-37756589D01*
X104572068Y-38026842D01*
X104515000Y-38313740D01*
X104515000Y-38606260D01*
X104572068Y-38893158D01*
X104684010Y-39163411D01*
X104846525Y-39406632D01*
X104978380Y-39538487D01*
X104905820Y-39560498D01*
X104795506Y-39619463D01*
X104698815Y-39698815D01*
X104619463Y-39795506D01*
X104560498Y-39905820D01*
X104524188Y-40025518D01*
X104511928Y-40150000D01*
X87209673Y-40150000D01*
X87097588Y-39999731D01*
X87013534Y-39923966D01*
X87094180Y-39899502D01*
X87204494Y-39840537D01*
X87301185Y-39761185D01*
X87380537Y-39664494D01*
X87439502Y-39554180D01*
X87475812Y-39434482D01*
X87488072Y-39310000D01*
X87488072Y-37610000D01*
X87475812Y-37485518D01*
X87439502Y-37365820D01*
X87380537Y-37255506D01*
X87301185Y-37158815D01*
X87204494Y-37079463D01*
X87094180Y-37020498D01*
X86974482Y-36984188D01*
X86850000Y-36971928D01*
X85150000Y-36971928D01*
X85025518Y-36984188D01*
X84905820Y-37020498D01*
X84795506Y-37079463D01*
X84698815Y-37158815D01*
X84619463Y-37255506D01*
X84560498Y-37365820D01*
X84524188Y-37485518D01*
X84511928Y-37610000D01*
X68218043Y-37610000D01*
X68153475Y-37513368D01*
X67946632Y-37306525D01*
X67703411Y-37144010D01*
X67433158Y-37032068D01*
X67146260Y-36975000D01*
X66853740Y-36975000D01*
X66566842Y-37032068D01*
X66296589Y-37144010D01*
X66053368Y-37306525D01*
X65846525Y-37513368D01*
X65684010Y-37756589D01*
X65572068Y-38026842D01*
X65515000Y-38313740D01*
X65515000Y-38606260D01*
X65572068Y-38893158D01*
X65684010Y-39163411D01*
X65846525Y-39406632D01*
X65978380Y-39538487D01*
X65905820Y-39560498D01*
X65795506Y-39619463D01*
X65698815Y-39698815D01*
X65619463Y-39795506D01*
X65560498Y-39905820D01*
X65524188Y-40025518D01*
X65511928Y-40150000D01*
X51209673Y-40150000D01*
X51097588Y-39999731D01*
X51013534Y-39923966D01*
X51094180Y-39899502D01*
X51204494Y-39840537D01*
X51301185Y-39761185D01*
X51380537Y-39664494D01*
X51439502Y-39554180D01*
X51475812Y-39434482D01*
X51488072Y-39310000D01*
X51488072Y-37610000D01*
X51475812Y-37485518D01*
X51439502Y-37365820D01*
X51380537Y-37255506D01*
X51301185Y-37158815D01*
X51204494Y-37079463D01*
X51094180Y-37020498D01*
X50974482Y-36984188D01*
X50850000Y-36971928D01*
X49150000Y-36971928D01*
X49025518Y-36984188D01*
X48905820Y-37020498D01*
X48795506Y-37079463D01*
X48698815Y-37158815D01*
X48619463Y-37255506D01*
X48560498Y-37365820D01*
X48524188Y-37485518D01*
X48511928Y-37610000D01*
X38218043Y-37610000D01*
X38153475Y-37513368D01*
X37946632Y-37306525D01*
X37703411Y-37144010D01*
X37433158Y-37032068D01*
X37146260Y-36975000D01*
X36853740Y-36975000D01*
X36566842Y-37032068D01*
X36296589Y-37144010D01*
X36053368Y-37306525D01*
X35846525Y-37513368D01*
X35684010Y-37756589D01*
X35572068Y-38026842D01*
X35515000Y-38313740D01*
X35515000Y-38606260D01*
X35572068Y-38893158D01*
X35684010Y-39163411D01*
X35846525Y-39406632D01*
X35978380Y-39538487D01*
X35905820Y-39560498D01*
X35795506Y-39619463D01*
X35698815Y-39698815D01*
X35619463Y-39795506D01*
X35560498Y-39905820D01*
X35524188Y-40025518D01*
X35511928Y-40150000D01*
X21209673Y-40150000D01*
X21097588Y-39999731D01*
X21013534Y-39923966D01*
X21094180Y-39899502D01*
X21204494Y-39840537D01*
X21301185Y-39761185D01*
X21380537Y-39664494D01*
X21439502Y-39554180D01*
X21475812Y-39434482D01*
X21488072Y-39310000D01*
X21488072Y-37610000D01*
X21475812Y-37485518D01*
X21439502Y-37365820D01*
X21380537Y-37255506D01*
X21301185Y-37158815D01*
X21204494Y-37079463D01*
X21094180Y-37020498D01*
X20974482Y-36984188D01*
X20850000Y-36971928D01*
X19150000Y-36971928D01*
X19025518Y-36984188D01*
X18905820Y-37020498D01*
X18795506Y-37079463D01*
X18698815Y-37158815D01*
X18619463Y-37255506D01*
X18560498Y-37365820D01*
X18524188Y-37485518D01*
X18511928Y-37610000D01*
X13660000Y-37610000D01*
X13660000Y-28398061D01*
X79465000Y-28398061D01*
X79465000Y-28601939D01*
X79504774Y-28801898D01*
X79582795Y-28990256D01*
X79696063Y-29159774D01*
X79765000Y-29228711D01*
X79765001Y-32771288D01*
X79696063Y-32840226D01*
X79582795Y-33009744D01*
X79504774Y-33198102D01*
X79465000Y-33398061D01*
X79465000Y-33601939D01*
X79504774Y-33801898D01*
X79582795Y-33990256D01*
X79696063Y-34159774D01*
X79840226Y-34303937D01*
X80009744Y-34417205D01*
X80198102Y-34495226D01*
X80398061Y-34535000D01*
X80601939Y-34535000D01*
X80801898Y-34495226D01*
X80990256Y-34417205D01*
X81159774Y-34303937D01*
X81303937Y-34159774D01*
X81417205Y-33990256D01*
X81495226Y-33801898D01*
X81535000Y-33601939D01*
X81535000Y-33398061D01*
X81495226Y-33198102D01*
X81417205Y-33009744D01*
X81303937Y-32840226D01*
X81235000Y-32771289D01*
X81235000Y-29228711D01*
X81303937Y-29159774D01*
X81417205Y-28990256D01*
X81495226Y-28801898D01*
X81535000Y-28601939D01*
X81535000Y-28398061D01*
X81495226Y-28198102D01*
X81417205Y-28009744D01*
X81303937Y-27840226D01*
X81159774Y-27696063D01*
X80990256Y-27582795D01*
X80801898Y-27504774D01*
X80601939Y-27465000D01*
X80398061Y-27465000D01*
X80198102Y-27504774D01*
X80009744Y-27582795D01*
X79840226Y-27696063D01*
X79696063Y-27840226D01*
X79582795Y-28009744D01*
X79504774Y-28198102D01*
X79465000Y-28398061D01*
X13660000Y-28398061D01*
X13660000Y-22896890D01*
X18558524Y-22896890D01*
X18603175Y-23044099D01*
X18728359Y-23306920D01*
X18902412Y-23540269D01*
X19118645Y-23735178D01*
X19368748Y-23884157D01*
X19643109Y-23981481D01*
X19873000Y-23860814D01*
X19873000Y-22667000D01*
X20127000Y-22667000D01*
X20127000Y-23860814D01*
X20356891Y-23981481D01*
X20631252Y-23884157D01*
X20881355Y-23735178D01*
X21097588Y-23540269D01*
X21271641Y-23306920D01*
X21396825Y-23044099D01*
X21441476Y-22896890D01*
X21320155Y-22667000D01*
X20127000Y-22667000D01*
X19873000Y-22667000D01*
X18679845Y-22667000D01*
X18558524Y-22896890D01*
X13660000Y-22896890D01*
X13660000Y-19150000D01*
X18511928Y-19150000D01*
X18511928Y-20850000D01*
X18524188Y-20974482D01*
X18560498Y-21094180D01*
X18619463Y-21204494D01*
X18698815Y-21301185D01*
X18795506Y-21380537D01*
X18905820Y-21439502D01*
X18986466Y-21463966D01*
X18902412Y-21539731D01*
X18728359Y-21773080D01*
X18603175Y-22035901D01*
X18558524Y-22183110D01*
X18679845Y-22413000D01*
X19873000Y-22413000D01*
X19873000Y-22393000D01*
X20127000Y-22393000D01*
X20127000Y-22413000D01*
X21320155Y-22413000D01*
X21441476Y-22183110D01*
X21396825Y-22035901D01*
X21271641Y-21773080D01*
X21097588Y-21539731D01*
X21013534Y-21463966D01*
X21094180Y-21439502D01*
X21204494Y-21380537D01*
X21301185Y-21301185D01*
X21380537Y-21204494D01*
X21439502Y-21094180D01*
X21475812Y-20974482D01*
X21488072Y-20850000D01*
X21488072Y-19150000D01*
X21475812Y-19025518D01*
X21439502Y-18905820D01*
X21380537Y-18795506D01*
X21301185Y-18698815D01*
X21204494Y-18619463D01*
X21094180Y-18560498D01*
X20974482Y-18524188D01*
X20850000Y-18511928D01*
X19150000Y-18511928D01*
X19025518Y-18524188D01*
X18905820Y-18560498D01*
X18795506Y-18619463D01*
X18698815Y-18698815D01*
X18619463Y-18795506D01*
X18560498Y-18905820D01*
X18524188Y-19025518D01*
X18511928Y-19150000D01*
X13660000Y-19150000D01*
X13660000Y-13660000D01*
X109840001Y-13660000D01*
X109840000Y-87340000D01*
%TD*%
M02*
