%TF.GenerationSoftware,KiCad,Pcbnew,(5.1.6)-1*%
%TF.CreationDate,2020-12-18T22:44:25+08:00*%
%TF.ProjectId,_______,2c00e03e-2735-4ef2-9e6b-696361645f70,1.0.1*%
%TF.SameCoordinates,Original*%
%TF.FileFunction,Soldermask,Top*%
%TF.FilePolarity,Negative*%
%FSLAX46Y46*%
G04 Gerber Fmt 4.6, Leading zero omitted, Abs format (unit mm)*
G04 Created by KiCad (PCBNEW (5.1.6)-1) date 2020-12-18 22:44:25*
%MOMM*%
%LPD*%
G01*
G04 APERTURE LIST*
%ADD10O,1.800000X1.800000*%
%ADD11R,1.800000X1.800000*%
%ADD12R,1.000000X0.900000*%
%ADD13R,1.160000X0.750000*%
%ADD14R,2.100000X3.900000*%
%ADD15R,2.100000X1.600000*%
G04 APERTURE END LIST*
%TO.C,C1*%
G36*
G01*
X75762500Y-32575000D02*
X75237500Y-32575000D01*
G75*
G02*
X74975000Y-32312500I0J262500D01*
G01*
X74975000Y-31687500D01*
G75*
G02*
X75237500Y-31425000I262500J0D01*
G01*
X75762500Y-31425000D01*
G75*
G02*
X76025000Y-31687500I0J-262500D01*
G01*
X76025000Y-32312500D01*
G75*
G02*
X75762500Y-32575000I-262500J0D01*
G01*
G37*
G36*
G01*
X75762500Y-30825000D02*
X75237500Y-30825000D01*
G75*
G02*
X74975000Y-30562500I0J262500D01*
G01*
X74975000Y-29937500D01*
G75*
G02*
X75237500Y-29675000I262500J0D01*
G01*
X75762500Y-29675000D01*
G75*
G02*
X76025000Y-29937500I0J-262500D01*
G01*
X76025000Y-30562500D01*
G75*
G02*
X75762500Y-30825000I-262500J0D01*
G01*
G37*
%TD*%
%TO.C,C2*%
G36*
G01*
X78762500Y-30825000D02*
X78237500Y-30825000D01*
G75*
G02*
X77975000Y-30562500I0J262500D01*
G01*
X77975000Y-29937500D01*
G75*
G02*
X78237500Y-29675000I262500J0D01*
G01*
X78762500Y-29675000D01*
G75*
G02*
X79025000Y-29937500I0J-262500D01*
G01*
X79025000Y-30562500D01*
G75*
G02*
X78762500Y-30825000I-262500J0D01*
G01*
G37*
G36*
G01*
X78762500Y-32575000D02*
X78237500Y-32575000D01*
G75*
G02*
X77975000Y-32312500I0J262500D01*
G01*
X77975000Y-31687500D01*
G75*
G02*
X78237500Y-31425000I262500J0D01*
G01*
X78762500Y-31425000D01*
G75*
G02*
X79025000Y-31687500I0J-262500D01*
G01*
X79025000Y-32312500D01*
G75*
G02*
X78762500Y-32575000I-262500J0D01*
G01*
G37*
%TD*%
%TO.C,C3*%
G36*
G01*
X23737500Y-41300000D02*
X24262500Y-41300000D01*
G75*
G02*
X24525000Y-41562500I0J-262500D01*
G01*
X24525000Y-42187500D01*
G75*
G02*
X24262500Y-42450000I-262500J0D01*
G01*
X23737500Y-42450000D01*
G75*
G02*
X23475000Y-42187500I0J262500D01*
G01*
X23475000Y-41562500D01*
G75*
G02*
X23737500Y-41300000I262500J0D01*
G01*
G37*
G36*
G01*
X23737500Y-39550000D02*
X24262500Y-39550000D01*
G75*
G02*
X24525000Y-39812500I0J-262500D01*
G01*
X24525000Y-40437500D01*
G75*
G02*
X24262500Y-40700000I-262500J0D01*
G01*
X23737500Y-40700000D01*
G75*
G02*
X23475000Y-40437500I0J262500D01*
G01*
X23475000Y-39812500D01*
G75*
G02*
X23737500Y-39550000I262500J0D01*
G01*
G37*
%TD*%
%TO.C,C4*%
G36*
G01*
X23737500Y-59675000D02*
X24262500Y-59675000D01*
G75*
G02*
X24525000Y-59937500I0J-262500D01*
G01*
X24525000Y-60562500D01*
G75*
G02*
X24262500Y-60825000I-262500J0D01*
G01*
X23737500Y-60825000D01*
G75*
G02*
X23475000Y-60562500I0J262500D01*
G01*
X23475000Y-59937500D01*
G75*
G02*
X23737500Y-59675000I262500J0D01*
G01*
G37*
G36*
G01*
X23737500Y-61425000D02*
X24262500Y-61425000D01*
G75*
G02*
X24525000Y-61687500I0J-262500D01*
G01*
X24525000Y-62312500D01*
G75*
G02*
X24262500Y-62575000I-262500J0D01*
G01*
X23737500Y-62575000D01*
G75*
G02*
X23475000Y-62312500I0J262500D01*
G01*
X23475000Y-61687500D01*
G75*
G02*
X23737500Y-61425000I262500J0D01*
G01*
G37*
%TD*%
%TO.C,C5*%
G36*
G01*
X87262500Y-32575000D02*
X86737500Y-32575000D01*
G75*
G02*
X86475000Y-32312500I0J262500D01*
G01*
X86475000Y-31687500D01*
G75*
G02*
X86737500Y-31425000I262500J0D01*
G01*
X87262500Y-31425000D01*
G75*
G02*
X87525000Y-31687500I0J-262500D01*
G01*
X87525000Y-32312500D01*
G75*
G02*
X87262500Y-32575000I-262500J0D01*
G01*
G37*
G36*
G01*
X87262500Y-30825000D02*
X86737500Y-30825000D01*
G75*
G02*
X86475000Y-30562500I0J262500D01*
G01*
X86475000Y-29937500D01*
G75*
G02*
X86737500Y-29675000I262500J0D01*
G01*
X87262500Y-29675000D01*
G75*
G02*
X87525000Y-29937500I0J-262500D01*
G01*
X87525000Y-30562500D01*
G75*
G02*
X87262500Y-30825000I-262500J0D01*
G01*
G37*
%TD*%
%TO.C,C6*%
G36*
G01*
X75262500Y-52575000D02*
X74737500Y-52575000D01*
G75*
G02*
X74475000Y-52312500I0J262500D01*
G01*
X74475000Y-51687500D01*
G75*
G02*
X74737500Y-51425000I262500J0D01*
G01*
X75262500Y-51425000D01*
G75*
G02*
X75525000Y-51687500I0J-262500D01*
G01*
X75525000Y-52312500D01*
G75*
G02*
X75262500Y-52575000I-262500J0D01*
G01*
G37*
G36*
G01*
X75262500Y-50825000D02*
X74737500Y-50825000D01*
G75*
G02*
X74475000Y-50562500I0J262500D01*
G01*
X74475000Y-49937500D01*
G75*
G02*
X74737500Y-49675000I262500J0D01*
G01*
X75262500Y-49675000D01*
G75*
G02*
X75525000Y-49937500I0J-262500D01*
G01*
X75525000Y-50562500D01*
G75*
G02*
X75262500Y-50825000I-262500J0D01*
G01*
G37*
%TD*%
%TO.C,C7*%
G36*
G01*
X78262500Y-52575000D02*
X77737500Y-52575000D01*
G75*
G02*
X77475000Y-52312500I0J262500D01*
G01*
X77475000Y-51687500D01*
G75*
G02*
X77737500Y-51425000I262500J0D01*
G01*
X78262500Y-51425000D01*
G75*
G02*
X78525000Y-51687500I0J-262500D01*
G01*
X78525000Y-52312500D01*
G75*
G02*
X78262500Y-52575000I-262500J0D01*
G01*
G37*
G36*
G01*
X78262500Y-50825000D02*
X77737500Y-50825000D01*
G75*
G02*
X77475000Y-50562500I0J262500D01*
G01*
X77475000Y-49937500D01*
G75*
G02*
X77737500Y-49675000I262500J0D01*
G01*
X78262500Y-49675000D01*
G75*
G02*
X78525000Y-49937500I0J-262500D01*
G01*
X78525000Y-50562500D01*
G75*
G02*
X78262500Y-50825000I-262500J0D01*
G01*
G37*
%TD*%
%TO.C,C8*%
G36*
G01*
X30262500Y-32575000D02*
X29737500Y-32575000D01*
G75*
G02*
X29475000Y-32312500I0J262500D01*
G01*
X29475000Y-31687500D01*
G75*
G02*
X29737500Y-31425000I262500J0D01*
G01*
X30262500Y-31425000D01*
G75*
G02*
X30525000Y-31687500I0J-262500D01*
G01*
X30525000Y-32312500D01*
G75*
G02*
X30262500Y-32575000I-262500J0D01*
G01*
G37*
G36*
G01*
X30262500Y-30825000D02*
X29737500Y-30825000D01*
G75*
G02*
X29475000Y-30562500I0J262500D01*
G01*
X29475000Y-29937500D01*
G75*
G02*
X29737500Y-29675000I262500J0D01*
G01*
X30262500Y-29675000D01*
G75*
G02*
X30525000Y-29937500I0J-262500D01*
G01*
X30525000Y-30562500D01*
G75*
G02*
X30262500Y-30825000I-262500J0D01*
G01*
G37*
%TD*%
%TO.C,C9*%
G36*
G01*
X30262500Y-53075000D02*
X29737500Y-53075000D01*
G75*
G02*
X29475000Y-52812500I0J262500D01*
G01*
X29475000Y-52187500D01*
G75*
G02*
X29737500Y-51925000I262500J0D01*
G01*
X30262500Y-51925000D01*
G75*
G02*
X30525000Y-52187500I0J-262500D01*
G01*
X30525000Y-52812500D01*
G75*
G02*
X30262500Y-53075000I-262500J0D01*
G01*
G37*
G36*
G01*
X30262500Y-51325000D02*
X29737500Y-51325000D01*
G75*
G02*
X29475000Y-51062500I0J262500D01*
G01*
X29475000Y-50437500D01*
G75*
G02*
X29737500Y-50175000I262500J0D01*
G01*
X30262500Y-50175000D01*
G75*
G02*
X30525000Y-50437500I0J-262500D01*
G01*
X30525000Y-51062500D01*
G75*
G02*
X30262500Y-51325000I-262500J0D01*
G01*
G37*
%TD*%
%TO.C,C10*%
G36*
G01*
X33262500Y-42575000D02*
X32737500Y-42575000D01*
G75*
G02*
X32475000Y-42312500I0J262500D01*
G01*
X32475000Y-41687500D01*
G75*
G02*
X32737500Y-41425000I262500J0D01*
G01*
X33262500Y-41425000D01*
G75*
G02*
X33525000Y-41687500I0J-262500D01*
G01*
X33525000Y-42312500D01*
G75*
G02*
X33262500Y-42575000I-262500J0D01*
G01*
G37*
G36*
G01*
X33262500Y-40825000D02*
X32737500Y-40825000D01*
G75*
G02*
X32475000Y-40562500I0J262500D01*
G01*
X32475000Y-39937500D01*
G75*
G02*
X32737500Y-39675000I262500J0D01*
G01*
X33262500Y-39675000D01*
G75*
G02*
X33525000Y-39937500I0J-262500D01*
G01*
X33525000Y-40562500D01*
G75*
G02*
X33262500Y-40825000I-262500J0D01*
G01*
G37*
%TD*%
%TO.C,C11*%
G36*
G01*
X33262500Y-62575000D02*
X32737500Y-62575000D01*
G75*
G02*
X32475000Y-62312500I0J262500D01*
G01*
X32475000Y-61687500D01*
G75*
G02*
X32737500Y-61425000I262500J0D01*
G01*
X33262500Y-61425000D01*
G75*
G02*
X33525000Y-61687500I0J-262500D01*
G01*
X33525000Y-62312500D01*
G75*
G02*
X33262500Y-62575000I-262500J0D01*
G01*
G37*
G36*
G01*
X33262500Y-60825000D02*
X32737500Y-60825000D01*
G75*
G02*
X32475000Y-60562500I0J262500D01*
G01*
X32475000Y-59937500D01*
G75*
G02*
X32737500Y-59675000I262500J0D01*
G01*
X33262500Y-59675000D01*
G75*
G02*
X33525000Y-59937500I0J-262500D01*
G01*
X33525000Y-60562500D01*
G75*
G02*
X33262500Y-60825000I-262500J0D01*
G01*
G37*
%TD*%
%TO.C,C12*%
G36*
G01*
X33262500Y-30825000D02*
X32737500Y-30825000D01*
G75*
G02*
X32475000Y-30562500I0J262500D01*
G01*
X32475000Y-29937500D01*
G75*
G02*
X32737500Y-29675000I262500J0D01*
G01*
X33262500Y-29675000D01*
G75*
G02*
X33525000Y-29937500I0J-262500D01*
G01*
X33525000Y-30562500D01*
G75*
G02*
X33262500Y-30825000I-262500J0D01*
G01*
G37*
G36*
G01*
X33262500Y-32575000D02*
X32737500Y-32575000D01*
G75*
G02*
X32475000Y-32312500I0J262500D01*
G01*
X32475000Y-31687500D01*
G75*
G02*
X32737500Y-31425000I262500J0D01*
G01*
X33262500Y-31425000D01*
G75*
G02*
X33525000Y-31687500I0J-262500D01*
G01*
X33525000Y-32312500D01*
G75*
G02*
X33262500Y-32575000I-262500J0D01*
G01*
G37*
%TD*%
%TO.C,C13*%
G36*
G01*
X33262500Y-51325000D02*
X32737500Y-51325000D01*
G75*
G02*
X32475000Y-51062500I0J262500D01*
G01*
X32475000Y-50437500D01*
G75*
G02*
X32737500Y-50175000I262500J0D01*
G01*
X33262500Y-50175000D01*
G75*
G02*
X33525000Y-50437500I0J-262500D01*
G01*
X33525000Y-51062500D01*
G75*
G02*
X33262500Y-51325000I-262500J0D01*
G01*
G37*
G36*
G01*
X33262500Y-53075000D02*
X32737500Y-53075000D01*
G75*
G02*
X32475000Y-52812500I0J262500D01*
G01*
X32475000Y-52187500D01*
G75*
G02*
X32737500Y-51925000I262500J0D01*
G01*
X33262500Y-51925000D01*
G75*
G02*
X33525000Y-52187500I0J-262500D01*
G01*
X33525000Y-52812500D01*
G75*
G02*
X33262500Y-53075000I-262500J0D01*
G01*
G37*
%TD*%
%TO.C,C14*%
G36*
G01*
X94262500Y-54825000D02*
X93737500Y-54825000D01*
G75*
G02*
X93475000Y-54562500I0J262500D01*
G01*
X93475000Y-53937500D01*
G75*
G02*
X93737500Y-53675000I262500J0D01*
G01*
X94262500Y-53675000D01*
G75*
G02*
X94525000Y-53937500I0J-262500D01*
G01*
X94525000Y-54562500D01*
G75*
G02*
X94262500Y-54825000I-262500J0D01*
G01*
G37*
G36*
G01*
X94262500Y-56575000D02*
X93737500Y-56575000D01*
G75*
G02*
X93475000Y-56312500I0J262500D01*
G01*
X93475000Y-55687500D01*
G75*
G02*
X93737500Y-55425000I262500J0D01*
G01*
X94262500Y-55425000D01*
G75*
G02*
X94525000Y-55687500I0J-262500D01*
G01*
X94525000Y-56312500D01*
G75*
G02*
X94262500Y-56575000I-262500J0D01*
G01*
G37*
%TD*%
%TO.C,C15*%
G36*
G01*
X91262500Y-54825000D02*
X90737500Y-54825000D01*
G75*
G02*
X90475000Y-54562500I0J262500D01*
G01*
X90475000Y-53937500D01*
G75*
G02*
X90737500Y-53675000I262500J0D01*
G01*
X91262500Y-53675000D01*
G75*
G02*
X91525000Y-53937500I0J-262500D01*
G01*
X91525000Y-54562500D01*
G75*
G02*
X91262500Y-54825000I-262500J0D01*
G01*
G37*
G36*
G01*
X91262500Y-56575000D02*
X90737500Y-56575000D01*
G75*
G02*
X90475000Y-56312500I0J262500D01*
G01*
X90475000Y-55687500D01*
G75*
G02*
X90737500Y-55425000I262500J0D01*
G01*
X91262500Y-55425000D01*
G75*
G02*
X91525000Y-55687500I0J-262500D01*
G01*
X91525000Y-56312500D01*
G75*
G02*
X91262500Y-56575000I-262500J0D01*
G01*
G37*
%TD*%
%TO.C,C16*%
G36*
G01*
X92737500Y-67175000D02*
X93262500Y-67175000D01*
G75*
G02*
X93525000Y-67437500I0J-262500D01*
G01*
X93525000Y-68062500D01*
G75*
G02*
X93262500Y-68325000I-262500J0D01*
G01*
X92737500Y-68325000D01*
G75*
G02*
X92475000Y-68062500I0J262500D01*
G01*
X92475000Y-67437500D01*
G75*
G02*
X92737500Y-67175000I262500J0D01*
G01*
G37*
G36*
G01*
X92737500Y-68925000D02*
X93262500Y-68925000D01*
G75*
G02*
X93525000Y-69187500I0J-262500D01*
G01*
X93525000Y-69812500D01*
G75*
G02*
X93262500Y-70075000I-262500J0D01*
G01*
X92737500Y-70075000D01*
G75*
G02*
X92475000Y-69812500I0J262500D01*
G01*
X92475000Y-69187500D01*
G75*
G02*
X92737500Y-68925000I262500J0D01*
G01*
G37*
%TD*%
%TO.C,C17*%
G36*
G01*
X54262500Y-75825000D02*
X53737500Y-75825000D01*
G75*
G02*
X53475000Y-75562500I0J262500D01*
G01*
X53475000Y-74937500D01*
G75*
G02*
X53737500Y-74675000I262500J0D01*
G01*
X54262500Y-74675000D01*
G75*
G02*
X54525000Y-74937500I0J-262500D01*
G01*
X54525000Y-75562500D01*
G75*
G02*
X54262500Y-75825000I-262500J0D01*
G01*
G37*
G36*
G01*
X54262500Y-77575000D02*
X53737500Y-77575000D01*
G75*
G02*
X53475000Y-77312500I0J262500D01*
G01*
X53475000Y-76687500D01*
G75*
G02*
X53737500Y-76425000I262500J0D01*
G01*
X54262500Y-76425000D01*
G75*
G02*
X54525000Y-76687500I0J-262500D01*
G01*
X54525000Y-77312500D01*
G75*
G02*
X54262500Y-77575000I-262500J0D01*
G01*
G37*
%TD*%
%TO.C,C18*%
G36*
G01*
X54262500Y-35825000D02*
X53737500Y-35825000D01*
G75*
G02*
X53475000Y-35562500I0J262500D01*
G01*
X53475000Y-34937500D01*
G75*
G02*
X53737500Y-34675000I262500J0D01*
G01*
X54262500Y-34675000D01*
G75*
G02*
X54525000Y-34937500I0J-262500D01*
G01*
X54525000Y-35562500D01*
G75*
G02*
X54262500Y-35825000I-262500J0D01*
G01*
G37*
G36*
G01*
X54262500Y-37575000D02*
X53737500Y-37575000D01*
G75*
G02*
X53475000Y-37312500I0J262500D01*
G01*
X53475000Y-36687500D01*
G75*
G02*
X53737500Y-36425000I262500J0D01*
G01*
X54262500Y-36425000D01*
G75*
G02*
X54525000Y-36687500I0J-262500D01*
G01*
X54525000Y-37312500D01*
G75*
G02*
X54262500Y-37575000I-262500J0D01*
G01*
G37*
%TD*%
%TO.C,C19*%
G36*
G01*
X98737500Y-72175000D02*
X99262500Y-72175000D01*
G75*
G02*
X99525000Y-72437500I0J-262500D01*
G01*
X99525000Y-73062500D01*
G75*
G02*
X99262500Y-73325000I-262500J0D01*
G01*
X98737500Y-73325000D01*
G75*
G02*
X98475000Y-73062500I0J262500D01*
G01*
X98475000Y-72437500D01*
G75*
G02*
X98737500Y-72175000I262500J0D01*
G01*
G37*
G36*
G01*
X98737500Y-73925000D02*
X99262500Y-73925000D01*
G75*
G02*
X99525000Y-74187500I0J-262500D01*
G01*
X99525000Y-74812500D01*
G75*
G02*
X99262500Y-75075000I-262500J0D01*
G01*
X98737500Y-75075000D01*
G75*
G02*
X98475000Y-74812500I0J262500D01*
G01*
X98475000Y-74187500D01*
G75*
G02*
X98737500Y-73925000I262500J0D01*
G01*
G37*
%TD*%
%TO.C,C20*%
G36*
G01*
X96262500Y-63325000D02*
X95737500Y-63325000D01*
G75*
G02*
X95475000Y-63062500I0J262500D01*
G01*
X95475000Y-62437500D01*
G75*
G02*
X95737500Y-62175000I262500J0D01*
G01*
X96262500Y-62175000D01*
G75*
G02*
X96525000Y-62437500I0J-262500D01*
G01*
X96525000Y-63062500D01*
G75*
G02*
X96262500Y-63325000I-262500J0D01*
G01*
G37*
G36*
G01*
X96262500Y-65075000D02*
X95737500Y-65075000D01*
G75*
G02*
X95475000Y-64812500I0J262500D01*
G01*
X95475000Y-64187500D01*
G75*
G02*
X95737500Y-63925000I262500J0D01*
G01*
X96262500Y-63925000D01*
G75*
G02*
X96525000Y-64187500I0J-262500D01*
G01*
X96525000Y-64812500D01*
G75*
G02*
X96262500Y-65075000I-262500J0D01*
G01*
G37*
%TD*%
%TO.C,C21*%
G36*
G01*
X51262500Y-70825000D02*
X50737500Y-70825000D01*
G75*
G02*
X50475000Y-70562500I0J262500D01*
G01*
X50475000Y-69937500D01*
G75*
G02*
X50737500Y-69675000I262500J0D01*
G01*
X51262500Y-69675000D01*
G75*
G02*
X51525000Y-69937500I0J-262500D01*
G01*
X51525000Y-70562500D01*
G75*
G02*
X51262500Y-70825000I-262500J0D01*
G01*
G37*
G36*
G01*
X51262500Y-72575000D02*
X50737500Y-72575000D01*
G75*
G02*
X50475000Y-72312500I0J262500D01*
G01*
X50475000Y-71687500D01*
G75*
G02*
X50737500Y-71425000I262500J0D01*
G01*
X51262500Y-71425000D01*
G75*
G02*
X51525000Y-71687500I0J-262500D01*
G01*
X51525000Y-72312500D01*
G75*
G02*
X51262500Y-72575000I-262500J0D01*
G01*
G37*
%TD*%
%TO.C,C22*%
G36*
G01*
X102262500Y-73325000D02*
X101737500Y-73325000D01*
G75*
G02*
X101475000Y-73062500I0J262500D01*
G01*
X101475000Y-72437500D01*
G75*
G02*
X101737500Y-72175000I262500J0D01*
G01*
X102262500Y-72175000D01*
G75*
G02*
X102525000Y-72437500I0J-262500D01*
G01*
X102525000Y-73062500D01*
G75*
G02*
X102262500Y-73325000I-262500J0D01*
G01*
G37*
G36*
G01*
X102262500Y-75075000D02*
X101737500Y-75075000D01*
G75*
G02*
X101475000Y-74812500I0J262500D01*
G01*
X101475000Y-74187500D01*
G75*
G02*
X101737500Y-73925000I262500J0D01*
G01*
X102262500Y-73925000D01*
G75*
G02*
X102525000Y-74187500I0J-262500D01*
G01*
X102525000Y-74812500D01*
G75*
G02*
X102262500Y-75075000I-262500J0D01*
G01*
G37*
%TD*%
%TO.C,C23*%
G36*
G01*
X62737500Y-71425000D02*
X63262500Y-71425000D01*
G75*
G02*
X63525000Y-71687500I0J-262500D01*
G01*
X63525000Y-72312500D01*
G75*
G02*
X63262500Y-72575000I-262500J0D01*
G01*
X62737500Y-72575000D01*
G75*
G02*
X62475000Y-72312500I0J262500D01*
G01*
X62475000Y-71687500D01*
G75*
G02*
X62737500Y-71425000I262500J0D01*
G01*
G37*
G36*
G01*
X62737500Y-69675000D02*
X63262500Y-69675000D01*
G75*
G02*
X63525000Y-69937500I0J-262500D01*
G01*
X63525000Y-70562500D01*
G75*
G02*
X63262500Y-70825000I-262500J0D01*
G01*
X62737500Y-70825000D01*
G75*
G02*
X62475000Y-70562500I0J262500D01*
G01*
X62475000Y-69937500D01*
G75*
G02*
X62737500Y-69675000I262500J0D01*
G01*
G37*
%TD*%
%TO.C,C24*%
G36*
G01*
X60262500Y-80825000D02*
X59737500Y-80825000D01*
G75*
G02*
X59475000Y-80562500I0J262500D01*
G01*
X59475000Y-79937500D01*
G75*
G02*
X59737500Y-79675000I262500J0D01*
G01*
X60262500Y-79675000D01*
G75*
G02*
X60525000Y-79937500I0J-262500D01*
G01*
X60525000Y-80562500D01*
G75*
G02*
X60262500Y-80825000I-262500J0D01*
G01*
G37*
G36*
G01*
X60262500Y-82575000D02*
X59737500Y-82575000D01*
G75*
G02*
X59475000Y-82312500I0J262500D01*
G01*
X59475000Y-81687500D01*
G75*
G02*
X59737500Y-81425000I262500J0D01*
G01*
X60262500Y-81425000D01*
G75*
G02*
X60525000Y-81687500I0J-262500D01*
G01*
X60525000Y-82312500D01*
G75*
G02*
X60262500Y-82575000I-262500J0D01*
G01*
G37*
%TD*%
%TO.C,C25*%
G36*
G01*
X63262500Y-32575000D02*
X62737500Y-32575000D01*
G75*
G02*
X62475000Y-32312500I0J262500D01*
G01*
X62475000Y-31687500D01*
G75*
G02*
X62737500Y-31425000I262500J0D01*
G01*
X63262500Y-31425000D01*
G75*
G02*
X63525000Y-31687500I0J-262500D01*
G01*
X63525000Y-32312500D01*
G75*
G02*
X63262500Y-32575000I-262500J0D01*
G01*
G37*
G36*
G01*
X63262500Y-30825000D02*
X62737500Y-30825000D01*
G75*
G02*
X62475000Y-30562500I0J262500D01*
G01*
X62475000Y-29937500D01*
G75*
G02*
X62737500Y-29675000I262500J0D01*
G01*
X63262500Y-29675000D01*
G75*
G02*
X63525000Y-29937500I0J-262500D01*
G01*
X63525000Y-30562500D01*
G75*
G02*
X63262500Y-30825000I-262500J0D01*
G01*
G37*
%TD*%
%TO.C,C26*%
G36*
G01*
X63262500Y-37575000D02*
X62737500Y-37575000D01*
G75*
G02*
X62475000Y-37312500I0J262500D01*
G01*
X62475000Y-36687500D01*
G75*
G02*
X62737500Y-36425000I262500J0D01*
G01*
X63262500Y-36425000D01*
G75*
G02*
X63525000Y-36687500I0J-262500D01*
G01*
X63525000Y-37312500D01*
G75*
G02*
X63262500Y-37575000I-262500J0D01*
G01*
G37*
G36*
G01*
X63262500Y-35825000D02*
X62737500Y-35825000D01*
G75*
G02*
X62475000Y-35562500I0J262500D01*
G01*
X62475000Y-34937500D01*
G75*
G02*
X62737500Y-34675000I262500J0D01*
G01*
X63262500Y-34675000D01*
G75*
G02*
X63525000Y-34937500I0J-262500D01*
G01*
X63525000Y-35562500D01*
G75*
G02*
X63262500Y-35825000I-262500J0D01*
G01*
G37*
%TD*%
%TO.C,C27*%
G36*
G01*
X93262500Y-63325000D02*
X92737500Y-63325000D01*
G75*
G02*
X92475000Y-63062500I0J262500D01*
G01*
X92475000Y-62437500D01*
G75*
G02*
X92737500Y-62175000I262500J0D01*
G01*
X93262500Y-62175000D01*
G75*
G02*
X93525000Y-62437500I0J-262500D01*
G01*
X93525000Y-63062500D01*
G75*
G02*
X93262500Y-63325000I-262500J0D01*
G01*
G37*
G36*
G01*
X93262500Y-65075000D02*
X92737500Y-65075000D01*
G75*
G02*
X92475000Y-64812500I0J262500D01*
G01*
X92475000Y-64187500D01*
G75*
G02*
X92737500Y-63925000I262500J0D01*
G01*
X93262500Y-63925000D01*
G75*
G02*
X93525000Y-64187500I0J-262500D01*
G01*
X93525000Y-64812500D01*
G75*
G02*
X93262500Y-65075000I-262500J0D01*
G01*
G37*
%TD*%
%TO.C,C28*%
G36*
G01*
X54262500Y-70825000D02*
X53737500Y-70825000D01*
G75*
G02*
X53475000Y-70562500I0J262500D01*
G01*
X53475000Y-69937500D01*
G75*
G02*
X53737500Y-69675000I262500J0D01*
G01*
X54262500Y-69675000D01*
G75*
G02*
X54525000Y-69937500I0J-262500D01*
G01*
X54525000Y-70562500D01*
G75*
G02*
X54262500Y-70825000I-262500J0D01*
G01*
G37*
G36*
G01*
X54262500Y-72575000D02*
X53737500Y-72575000D01*
G75*
G02*
X53475000Y-72312500I0J262500D01*
G01*
X53475000Y-71687500D01*
G75*
G02*
X53737500Y-71425000I262500J0D01*
G01*
X54262500Y-71425000D01*
G75*
G02*
X54525000Y-71687500I0J-262500D01*
G01*
X54525000Y-72312500D01*
G75*
G02*
X54262500Y-72575000I-262500J0D01*
G01*
G37*
%TD*%
%TO.C,C29*%
G36*
G01*
X54262500Y-32575000D02*
X53737500Y-32575000D01*
G75*
G02*
X53475000Y-32312500I0J262500D01*
G01*
X53475000Y-31687500D01*
G75*
G02*
X53737500Y-31425000I262500J0D01*
G01*
X54262500Y-31425000D01*
G75*
G02*
X54525000Y-31687500I0J-262500D01*
G01*
X54525000Y-32312500D01*
G75*
G02*
X54262500Y-32575000I-262500J0D01*
G01*
G37*
G36*
G01*
X54262500Y-30825000D02*
X53737500Y-30825000D01*
G75*
G02*
X53475000Y-30562500I0J262500D01*
G01*
X53475000Y-29937500D01*
G75*
G02*
X53737500Y-29675000I262500J0D01*
G01*
X54262500Y-29675000D01*
G75*
G02*
X54525000Y-29937500I0J-262500D01*
G01*
X54525000Y-30562500D01*
G75*
G02*
X54262500Y-30825000I-262500J0D01*
G01*
G37*
%TD*%
%TO.C,C30*%
G36*
G01*
X51262500Y-30825000D02*
X50737500Y-30825000D01*
G75*
G02*
X50475000Y-30562500I0J262500D01*
G01*
X50475000Y-29937500D01*
G75*
G02*
X50737500Y-29675000I262500J0D01*
G01*
X51262500Y-29675000D01*
G75*
G02*
X51525000Y-29937500I0J-262500D01*
G01*
X51525000Y-30562500D01*
G75*
G02*
X51262500Y-30825000I-262500J0D01*
G01*
G37*
G36*
G01*
X51262500Y-32575000D02*
X50737500Y-32575000D01*
G75*
G02*
X50475000Y-32312500I0J262500D01*
G01*
X50475000Y-31687500D01*
G75*
G02*
X50737500Y-31425000I262500J0D01*
G01*
X51262500Y-31425000D01*
G75*
G02*
X51525000Y-31687500I0J-262500D01*
G01*
X51525000Y-32312500D01*
G75*
G02*
X51262500Y-32575000I-262500J0D01*
G01*
G37*
%TD*%
%TO.C,C31*%
G36*
G01*
X90262500Y-40825000D02*
X89737500Y-40825000D01*
G75*
G02*
X89475000Y-40562500I0J262500D01*
G01*
X89475000Y-39937500D01*
G75*
G02*
X89737500Y-39675000I262500J0D01*
G01*
X90262500Y-39675000D01*
G75*
G02*
X90525000Y-39937500I0J-262500D01*
G01*
X90525000Y-40562500D01*
G75*
G02*
X90262500Y-40825000I-262500J0D01*
G01*
G37*
G36*
G01*
X90262500Y-42575000D02*
X89737500Y-42575000D01*
G75*
G02*
X89475000Y-42312500I0J262500D01*
G01*
X89475000Y-41687500D01*
G75*
G02*
X89737500Y-41425000I262500J0D01*
G01*
X90262500Y-41425000D01*
G75*
G02*
X90525000Y-41687500I0J-262500D01*
G01*
X90525000Y-42312500D01*
G75*
G02*
X90262500Y-42575000I-262500J0D01*
G01*
G37*
%TD*%
%TO.C,C32*%
G36*
G01*
X23737500Y-81425000D02*
X24262500Y-81425000D01*
G75*
G02*
X24525000Y-81687500I0J-262500D01*
G01*
X24525000Y-82312500D01*
G75*
G02*
X24262500Y-82575000I-262500J0D01*
G01*
X23737500Y-82575000D01*
G75*
G02*
X23475000Y-82312500I0J262500D01*
G01*
X23475000Y-81687500D01*
G75*
G02*
X23737500Y-81425000I262500J0D01*
G01*
G37*
G36*
G01*
X23737500Y-79675000D02*
X24262500Y-79675000D01*
G75*
G02*
X24525000Y-79937500I0J-262500D01*
G01*
X24525000Y-80562500D01*
G75*
G02*
X24262500Y-80825000I-262500J0D01*
G01*
X23737500Y-80825000D01*
G75*
G02*
X23475000Y-80562500I0J262500D01*
G01*
X23475000Y-79937500D01*
G75*
G02*
X23737500Y-79675000I262500J0D01*
G01*
G37*
%TD*%
%TO.C,C33*%
G36*
G01*
X54262500Y-55825000D02*
X53737500Y-55825000D01*
G75*
G02*
X53475000Y-55562500I0J262500D01*
G01*
X53475000Y-54937500D01*
G75*
G02*
X53737500Y-54675000I262500J0D01*
G01*
X54262500Y-54675000D01*
G75*
G02*
X54525000Y-54937500I0J-262500D01*
G01*
X54525000Y-55562500D01*
G75*
G02*
X54262500Y-55825000I-262500J0D01*
G01*
G37*
G36*
G01*
X54262500Y-57575000D02*
X53737500Y-57575000D01*
G75*
G02*
X53475000Y-57312500I0J262500D01*
G01*
X53475000Y-56687500D01*
G75*
G02*
X53737500Y-56425000I262500J0D01*
G01*
X54262500Y-56425000D01*
G75*
G02*
X54525000Y-56687500I0J-262500D01*
G01*
X54525000Y-57312500D01*
G75*
G02*
X54262500Y-57575000I-262500J0D01*
G01*
G37*
%TD*%
%TO.C,C34*%
G36*
G01*
X93262500Y-32575000D02*
X92737500Y-32575000D01*
G75*
G02*
X92475000Y-32312500I0J262500D01*
G01*
X92475000Y-31687500D01*
G75*
G02*
X92737500Y-31425000I262500J0D01*
G01*
X93262500Y-31425000D01*
G75*
G02*
X93525000Y-31687500I0J-262500D01*
G01*
X93525000Y-32312500D01*
G75*
G02*
X93262500Y-32575000I-262500J0D01*
G01*
G37*
G36*
G01*
X93262500Y-30825000D02*
X92737500Y-30825000D01*
G75*
G02*
X92475000Y-30562500I0J262500D01*
G01*
X92475000Y-29937500D01*
G75*
G02*
X92737500Y-29675000I262500J0D01*
G01*
X93262500Y-29675000D01*
G75*
G02*
X93525000Y-29937500I0J-262500D01*
G01*
X93525000Y-30562500D01*
G75*
G02*
X93262500Y-30825000I-262500J0D01*
G01*
G37*
%TD*%
%TO.C,C35*%
G36*
G01*
X99262500Y-42575000D02*
X98737500Y-42575000D01*
G75*
G02*
X98475000Y-42312500I0J262500D01*
G01*
X98475000Y-41687500D01*
G75*
G02*
X98737500Y-41425000I262500J0D01*
G01*
X99262500Y-41425000D01*
G75*
G02*
X99525000Y-41687500I0J-262500D01*
G01*
X99525000Y-42312500D01*
G75*
G02*
X99262500Y-42575000I-262500J0D01*
G01*
G37*
G36*
G01*
X99262500Y-40825000D02*
X98737500Y-40825000D01*
G75*
G02*
X98475000Y-40562500I0J262500D01*
G01*
X98475000Y-39937500D01*
G75*
G02*
X98737500Y-39675000I262500J0D01*
G01*
X99262500Y-39675000D01*
G75*
G02*
X99525000Y-39937500I0J-262500D01*
G01*
X99525000Y-40562500D01*
G75*
G02*
X99262500Y-40825000I-262500J0D01*
G01*
G37*
%TD*%
%TO.C,C36*%
G36*
G01*
X33262500Y-82575000D02*
X32737500Y-82575000D01*
G75*
G02*
X32475000Y-82312500I0J262500D01*
G01*
X32475000Y-81687500D01*
G75*
G02*
X32737500Y-81425000I262500J0D01*
G01*
X33262500Y-81425000D01*
G75*
G02*
X33525000Y-81687500I0J-262500D01*
G01*
X33525000Y-82312500D01*
G75*
G02*
X33262500Y-82575000I-262500J0D01*
G01*
G37*
G36*
G01*
X33262500Y-80825000D02*
X32737500Y-80825000D01*
G75*
G02*
X32475000Y-80562500I0J262500D01*
G01*
X32475000Y-79937500D01*
G75*
G02*
X32737500Y-79675000I262500J0D01*
G01*
X33262500Y-79675000D01*
G75*
G02*
X33525000Y-79937500I0J-262500D01*
G01*
X33525000Y-80562500D01*
G75*
G02*
X33262500Y-80825000I-262500J0D01*
G01*
G37*
%TD*%
%TO.C,C37*%
G36*
G01*
X101737500Y-34675000D02*
X102262500Y-34675000D01*
G75*
G02*
X102525000Y-34937500I0J-262500D01*
G01*
X102525000Y-35562500D01*
G75*
G02*
X102262500Y-35825000I-262500J0D01*
G01*
X101737500Y-35825000D01*
G75*
G02*
X101475000Y-35562500I0J262500D01*
G01*
X101475000Y-34937500D01*
G75*
G02*
X101737500Y-34675000I262500J0D01*
G01*
G37*
G36*
G01*
X101737500Y-36425000D02*
X102262500Y-36425000D01*
G75*
G02*
X102525000Y-36687500I0J-262500D01*
G01*
X102525000Y-37312500D01*
G75*
G02*
X102262500Y-37575000I-262500J0D01*
G01*
X101737500Y-37575000D01*
G75*
G02*
X101475000Y-37312500I0J262500D01*
G01*
X101475000Y-36687500D01*
G75*
G02*
X101737500Y-36425000I262500J0D01*
G01*
G37*
%TD*%
%TO.C,C38*%
G36*
G01*
X57262500Y-52575000D02*
X56737500Y-52575000D01*
G75*
G02*
X56475000Y-52312500I0J262500D01*
G01*
X56475000Y-51687500D01*
G75*
G02*
X56737500Y-51425000I262500J0D01*
G01*
X57262500Y-51425000D01*
G75*
G02*
X57525000Y-51687500I0J-262500D01*
G01*
X57525000Y-52312500D01*
G75*
G02*
X57262500Y-52575000I-262500J0D01*
G01*
G37*
G36*
G01*
X57262500Y-50825000D02*
X56737500Y-50825000D01*
G75*
G02*
X56475000Y-50562500I0J262500D01*
G01*
X56475000Y-49937500D01*
G75*
G02*
X56737500Y-49675000I262500J0D01*
G01*
X57262500Y-49675000D01*
G75*
G02*
X57525000Y-49937500I0J-262500D01*
G01*
X57525000Y-50562500D01*
G75*
G02*
X57262500Y-50825000I-262500J0D01*
G01*
G37*
%TD*%
%TO.C,C39*%
G36*
G01*
X63262500Y-62575000D02*
X62737500Y-62575000D01*
G75*
G02*
X62475000Y-62312500I0J262500D01*
G01*
X62475000Y-61687500D01*
G75*
G02*
X62737500Y-61425000I262500J0D01*
G01*
X63262500Y-61425000D01*
G75*
G02*
X63525000Y-61687500I0J-262500D01*
G01*
X63525000Y-62312500D01*
G75*
G02*
X63262500Y-62575000I-262500J0D01*
G01*
G37*
G36*
G01*
X63262500Y-60825000D02*
X62737500Y-60825000D01*
G75*
G02*
X62475000Y-60562500I0J262500D01*
G01*
X62475000Y-59937500D01*
G75*
G02*
X62737500Y-59675000I262500J0D01*
G01*
X63262500Y-59675000D01*
G75*
G02*
X63525000Y-59937500I0J-262500D01*
G01*
X63525000Y-60562500D01*
G75*
G02*
X63262500Y-60825000I-262500J0D01*
G01*
G37*
%TD*%
%TO.C,C40*%
G36*
G01*
X30262500Y-72575000D02*
X29737500Y-72575000D01*
G75*
G02*
X29475000Y-72312500I0J262500D01*
G01*
X29475000Y-71687500D01*
G75*
G02*
X29737500Y-71425000I262500J0D01*
G01*
X30262500Y-71425000D01*
G75*
G02*
X30525000Y-71687500I0J-262500D01*
G01*
X30525000Y-72312500D01*
G75*
G02*
X30262500Y-72575000I-262500J0D01*
G01*
G37*
G36*
G01*
X30262500Y-70825000D02*
X29737500Y-70825000D01*
G75*
G02*
X29475000Y-70562500I0J262500D01*
G01*
X29475000Y-69937500D01*
G75*
G02*
X29737500Y-69675000I262500J0D01*
G01*
X30262500Y-69675000D01*
G75*
G02*
X30525000Y-69937500I0J-262500D01*
G01*
X30525000Y-70562500D01*
G75*
G02*
X30262500Y-70825000I-262500J0D01*
G01*
G37*
%TD*%
%TO.C,C41*%
G36*
G01*
X33262500Y-75825000D02*
X32737500Y-75825000D01*
G75*
G02*
X32475000Y-75562500I0J262500D01*
G01*
X32475000Y-74937500D01*
G75*
G02*
X32737500Y-74675000I262500J0D01*
G01*
X33262500Y-74675000D01*
G75*
G02*
X33525000Y-74937500I0J-262500D01*
G01*
X33525000Y-75562500D01*
G75*
G02*
X33262500Y-75825000I-262500J0D01*
G01*
G37*
G36*
G01*
X33262500Y-77575000D02*
X32737500Y-77575000D01*
G75*
G02*
X32475000Y-77312500I0J262500D01*
G01*
X32475000Y-76687500D01*
G75*
G02*
X32737500Y-76425000I262500J0D01*
G01*
X33262500Y-76425000D01*
G75*
G02*
X33525000Y-76687500I0J-262500D01*
G01*
X33525000Y-77312500D01*
G75*
G02*
X33262500Y-77575000I-262500J0D01*
G01*
G37*
%TD*%
%TO.C,C42*%
G36*
G01*
X63262500Y-57575000D02*
X62737500Y-57575000D01*
G75*
G02*
X62475000Y-57312500I0J262500D01*
G01*
X62475000Y-56687500D01*
G75*
G02*
X62737500Y-56425000I262500J0D01*
G01*
X63262500Y-56425000D01*
G75*
G02*
X63525000Y-56687500I0J-262500D01*
G01*
X63525000Y-57312500D01*
G75*
G02*
X63262500Y-57575000I-262500J0D01*
G01*
G37*
G36*
G01*
X63262500Y-55825000D02*
X62737500Y-55825000D01*
G75*
G02*
X62475000Y-55562500I0J262500D01*
G01*
X62475000Y-54937500D01*
G75*
G02*
X62737500Y-54675000I262500J0D01*
G01*
X63262500Y-54675000D01*
G75*
G02*
X63525000Y-54937500I0J-262500D01*
G01*
X63525000Y-55562500D01*
G75*
G02*
X63262500Y-55825000I-262500J0D01*
G01*
G37*
%TD*%
%TO.C,C43*%
G36*
G01*
X99262500Y-32555000D02*
X98737500Y-32555000D01*
G75*
G02*
X98475000Y-32292500I0J262500D01*
G01*
X98475000Y-31667500D01*
G75*
G02*
X98737500Y-31405000I262500J0D01*
G01*
X99262500Y-31405000D01*
G75*
G02*
X99525000Y-31667500I0J-262500D01*
G01*
X99525000Y-32292500D01*
G75*
G02*
X99262500Y-32555000I-262500J0D01*
G01*
G37*
G36*
G01*
X99262500Y-30805000D02*
X98737500Y-30805000D01*
G75*
G02*
X98475000Y-30542500I0J262500D01*
G01*
X98475000Y-29917500D01*
G75*
G02*
X98737500Y-29655000I262500J0D01*
G01*
X99262500Y-29655000D01*
G75*
G02*
X99525000Y-29917500I0J-262500D01*
G01*
X99525000Y-30542500D01*
G75*
G02*
X99262500Y-30805000I-262500J0D01*
G01*
G37*
%TD*%
%TO.C,C44*%
G36*
G01*
X54262500Y-50825000D02*
X53737500Y-50825000D01*
G75*
G02*
X53475000Y-50562500I0J262500D01*
G01*
X53475000Y-49937500D01*
G75*
G02*
X53737500Y-49675000I262500J0D01*
G01*
X54262500Y-49675000D01*
G75*
G02*
X54525000Y-49937500I0J-262500D01*
G01*
X54525000Y-50562500D01*
G75*
G02*
X54262500Y-50825000I-262500J0D01*
G01*
G37*
G36*
G01*
X54262500Y-52575000D02*
X53737500Y-52575000D01*
G75*
G02*
X53475000Y-52312500I0J262500D01*
G01*
X53475000Y-51687500D01*
G75*
G02*
X53737500Y-51425000I262500J0D01*
G01*
X54262500Y-51425000D01*
G75*
G02*
X54525000Y-51687500I0J-262500D01*
G01*
X54525000Y-52312500D01*
G75*
G02*
X54262500Y-52575000I-262500J0D01*
G01*
G37*
%TD*%
%TO.C,C45*%
G36*
G01*
X33262500Y-70825000D02*
X32737500Y-70825000D01*
G75*
G02*
X32475000Y-70562500I0J262500D01*
G01*
X32475000Y-69937500D01*
G75*
G02*
X32737500Y-69675000I262500J0D01*
G01*
X33262500Y-69675000D01*
G75*
G02*
X33525000Y-69937500I0J-262500D01*
G01*
X33525000Y-70562500D01*
G75*
G02*
X33262500Y-70825000I-262500J0D01*
G01*
G37*
G36*
G01*
X33262500Y-72575000D02*
X32737500Y-72575000D01*
G75*
G02*
X32475000Y-72312500I0J262500D01*
G01*
X32475000Y-71687500D01*
G75*
G02*
X32737500Y-71425000I262500J0D01*
G01*
X33262500Y-71425000D01*
G75*
G02*
X33525000Y-71687500I0J-262500D01*
G01*
X33525000Y-72312500D01*
G75*
G02*
X33262500Y-72575000I-262500J0D01*
G01*
G37*
%TD*%
%TO.C,C46*%
G36*
G01*
X102262500Y-30825000D02*
X101737500Y-30825000D01*
G75*
G02*
X101475000Y-30562500I0J262500D01*
G01*
X101475000Y-29937500D01*
G75*
G02*
X101737500Y-29675000I262500J0D01*
G01*
X102262500Y-29675000D01*
G75*
G02*
X102525000Y-29937500I0J-262500D01*
G01*
X102525000Y-30562500D01*
G75*
G02*
X102262500Y-30825000I-262500J0D01*
G01*
G37*
G36*
G01*
X102262500Y-32575000D02*
X101737500Y-32575000D01*
G75*
G02*
X101475000Y-32312500I0J262500D01*
G01*
X101475000Y-31687500D01*
G75*
G02*
X101737500Y-31425000I262500J0D01*
G01*
X102262500Y-31425000D01*
G75*
G02*
X102525000Y-31687500I0J-262500D01*
G01*
X102525000Y-32312500D01*
G75*
G02*
X102262500Y-32575000I-262500J0D01*
G01*
G37*
%TD*%
%TO.C,D1*%
G36*
G01*
X96262500Y-70075000D02*
X95737500Y-70075000D01*
G75*
G02*
X95475000Y-69812500I0J262500D01*
G01*
X95475000Y-69187500D01*
G75*
G02*
X95737500Y-68925000I262500J0D01*
G01*
X96262500Y-68925000D01*
G75*
G02*
X96525000Y-69187500I0J-262500D01*
G01*
X96525000Y-69812500D01*
G75*
G02*
X96262500Y-70075000I-262500J0D01*
G01*
G37*
G36*
G01*
X96262500Y-68325000D02*
X95737500Y-68325000D01*
G75*
G02*
X95475000Y-68062500I0J262500D01*
G01*
X95475000Y-67437500D01*
G75*
G02*
X95737500Y-67175000I262500J0D01*
G01*
X96262500Y-67175000D01*
G75*
G02*
X96525000Y-67437500I0J-262500D01*
G01*
X96525000Y-68062500D01*
G75*
G02*
X96262500Y-68325000I-262500J0D01*
G01*
G37*
%TD*%
D10*
%TO.C,J1*%
X20000000Y-22540000D03*
D11*
X20000000Y-20000000D03*
%TD*%
%TO.C,J2*%
X20000000Y-38460000D03*
D10*
X20000000Y-41000000D03*
%TD*%
D11*
%TO.C,J3*%
X20000000Y-58460000D03*
D10*
X20000000Y-61000000D03*
%TD*%
%TO.C,J4*%
X37000000Y-38460000D03*
D11*
X37000000Y-41000000D03*
%TD*%
D10*
%TO.C,J5*%
X37000000Y-58460000D03*
D11*
X37000000Y-61000000D03*
%TD*%
%TO.C,J6*%
X89000000Y-70960000D03*
D10*
X89000000Y-73500000D03*
%TD*%
%TO.C,J7*%
X50000000Y-81000000D03*
D11*
X50000000Y-78460000D03*
%TD*%
%TO.C,J8*%
X50000000Y-38460000D03*
D10*
X50000000Y-41000000D03*
%TD*%
%TO.C,J9*%
X106000000Y-70960000D03*
D11*
X106000000Y-73500000D03*
%TD*%
%TO.C,J10*%
X67000000Y-73500000D03*
D10*
X67000000Y-70960000D03*
%TD*%
%TO.C,J11*%
X67000000Y-81000000D03*
D11*
X67000000Y-78460000D03*
%TD*%
D10*
%TO.C,J12*%
X67000000Y-38460000D03*
D11*
X67000000Y-41000000D03*
%TD*%
D10*
%TO.C,J13*%
X86000000Y-41000000D03*
D11*
X86000000Y-38460000D03*
%TD*%
D10*
%TO.C,J14*%
X20000000Y-81040000D03*
D11*
X20000000Y-78500000D03*
%TD*%
%TO.C,J15*%
X50020000Y-58500000D03*
D10*
X50020000Y-61040000D03*
%TD*%
D11*
%TO.C,J16*%
X106000000Y-41000000D03*
D10*
X106000000Y-38460000D03*
%TD*%
D11*
%TO.C,J17*%
X37000000Y-81000000D03*
D10*
X37000000Y-78460000D03*
%TD*%
D11*
%TO.C,J18*%
X67000000Y-61000000D03*
D10*
X67000000Y-58460000D03*
%TD*%
%TO.C,L1*%
G36*
G01*
X95737500Y-29675000D02*
X96262500Y-29675000D01*
G75*
G02*
X96525000Y-29937500I0J-262500D01*
G01*
X96525000Y-30562500D01*
G75*
G02*
X96262500Y-30825000I-262500J0D01*
G01*
X95737500Y-30825000D01*
G75*
G02*
X95475000Y-30562500I0J262500D01*
G01*
X95475000Y-29937500D01*
G75*
G02*
X95737500Y-29675000I262500J0D01*
G01*
G37*
G36*
G01*
X95737500Y-31425000D02*
X96262500Y-31425000D01*
G75*
G02*
X96525000Y-31687500I0J-262500D01*
G01*
X96525000Y-32312500D01*
G75*
G02*
X96262500Y-32575000I-262500J0D01*
G01*
X95737500Y-32575000D01*
G75*
G02*
X95475000Y-32312500I0J262500D01*
G01*
X95475000Y-31687500D01*
G75*
G02*
X95737500Y-31425000I262500J0D01*
G01*
G37*
%TD*%
D12*
%TO.C,Q1*%
X30000000Y-35050000D03*
X30000000Y-36950000D03*
X32000000Y-36000000D03*
%TD*%
%TO.C,Q2*%
X27000000Y-55550000D03*
X27000000Y-57450000D03*
X29000000Y-56500000D03*
%TD*%
%TO.C,Q3*%
X101000000Y-68740000D03*
X99000000Y-69690000D03*
X99000000Y-67790000D03*
%TD*%
%TO.C,Q4*%
X59000000Y-75950000D03*
X57000000Y-76900000D03*
X57000000Y-75000000D03*
%TD*%
%TO.C,Q5*%
X59000000Y-36000000D03*
X57000000Y-36950000D03*
X57000000Y-35050000D03*
%TD*%
%TO.C,Q6*%
X96000000Y-35100000D03*
X96000000Y-37000000D03*
X98000000Y-36050000D03*
%TD*%
%TO.C,Q7*%
X29000000Y-76050000D03*
X27000000Y-77000000D03*
X27000000Y-75100000D03*
%TD*%
%TO.C,Q8*%
X57000000Y-55300000D03*
X57000000Y-57200000D03*
X59000000Y-56250000D03*
%TD*%
%TO.C,R1*%
G36*
G01*
X23737500Y-29675000D02*
X24262500Y-29675000D01*
G75*
G02*
X24525000Y-29937500I0J-262500D01*
G01*
X24525000Y-30562500D01*
G75*
G02*
X24262500Y-30825000I-262500J0D01*
G01*
X23737500Y-30825000D01*
G75*
G02*
X23475000Y-30562500I0J262500D01*
G01*
X23475000Y-29937500D01*
G75*
G02*
X23737500Y-29675000I262500J0D01*
G01*
G37*
G36*
G01*
X23737500Y-31425000D02*
X24262500Y-31425000D01*
G75*
G02*
X24525000Y-31687500I0J-262500D01*
G01*
X24525000Y-32312500D01*
G75*
G02*
X24262500Y-32575000I-262500J0D01*
G01*
X23737500Y-32575000D01*
G75*
G02*
X23475000Y-32312500I0J262500D01*
G01*
X23475000Y-31687500D01*
G75*
G02*
X23737500Y-31425000I262500J0D01*
G01*
G37*
%TD*%
%TO.C,R2*%
G36*
G01*
X26737500Y-39550000D02*
X27262500Y-39550000D01*
G75*
G02*
X27525000Y-39812500I0J-262500D01*
G01*
X27525000Y-40437500D01*
G75*
G02*
X27262500Y-40700000I-262500J0D01*
G01*
X26737500Y-40700000D01*
G75*
G02*
X26475000Y-40437500I0J262500D01*
G01*
X26475000Y-39812500D01*
G75*
G02*
X26737500Y-39550000I262500J0D01*
G01*
G37*
G36*
G01*
X26737500Y-41300000D02*
X27262500Y-41300000D01*
G75*
G02*
X27525000Y-41562500I0J-262500D01*
G01*
X27525000Y-42187500D01*
G75*
G02*
X27262500Y-42450000I-262500J0D01*
G01*
X26737500Y-42450000D01*
G75*
G02*
X26475000Y-42187500I0J262500D01*
G01*
X26475000Y-41562500D01*
G75*
G02*
X26737500Y-41300000I262500J0D01*
G01*
G37*
%TD*%
%TO.C,R3*%
G36*
G01*
X23737500Y-51925000D02*
X24262500Y-51925000D01*
G75*
G02*
X24525000Y-52187500I0J-262500D01*
G01*
X24525000Y-52812500D01*
G75*
G02*
X24262500Y-53075000I-262500J0D01*
G01*
X23737500Y-53075000D01*
G75*
G02*
X23475000Y-52812500I0J262500D01*
G01*
X23475000Y-52187500D01*
G75*
G02*
X23737500Y-51925000I262500J0D01*
G01*
G37*
G36*
G01*
X23737500Y-50175000D02*
X24262500Y-50175000D01*
G75*
G02*
X24525000Y-50437500I0J-262500D01*
G01*
X24525000Y-51062500D01*
G75*
G02*
X24262500Y-51325000I-262500J0D01*
G01*
X23737500Y-51325000D01*
G75*
G02*
X23475000Y-51062500I0J262500D01*
G01*
X23475000Y-50437500D01*
G75*
G02*
X23737500Y-50175000I262500J0D01*
G01*
G37*
%TD*%
%TO.C,R4*%
G36*
G01*
X26737500Y-61425000D02*
X27262500Y-61425000D01*
G75*
G02*
X27525000Y-61687500I0J-262500D01*
G01*
X27525000Y-62312500D01*
G75*
G02*
X27262500Y-62575000I-262500J0D01*
G01*
X26737500Y-62575000D01*
G75*
G02*
X26475000Y-62312500I0J262500D01*
G01*
X26475000Y-61687500D01*
G75*
G02*
X26737500Y-61425000I262500J0D01*
G01*
G37*
G36*
G01*
X26737500Y-59675000D02*
X27262500Y-59675000D01*
G75*
G02*
X27525000Y-59937500I0J-262500D01*
G01*
X27525000Y-60562500D01*
G75*
G02*
X27262500Y-60825000I-262500J0D01*
G01*
X26737500Y-60825000D01*
G75*
G02*
X26475000Y-60562500I0J262500D01*
G01*
X26475000Y-59937500D01*
G75*
G02*
X26737500Y-59675000I262500J0D01*
G01*
G37*
%TD*%
%TO.C,R5*%
G36*
G01*
X26737500Y-31425000D02*
X27262500Y-31425000D01*
G75*
G02*
X27525000Y-31687500I0J-262500D01*
G01*
X27525000Y-32312500D01*
G75*
G02*
X27262500Y-32575000I-262500J0D01*
G01*
X26737500Y-32575000D01*
G75*
G02*
X26475000Y-32312500I0J262500D01*
G01*
X26475000Y-31687500D01*
G75*
G02*
X26737500Y-31425000I262500J0D01*
G01*
G37*
G36*
G01*
X26737500Y-29675000D02*
X27262500Y-29675000D01*
G75*
G02*
X27525000Y-29937500I0J-262500D01*
G01*
X27525000Y-30562500D01*
G75*
G02*
X27262500Y-30825000I-262500J0D01*
G01*
X26737500Y-30825000D01*
G75*
G02*
X26475000Y-30562500I0J262500D01*
G01*
X26475000Y-29937500D01*
G75*
G02*
X26737500Y-29675000I262500J0D01*
G01*
G37*
%TD*%
%TO.C,R6*%
G36*
G01*
X29737500Y-41300000D02*
X30262500Y-41300000D01*
G75*
G02*
X30525000Y-41562500I0J-262500D01*
G01*
X30525000Y-42187500D01*
G75*
G02*
X30262500Y-42450000I-262500J0D01*
G01*
X29737500Y-42450000D01*
G75*
G02*
X29475000Y-42187500I0J262500D01*
G01*
X29475000Y-41562500D01*
G75*
G02*
X29737500Y-41300000I262500J0D01*
G01*
G37*
G36*
G01*
X29737500Y-39550000D02*
X30262500Y-39550000D01*
G75*
G02*
X30525000Y-39812500I0J-262500D01*
G01*
X30525000Y-40437500D01*
G75*
G02*
X30262500Y-40700000I-262500J0D01*
G01*
X29737500Y-40700000D01*
G75*
G02*
X29475000Y-40437500I0J262500D01*
G01*
X29475000Y-39812500D01*
G75*
G02*
X29737500Y-39550000I262500J0D01*
G01*
G37*
%TD*%
%TO.C,R7*%
G36*
G01*
X26737500Y-50175000D02*
X27262500Y-50175000D01*
G75*
G02*
X27525000Y-50437500I0J-262500D01*
G01*
X27525000Y-51062500D01*
G75*
G02*
X27262500Y-51325000I-262500J0D01*
G01*
X26737500Y-51325000D01*
G75*
G02*
X26475000Y-51062500I0J262500D01*
G01*
X26475000Y-50437500D01*
G75*
G02*
X26737500Y-50175000I262500J0D01*
G01*
G37*
G36*
G01*
X26737500Y-51925000D02*
X27262500Y-51925000D01*
G75*
G02*
X27525000Y-52187500I0J-262500D01*
G01*
X27525000Y-52812500D01*
G75*
G02*
X27262500Y-53075000I-262500J0D01*
G01*
X26737500Y-53075000D01*
G75*
G02*
X26475000Y-52812500I0J262500D01*
G01*
X26475000Y-52187500D01*
G75*
G02*
X26737500Y-51925000I262500J0D01*
G01*
G37*
%TD*%
%TO.C,R8*%
G36*
G01*
X29737500Y-59675000D02*
X30262500Y-59675000D01*
G75*
G02*
X30525000Y-59937500I0J-262500D01*
G01*
X30525000Y-60562500D01*
G75*
G02*
X30262500Y-60825000I-262500J0D01*
G01*
X29737500Y-60825000D01*
G75*
G02*
X29475000Y-60562500I0J262500D01*
G01*
X29475000Y-59937500D01*
G75*
G02*
X29737500Y-59675000I262500J0D01*
G01*
G37*
G36*
G01*
X29737500Y-61425000D02*
X30262500Y-61425000D01*
G75*
G02*
X30525000Y-61687500I0J-262500D01*
G01*
X30525000Y-62312500D01*
G75*
G02*
X30262500Y-62575000I-262500J0D01*
G01*
X29737500Y-62575000D01*
G75*
G02*
X29475000Y-62312500I0J262500D01*
G01*
X29475000Y-61687500D01*
G75*
G02*
X29737500Y-61425000I262500J0D01*
G01*
G37*
%TD*%
%TO.C,R9*%
G36*
G01*
X83737500Y-58175000D02*
X84262500Y-58175000D01*
G75*
G02*
X84525000Y-58437500I0J-262500D01*
G01*
X84525000Y-59062500D01*
G75*
G02*
X84262500Y-59325000I-262500J0D01*
G01*
X83737500Y-59325000D01*
G75*
G02*
X83475000Y-59062500I0J262500D01*
G01*
X83475000Y-58437500D01*
G75*
G02*
X83737500Y-58175000I262500J0D01*
G01*
G37*
G36*
G01*
X83737500Y-59925000D02*
X84262500Y-59925000D01*
G75*
G02*
X84525000Y-60187500I0J-262500D01*
G01*
X84525000Y-60812500D01*
G75*
G02*
X84262500Y-61075000I-262500J0D01*
G01*
X83737500Y-61075000D01*
G75*
G02*
X83475000Y-60812500I0J262500D01*
G01*
X83475000Y-60187500D01*
G75*
G02*
X83737500Y-59925000I262500J0D01*
G01*
G37*
%TD*%
%TO.C,R10*%
G36*
G01*
X80737500Y-59925000D02*
X81262500Y-59925000D01*
G75*
G02*
X81525000Y-60187500I0J-262500D01*
G01*
X81525000Y-60812500D01*
G75*
G02*
X81262500Y-61075000I-262500J0D01*
G01*
X80737500Y-61075000D01*
G75*
G02*
X80475000Y-60812500I0J262500D01*
G01*
X80475000Y-60187500D01*
G75*
G02*
X80737500Y-59925000I262500J0D01*
G01*
G37*
G36*
G01*
X80737500Y-58175000D02*
X81262500Y-58175000D01*
G75*
G02*
X81525000Y-58437500I0J-262500D01*
G01*
X81525000Y-59062500D01*
G75*
G02*
X81262500Y-59325000I-262500J0D01*
G01*
X80737500Y-59325000D01*
G75*
G02*
X80475000Y-59062500I0J262500D01*
G01*
X80475000Y-58437500D01*
G75*
G02*
X80737500Y-58175000I262500J0D01*
G01*
G37*
%TD*%
%TO.C,R11*%
G36*
G01*
X98737500Y-63925000D02*
X99262500Y-63925000D01*
G75*
G02*
X99525000Y-64187500I0J-262500D01*
G01*
X99525000Y-64812500D01*
G75*
G02*
X99262500Y-65075000I-262500J0D01*
G01*
X98737500Y-65075000D01*
G75*
G02*
X98475000Y-64812500I0J262500D01*
G01*
X98475000Y-64187500D01*
G75*
G02*
X98737500Y-63925000I262500J0D01*
G01*
G37*
G36*
G01*
X98737500Y-62175000D02*
X99262500Y-62175000D01*
G75*
G02*
X99525000Y-62437500I0J-262500D01*
G01*
X99525000Y-63062500D01*
G75*
G02*
X99262500Y-63325000I-262500J0D01*
G01*
X98737500Y-63325000D01*
G75*
G02*
X98475000Y-63062500I0J262500D01*
G01*
X98475000Y-62437500D01*
G75*
G02*
X98737500Y-62175000I262500J0D01*
G01*
G37*
%TD*%
%TO.C,R12*%
G36*
G01*
X92737500Y-73925000D02*
X93262500Y-73925000D01*
G75*
G02*
X93525000Y-74187500I0J-262500D01*
G01*
X93525000Y-74812500D01*
G75*
G02*
X93262500Y-75075000I-262500J0D01*
G01*
X92737500Y-75075000D01*
G75*
G02*
X92475000Y-74812500I0J262500D01*
G01*
X92475000Y-74187500D01*
G75*
G02*
X92737500Y-73925000I262500J0D01*
G01*
G37*
G36*
G01*
X92737500Y-72175000D02*
X93262500Y-72175000D01*
G75*
G02*
X93525000Y-72437500I0J-262500D01*
G01*
X93525000Y-73062500D01*
G75*
G02*
X93262500Y-73325000I-262500J0D01*
G01*
X92737500Y-73325000D01*
G75*
G02*
X92475000Y-73062500I0J262500D01*
G01*
X92475000Y-72437500D01*
G75*
G02*
X92737500Y-72175000I262500J0D01*
G01*
G37*
%TD*%
%TO.C,R13*%
G36*
G01*
X56737500Y-71425000D02*
X57262500Y-71425000D01*
G75*
G02*
X57525000Y-71687500I0J-262500D01*
G01*
X57525000Y-72312500D01*
G75*
G02*
X57262500Y-72575000I-262500J0D01*
G01*
X56737500Y-72575000D01*
G75*
G02*
X56475000Y-72312500I0J262500D01*
G01*
X56475000Y-71687500D01*
G75*
G02*
X56737500Y-71425000I262500J0D01*
G01*
G37*
G36*
G01*
X56737500Y-69675000D02*
X57262500Y-69675000D01*
G75*
G02*
X57525000Y-69937500I0J-262500D01*
G01*
X57525000Y-70562500D01*
G75*
G02*
X57262500Y-70825000I-262500J0D01*
G01*
X56737500Y-70825000D01*
G75*
G02*
X56475000Y-70562500I0J262500D01*
G01*
X56475000Y-69937500D01*
G75*
G02*
X56737500Y-69675000I262500J0D01*
G01*
G37*
%TD*%
%TO.C,R14*%
G36*
G01*
X53737500Y-81425000D02*
X54262500Y-81425000D01*
G75*
G02*
X54525000Y-81687500I0J-262500D01*
G01*
X54525000Y-82312500D01*
G75*
G02*
X54262500Y-82575000I-262500J0D01*
G01*
X53737500Y-82575000D01*
G75*
G02*
X53475000Y-82312500I0J262500D01*
G01*
X53475000Y-81687500D01*
G75*
G02*
X53737500Y-81425000I262500J0D01*
G01*
G37*
G36*
G01*
X53737500Y-79675000D02*
X54262500Y-79675000D01*
G75*
G02*
X54525000Y-79937500I0J-262500D01*
G01*
X54525000Y-80562500D01*
G75*
G02*
X54262500Y-80825000I-262500J0D01*
G01*
X53737500Y-80825000D01*
G75*
G02*
X53475000Y-80562500I0J262500D01*
G01*
X53475000Y-79937500D01*
G75*
G02*
X53737500Y-79675000I262500J0D01*
G01*
G37*
%TD*%
%TO.C,R15*%
G36*
G01*
X56737500Y-29675000D02*
X57262500Y-29675000D01*
G75*
G02*
X57525000Y-29937500I0J-262500D01*
G01*
X57525000Y-30562500D01*
G75*
G02*
X57262500Y-30825000I-262500J0D01*
G01*
X56737500Y-30825000D01*
G75*
G02*
X56475000Y-30562500I0J262500D01*
G01*
X56475000Y-29937500D01*
G75*
G02*
X56737500Y-29675000I262500J0D01*
G01*
G37*
G36*
G01*
X56737500Y-31425000D02*
X57262500Y-31425000D01*
G75*
G02*
X57525000Y-31687500I0J-262500D01*
G01*
X57525000Y-32312500D01*
G75*
G02*
X57262500Y-32575000I-262500J0D01*
G01*
X56737500Y-32575000D01*
G75*
G02*
X56475000Y-32312500I0J262500D01*
G01*
X56475000Y-31687500D01*
G75*
G02*
X56737500Y-31425000I262500J0D01*
G01*
G37*
%TD*%
%TO.C,R16*%
G36*
G01*
X53737500Y-39675000D02*
X54262500Y-39675000D01*
G75*
G02*
X54525000Y-39937500I0J-262500D01*
G01*
X54525000Y-40562500D01*
G75*
G02*
X54262500Y-40825000I-262500J0D01*
G01*
X53737500Y-40825000D01*
G75*
G02*
X53475000Y-40562500I0J262500D01*
G01*
X53475000Y-39937500D01*
G75*
G02*
X53737500Y-39675000I262500J0D01*
G01*
G37*
G36*
G01*
X53737500Y-41425000D02*
X54262500Y-41425000D01*
G75*
G02*
X54525000Y-41687500I0J-262500D01*
G01*
X54525000Y-42312500D01*
G75*
G02*
X54262500Y-42575000I-262500J0D01*
G01*
X53737500Y-42575000D01*
G75*
G02*
X53475000Y-42312500I0J262500D01*
G01*
X53475000Y-41687500D01*
G75*
G02*
X53737500Y-41425000I262500J0D01*
G01*
G37*
%TD*%
%TO.C,R17*%
G36*
G01*
X101737500Y-63925000D02*
X102262500Y-63925000D01*
G75*
G02*
X102525000Y-64187500I0J-262500D01*
G01*
X102525000Y-64812500D01*
G75*
G02*
X102262500Y-65075000I-262500J0D01*
G01*
X101737500Y-65075000D01*
G75*
G02*
X101475000Y-64812500I0J262500D01*
G01*
X101475000Y-64187500D01*
G75*
G02*
X101737500Y-63925000I262500J0D01*
G01*
G37*
G36*
G01*
X101737500Y-62175000D02*
X102262500Y-62175000D01*
G75*
G02*
X102525000Y-62437500I0J-262500D01*
G01*
X102525000Y-63062500D01*
G75*
G02*
X102262500Y-63325000I-262500J0D01*
G01*
X101737500Y-63325000D01*
G75*
G02*
X101475000Y-63062500I0J262500D01*
G01*
X101475000Y-62437500D01*
G75*
G02*
X101737500Y-62175000I262500J0D01*
G01*
G37*
%TD*%
%TO.C,R18*%
G36*
G01*
X95737500Y-72175000D02*
X96262500Y-72175000D01*
G75*
G02*
X96525000Y-72437500I0J-262500D01*
G01*
X96525000Y-73062500D01*
G75*
G02*
X96262500Y-73325000I-262500J0D01*
G01*
X95737500Y-73325000D01*
G75*
G02*
X95475000Y-73062500I0J262500D01*
G01*
X95475000Y-72437500D01*
G75*
G02*
X95737500Y-72175000I262500J0D01*
G01*
G37*
G36*
G01*
X95737500Y-73925000D02*
X96262500Y-73925000D01*
G75*
G02*
X96525000Y-74187500I0J-262500D01*
G01*
X96525000Y-74812500D01*
G75*
G02*
X96262500Y-75075000I-262500J0D01*
G01*
X95737500Y-75075000D01*
G75*
G02*
X95475000Y-74812500I0J262500D01*
G01*
X95475000Y-74187500D01*
G75*
G02*
X95737500Y-73925000I262500J0D01*
G01*
G37*
%TD*%
%TO.C,R19*%
G36*
G01*
X59737500Y-69675000D02*
X60262500Y-69675000D01*
G75*
G02*
X60525000Y-69937500I0J-262500D01*
G01*
X60525000Y-70562500D01*
G75*
G02*
X60262500Y-70825000I-262500J0D01*
G01*
X59737500Y-70825000D01*
G75*
G02*
X59475000Y-70562500I0J262500D01*
G01*
X59475000Y-69937500D01*
G75*
G02*
X59737500Y-69675000I262500J0D01*
G01*
G37*
G36*
G01*
X59737500Y-71425000D02*
X60262500Y-71425000D01*
G75*
G02*
X60525000Y-71687500I0J-262500D01*
G01*
X60525000Y-72312500D01*
G75*
G02*
X60262500Y-72575000I-262500J0D01*
G01*
X59737500Y-72575000D01*
G75*
G02*
X59475000Y-72312500I0J262500D01*
G01*
X59475000Y-71687500D01*
G75*
G02*
X59737500Y-71425000I262500J0D01*
G01*
G37*
%TD*%
%TO.C,R20*%
G36*
G01*
X56737500Y-79675000D02*
X57262500Y-79675000D01*
G75*
G02*
X57525000Y-79937500I0J-262500D01*
G01*
X57525000Y-80562500D01*
G75*
G02*
X57262500Y-80825000I-262500J0D01*
G01*
X56737500Y-80825000D01*
G75*
G02*
X56475000Y-80562500I0J262500D01*
G01*
X56475000Y-79937500D01*
G75*
G02*
X56737500Y-79675000I262500J0D01*
G01*
G37*
G36*
G01*
X56737500Y-81425000D02*
X57262500Y-81425000D01*
G75*
G02*
X57525000Y-81687500I0J-262500D01*
G01*
X57525000Y-82312500D01*
G75*
G02*
X57262500Y-82575000I-262500J0D01*
G01*
X56737500Y-82575000D01*
G75*
G02*
X56475000Y-82312500I0J262500D01*
G01*
X56475000Y-81687500D01*
G75*
G02*
X56737500Y-81425000I262500J0D01*
G01*
G37*
%TD*%
%TO.C,R21*%
G36*
G01*
X59737500Y-31425000D02*
X60262500Y-31425000D01*
G75*
G02*
X60525000Y-31687500I0J-262500D01*
G01*
X60525000Y-32312500D01*
G75*
G02*
X60262500Y-32575000I-262500J0D01*
G01*
X59737500Y-32575000D01*
G75*
G02*
X59475000Y-32312500I0J262500D01*
G01*
X59475000Y-31687500D01*
G75*
G02*
X59737500Y-31425000I262500J0D01*
G01*
G37*
G36*
G01*
X59737500Y-29675000D02*
X60262500Y-29675000D01*
G75*
G02*
X60525000Y-29937500I0J-262500D01*
G01*
X60525000Y-30562500D01*
G75*
G02*
X60262500Y-30825000I-262500J0D01*
G01*
X59737500Y-30825000D01*
G75*
G02*
X59475000Y-30562500I0J262500D01*
G01*
X59475000Y-29937500D01*
G75*
G02*
X59737500Y-29675000I262500J0D01*
G01*
G37*
%TD*%
%TO.C,R22*%
G36*
G01*
X56737500Y-41425000D02*
X57262500Y-41425000D01*
G75*
G02*
X57525000Y-41687500I0J-262500D01*
G01*
X57525000Y-42312500D01*
G75*
G02*
X57262500Y-42575000I-262500J0D01*
G01*
X56737500Y-42575000D01*
G75*
G02*
X56475000Y-42312500I0J262500D01*
G01*
X56475000Y-41687500D01*
G75*
G02*
X56737500Y-41425000I262500J0D01*
G01*
G37*
G36*
G01*
X56737500Y-39675000D02*
X57262500Y-39675000D01*
G75*
G02*
X57525000Y-39937500I0J-262500D01*
G01*
X57525000Y-40562500D01*
G75*
G02*
X57262500Y-40825000I-262500J0D01*
G01*
X56737500Y-40825000D01*
G75*
G02*
X56475000Y-40562500I0J262500D01*
G01*
X56475000Y-39937500D01*
G75*
G02*
X56737500Y-39675000I262500J0D01*
G01*
G37*
%TD*%
%TO.C,R23*%
G36*
G01*
X89737500Y-31425000D02*
X90262500Y-31425000D01*
G75*
G02*
X90525000Y-31687500I0J-262500D01*
G01*
X90525000Y-32312500D01*
G75*
G02*
X90262500Y-32575000I-262500J0D01*
G01*
X89737500Y-32575000D01*
G75*
G02*
X89475000Y-32312500I0J262500D01*
G01*
X89475000Y-31687500D01*
G75*
G02*
X89737500Y-31425000I262500J0D01*
G01*
G37*
G36*
G01*
X89737500Y-29675000D02*
X90262500Y-29675000D01*
G75*
G02*
X90525000Y-29937500I0J-262500D01*
G01*
X90525000Y-30562500D01*
G75*
G02*
X90262500Y-30825000I-262500J0D01*
G01*
X89737500Y-30825000D01*
G75*
G02*
X89475000Y-30562500I0J262500D01*
G01*
X89475000Y-29937500D01*
G75*
G02*
X89737500Y-29675000I262500J0D01*
G01*
G37*
%TD*%
%TO.C,R24*%
G36*
G01*
X92737500Y-41425000D02*
X93262500Y-41425000D01*
G75*
G02*
X93525000Y-41687500I0J-262500D01*
G01*
X93525000Y-42312500D01*
G75*
G02*
X93262500Y-42575000I-262500J0D01*
G01*
X92737500Y-42575000D01*
G75*
G02*
X92475000Y-42312500I0J262500D01*
G01*
X92475000Y-41687500D01*
G75*
G02*
X92737500Y-41425000I262500J0D01*
G01*
G37*
G36*
G01*
X92737500Y-39675000D02*
X93262500Y-39675000D01*
G75*
G02*
X93525000Y-39937500I0J-262500D01*
G01*
X93525000Y-40562500D01*
G75*
G02*
X93262500Y-40825000I-262500J0D01*
G01*
X92737500Y-40825000D01*
G75*
G02*
X92475000Y-40562500I0J262500D01*
G01*
X92475000Y-39937500D01*
G75*
G02*
X92737500Y-39675000I262500J0D01*
G01*
G37*
%TD*%
%TO.C,R25*%
G36*
G01*
X23737500Y-69675000D02*
X24262500Y-69675000D01*
G75*
G02*
X24525000Y-69937500I0J-262500D01*
G01*
X24525000Y-70562500D01*
G75*
G02*
X24262500Y-70825000I-262500J0D01*
G01*
X23737500Y-70825000D01*
G75*
G02*
X23475000Y-70562500I0J262500D01*
G01*
X23475000Y-69937500D01*
G75*
G02*
X23737500Y-69675000I262500J0D01*
G01*
G37*
G36*
G01*
X23737500Y-71425000D02*
X24262500Y-71425000D01*
G75*
G02*
X24525000Y-71687500I0J-262500D01*
G01*
X24525000Y-72312500D01*
G75*
G02*
X24262500Y-72575000I-262500J0D01*
G01*
X23737500Y-72575000D01*
G75*
G02*
X23475000Y-72312500I0J262500D01*
G01*
X23475000Y-71687500D01*
G75*
G02*
X23737500Y-71425000I262500J0D01*
G01*
G37*
%TD*%
%TO.C,R26*%
G36*
G01*
X26737500Y-79675000D02*
X27262500Y-79675000D01*
G75*
G02*
X27525000Y-79937500I0J-262500D01*
G01*
X27525000Y-80562500D01*
G75*
G02*
X27262500Y-80825000I-262500J0D01*
G01*
X26737500Y-80825000D01*
G75*
G02*
X26475000Y-80562500I0J262500D01*
G01*
X26475000Y-79937500D01*
G75*
G02*
X26737500Y-79675000I262500J0D01*
G01*
G37*
G36*
G01*
X26737500Y-81425000D02*
X27262500Y-81425000D01*
G75*
G02*
X27525000Y-81687500I0J-262500D01*
G01*
X27525000Y-82312500D01*
G75*
G02*
X27262500Y-82575000I-262500J0D01*
G01*
X26737500Y-82575000D01*
G75*
G02*
X26475000Y-82312500I0J262500D01*
G01*
X26475000Y-81687500D01*
G75*
G02*
X26737500Y-81425000I262500J0D01*
G01*
G37*
%TD*%
%TO.C,R27*%
G36*
G01*
X59737500Y-51425000D02*
X60262500Y-51425000D01*
G75*
G02*
X60525000Y-51687500I0J-262500D01*
G01*
X60525000Y-52312500D01*
G75*
G02*
X60262500Y-52575000I-262500J0D01*
G01*
X59737500Y-52575000D01*
G75*
G02*
X59475000Y-52312500I0J262500D01*
G01*
X59475000Y-51687500D01*
G75*
G02*
X59737500Y-51425000I262500J0D01*
G01*
G37*
G36*
G01*
X59737500Y-49675000D02*
X60262500Y-49675000D01*
G75*
G02*
X60525000Y-49937500I0J-262500D01*
G01*
X60525000Y-50562500D01*
G75*
G02*
X60262500Y-50825000I-262500J0D01*
G01*
X59737500Y-50825000D01*
G75*
G02*
X59475000Y-50562500I0J262500D01*
G01*
X59475000Y-49937500D01*
G75*
G02*
X59737500Y-49675000I262500J0D01*
G01*
G37*
%TD*%
%TO.C,R28*%
G36*
G01*
X53737500Y-59675000D02*
X54262500Y-59675000D01*
G75*
G02*
X54525000Y-59937500I0J-262500D01*
G01*
X54525000Y-60562500D01*
G75*
G02*
X54262500Y-60825000I-262500J0D01*
G01*
X53737500Y-60825000D01*
G75*
G02*
X53475000Y-60562500I0J262500D01*
G01*
X53475000Y-59937500D01*
G75*
G02*
X53737500Y-59675000I262500J0D01*
G01*
G37*
G36*
G01*
X53737500Y-61425000D02*
X54262500Y-61425000D01*
G75*
G02*
X54525000Y-61687500I0J-262500D01*
G01*
X54525000Y-62312500D01*
G75*
G02*
X54262500Y-62575000I-262500J0D01*
G01*
X53737500Y-62575000D01*
G75*
G02*
X53475000Y-62312500I0J262500D01*
G01*
X53475000Y-61687500D01*
G75*
G02*
X53737500Y-61425000I262500J0D01*
G01*
G37*
%TD*%
%TO.C,R29*%
G36*
G01*
X95737500Y-39675000D02*
X96262500Y-39675000D01*
G75*
G02*
X96525000Y-39937500I0J-262500D01*
G01*
X96525000Y-40562500D01*
G75*
G02*
X96262500Y-40825000I-262500J0D01*
G01*
X95737500Y-40825000D01*
G75*
G02*
X95475000Y-40562500I0J262500D01*
G01*
X95475000Y-39937500D01*
G75*
G02*
X95737500Y-39675000I262500J0D01*
G01*
G37*
G36*
G01*
X95737500Y-41425000D02*
X96262500Y-41425000D01*
G75*
G02*
X96525000Y-41687500I0J-262500D01*
G01*
X96525000Y-42312500D01*
G75*
G02*
X96262500Y-42575000I-262500J0D01*
G01*
X95737500Y-42575000D01*
G75*
G02*
X95475000Y-42312500I0J262500D01*
G01*
X95475000Y-41687500D01*
G75*
G02*
X95737500Y-41425000I262500J0D01*
G01*
G37*
%TD*%
%TO.C,R30*%
G36*
G01*
X26737500Y-71425000D02*
X27262500Y-71425000D01*
G75*
G02*
X27525000Y-71687500I0J-262500D01*
G01*
X27525000Y-72312500D01*
G75*
G02*
X27262500Y-72575000I-262500J0D01*
G01*
X26737500Y-72575000D01*
G75*
G02*
X26475000Y-72312500I0J262500D01*
G01*
X26475000Y-71687500D01*
G75*
G02*
X26737500Y-71425000I262500J0D01*
G01*
G37*
G36*
G01*
X26737500Y-69675000D02*
X27262500Y-69675000D01*
G75*
G02*
X27525000Y-69937500I0J-262500D01*
G01*
X27525000Y-70562500D01*
G75*
G02*
X27262500Y-70825000I-262500J0D01*
G01*
X26737500Y-70825000D01*
G75*
G02*
X26475000Y-70562500I0J262500D01*
G01*
X26475000Y-69937500D01*
G75*
G02*
X26737500Y-69675000I262500J0D01*
G01*
G37*
%TD*%
%TO.C,R31*%
G36*
G01*
X29737500Y-79675000D02*
X30262500Y-79675000D01*
G75*
G02*
X30525000Y-79937500I0J-262500D01*
G01*
X30525000Y-80562500D01*
G75*
G02*
X30262500Y-80825000I-262500J0D01*
G01*
X29737500Y-80825000D01*
G75*
G02*
X29475000Y-80562500I0J262500D01*
G01*
X29475000Y-79937500D01*
G75*
G02*
X29737500Y-79675000I262500J0D01*
G01*
G37*
G36*
G01*
X29737500Y-81425000D02*
X30262500Y-81425000D01*
G75*
G02*
X30525000Y-81687500I0J-262500D01*
G01*
X30525000Y-82312500D01*
G75*
G02*
X30262500Y-82575000I-262500J0D01*
G01*
X29737500Y-82575000D01*
G75*
G02*
X29475000Y-82312500I0J262500D01*
G01*
X29475000Y-81687500D01*
G75*
G02*
X29737500Y-81425000I262500J0D01*
G01*
G37*
%TD*%
%TO.C,R32*%
G36*
G01*
X62737500Y-49675000D02*
X63262500Y-49675000D01*
G75*
G02*
X63525000Y-49937500I0J-262500D01*
G01*
X63525000Y-50562500D01*
G75*
G02*
X63262500Y-50825000I-262500J0D01*
G01*
X62737500Y-50825000D01*
G75*
G02*
X62475000Y-50562500I0J262500D01*
G01*
X62475000Y-49937500D01*
G75*
G02*
X62737500Y-49675000I262500J0D01*
G01*
G37*
G36*
G01*
X62737500Y-51425000D02*
X63262500Y-51425000D01*
G75*
G02*
X63525000Y-51687500I0J-262500D01*
G01*
X63525000Y-52312500D01*
G75*
G02*
X63262500Y-52575000I-262500J0D01*
G01*
X62737500Y-52575000D01*
G75*
G02*
X62475000Y-52312500I0J262500D01*
G01*
X62475000Y-51687500D01*
G75*
G02*
X62737500Y-51425000I262500J0D01*
G01*
G37*
%TD*%
%TO.C,R33*%
G36*
G01*
X56737500Y-61425000D02*
X57262500Y-61425000D01*
G75*
G02*
X57525000Y-61687500I0J-262500D01*
G01*
X57525000Y-62312500D01*
G75*
G02*
X57262500Y-62575000I-262500J0D01*
G01*
X56737500Y-62575000D01*
G75*
G02*
X56475000Y-62312500I0J262500D01*
G01*
X56475000Y-61687500D01*
G75*
G02*
X56737500Y-61425000I262500J0D01*
G01*
G37*
G36*
G01*
X56737500Y-59675000D02*
X57262500Y-59675000D01*
G75*
G02*
X57525000Y-59937500I0J-262500D01*
G01*
X57525000Y-60562500D01*
G75*
G02*
X57262500Y-60825000I-262500J0D01*
G01*
X56737500Y-60825000D01*
G75*
G02*
X56475000Y-60562500I0J262500D01*
G01*
X56475000Y-59937500D01*
G75*
G02*
X56737500Y-59675000I262500J0D01*
G01*
G37*
%TD*%
%TO.C,R34*%
G36*
G01*
X59737500Y-59675000D02*
X60262500Y-59675000D01*
G75*
G02*
X60525000Y-59937500I0J-262500D01*
G01*
X60525000Y-60562500D01*
G75*
G02*
X60262500Y-60825000I-262500J0D01*
G01*
X59737500Y-60825000D01*
G75*
G02*
X59475000Y-60562500I0J262500D01*
G01*
X59475000Y-59937500D01*
G75*
G02*
X59737500Y-59675000I262500J0D01*
G01*
G37*
G36*
G01*
X59737500Y-61425000D02*
X60262500Y-61425000D01*
G75*
G02*
X60525000Y-61687500I0J-262500D01*
G01*
X60525000Y-62312500D01*
G75*
G02*
X60262500Y-62575000I-262500J0D01*
G01*
X59737500Y-62575000D01*
G75*
G02*
X59475000Y-62312500I0J262500D01*
G01*
X59475000Y-61687500D01*
G75*
G02*
X59737500Y-61425000I262500J0D01*
G01*
G37*
%TD*%
D13*
%TO.C,U1*%
X81500000Y-30050000D03*
X81500000Y-31000000D03*
X81500000Y-31950000D03*
X83700000Y-31950000D03*
X83700000Y-30050000D03*
%TD*%
D14*
%TO.C,U2*%
X81350000Y-53000000D03*
D15*
X87650000Y-53000000D03*
X87650000Y-50700000D03*
X87650000Y-55300000D03*
%TD*%
M02*
