%TF.GenerationSoftware,KiCad,Pcbnew,(5.1.6)-1*%
%TF.CreationDate,2020-12-18T22:44:25+08:00*%
%TF.ProjectId,_______,2c00e03e-2735-4ef2-9e6b-696361645f70,1.0.1*%
%TF.SameCoordinates,Original*%
%TF.FileFunction,Legend,Top*%
%TF.FilePolarity,Positive*%
%FSLAX46Y46*%
G04 Gerber Fmt 4.6, Leading zero omitted, Abs format (unit mm)*
G04 Created by KiCad (PCBNEW (5.1.6)-1) date 2020-12-18 22:44:25*
%MOMM*%
%LPD*%
G01*
G04 APERTURE LIST*
%ADD10C,0.120000*%
%ADD11C,0.150000*%
G04 APERTURE END LIST*
D10*
%TO.C,C1*%
X76010000Y-31296267D02*
X76010000Y-30953733D01*
X74990000Y-31296267D02*
X74990000Y-30953733D01*
%TO.C,C2*%
X77990000Y-31296267D02*
X77990000Y-30953733D01*
X79010000Y-31296267D02*
X79010000Y-30953733D01*
%TO.C,C3*%
X24510000Y-40828733D02*
X24510000Y-41171267D01*
X23490000Y-40828733D02*
X23490000Y-41171267D01*
%TO.C,C4*%
X23490000Y-60953733D02*
X23490000Y-61296267D01*
X24510000Y-60953733D02*
X24510000Y-61296267D01*
%TO.C,C5*%
X87510000Y-31296267D02*
X87510000Y-30953733D01*
X86490000Y-31296267D02*
X86490000Y-30953733D01*
%TO.C,C6*%
X75510000Y-51296267D02*
X75510000Y-50953733D01*
X74490000Y-51296267D02*
X74490000Y-50953733D01*
%TO.C,C7*%
X78510000Y-51296267D02*
X78510000Y-50953733D01*
X77490000Y-51296267D02*
X77490000Y-50953733D01*
%TO.C,C8*%
X30510000Y-31296267D02*
X30510000Y-30953733D01*
X29490000Y-31296267D02*
X29490000Y-30953733D01*
%TO.C,C9*%
X30510000Y-51796267D02*
X30510000Y-51453733D01*
X29490000Y-51796267D02*
X29490000Y-51453733D01*
%TO.C,C10*%
X33510000Y-41296267D02*
X33510000Y-40953733D01*
X32490000Y-41296267D02*
X32490000Y-40953733D01*
%TO.C,C11*%
X33510000Y-61296267D02*
X33510000Y-60953733D01*
X32490000Y-61296267D02*
X32490000Y-60953733D01*
%TO.C,C12*%
X32490000Y-31296267D02*
X32490000Y-30953733D01*
X33510000Y-31296267D02*
X33510000Y-30953733D01*
%TO.C,C13*%
X32490000Y-51796267D02*
X32490000Y-51453733D01*
X33510000Y-51796267D02*
X33510000Y-51453733D01*
%TO.C,C14*%
X93490000Y-55296267D02*
X93490000Y-54953733D01*
X94510000Y-55296267D02*
X94510000Y-54953733D01*
%TO.C,C15*%
X90490000Y-55296267D02*
X90490000Y-54953733D01*
X91510000Y-55296267D02*
X91510000Y-54953733D01*
%TO.C,C16*%
X92490000Y-68453733D02*
X92490000Y-68796267D01*
X93510000Y-68453733D02*
X93510000Y-68796267D01*
%TO.C,C17*%
X53490000Y-76296267D02*
X53490000Y-75953733D01*
X54510000Y-76296267D02*
X54510000Y-75953733D01*
%TO.C,C18*%
X53490000Y-36296267D02*
X53490000Y-35953733D01*
X54510000Y-36296267D02*
X54510000Y-35953733D01*
%TO.C,C19*%
X98490000Y-73453733D02*
X98490000Y-73796267D01*
X99510000Y-73453733D02*
X99510000Y-73796267D01*
%TO.C,C20*%
X95490000Y-63796267D02*
X95490000Y-63453733D01*
X96510000Y-63796267D02*
X96510000Y-63453733D01*
%TO.C,C21*%
X50490000Y-71296267D02*
X50490000Y-70953733D01*
X51510000Y-71296267D02*
X51510000Y-70953733D01*
%TO.C,C22*%
X101490000Y-73796267D02*
X101490000Y-73453733D01*
X102510000Y-73796267D02*
X102510000Y-73453733D01*
%TO.C,C23*%
X63510000Y-70953733D02*
X63510000Y-71296267D01*
X62490000Y-70953733D02*
X62490000Y-71296267D01*
%TO.C,C24*%
X59490000Y-81296267D02*
X59490000Y-80953733D01*
X60510000Y-81296267D02*
X60510000Y-80953733D01*
%TO.C,C25*%
X63510000Y-31296267D02*
X63510000Y-30953733D01*
X62490000Y-31296267D02*
X62490000Y-30953733D01*
%TO.C,C26*%
X63510000Y-36296267D02*
X63510000Y-35953733D01*
X62490000Y-36296267D02*
X62490000Y-35953733D01*
%TO.C,C27*%
X92490000Y-63796267D02*
X92490000Y-63453733D01*
X93510000Y-63796267D02*
X93510000Y-63453733D01*
%TO.C,C28*%
X53490000Y-71296267D02*
X53490000Y-70953733D01*
X54510000Y-71296267D02*
X54510000Y-70953733D01*
%TO.C,C29*%
X54510000Y-31296267D02*
X54510000Y-30953733D01*
X53490000Y-31296267D02*
X53490000Y-30953733D01*
%TO.C,C30*%
X50490000Y-31296267D02*
X50490000Y-30953733D01*
X51510000Y-31296267D02*
X51510000Y-30953733D01*
%TO.C,C31*%
X89490000Y-41296267D02*
X89490000Y-40953733D01*
X90510000Y-41296267D02*
X90510000Y-40953733D01*
%TO.C,C32*%
X24510000Y-80953733D02*
X24510000Y-81296267D01*
X23490000Y-80953733D02*
X23490000Y-81296267D01*
%TO.C,C33*%
X53490000Y-56296267D02*
X53490000Y-55953733D01*
X54510000Y-56296267D02*
X54510000Y-55953733D01*
%TO.C,C34*%
X93510000Y-31296267D02*
X93510000Y-30953733D01*
X92490000Y-31296267D02*
X92490000Y-30953733D01*
%TO.C,C35*%
X99510000Y-41296267D02*
X99510000Y-40953733D01*
X98490000Y-41296267D02*
X98490000Y-40953733D01*
%TO.C,C36*%
X33510000Y-81296267D02*
X33510000Y-80953733D01*
X32490000Y-81296267D02*
X32490000Y-80953733D01*
%TO.C,C37*%
X101490000Y-35953733D02*
X101490000Y-36296267D01*
X102510000Y-35953733D02*
X102510000Y-36296267D01*
%TO.C,C38*%
X57510000Y-51296267D02*
X57510000Y-50953733D01*
X56490000Y-51296267D02*
X56490000Y-50953733D01*
%TO.C,C39*%
X63510000Y-61296267D02*
X63510000Y-60953733D01*
X62490000Y-61296267D02*
X62490000Y-60953733D01*
%TO.C,C40*%
X30510000Y-71296267D02*
X30510000Y-70953733D01*
X29490000Y-71296267D02*
X29490000Y-70953733D01*
%TO.C,C41*%
X32490000Y-76296267D02*
X32490000Y-75953733D01*
X33510000Y-76296267D02*
X33510000Y-75953733D01*
%TO.C,C42*%
X63510000Y-56296267D02*
X63510000Y-55953733D01*
X62490000Y-56296267D02*
X62490000Y-55953733D01*
%TO.C,C43*%
X99510000Y-31276267D02*
X99510000Y-30933733D01*
X98490000Y-31276267D02*
X98490000Y-30933733D01*
%TO.C,C44*%
X53490000Y-51296267D02*
X53490000Y-50953733D01*
X54510000Y-51296267D02*
X54510000Y-50953733D01*
%TO.C,C45*%
X32490000Y-71296267D02*
X32490000Y-70953733D01*
X33510000Y-71296267D02*
X33510000Y-70953733D01*
%TO.C,C46*%
X101490000Y-31296267D02*
X101490000Y-30953733D01*
X102510000Y-31296267D02*
X102510000Y-30953733D01*
%TO.C,D1*%
X96735000Y-70285000D02*
X96735000Y-67825000D01*
X95265000Y-70285000D02*
X96735000Y-70285000D01*
X95265000Y-67825000D02*
X95265000Y-70285000D01*
%TO.C,J1*%
X18670000Y-23870000D02*
X21330000Y-23870000D01*
X18670000Y-21270000D02*
X18670000Y-23870000D01*
X21330000Y-21270000D02*
X21330000Y-23870000D01*
X18670000Y-21270000D02*
X21330000Y-21270000D01*
X18670000Y-20000000D02*
X18670000Y-18670000D01*
X18670000Y-18670000D02*
X20000000Y-18670000D01*
%TO.C,J2*%
X18670000Y-37130000D02*
X20000000Y-37130000D01*
X18670000Y-38460000D02*
X18670000Y-37130000D01*
X18670000Y-39730000D02*
X21330000Y-39730000D01*
X21330000Y-39730000D02*
X21330000Y-42330000D01*
X18670000Y-39730000D02*
X18670000Y-42330000D01*
X18670000Y-42330000D02*
X21330000Y-42330000D01*
%TO.C,J3*%
X18670000Y-57130000D02*
X20000000Y-57130000D01*
X18670000Y-58460000D02*
X18670000Y-57130000D01*
X18670000Y-59730000D02*
X21330000Y-59730000D01*
X21330000Y-59730000D02*
X21330000Y-62330000D01*
X18670000Y-59730000D02*
X18670000Y-62330000D01*
X18670000Y-62330000D02*
X21330000Y-62330000D01*
%TO.C,J4*%
X38330000Y-37130000D02*
X35670000Y-37130000D01*
X38330000Y-39730000D02*
X38330000Y-37130000D01*
X35670000Y-39730000D02*
X35670000Y-37130000D01*
X38330000Y-39730000D02*
X35670000Y-39730000D01*
X38330000Y-41000000D02*
X38330000Y-42330000D01*
X38330000Y-42330000D02*
X37000000Y-42330000D01*
%TO.C,J5*%
X38330000Y-57130000D02*
X35670000Y-57130000D01*
X38330000Y-59730000D02*
X38330000Y-57130000D01*
X35670000Y-59730000D02*
X35670000Y-57130000D01*
X38330000Y-59730000D02*
X35670000Y-59730000D01*
X38330000Y-61000000D02*
X38330000Y-62330000D01*
X38330000Y-62330000D02*
X37000000Y-62330000D01*
%TO.C,J6*%
X87670000Y-69630000D02*
X89000000Y-69630000D01*
X87670000Y-70960000D02*
X87670000Y-69630000D01*
X87670000Y-72230000D02*
X90330000Y-72230000D01*
X90330000Y-72230000D02*
X90330000Y-74830000D01*
X87670000Y-72230000D02*
X87670000Y-74830000D01*
X87670000Y-74830000D02*
X90330000Y-74830000D01*
%TO.C,J7*%
X48670000Y-82330000D02*
X51330000Y-82330000D01*
X48670000Y-79730000D02*
X48670000Y-82330000D01*
X51330000Y-79730000D02*
X51330000Y-82330000D01*
X48670000Y-79730000D02*
X51330000Y-79730000D01*
X48670000Y-78460000D02*
X48670000Y-77130000D01*
X48670000Y-77130000D02*
X50000000Y-77130000D01*
%TO.C,J8*%
X48670000Y-37130000D02*
X50000000Y-37130000D01*
X48670000Y-38460000D02*
X48670000Y-37130000D01*
X48670000Y-39730000D02*
X51330000Y-39730000D01*
X51330000Y-39730000D02*
X51330000Y-42330000D01*
X48670000Y-39730000D02*
X48670000Y-42330000D01*
X48670000Y-42330000D02*
X51330000Y-42330000D01*
%TO.C,J9*%
X107330000Y-69630000D02*
X104670000Y-69630000D01*
X107330000Y-72230000D02*
X107330000Y-69630000D01*
X104670000Y-72230000D02*
X104670000Y-69630000D01*
X107330000Y-72230000D02*
X104670000Y-72230000D01*
X107330000Y-73500000D02*
X107330000Y-74830000D01*
X107330000Y-74830000D02*
X106000000Y-74830000D01*
%TO.C,J10*%
X68330000Y-74830000D02*
X67000000Y-74830000D01*
X68330000Y-73500000D02*
X68330000Y-74830000D01*
X68330000Y-72230000D02*
X65670000Y-72230000D01*
X65670000Y-72230000D02*
X65670000Y-69630000D01*
X68330000Y-72230000D02*
X68330000Y-69630000D01*
X68330000Y-69630000D02*
X65670000Y-69630000D01*
%TO.C,J11*%
X65670000Y-82330000D02*
X68330000Y-82330000D01*
X65670000Y-79730000D02*
X65670000Y-82330000D01*
X68330000Y-79730000D02*
X68330000Y-82330000D01*
X65670000Y-79730000D02*
X68330000Y-79730000D01*
X65670000Y-78460000D02*
X65670000Y-77130000D01*
X65670000Y-77130000D02*
X67000000Y-77130000D01*
%TO.C,J12*%
X68330000Y-37130000D02*
X65670000Y-37130000D01*
X68330000Y-39730000D02*
X68330000Y-37130000D01*
X65670000Y-39730000D02*
X65670000Y-37130000D01*
X68330000Y-39730000D02*
X65670000Y-39730000D01*
X68330000Y-41000000D02*
X68330000Y-42330000D01*
X68330000Y-42330000D02*
X67000000Y-42330000D01*
%TO.C,J13*%
X84670000Y-42330000D02*
X87330000Y-42330000D01*
X84670000Y-39730000D02*
X84670000Y-42330000D01*
X87330000Y-39730000D02*
X87330000Y-42330000D01*
X84670000Y-39730000D02*
X87330000Y-39730000D01*
X84670000Y-38460000D02*
X84670000Y-37130000D01*
X84670000Y-37130000D02*
X86000000Y-37130000D01*
%TO.C,J14*%
X18670000Y-82370000D02*
X21330000Y-82370000D01*
X18670000Y-79770000D02*
X18670000Y-82370000D01*
X21330000Y-79770000D02*
X21330000Y-82370000D01*
X18670000Y-79770000D02*
X21330000Y-79770000D01*
X18670000Y-78500000D02*
X18670000Y-77170000D01*
X18670000Y-77170000D02*
X20000000Y-77170000D01*
%TO.C,J15*%
X48690000Y-57170000D02*
X50020000Y-57170000D01*
X48690000Y-58500000D02*
X48690000Y-57170000D01*
X48690000Y-59770000D02*
X51350000Y-59770000D01*
X51350000Y-59770000D02*
X51350000Y-62370000D01*
X48690000Y-59770000D02*
X48690000Y-62370000D01*
X48690000Y-62370000D02*
X51350000Y-62370000D01*
%TO.C,J16*%
X107330000Y-42330000D02*
X106000000Y-42330000D01*
X107330000Y-41000000D02*
X107330000Y-42330000D01*
X107330000Y-39730000D02*
X104670000Y-39730000D01*
X104670000Y-39730000D02*
X104670000Y-37130000D01*
X107330000Y-39730000D02*
X107330000Y-37130000D01*
X107330000Y-37130000D02*
X104670000Y-37130000D01*
%TO.C,J17*%
X38330000Y-82330000D02*
X37000000Y-82330000D01*
X38330000Y-81000000D02*
X38330000Y-82330000D01*
X38330000Y-79730000D02*
X35670000Y-79730000D01*
X35670000Y-79730000D02*
X35670000Y-77130000D01*
X38330000Y-79730000D02*
X38330000Y-77130000D01*
X38330000Y-77130000D02*
X35670000Y-77130000D01*
%TO.C,J18*%
X68330000Y-62330000D02*
X67000000Y-62330000D01*
X68330000Y-61000000D02*
X68330000Y-62330000D01*
X68330000Y-59730000D02*
X65670000Y-59730000D01*
X65670000Y-59730000D02*
X65670000Y-57130000D01*
X68330000Y-59730000D02*
X68330000Y-57130000D01*
X68330000Y-57130000D02*
X65670000Y-57130000D01*
%TO.C,L1*%
X95490000Y-30953733D02*
X95490000Y-31296267D01*
X96510000Y-30953733D02*
X96510000Y-31296267D01*
%TO.C,Q1*%
X31760000Y-37580000D02*
X30300000Y-37580000D01*
X31760000Y-34420000D02*
X29600000Y-34420000D01*
X31760000Y-34420000D02*
X31760000Y-35350000D01*
X31760000Y-37580000D02*
X31760000Y-36650000D01*
%TO.C,Q2*%
X28760000Y-58080000D02*
X27300000Y-58080000D01*
X28760000Y-54920000D02*
X26600000Y-54920000D01*
X28760000Y-54920000D02*
X28760000Y-55850000D01*
X28760000Y-58080000D02*
X28760000Y-57150000D01*
%TO.C,Q3*%
X100760000Y-70320000D02*
X100760000Y-69390000D01*
X100760000Y-67160000D02*
X100760000Y-68090000D01*
X100760000Y-67160000D02*
X98600000Y-67160000D01*
X100760000Y-70320000D02*
X99300000Y-70320000D01*
%TO.C,Q4*%
X58760000Y-77530000D02*
X58760000Y-76600000D01*
X58760000Y-74370000D02*
X58760000Y-75300000D01*
X58760000Y-74370000D02*
X56600000Y-74370000D01*
X58760000Y-77530000D02*
X57300000Y-77530000D01*
%TO.C,Q5*%
X58760000Y-37580000D02*
X58760000Y-36650000D01*
X58760000Y-34420000D02*
X58760000Y-35350000D01*
X58760000Y-34420000D02*
X56600000Y-34420000D01*
X58760000Y-37580000D02*
X57300000Y-37580000D01*
%TO.C,Q6*%
X97760000Y-37630000D02*
X96300000Y-37630000D01*
X97760000Y-34470000D02*
X95600000Y-34470000D01*
X97760000Y-34470000D02*
X97760000Y-35400000D01*
X97760000Y-37630000D02*
X97760000Y-36700000D01*
%TO.C,Q7*%
X28760000Y-77630000D02*
X28760000Y-76700000D01*
X28760000Y-74470000D02*
X28760000Y-75400000D01*
X28760000Y-74470000D02*
X26600000Y-74470000D01*
X28760000Y-77630000D02*
X27300000Y-77630000D01*
%TO.C,Q8*%
X58760000Y-57830000D02*
X57300000Y-57830000D01*
X58760000Y-54670000D02*
X56600000Y-54670000D01*
X58760000Y-54670000D02*
X58760000Y-55600000D01*
X58760000Y-57830000D02*
X58760000Y-56900000D01*
%TO.C,R1*%
X23490000Y-30953733D02*
X23490000Y-31296267D01*
X24510000Y-30953733D02*
X24510000Y-31296267D01*
%TO.C,R2*%
X26490000Y-40828733D02*
X26490000Y-41171267D01*
X27510000Y-40828733D02*
X27510000Y-41171267D01*
%TO.C,R3*%
X24510000Y-51453733D02*
X24510000Y-51796267D01*
X23490000Y-51453733D02*
X23490000Y-51796267D01*
%TO.C,R4*%
X27510000Y-60953733D02*
X27510000Y-61296267D01*
X26490000Y-60953733D02*
X26490000Y-61296267D01*
%TO.C,R5*%
X27510000Y-30953733D02*
X27510000Y-31296267D01*
X26490000Y-30953733D02*
X26490000Y-31296267D01*
%TO.C,R6*%
X30510000Y-40828733D02*
X30510000Y-41171267D01*
X29490000Y-40828733D02*
X29490000Y-41171267D01*
%TO.C,R7*%
X26490000Y-51453733D02*
X26490000Y-51796267D01*
X27510000Y-51453733D02*
X27510000Y-51796267D01*
%TO.C,R8*%
X29490000Y-60953733D02*
X29490000Y-61296267D01*
X30510000Y-60953733D02*
X30510000Y-61296267D01*
%TO.C,R9*%
X83490000Y-59453733D02*
X83490000Y-59796267D01*
X84510000Y-59453733D02*
X84510000Y-59796267D01*
%TO.C,R10*%
X81510000Y-59453733D02*
X81510000Y-59796267D01*
X80490000Y-59453733D02*
X80490000Y-59796267D01*
%TO.C,R11*%
X99510000Y-63453733D02*
X99510000Y-63796267D01*
X98490000Y-63453733D02*
X98490000Y-63796267D01*
%TO.C,R12*%
X93510000Y-73453733D02*
X93510000Y-73796267D01*
X92490000Y-73453733D02*
X92490000Y-73796267D01*
%TO.C,R13*%
X57510000Y-70953733D02*
X57510000Y-71296267D01*
X56490000Y-70953733D02*
X56490000Y-71296267D01*
%TO.C,R14*%
X54510000Y-80953733D02*
X54510000Y-81296267D01*
X53490000Y-80953733D02*
X53490000Y-81296267D01*
%TO.C,R15*%
X56490000Y-30953733D02*
X56490000Y-31296267D01*
X57510000Y-30953733D02*
X57510000Y-31296267D01*
%TO.C,R16*%
X53490000Y-40953733D02*
X53490000Y-41296267D01*
X54510000Y-40953733D02*
X54510000Y-41296267D01*
%TO.C,R17*%
X102510000Y-63453733D02*
X102510000Y-63796267D01*
X101490000Y-63453733D02*
X101490000Y-63796267D01*
%TO.C,R18*%
X95490000Y-73453733D02*
X95490000Y-73796267D01*
X96510000Y-73453733D02*
X96510000Y-73796267D01*
%TO.C,R19*%
X59490000Y-70953733D02*
X59490000Y-71296267D01*
X60510000Y-70953733D02*
X60510000Y-71296267D01*
%TO.C,R20*%
X56490000Y-80953733D02*
X56490000Y-81296267D01*
X57510000Y-80953733D02*
X57510000Y-81296267D01*
%TO.C,R21*%
X60510000Y-30953733D02*
X60510000Y-31296267D01*
X59490000Y-30953733D02*
X59490000Y-31296267D01*
%TO.C,R22*%
X57510000Y-40953733D02*
X57510000Y-41296267D01*
X56490000Y-40953733D02*
X56490000Y-41296267D01*
%TO.C,R23*%
X90510000Y-30953733D02*
X90510000Y-31296267D01*
X89490000Y-30953733D02*
X89490000Y-31296267D01*
%TO.C,R24*%
X93510000Y-40953733D02*
X93510000Y-41296267D01*
X92490000Y-40953733D02*
X92490000Y-41296267D01*
%TO.C,R25*%
X23490000Y-70953733D02*
X23490000Y-71296267D01*
X24510000Y-70953733D02*
X24510000Y-71296267D01*
%TO.C,R26*%
X26490000Y-80953733D02*
X26490000Y-81296267D01*
X27510000Y-80953733D02*
X27510000Y-81296267D01*
%TO.C,R27*%
X60510000Y-50953733D02*
X60510000Y-51296267D01*
X59490000Y-50953733D02*
X59490000Y-51296267D01*
%TO.C,R28*%
X53490000Y-60953733D02*
X53490000Y-61296267D01*
X54510000Y-60953733D02*
X54510000Y-61296267D01*
%TO.C,R29*%
X95490000Y-40953733D02*
X95490000Y-41296267D01*
X96510000Y-40953733D02*
X96510000Y-41296267D01*
%TO.C,R30*%
X27510000Y-70953733D02*
X27510000Y-71296267D01*
X26490000Y-70953733D02*
X26490000Y-71296267D01*
%TO.C,R31*%
X29490000Y-80953733D02*
X29490000Y-81296267D01*
X30510000Y-80953733D02*
X30510000Y-81296267D01*
%TO.C,R32*%
X62490000Y-50953733D02*
X62490000Y-51296267D01*
X63510000Y-50953733D02*
X63510000Y-51296267D01*
%TO.C,R33*%
X57510000Y-60953733D02*
X57510000Y-61296267D01*
X56490000Y-60953733D02*
X56490000Y-61296267D01*
%TO.C,R34*%
X59490000Y-60953733D02*
X59490000Y-61296267D01*
X60510000Y-60953733D02*
X60510000Y-61296267D01*
%TO.C,U1*%
X83500000Y-29390000D02*
X81050000Y-29390000D01*
X81700000Y-32610000D02*
X83500000Y-32610000D01*
%TO.C,U2*%
X88600000Y-56410000D02*
X82590000Y-56410000D01*
X86350000Y-49590000D02*
X82590000Y-49590000D01*
X82590000Y-56410000D02*
X82590000Y-55150000D01*
X82590000Y-49590000D02*
X82590000Y-50850000D01*
%TO.C,C1*%
D11*
X75333333Y-29357142D02*
X75285714Y-29404761D01*
X75142857Y-29452380D01*
X75047619Y-29452380D01*
X74904761Y-29404761D01*
X74809523Y-29309523D01*
X74761904Y-29214285D01*
X74714285Y-29023809D01*
X74714285Y-28880952D01*
X74761904Y-28690476D01*
X74809523Y-28595238D01*
X74904761Y-28500000D01*
X75047619Y-28452380D01*
X75142857Y-28452380D01*
X75285714Y-28500000D01*
X75333333Y-28547619D01*
X76285714Y-29452380D02*
X75714285Y-29452380D01*
X76000000Y-29452380D02*
X76000000Y-28452380D01*
X75904761Y-28595238D01*
X75809523Y-28690476D01*
X75714285Y-28738095D01*
%TO.C,C2*%
X78333333Y-29357142D02*
X78285714Y-29404761D01*
X78142857Y-29452380D01*
X78047619Y-29452380D01*
X77904761Y-29404761D01*
X77809523Y-29309523D01*
X77761904Y-29214285D01*
X77714285Y-29023809D01*
X77714285Y-28880952D01*
X77761904Y-28690476D01*
X77809523Y-28595238D01*
X77904761Y-28500000D01*
X78047619Y-28452380D01*
X78142857Y-28452380D01*
X78285714Y-28500000D01*
X78333333Y-28547619D01*
X78714285Y-28547619D02*
X78761904Y-28500000D01*
X78857142Y-28452380D01*
X79095238Y-28452380D01*
X79190476Y-28500000D01*
X79238095Y-28547619D01*
X79285714Y-28642857D01*
X79285714Y-28738095D01*
X79238095Y-28880952D01*
X78666666Y-29452380D01*
X79285714Y-29452380D01*
%TO.C,C3*%
X23833333Y-39232142D02*
X23785714Y-39279761D01*
X23642857Y-39327380D01*
X23547619Y-39327380D01*
X23404761Y-39279761D01*
X23309523Y-39184523D01*
X23261904Y-39089285D01*
X23214285Y-38898809D01*
X23214285Y-38755952D01*
X23261904Y-38565476D01*
X23309523Y-38470238D01*
X23404761Y-38375000D01*
X23547619Y-38327380D01*
X23642857Y-38327380D01*
X23785714Y-38375000D01*
X23833333Y-38422619D01*
X24166666Y-38327380D02*
X24785714Y-38327380D01*
X24452380Y-38708333D01*
X24595238Y-38708333D01*
X24690476Y-38755952D01*
X24738095Y-38803571D01*
X24785714Y-38898809D01*
X24785714Y-39136904D01*
X24738095Y-39232142D01*
X24690476Y-39279761D01*
X24595238Y-39327380D01*
X24309523Y-39327380D01*
X24214285Y-39279761D01*
X24166666Y-39232142D01*
%TO.C,C4*%
X23493333Y-59357142D02*
X23445714Y-59404761D01*
X23302857Y-59452380D01*
X23207619Y-59452380D01*
X23064761Y-59404761D01*
X22969523Y-59309523D01*
X22921904Y-59214285D01*
X22874285Y-59023809D01*
X22874285Y-58880952D01*
X22921904Y-58690476D01*
X22969523Y-58595238D01*
X23064761Y-58500000D01*
X23207619Y-58452380D01*
X23302857Y-58452380D01*
X23445714Y-58500000D01*
X23493333Y-58547619D01*
X24350476Y-58785714D02*
X24350476Y-59452380D01*
X24112380Y-58404761D02*
X23874285Y-59119047D01*
X24493333Y-59119047D01*
%TO.C,C5*%
X86833333Y-29357142D02*
X86785714Y-29404761D01*
X86642857Y-29452380D01*
X86547619Y-29452380D01*
X86404761Y-29404761D01*
X86309523Y-29309523D01*
X86261904Y-29214285D01*
X86214285Y-29023809D01*
X86214285Y-28880952D01*
X86261904Y-28690476D01*
X86309523Y-28595238D01*
X86404761Y-28500000D01*
X86547619Y-28452380D01*
X86642857Y-28452380D01*
X86785714Y-28500000D01*
X86833333Y-28547619D01*
X87738095Y-28452380D02*
X87261904Y-28452380D01*
X87214285Y-28928571D01*
X87261904Y-28880952D01*
X87357142Y-28833333D01*
X87595238Y-28833333D01*
X87690476Y-28880952D01*
X87738095Y-28928571D01*
X87785714Y-29023809D01*
X87785714Y-29261904D01*
X87738095Y-29357142D01*
X87690476Y-29404761D01*
X87595238Y-29452380D01*
X87357142Y-29452380D01*
X87261904Y-29404761D01*
X87214285Y-29357142D01*
%TO.C,C6*%
X74833333Y-49357142D02*
X74785714Y-49404761D01*
X74642857Y-49452380D01*
X74547619Y-49452380D01*
X74404761Y-49404761D01*
X74309523Y-49309523D01*
X74261904Y-49214285D01*
X74214285Y-49023809D01*
X74214285Y-48880952D01*
X74261904Y-48690476D01*
X74309523Y-48595238D01*
X74404761Y-48500000D01*
X74547619Y-48452380D01*
X74642857Y-48452380D01*
X74785714Y-48500000D01*
X74833333Y-48547619D01*
X75690476Y-48452380D02*
X75500000Y-48452380D01*
X75404761Y-48500000D01*
X75357142Y-48547619D01*
X75261904Y-48690476D01*
X75214285Y-48880952D01*
X75214285Y-49261904D01*
X75261904Y-49357142D01*
X75309523Y-49404761D01*
X75404761Y-49452380D01*
X75595238Y-49452380D01*
X75690476Y-49404761D01*
X75738095Y-49357142D01*
X75785714Y-49261904D01*
X75785714Y-49023809D01*
X75738095Y-48928571D01*
X75690476Y-48880952D01*
X75595238Y-48833333D01*
X75404761Y-48833333D01*
X75309523Y-48880952D01*
X75261904Y-48928571D01*
X75214285Y-49023809D01*
%TO.C,C7*%
X77833333Y-49357142D02*
X77785714Y-49404761D01*
X77642857Y-49452380D01*
X77547619Y-49452380D01*
X77404761Y-49404761D01*
X77309523Y-49309523D01*
X77261904Y-49214285D01*
X77214285Y-49023809D01*
X77214285Y-48880952D01*
X77261904Y-48690476D01*
X77309523Y-48595238D01*
X77404761Y-48500000D01*
X77547619Y-48452380D01*
X77642857Y-48452380D01*
X77785714Y-48500000D01*
X77833333Y-48547619D01*
X78166666Y-48452380D02*
X78833333Y-48452380D01*
X78404761Y-49452380D01*
%TO.C,C8*%
X29833333Y-29357142D02*
X29785714Y-29404761D01*
X29642857Y-29452380D01*
X29547619Y-29452380D01*
X29404761Y-29404761D01*
X29309523Y-29309523D01*
X29261904Y-29214285D01*
X29214285Y-29023809D01*
X29214285Y-28880952D01*
X29261904Y-28690476D01*
X29309523Y-28595238D01*
X29404761Y-28500000D01*
X29547619Y-28452380D01*
X29642857Y-28452380D01*
X29785714Y-28500000D01*
X29833333Y-28547619D01*
X30404761Y-28880952D02*
X30309523Y-28833333D01*
X30261904Y-28785714D01*
X30214285Y-28690476D01*
X30214285Y-28642857D01*
X30261904Y-28547619D01*
X30309523Y-28500000D01*
X30404761Y-28452380D01*
X30595238Y-28452380D01*
X30690476Y-28500000D01*
X30738095Y-28547619D01*
X30785714Y-28642857D01*
X30785714Y-28690476D01*
X30738095Y-28785714D01*
X30690476Y-28833333D01*
X30595238Y-28880952D01*
X30404761Y-28880952D01*
X30309523Y-28928571D01*
X30261904Y-28976190D01*
X30214285Y-29071428D01*
X30214285Y-29261904D01*
X30261904Y-29357142D01*
X30309523Y-29404761D01*
X30404761Y-29452380D01*
X30595238Y-29452380D01*
X30690476Y-29404761D01*
X30738095Y-29357142D01*
X30785714Y-29261904D01*
X30785714Y-29071428D01*
X30738095Y-28976190D01*
X30690476Y-28928571D01*
X30595238Y-28880952D01*
%TO.C,C9*%
X29833333Y-49857142D02*
X29785714Y-49904761D01*
X29642857Y-49952380D01*
X29547619Y-49952380D01*
X29404761Y-49904761D01*
X29309523Y-49809523D01*
X29261904Y-49714285D01*
X29214285Y-49523809D01*
X29214285Y-49380952D01*
X29261904Y-49190476D01*
X29309523Y-49095238D01*
X29404761Y-49000000D01*
X29547619Y-48952380D01*
X29642857Y-48952380D01*
X29785714Y-49000000D01*
X29833333Y-49047619D01*
X30309523Y-49952380D02*
X30500000Y-49952380D01*
X30595238Y-49904761D01*
X30642857Y-49857142D01*
X30738095Y-49714285D01*
X30785714Y-49523809D01*
X30785714Y-49142857D01*
X30738095Y-49047619D01*
X30690476Y-49000000D01*
X30595238Y-48952380D01*
X30404761Y-48952380D01*
X30309523Y-49000000D01*
X30261904Y-49047619D01*
X30214285Y-49142857D01*
X30214285Y-49380952D01*
X30261904Y-49476190D01*
X30309523Y-49523809D01*
X30404761Y-49571428D01*
X30595238Y-49571428D01*
X30690476Y-49523809D01*
X30738095Y-49476190D01*
X30785714Y-49380952D01*
%TO.C,C10*%
X32857142Y-39357142D02*
X32809523Y-39404761D01*
X32666666Y-39452380D01*
X32571428Y-39452380D01*
X32428571Y-39404761D01*
X32333333Y-39309523D01*
X32285714Y-39214285D01*
X32238095Y-39023809D01*
X32238095Y-38880952D01*
X32285714Y-38690476D01*
X32333333Y-38595238D01*
X32428571Y-38500000D01*
X32571428Y-38452380D01*
X32666666Y-38452380D01*
X32809523Y-38500000D01*
X32857142Y-38547619D01*
X33809523Y-39452380D02*
X33238095Y-39452380D01*
X33523809Y-39452380D02*
X33523809Y-38452380D01*
X33428571Y-38595238D01*
X33333333Y-38690476D01*
X33238095Y-38738095D01*
X34428571Y-38452380D02*
X34523809Y-38452380D01*
X34619047Y-38500000D01*
X34666666Y-38547619D01*
X34714285Y-38642857D01*
X34761904Y-38833333D01*
X34761904Y-39071428D01*
X34714285Y-39261904D01*
X34666666Y-39357142D01*
X34619047Y-39404761D01*
X34523809Y-39452380D01*
X34428571Y-39452380D01*
X34333333Y-39404761D01*
X34285714Y-39357142D01*
X34238095Y-39261904D01*
X34190476Y-39071428D01*
X34190476Y-38833333D01*
X34238095Y-38642857D01*
X34285714Y-38547619D01*
X34333333Y-38500000D01*
X34428571Y-38452380D01*
%TO.C,C11*%
X32857142Y-59357142D02*
X32809523Y-59404761D01*
X32666666Y-59452380D01*
X32571428Y-59452380D01*
X32428571Y-59404761D01*
X32333333Y-59309523D01*
X32285714Y-59214285D01*
X32238095Y-59023809D01*
X32238095Y-58880952D01*
X32285714Y-58690476D01*
X32333333Y-58595238D01*
X32428571Y-58500000D01*
X32571428Y-58452380D01*
X32666666Y-58452380D01*
X32809523Y-58500000D01*
X32857142Y-58547619D01*
X33809523Y-59452380D02*
X33238095Y-59452380D01*
X33523809Y-59452380D02*
X33523809Y-58452380D01*
X33428571Y-58595238D01*
X33333333Y-58690476D01*
X33238095Y-58738095D01*
X34761904Y-59452380D02*
X34190476Y-59452380D01*
X34476190Y-59452380D02*
X34476190Y-58452380D01*
X34380952Y-58595238D01*
X34285714Y-58690476D01*
X34190476Y-58738095D01*
%TO.C,C12*%
X33357142Y-29357142D02*
X33309523Y-29404761D01*
X33166666Y-29452380D01*
X33071428Y-29452380D01*
X32928571Y-29404761D01*
X32833333Y-29309523D01*
X32785714Y-29214285D01*
X32738095Y-29023809D01*
X32738095Y-28880952D01*
X32785714Y-28690476D01*
X32833333Y-28595238D01*
X32928571Y-28500000D01*
X33071428Y-28452380D01*
X33166666Y-28452380D01*
X33309523Y-28500000D01*
X33357142Y-28547619D01*
X34309523Y-29452380D02*
X33738095Y-29452380D01*
X34023809Y-29452380D02*
X34023809Y-28452380D01*
X33928571Y-28595238D01*
X33833333Y-28690476D01*
X33738095Y-28738095D01*
X34690476Y-28547619D02*
X34738095Y-28500000D01*
X34833333Y-28452380D01*
X35071428Y-28452380D01*
X35166666Y-28500000D01*
X35214285Y-28547619D01*
X35261904Y-28642857D01*
X35261904Y-28738095D01*
X35214285Y-28880952D01*
X34642857Y-29452380D01*
X35261904Y-29452380D01*
%TO.C,C13*%
X32857142Y-49857142D02*
X32809523Y-49904761D01*
X32666666Y-49952380D01*
X32571428Y-49952380D01*
X32428571Y-49904761D01*
X32333333Y-49809523D01*
X32285714Y-49714285D01*
X32238095Y-49523809D01*
X32238095Y-49380952D01*
X32285714Y-49190476D01*
X32333333Y-49095238D01*
X32428571Y-49000000D01*
X32571428Y-48952380D01*
X32666666Y-48952380D01*
X32809523Y-49000000D01*
X32857142Y-49047619D01*
X33809523Y-49952380D02*
X33238095Y-49952380D01*
X33523809Y-49952380D02*
X33523809Y-48952380D01*
X33428571Y-49095238D01*
X33333333Y-49190476D01*
X33238095Y-49238095D01*
X34142857Y-48952380D02*
X34761904Y-48952380D01*
X34428571Y-49333333D01*
X34571428Y-49333333D01*
X34666666Y-49380952D01*
X34714285Y-49428571D01*
X34761904Y-49523809D01*
X34761904Y-49761904D01*
X34714285Y-49857142D01*
X34666666Y-49904761D01*
X34571428Y-49952380D01*
X34285714Y-49952380D01*
X34190476Y-49904761D01*
X34142857Y-49857142D01*
%TO.C,C14*%
X93857142Y-53357142D02*
X93809523Y-53404761D01*
X93666666Y-53452380D01*
X93571428Y-53452380D01*
X93428571Y-53404761D01*
X93333333Y-53309523D01*
X93285714Y-53214285D01*
X93238095Y-53023809D01*
X93238095Y-52880952D01*
X93285714Y-52690476D01*
X93333333Y-52595238D01*
X93428571Y-52500000D01*
X93571428Y-52452380D01*
X93666666Y-52452380D01*
X93809523Y-52500000D01*
X93857142Y-52547619D01*
X94809523Y-53452380D02*
X94238095Y-53452380D01*
X94523809Y-53452380D02*
X94523809Y-52452380D01*
X94428571Y-52595238D01*
X94333333Y-52690476D01*
X94238095Y-52738095D01*
X95666666Y-52785714D02*
X95666666Y-53452380D01*
X95428571Y-52404761D02*
X95190476Y-53119047D01*
X95809523Y-53119047D01*
%TO.C,C15*%
X90857142Y-53357142D02*
X90809523Y-53404761D01*
X90666666Y-53452380D01*
X90571428Y-53452380D01*
X90428571Y-53404761D01*
X90333333Y-53309523D01*
X90285714Y-53214285D01*
X90238095Y-53023809D01*
X90238095Y-52880952D01*
X90285714Y-52690476D01*
X90333333Y-52595238D01*
X90428571Y-52500000D01*
X90571428Y-52452380D01*
X90666666Y-52452380D01*
X90809523Y-52500000D01*
X90857142Y-52547619D01*
X91809523Y-53452380D02*
X91238095Y-53452380D01*
X91523809Y-53452380D02*
X91523809Y-52452380D01*
X91428571Y-52595238D01*
X91333333Y-52690476D01*
X91238095Y-52738095D01*
X92714285Y-52452380D02*
X92238095Y-52452380D01*
X92190476Y-52928571D01*
X92238095Y-52880952D01*
X92333333Y-52833333D01*
X92571428Y-52833333D01*
X92666666Y-52880952D01*
X92714285Y-52928571D01*
X92761904Y-53023809D01*
X92761904Y-53261904D01*
X92714285Y-53357142D01*
X92666666Y-53404761D01*
X92571428Y-53452380D01*
X92333333Y-53452380D01*
X92238095Y-53404761D01*
X92190476Y-53357142D01*
%TO.C,C16*%
X92857142Y-66857142D02*
X92809523Y-66904761D01*
X92666666Y-66952380D01*
X92571428Y-66952380D01*
X92428571Y-66904761D01*
X92333333Y-66809523D01*
X92285714Y-66714285D01*
X92238095Y-66523809D01*
X92238095Y-66380952D01*
X92285714Y-66190476D01*
X92333333Y-66095238D01*
X92428571Y-66000000D01*
X92571428Y-65952380D01*
X92666666Y-65952380D01*
X92809523Y-66000000D01*
X92857142Y-66047619D01*
X93809523Y-66952380D02*
X93238095Y-66952380D01*
X93523809Y-66952380D02*
X93523809Y-65952380D01*
X93428571Y-66095238D01*
X93333333Y-66190476D01*
X93238095Y-66238095D01*
X94666666Y-65952380D02*
X94476190Y-65952380D01*
X94380952Y-66000000D01*
X94333333Y-66047619D01*
X94238095Y-66190476D01*
X94190476Y-66380952D01*
X94190476Y-66761904D01*
X94238095Y-66857142D01*
X94285714Y-66904761D01*
X94380952Y-66952380D01*
X94571428Y-66952380D01*
X94666666Y-66904761D01*
X94714285Y-66857142D01*
X94761904Y-66761904D01*
X94761904Y-66523809D01*
X94714285Y-66428571D01*
X94666666Y-66380952D01*
X94571428Y-66333333D01*
X94380952Y-66333333D01*
X94285714Y-66380952D01*
X94238095Y-66428571D01*
X94190476Y-66523809D01*
%TO.C,C17*%
X53857142Y-74357142D02*
X53809523Y-74404761D01*
X53666666Y-74452380D01*
X53571428Y-74452380D01*
X53428571Y-74404761D01*
X53333333Y-74309523D01*
X53285714Y-74214285D01*
X53238095Y-74023809D01*
X53238095Y-73880952D01*
X53285714Y-73690476D01*
X53333333Y-73595238D01*
X53428571Y-73500000D01*
X53571428Y-73452380D01*
X53666666Y-73452380D01*
X53809523Y-73500000D01*
X53857142Y-73547619D01*
X54809523Y-74452380D02*
X54238095Y-74452380D01*
X54523809Y-74452380D02*
X54523809Y-73452380D01*
X54428571Y-73595238D01*
X54333333Y-73690476D01*
X54238095Y-73738095D01*
X55142857Y-73452380D02*
X55809523Y-73452380D01*
X55380952Y-74452380D01*
%TO.C,C18*%
X53857142Y-34357142D02*
X53809523Y-34404761D01*
X53666666Y-34452380D01*
X53571428Y-34452380D01*
X53428571Y-34404761D01*
X53333333Y-34309523D01*
X53285714Y-34214285D01*
X53238095Y-34023809D01*
X53238095Y-33880952D01*
X53285714Y-33690476D01*
X53333333Y-33595238D01*
X53428571Y-33500000D01*
X53571428Y-33452380D01*
X53666666Y-33452380D01*
X53809523Y-33500000D01*
X53857142Y-33547619D01*
X54809523Y-34452380D02*
X54238095Y-34452380D01*
X54523809Y-34452380D02*
X54523809Y-33452380D01*
X54428571Y-33595238D01*
X54333333Y-33690476D01*
X54238095Y-33738095D01*
X55380952Y-33880952D02*
X55285714Y-33833333D01*
X55238095Y-33785714D01*
X55190476Y-33690476D01*
X55190476Y-33642857D01*
X55238095Y-33547619D01*
X55285714Y-33500000D01*
X55380952Y-33452380D01*
X55571428Y-33452380D01*
X55666666Y-33500000D01*
X55714285Y-33547619D01*
X55761904Y-33642857D01*
X55761904Y-33690476D01*
X55714285Y-33785714D01*
X55666666Y-33833333D01*
X55571428Y-33880952D01*
X55380952Y-33880952D01*
X55285714Y-33928571D01*
X55238095Y-33976190D01*
X55190476Y-34071428D01*
X55190476Y-34261904D01*
X55238095Y-34357142D01*
X55285714Y-34404761D01*
X55380952Y-34452380D01*
X55571428Y-34452380D01*
X55666666Y-34404761D01*
X55714285Y-34357142D01*
X55761904Y-34261904D01*
X55761904Y-34071428D01*
X55714285Y-33976190D01*
X55666666Y-33928571D01*
X55571428Y-33880952D01*
%TO.C,C19*%
X98857142Y-71857142D02*
X98809523Y-71904761D01*
X98666666Y-71952380D01*
X98571428Y-71952380D01*
X98428571Y-71904761D01*
X98333333Y-71809523D01*
X98285714Y-71714285D01*
X98238095Y-71523809D01*
X98238095Y-71380952D01*
X98285714Y-71190476D01*
X98333333Y-71095238D01*
X98428571Y-71000000D01*
X98571428Y-70952380D01*
X98666666Y-70952380D01*
X98809523Y-71000000D01*
X98857142Y-71047619D01*
X99809523Y-71952380D02*
X99238095Y-71952380D01*
X99523809Y-71952380D02*
X99523809Y-70952380D01*
X99428571Y-71095238D01*
X99333333Y-71190476D01*
X99238095Y-71238095D01*
X100285714Y-71952380D02*
X100476190Y-71952380D01*
X100571428Y-71904761D01*
X100619047Y-71857142D01*
X100714285Y-71714285D01*
X100761904Y-71523809D01*
X100761904Y-71142857D01*
X100714285Y-71047619D01*
X100666666Y-71000000D01*
X100571428Y-70952380D01*
X100380952Y-70952380D01*
X100285714Y-71000000D01*
X100238095Y-71047619D01*
X100190476Y-71142857D01*
X100190476Y-71380952D01*
X100238095Y-71476190D01*
X100285714Y-71523809D01*
X100380952Y-71571428D01*
X100571428Y-71571428D01*
X100666666Y-71523809D01*
X100714285Y-71476190D01*
X100761904Y-71380952D01*
%TO.C,C20*%
X95857142Y-61857142D02*
X95809523Y-61904761D01*
X95666666Y-61952380D01*
X95571428Y-61952380D01*
X95428571Y-61904761D01*
X95333333Y-61809523D01*
X95285714Y-61714285D01*
X95238095Y-61523809D01*
X95238095Y-61380952D01*
X95285714Y-61190476D01*
X95333333Y-61095238D01*
X95428571Y-61000000D01*
X95571428Y-60952380D01*
X95666666Y-60952380D01*
X95809523Y-61000000D01*
X95857142Y-61047619D01*
X96238095Y-61047619D02*
X96285714Y-61000000D01*
X96380952Y-60952380D01*
X96619047Y-60952380D01*
X96714285Y-61000000D01*
X96761904Y-61047619D01*
X96809523Y-61142857D01*
X96809523Y-61238095D01*
X96761904Y-61380952D01*
X96190476Y-61952380D01*
X96809523Y-61952380D01*
X97428571Y-60952380D02*
X97523809Y-60952380D01*
X97619047Y-61000000D01*
X97666666Y-61047619D01*
X97714285Y-61142857D01*
X97761904Y-61333333D01*
X97761904Y-61571428D01*
X97714285Y-61761904D01*
X97666666Y-61857142D01*
X97619047Y-61904761D01*
X97523809Y-61952380D01*
X97428571Y-61952380D01*
X97333333Y-61904761D01*
X97285714Y-61857142D01*
X97238095Y-61761904D01*
X97190476Y-61571428D01*
X97190476Y-61333333D01*
X97238095Y-61142857D01*
X97285714Y-61047619D01*
X97333333Y-61000000D01*
X97428571Y-60952380D01*
%TO.C,C21*%
X50857142Y-69357142D02*
X50809523Y-69404761D01*
X50666666Y-69452380D01*
X50571428Y-69452380D01*
X50428571Y-69404761D01*
X50333333Y-69309523D01*
X50285714Y-69214285D01*
X50238095Y-69023809D01*
X50238095Y-68880952D01*
X50285714Y-68690476D01*
X50333333Y-68595238D01*
X50428571Y-68500000D01*
X50571428Y-68452380D01*
X50666666Y-68452380D01*
X50809523Y-68500000D01*
X50857142Y-68547619D01*
X51238095Y-68547619D02*
X51285714Y-68500000D01*
X51380952Y-68452380D01*
X51619047Y-68452380D01*
X51714285Y-68500000D01*
X51761904Y-68547619D01*
X51809523Y-68642857D01*
X51809523Y-68738095D01*
X51761904Y-68880952D01*
X51190476Y-69452380D01*
X51809523Y-69452380D01*
X52761904Y-69452380D02*
X52190476Y-69452380D01*
X52476190Y-69452380D02*
X52476190Y-68452380D01*
X52380952Y-68595238D01*
X52285714Y-68690476D01*
X52190476Y-68738095D01*
%TO.C,C22*%
X101857142Y-71857142D02*
X101809523Y-71904761D01*
X101666666Y-71952380D01*
X101571428Y-71952380D01*
X101428571Y-71904761D01*
X101333333Y-71809523D01*
X101285714Y-71714285D01*
X101238095Y-71523809D01*
X101238095Y-71380952D01*
X101285714Y-71190476D01*
X101333333Y-71095238D01*
X101428571Y-71000000D01*
X101571428Y-70952380D01*
X101666666Y-70952380D01*
X101809523Y-71000000D01*
X101857142Y-71047619D01*
X102238095Y-71047619D02*
X102285714Y-71000000D01*
X102380952Y-70952380D01*
X102619047Y-70952380D01*
X102714285Y-71000000D01*
X102761904Y-71047619D01*
X102809523Y-71142857D01*
X102809523Y-71238095D01*
X102761904Y-71380952D01*
X102190476Y-71952380D01*
X102809523Y-71952380D01*
X103190476Y-71047619D02*
X103238095Y-71000000D01*
X103333333Y-70952380D01*
X103571428Y-70952380D01*
X103666666Y-71000000D01*
X103714285Y-71047619D01*
X103761904Y-71142857D01*
X103761904Y-71238095D01*
X103714285Y-71380952D01*
X103142857Y-71952380D01*
X103761904Y-71952380D01*
%TO.C,C23*%
X62857142Y-69357142D02*
X62809523Y-69404761D01*
X62666666Y-69452380D01*
X62571428Y-69452380D01*
X62428571Y-69404761D01*
X62333333Y-69309523D01*
X62285714Y-69214285D01*
X62238095Y-69023809D01*
X62238095Y-68880952D01*
X62285714Y-68690476D01*
X62333333Y-68595238D01*
X62428571Y-68500000D01*
X62571428Y-68452380D01*
X62666666Y-68452380D01*
X62809523Y-68500000D01*
X62857142Y-68547619D01*
X63238095Y-68547619D02*
X63285714Y-68500000D01*
X63380952Y-68452380D01*
X63619047Y-68452380D01*
X63714285Y-68500000D01*
X63761904Y-68547619D01*
X63809523Y-68642857D01*
X63809523Y-68738095D01*
X63761904Y-68880952D01*
X63190476Y-69452380D01*
X63809523Y-69452380D01*
X64142857Y-68452380D02*
X64761904Y-68452380D01*
X64428571Y-68833333D01*
X64571428Y-68833333D01*
X64666666Y-68880952D01*
X64714285Y-68928571D01*
X64761904Y-69023809D01*
X64761904Y-69261904D01*
X64714285Y-69357142D01*
X64666666Y-69404761D01*
X64571428Y-69452380D01*
X64285714Y-69452380D01*
X64190476Y-69404761D01*
X64142857Y-69357142D01*
%TO.C,C24*%
X59857142Y-79357142D02*
X59809523Y-79404761D01*
X59666666Y-79452380D01*
X59571428Y-79452380D01*
X59428571Y-79404761D01*
X59333333Y-79309523D01*
X59285714Y-79214285D01*
X59238095Y-79023809D01*
X59238095Y-78880952D01*
X59285714Y-78690476D01*
X59333333Y-78595238D01*
X59428571Y-78500000D01*
X59571428Y-78452380D01*
X59666666Y-78452380D01*
X59809523Y-78500000D01*
X59857142Y-78547619D01*
X60238095Y-78547619D02*
X60285714Y-78500000D01*
X60380952Y-78452380D01*
X60619047Y-78452380D01*
X60714285Y-78500000D01*
X60761904Y-78547619D01*
X60809523Y-78642857D01*
X60809523Y-78738095D01*
X60761904Y-78880952D01*
X60190476Y-79452380D01*
X60809523Y-79452380D01*
X61666666Y-78785714D02*
X61666666Y-79452380D01*
X61428571Y-78404761D02*
X61190476Y-79119047D01*
X61809523Y-79119047D01*
%TO.C,C25*%
X62857142Y-29357142D02*
X62809523Y-29404761D01*
X62666666Y-29452380D01*
X62571428Y-29452380D01*
X62428571Y-29404761D01*
X62333333Y-29309523D01*
X62285714Y-29214285D01*
X62238095Y-29023809D01*
X62238095Y-28880952D01*
X62285714Y-28690476D01*
X62333333Y-28595238D01*
X62428571Y-28500000D01*
X62571428Y-28452380D01*
X62666666Y-28452380D01*
X62809523Y-28500000D01*
X62857142Y-28547619D01*
X63238095Y-28547619D02*
X63285714Y-28500000D01*
X63380952Y-28452380D01*
X63619047Y-28452380D01*
X63714285Y-28500000D01*
X63761904Y-28547619D01*
X63809523Y-28642857D01*
X63809523Y-28738095D01*
X63761904Y-28880952D01*
X63190476Y-29452380D01*
X63809523Y-29452380D01*
X64714285Y-28452380D02*
X64238095Y-28452380D01*
X64190476Y-28928571D01*
X64238095Y-28880952D01*
X64333333Y-28833333D01*
X64571428Y-28833333D01*
X64666666Y-28880952D01*
X64714285Y-28928571D01*
X64761904Y-29023809D01*
X64761904Y-29261904D01*
X64714285Y-29357142D01*
X64666666Y-29404761D01*
X64571428Y-29452380D01*
X64333333Y-29452380D01*
X64238095Y-29404761D01*
X64190476Y-29357142D01*
%TO.C,C26*%
X62857142Y-34357142D02*
X62809523Y-34404761D01*
X62666666Y-34452380D01*
X62571428Y-34452380D01*
X62428571Y-34404761D01*
X62333333Y-34309523D01*
X62285714Y-34214285D01*
X62238095Y-34023809D01*
X62238095Y-33880952D01*
X62285714Y-33690476D01*
X62333333Y-33595238D01*
X62428571Y-33500000D01*
X62571428Y-33452380D01*
X62666666Y-33452380D01*
X62809523Y-33500000D01*
X62857142Y-33547619D01*
X63238095Y-33547619D02*
X63285714Y-33500000D01*
X63380952Y-33452380D01*
X63619047Y-33452380D01*
X63714285Y-33500000D01*
X63761904Y-33547619D01*
X63809523Y-33642857D01*
X63809523Y-33738095D01*
X63761904Y-33880952D01*
X63190476Y-34452380D01*
X63809523Y-34452380D01*
X64666666Y-33452380D02*
X64476190Y-33452380D01*
X64380952Y-33500000D01*
X64333333Y-33547619D01*
X64238095Y-33690476D01*
X64190476Y-33880952D01*
X64190476Y-34261904D01*
X64238095Y-34357142D01*
X64285714Y-34404761D01*
X64380952Y-34452380D01*
X64571428Y-34452380D01*
X64666666Y-34404761D01*
X64714285Y-34357142D01*
X64761904Y-34261904D01*
X64761904Y-34023809D01*
X64714285Y-33928571D01*
X64666666Y-33880952D01*
X64571428Y-33833333D01*
X64380952Y-33833333D01*
X64285714Y-33880952D01*
X64238095Y-33928571D01*
X64190476Y-34023809D01*
%TO.C,C27*%
X92857142Y-61857142D02*
X92809523Y-61904761D01*
X92666666Y-61952380D01*
X92571428Y-61952380D01*
X92428571Y-61904761D01*
X92333333Y-61809523D01*
X92285714Y-61714285D01*
X92238095Y-61523809D01*
X92238095Y-61380952D01*
X92285714Y-61190476D01*
X92333333Y-61095238D01*
X92428571Y-61000000D01*
X92571428Y-60952380D01*
X92666666Y-60952380D01*
X92809523Y-61000000D01*
X92857142Y-61047619D01*
X93238095Y-61047619D02*
X93285714Y-61000000D01*
X93380952Y-60952380D01*
X93619047Y-60952380D01*
X93714285Y-61000000D01*
X93761904Y-61047619D01*
X93809523Y-61142857D01*
X93809523Y-61238095D01*
X93761904Y-61380952D01*
X93190476Y-61952380D01*
X93809523Y-61952380D01*
X94142857Y-60952380D02*
X94809523Y-60952380D01*
X94380952Y-61952380D01*
%TO.C,C28*%
X53857142Y-69357142D02*
X53809523Y-69404761D01*
X53666666Y-69452380D01*
X53571428Y-69452380D01*
X53428571Y-69404761D01*
X53333333Y-69309523D01*
X53285714Y-69214285D01*
X53238095Y-69023809D01*
X53238095Y-68880952D01*
X53285714Y-68690476D01*
X53333333Y-68595238D01*
X53428571Y-68500000D01*
X53571428Y-68452380D01*
X53666666Y-68452380D01*
X53809523Y-68500000D01*
X53857142Y-68547619D01*
X54238095Y-68547619D02*
X54285714Y-68500000D01*
X54380952Y-68452380D01*
X54619047Y-68452380D01*
X54714285Y-68500000D01*
X54761904Y-68547619D01*
X54809523Y-68642857D01*
X54809523Y-68738095D01*
X54761904Y-68880952D01*
X54190476Y-69452380D01*
X54809523Y-69452380D01*
X55380952Y-68880952D02*
X55285714Y-68833333D01*
X55238095Y-68785714D01*
X55190476Y-68690476D01*
X55190476Y-68642857D01*
X55238095Y-68547619D01*
X55285714Y-68500000D01*
X55380952Y-68452380D01*
X55571428Y-68452380D01*
X55666666Y-68500000D01*
X55714285Y-68547619D01*
X55761904Y-68642857D01*
X55761904Y-68690476D01*
X55714285Y-68785714D01*
X55666666Y-68833333D01*
X55571428Y-68880952D01*
X55380952Y-68880952D01*
X55285714Y-68928571D01*
X55238095Y-68976190D01*
X55190476Y-69071428D01*
X55190476Y-69261904D01*
X55238095Y-69357142D01*
X55285714Y-69404761D01*
X55380952Y-69452380D01*
X55571428Y-69452380D01*
X55666666Y-69404761D01*
X55714285Y-69357142D01*
X55761904Y-69261904D01*
X55761904Y-69071428D01*
X55714285Y-68976190D01*
X55666666Y-68928571D01*
X55571428Y-68880952D01*
%TO.C,C29*%
X53857142Y-29357142D02*
X53809523Y-29404761D01*
X53666666Y-29452380D01*
X53571428Y-29452380D01*
X53428571Y-29404761D01*
X53333333Y-29309523D01*
X53285714Y-29214285D01*
X53238095Y-29023809D01*
X53238095Y-28880952D01*
X53285714Y-28690476D01*
X53333333Y-28595238D01*
X53428571Y-28500000D01*
X53571428Y-28452380D01*
X53666666Y-28452380D01*
X53809523Y-28500000D01*
X53857142Y-28547619D01*
X54238095Y-28547619D02*
X54285714Y-28500000D01*
X54380952Y-28452380D01*
X54619047Y-28452380D01*
X54714285Y-28500000D01*
X54761904Y-28547619D01*
X54809523Y-28642857D01*
X54809523Y-28738095D01*
X54761904Y-28880952D01*
X54190476Y-29452380D01*
X54809523Y-29452380D01*
X55285714Y-29452380D02*
X55476190Y-29452380D01*
X55571428Y-29404761D01*
X55619047Y-29357142D01*
X55714285Y-29214285D01*
X55761904Y-29023809D01*
X55761904Y-28642857D01*
X55714285Y-28547619D01*
X55666666Y-28500000D01*
X55571428Y-28452380D01*
X55380952Y-28452380D01*
X55285714Y-28500000D01*
X55238095Y-28547619D01*
X55190476Y-28642857D01*
X55190476Y-28880952D01*
X55238095Y-28976190D01*
X55285714Y-29023809D01*
X55380952Y-29071428D01*
X55571428Y-29071428D01*
X55666666Y-29023809D01*
X55714285Y-28976190D01*
X55761904Y-28880952D01*
%TO.C,C30*%
X50857142Y-29357142D02*
X50809523Y-29404761D01*
X50666666Y-29452380D01*
X50571428Y-29452380D01*
X50428571Y-29404761D01*
X50333333Y-29309523D01*
X50285714Y-29214285D01*
X50238095Y-29023809D01*
X50238095Y-28880952D01*
X50285714Y-28690476D01*
X50333333Y-28595238D01*
X50428571Y-28500000D01*
X50571428Y-28452380D01*
X50666666Y-28452380D01*
X50809523Y-28500000D01*
X50857142Y-28547619D01*
X51190476Y-28452380D02*
X51809523Y-28452380D01*
X51476190Y-28833333D01*
X51619047Y-28833333D01*
X51714285Y-28880952D01*
X51761904Y-28928571D01*
X51809523Y-29023809D01*
X51809523Y-29261904D01*
X51761904Y-29357142D01*
X51714285Y-29404761D01*
X51619047Y-29452380D01*
X51333333Y-29452380D01*
X51238095Y-29404761D01*
X51190476Y-29357142D01*
X52428571Y-28452380D02*
X52523809Y-28452380D01*
X52619047Y-28500000D01*
X52666666Y-28547619D01*
X52714285Y-28642857D01*
X52761904Y-28833333D01*
X52761904Y-29071428D01*
X52714285Y-29261904D01*
X52666666Y-29357142D01*
X52619047Y-29404761D01*
X52523809Y-29452380D01*
X52428571Y-29452380D01*
X52333333Y-29404761D01*
X52285714Y-29357142D01*
X52238095Y-29261904D01*
X52190476Y-29071428D01*
X52190476Y-28833333D01*
X52238095Y-28642857D01*
X52285714Y-28547619D01*
X52333333Y-28500000D01*
X52428571Y-28452380D01*
%TO.C,C31*%
X89857142Y-39357142D02*
X89809523Y-39404761D01*
X89666666Y-39452380D01*
X89571428Y-39452380D01*
X89428571Y-39404761D01*
X89333333Y-39309523D01*
X89285714Y-39214285D01*
X89238095Y-39023809D01*
X89238095Y-38880952D01*
X89285714Y-38690476D01*
X89333333Y-38595238D01*
X89428571Y-38500000D01*
X89571428Y-38452380D01*
X89666666Y-38452380D01*
X89809523Y-38500000D01*
X89857142Y-38547619D01*
X90190476Y-38452380D02*
X90809523Y-38452380D01*
X90476190Y-38833333D01*
X90619047Y-38833333D01*
X90714285Y-38880952D01*
X90761904Y-38928571D01*
X90809523Y-39023809D01*
X90809523Y-39261904D01*
X90761904Y-39357142D01*
X90714285Y-39404761D01*
X90619047Y-39452380D01*
X90333333Y-39452380D01*
X90238095Y-39404761D01*
X90190476Y-39357142D01*
X91761904Y-39452380D02*
X91190476Y-39452380D01*
X91476190Y-39452380D02*
X91476190Y-38452380D01*
X91380952Y-38595238D01*
X91285714Y-38690476D01*
X91190476Y-38738095D01*
%TO.C,C32*%
X23857142Y-79357142D02*
X23809523Y-79404761D01*
X23666666Y-79452380D01*
X23571428Y-79452380D01*
X23428571Y-79404761D01*
X23333333Y-79309523D01*
X23285714Y-79214285D01*
X23238095Y-79023809D01*
X23238095Y-78880952D01*
X23285714Y-78690476D01*
X23333333Y-78595238D01*
X23428571Y-78500000D01*
X23571428Y-78452380D01*
X23666666Y-78452380D01*
X23809523Y-78500000D01*
X23857142Y-78547619D01*
X24190476Y-78452380D02*
X24809523Y-78452380D01*
X24476190Y-78833333D01*
X24619047Y-78833333D01*
X24714285Y-78880952D01*
X24761904Y-78928571D01*
X24809523Y-79023809D01*
X24809523Y-79261904D01*
X24761904Y-79357142D01*
X24714285Y-79404761D01*
X24619047Y-79452380D01*
X24333333Y-79452380D01*
X24238095Y-79404761D01*
X24190476Y-79357142D01*
X25190476Y-78547619D02*
X25238095Y-78500000D01*
X25333333Y-78452380D01*
X25571428Y-78452380D01*
X25666666Y-78500000D01*
X25714285Y-78547619D01*
X25761904Y-78642857D01*
X25761904Y-78738095D01*
X25714285Y-78880952D01*
X25142857Y-79452380D01*
X25761904Y-79452380D01*
%TO.C,C33*%
X53857142Y-54357142D02*
X53809523Y-54404761D01*
X53666666Y-54452380D01*
X53571428Y-54452380D01*
X53428571Y-54404761D01*
X53333333Y-54309523D01*
X53285714Y-54214285D01*
X53238095Y-54023809D01*
X53238095Y-53880952D01*
X53285714Y-53690476D01*
X53333333Y-53595238D01*
X53428571Y-53500000D01*
X53571428Y-53452380D01*
X53666666Y-53452380D01*
X53809523Y-53500000D01*
X53857142Y-53547619D01*
X54190476Y-53452380D02*
X54809523Y-53452380D01*
X54476190Y-53833333D01*
X54619047Y-53833333D01*
X54714285Y-53880952D01*
X54761904Y-53928571D01*
X54809523Y-54023809D01*
X54809523Y-54261904D01*
X54761904Y-54357142D01*
X54714285Y-54404761D01*
X54619047Y-54452380D01*
X54333333Y-54452380D01*
X54238095Y-54404761D01*
X54190476Y-54357142D01*
X55142857Y-53452380D02*
X55761904Y-53452380D01*
X55428571Y-53833333D01*
X55571428Y-53833333D01*
X55666666Y-53880952D01*
X55714285Y-53928571D01*
X55761904Y-54023809D01*
X55761904Y-54261904D01*
X55714285Y-54357142D01*
X55666666Y-54404761D01*
X55571428Y-54452380D01*
X55285714Y-54452380D01*
X55190476Y-54404761D01*
X55142857Y-54357142D01*
%TO.C,C34*%
X92857142Y-29357142D02*
X92809523Y-29404761D01*
X92666666Y-29452380D01*
X92571428Y-29452380D01*
X92428571Y-29404761D01*
X92333333Y-29309523D01*
X92285714Y-29214285D01*
X92238095Y-29023809D01*
X92238095Y-28880952D01*
X92285714Y-28690476D01*
X92333333Y-28595238D01*
X92428571Y-28500000D01*
X92571428Y-28452380D01*
X92666666Y-28452380D01*
X92809523Y-28500000D01*
X92857142Y-28547619D01*
X93190476Y-28452380D02*
X93809523Y-28452380D01*
X93476190Y-28833333D01*
X93619047Y-28833333D01*
X93714285Y-28880952D01*
X93761904Y-28928571D01*
X93809523Y-29023809D01*
X93809523Y-29261904D01*
X93761904Y-29357142D01*
X93714285Y-29404761D01*
X93619047Y-29452380D01*
X93333333Y-29452380D01*
X93238095Y-29404761D01*
X93190476Y-29357142D01*
X94666666Y-28785714D02*
X94666666Y-29452380D01*
X94428571Y-28404761D02*
X94190476Y-29119047D01*
X94809523Y-29119047D01*
%TO.C,C35*%
X98857142Y-39357142D02*
X98809523Y-39404761D01*
X98666666Y-39452380D01*
X98571428Y-39452380D01*
X98428571Y-39404761D01*
X98333333Y-39309523D01*
X98285714Y-39214285D01*
X98238095Y-39023809D01*
X98238095Y-38880952D01*
X98285714Y-38690476D01*
X98333333Y-38595238D01*
X98428571Y-38500000D01*
X98571428Y-38452380D01*
X98666666Y-38452380D01*
X98809523Y-38500000D01*
X98857142Y-38547619D01*
X99190476Y-38452380D02*
X99809523Y-38452380D01*
X99476190Y-38833333D01*
X99619047Y-38833333D01*
X99714285Y-38880952D01*
X99761904Y-38928571D01*
X99809523Y-39023809D01*
X99809523Y-39261904D01*
X99761904Y-39357142D01*
X99714285Y-39404761D01*
X99619047Y-39452380D01*
X99333333Y-39452380D01*
X99238095Y-39404761D01*
X99190476Y-39357142D01*
X100714285Y-38452380D02*
X100238095Y-38452380D01*
X100190476Y-38928571D01*
X100238095Y-38880952D01*
X100333333Y-38833333D01*
X100571428Y-38833333D01*
X100666666Y-38880952D01*
X100714285Y-38928571D01*
X100761904Y-39023809D01*
X100761904Y-39261904D01*
X100714285Y-39357142D01*
X100666666Y-39404761D01*
X100571428Y-39452380D01*
X100333333Y-39452380D01*
X100238095Y-39404761D01*
X100190476Y-39357142D01*
%TO.C,C36*%
X32857142Y-79357142D02*
X32809523Y-79404761D01*
X32666666Y-79452380D01*
X32571428Y-79452380D01*
X32428571Y-79404761D01*
X32333333Y-79309523D01*
X32285714Y-79214285D01*
X32238095Y-79023809D01*
X32238095Y-78880952D01*
X32285714Y-78690476D01*
X32333333Y-78595238D01*
X32428571Y-78500000D01*
X32571428Y-78452380D01*
X32666666Y-78452380D01*
X32809523Y-78500000D01*
X32857142Y-78547619D01*
X33190476Y-78452380D02*
X33809523Y-78452380D01*
X33476190Y-78833333D01*
X33619047Y-78833333D01*
X33714285Y-78880952D01*
X33761904Y-78928571D01*
X33809523Y-79023809D01*
X33809523Y-79261904D01*
X33761904Y-79357142D01*
X33714285Y-79404761D01*
X33619047Y-79452380D01*
X33333333Y-79452380D01*
X33238095Y-79404761D01*
X33190476Y-79357142D01*
X34666666Y-78452380D02*
X34476190Y-78452380D01*
X34380952Y-78500000D01*
X34333333Y-78547619D01*
X34238095Y-78690476D01*
X34190476Y-78880952D01*
X34190476Y-79261904D01*
X34238095Y-79357142D01*
X34285714Y-79404761D01*
X34380952Y-79452380D01*
X34571428Y-79452380D01*
X34666666Y-79404761D01*
X34714285Y-79357142D01*
X34761904Y-79261904D01*
X34761904Y-79023809D01*
X34714285Y-78928571D01*
X34666666Y-78880952D01*
X34571428Y-78833333D01*
X34380952Y-78833333D01*
X34285714Y-78880952D01*
X34238095Y-78928571D01*
X34190476Y-79023809D01*
%TO.C,C37*%
X101857142Y-34357142D02*
X101809523Y-34404761D01*
X101666666Y-34452380D01*
X101571428Y-34452380D01*
X101428571Y-34404761D01*
X101333333Y-34309523D01*
X101285714Y-34214285D01*
X101238095Y-34023809D01*
X101238095Y-33880952D01*
X101285714Y-33690476D01*
X101333333Y-33595238D01*
X101428571Y-33500000D01*
X101571428Y-33452380D01*
X101666666Y-33452380D01*
X101809523Y-33500000D01*
X101857142Y-33547619D01*
X102190476Y-33452380D02*
X102809523Y-33452380D01*
X102476190Y-33833333D01*
X102619047Y-33833333D01*
X102714285Y-33880952D01*
X102761904Y-33928571D01*
X102809523Y-34023809D01*
X102809523Y-34261904D01*
X102761904Y-34357142D01*
X102714285Y-34404761D01*
X102619047Y-34452380D01*
X102333333Y-34452380D01*
X102238095Y-34404761D01*
X102190476Y-34357142D01*
X103142857Y-33452380D02*
X103809523Y-33452380D01*
X103380952Y-34452380D01*
%TO.C,C38*%
X56857142Y-49357142D02*
X56809523Y-49404761D01*
X56666666Y-49452380D01*
X56571428Y-49452380D01*
X56428571Y-49404761D01*
X56333333Y-49309523D01*
X56285714Y-49214285D01*
X56238095Y-49023809D01*
X56238095Y-48880952D01*
X56285714Y-48690476D01*
X56333333Y-48595238D01*
X56428571Y-48500000D01*
X56571428Y-48452380D01*
X56666666Y-48452380D01*
X56809523Y-48500000D01*
X56857142Y-48547619D01*
X57190476Y-48452380D02*
X57809523Y-48452380D01*
X57476190Y-48833333D01*
X57619047Y-48833333D01*
X57714285Y-48880952D01*
X57761904Y-48928571D01*
X57809523Y-49023809D01*
X57809523Y-49261904D01*
X57761904Y-49357142D01*
X57714285Y-49404761D01*
X57619047Y-49452380D01*
X57333333Y-49452380D01*
X57238095Y-49404761D01*
X57190476Y-49357142D01*
X58380952Y-48880952D02*
X58285714Y-48833333D01*
X58238095Y-48785714D01*
X58190476Y-48690476D01*
X58190476Y-48642857D01*
X58238095Y-48547619D01*
X58285714Y-48500000D01*
X58380952Y-48452380D01*
X58571428Y-48452380D01*
X58666666Y-48500000D01*
X58714285Y-48547619D01*
X58761904Y-48642857D01*
X58761904Y-48690476D01*
X58714285Y-48785714D01*
X58666666Y-48833333D01*
X58571428Y-48880952D01*
X58380952Y-48880952D01*
X58285714Y-48928571D01*
X58238095Y-48976190D01*
X58190476Y-49071428D01*
X58190476Y-49261904D01*
X58238095Y-49357142D01*
X58285714Y-49404761D01*
X58380952Y-49452380D01*
X58571428Y-49452380D01*
X58666666Y-49404761D01*
X58714285Y-49357142D01*
X58761904Y-49261904D01*
X58761904Y-49071428D01*
X58714285Y-48976190D01*
X58666666Y-48928571D01*
X58571428Y-48880952D01*
%TO.C,C39*%
X62867142Y-59357142D02*
X62819523Y-59404761D01*
X62676666Y-59452380D01*
X62581428Y-59452380D01*
X62438571Y-59404761D01*
X62343333Y-59309523D01*
X62295714Y-59214285D01*
X62248095Y-59023809D01*
X62248095Y-58880952D01*
X62295714Y-58690476D01*
X62343333Y-58595238D01*
X62438571Y-58500000D01*
X62581428Y-58452380D01*
X62676666Y-58452380D01*
X62819523Y-58500000D01*
X62867142Y-58547619D01*
X63200476Y-58452380D02*
X63819523Y-58452380D01*
X63486190Y-58833333D01*
X63629047Y-58833333D01*
X63724285Y-58880952D01*
X63771904Y-58928571D01*
X63819523Y-59023809D01*
X63819523Y-59261904D01*
X63771904Y-59357142D01*
X63724285Y-59404761D01*
X63629047Y-59452380D01*
X63343333Y-59452380D01*
X63248095Y-59404761D01*
X63200476Y-59357142D01*
X64295714Y-59452380D02*
X64486190Y-59452380D01*
X64581428Y-59404761D01*
X64629047Y-59357142D01*
X64724285Y-59214285D01*
X64771904Y-59023809D01*
X64771904Y-58642857D01*
X64724285Y-58547619D01*
X64676666Y-58500000D01*
X64581428Y-58452380D01*
X64390952Y-58452380D01*
X64295714Y-58500000D01*
X64248095Y-58547619D01*
X64200476Y-58642857D01*
X64200476Y-58880952D01*
X64248095Y-58976190D01*
X64295714Y-59023809D01*
X64390952Y-59071428D01*
X64581428Y-59071428D01*
X64676666Y-59023809D01*
X64724285Y-58976190D01*
X64771904Y-58880952D01*
%TO.C,C40*%
X29857142Y-69357142D02*
X29809523Y-69404761D01*
X29666666Y-69452380D01*
X29571428Y-69452380D01*
X29428571Y-69404761D01*
X29333333Y-69309523D01*
X29285714Y-69214285D01*
X29238095Y-69023809D01*
X29238095Y-68880952D01*
X29285714Y-68690476D01*
X29333333Y-68595238D01*
X29428571Y-68500000D01*
X29571428Y-68452380D01*
X29666666Y-68452380D01*
X29809523Y-68500000D01*
X29857142Y-68547619D01*
X30714285Y-68785714D02*
X30714285Y-69452380D01*
X30476190Y-68404761D02*
X30238095Y-69119047D01*
X30857142Y-69119047D01*
X31428571Y-68452380D02*
X31523809Y-68452380D01*
X31619047Y-68500000D01*
X31666666Y-68547619D01*
X31714285Y-68642857D01*
X31761904Y-68833333D01*
X31761904Y-69071428D01*
X31714285Y-69261904D01*
X31666666Y-69357142D01*
X31619047Y-69404761D01*
X31523809Y-69452380D01*
X31428571Y-69452380D01*
X31333333Y-69404761D01*
X31285714Y-69357142D01*
X31238095Y-69261904D01*
X31190476Y-69071428D01*
X31190476Y-68833333D01*
X31238095Y-68642857D01*
X31285714Y-68547619D01*
X31333333Y-68500000D01*
X31428571Y-68452380D01*
%TO.C,C41*%
X32857142Y-74357142D02*
X32809523Y-74404761D01*
X32666666Y-74452380D01*
X32571428Y-74452380D01*
X32428571Y-74404761D01*
X32333333Y-74309523D01*
X32285714Y-74214285D01*
X32238095Y-74023809D01*
X32238095Y-73880952D01*
X32285714Y-73690476D01*
X32333333Y-73595238D01*
X32428571Y-73500000D01*
X32571428Y-73452380D01*
X32666666Y-73452380D01*
X32809523Y-73500000D01*
X32857142Y-73547619D01*
X33714285Y-73785714D02*
X33714285Y-74452380D01*
X33476190Y-73404761D02*
X33238095Y-74119047D01*
X33857142Y-74119047D01*
X34761904Y-74452380D02*
X34190476Y-74452380D01*
X34476190Y-74452380D02*
X34476190Y-73452380D01*
X34380952Y-73595238D01*
X34285714Y-73690476D01*
X34190476Y-73738095D01*
%TO.C,C42*%
X62857142Y-54357142D02*
X62809523Y-54404761D01*
X62666666Y-54452380D01*
X62571428Y-54452380D01*
X62428571Y-54404761D01*
X62333333Y-54309523D01*
X62285714Y-54214285D01*
X62238095Y-54023809D01*
X62238095Y-53880952D01*
X62285714Y-53690476D01*
X62333333Y-53595238D01*
X62428571Y-53500000D01*
X62571428Y-53452380D01*
X62666666Y-53452380D01*
X62809523Y-53500000D01*
X62857142Y-53547619D01*
X63714285Y-53785714D02*
X63714285Y-54452380D01*
X63476190Y-53404761D02*
X63238095Y-54119047D01*
X63857142Y-54119047D01*
X64190476Y-53547619D02*
X64238095Y-53500000D01*
X64333333Y-53452380D01*
X64571428Y-53452380D01*
X64666666Y-53500000D01*
X64714285Y-53547619D01*
X64761904Y-53642857D01*
X64761904Y-53738095D01*
X64714285Y-53880952D01*
X64142857Y-54452380D01*
X64761904Y-54452380D01*
%TO.C,C43*%
X98857142Y-29357142D02*
X98809523Y-29404761D01*
X98666666Y-29452380D01*
X98571428Y-29452380D01*
X98428571Y-29404761D01*
X98333333Y-29309523D01*
X98285714Y-29214285D01*
X98238095Y-29023809D01*
X98238095Y-28880952D01*
X98285714Y-28690476D01*
X98333333Y-28595238D01*
X98428571Y-28500000D01*
X98571428Y-28452380D01*
X98666666Y-28452380D01*
X98809523Y-28500000D01*
X98857142Y-28547619D01*
X99714285Y-28785714D02*
X99714285Y-29452380D01*
X99476190Y-28404761D02*
X99238095Y-29119047D01*
X99857142Y-29119047D01*
X100142857Y-28452380D02*
X100761904Y-28452380D01*
X100428571Y-28833333D01*
X100571428Y-28833333D01*
X100666666Y-28880952D01*
X100714285Y-28928571D01*
X100761904Y-29023809D01*
X100761904Y-29261904D01*
X100714285Y-29357142D01*
X100666666Y-29404761D01*
X100571428Y-29452380D01*
X100285714Y-29452380D01*
X100190476Y-29404761D01*
X100142857Y-29357142D01*
%TO.C,C44*%
X53857142Y-49357142D02*
X53809523Y-49404761D01*
X53666666Y-49452380D01*
X53571428Y-49452380D01*
X53428571Y-49404761D01*
X53333333Y-49309523D01*
X53285714Y-49214285D01*
X53238095Y-49023809D01*
X53238095Y-48880952D01*
X53285714Y-48690476D01*
X53333333Y-48595238D01*
X53428571Y-48500000D01*
X53571428Y-48452380D01*
X53666666Y-48452380D01*
X53809523Y-48500000D01*
X53857142Y-48547619D01*
X54714285Y-48785714D02*
X54714285Y-49452380D01*
X54476190Y-48404761D02*
X54238095Y-49119047D01*
X54857142Y-49119047D01*
X55666666Y-48785714D02*
X55666666Y-49452380D01*
X55428571Y-48404761D02*
X55190476Y-49119047D01*
X55809523Y-49119047D01*
%TO.C,C45*%
X32857142Y-69357142D02*
X32809523Y-69404761D01*
X32666666Y-69452380D01*
X32571428Y-69452380D01*
X32428571Y-69404761D01*
X32333333Y-69309523D01*
X32285714Y-69214285D01*
X32238095Y-69023809D01*
X32238095Y-68880952D01*
X32285714Y-68690476D01*
X32333333Y-68595238D01*
X32428571Y-68500000D01*
X32571428Y-68452380D01*
X32666666Y-68452380D01*
X32809523Y-68500000D01*
X32857142Y-68547619D01*
X33714285Y-68785714D02*
X33714285Y-69452380D01*
X33476190Y-68404761D02*
X33238095Y-69119047D01*
X33857142Y-69119047D01*
X34714285Y-68452380D02*
X34238095Y-68452380D01*
X34190476Y-68928571D01*
X34238095Y-68880952D01*
X34333333Y-68833333D01*
X34571428Y-68833333D01*
X34666666Y-68880952D01*
X34714285Y-68928571D01*
X34761904Y-69023809D01*
X34761904Y-69261904D01*
X34714285Y-69357142D01*
X34666666Y-69404761D01*
X34571428Y-69452380D01*
X34333333Y-69452380D01*
X34238095Y-69404761D01*
X34190476Y-69357142D01*
%TO.C,C46*%
X101857142Y-29357142D02*
X101809523Y-29404761D01*
X101666666Y-29452380D01*
X101571428Y-29452380D01*
X101428571Y-29404761D01*
X101333333Y-29309523D01*
X101285714Y-29214285D01*
X101238095Y-29023809D01*
X101238095Y-28880952D01*
X101285714Y-28690476D01*
X101333333Y-28595238D01*
X101428571Y-28500000D01*
X101571428Y-28452380D01*
X101666666Y-28452380D01*
X101809523Y-28500000D01*
X101857142Y-28547619D01*
X102714285Y-28785714D02*
X102714285Y-29452380D01*
X102476190Y-28404761D02*
X102238095Y-29119047D01*
X102857142Y-29119047D01*
X103666666Y-28452380D02*
X103476190Y-28452380D01*
X103380952Y-28500000D01*
X103333333Y-28547619D01*
X103238095Y-28690476D01*
X103190476Y-28880952D01*
X103190476Y-29261904D01*
X103238095Y-29357142D01*
X103285714Y-29404761D01*
X103380952Y-29452380D01*
X103571428Y-29452380D01*
X103666666Y-29404761D01*
X103714285Y-29357142D01*
X103761904Y-29261904D01*
X103761904Y-29023809D01*
X103714285Y-28928571D01*
X103666666Y-28880952D01*
X103571428Y-28833333D01*
X103380952Y-28833333D01*
X103285714Y-28880952D01*
X103238095Y-28928571D01*
X103190476Y-29023809D01*
%TO.C,D1*%
X95281904Y-66952380D02*
X95281904Y-65952380D01*
X95520000Y-65952380D01*
X95662857Y-66000000D01*
X95758095Y-66095238D01*
X95805714Y-66190476D01*
X95853333Y-66380952D01*
X95853333Y-66523809D01*
X95805714Y-66714285D01*
X95758095Y-66809523D01*
X95662857Y-66904761D01*
X95520000Y-66952380D01*
X95281904Y-66952380D01*
X96805714Y-66952380D02*
X96234285Y-66952380D01*
X96520000Y-66952380D02*
X96520000Y-65952380D01*
X96424761Y-66095238D01*
X96329523Y-66190476D01*
X96234285Y-66238095D01*
%TO.C,J1*%
X19666666Y-17122380D02*
X19666666Y-17836666D01*
X19619047Y-17979523D01*
X19523809Y-18074761D01*
X19380952Y-18122380D01*
X19285714Y-18122380D01*
X20666666Y-18122380D02*
X20095238Y-18122380D01*
X20380952Y-18122380D02*
X20380952Y-17122380D01*
X20285714Y-17265238D01*
X20190476Y-17360476D01*
X20095238Y-17408095D01*
%TO.C,J2*%
X18666666Y-35582380D02*
X18666666Y-36296666D01*
X18619047Y-36439523D01*
X18523809Y-36534761D01*
X18380952Y-36582380D01*
X18285714Y-36582380D01*
X19095238Y-35677619D02*
X19142857Y-35630000D01*
X19238095Y-35582380D01*
X19476190Y-35582380D01*
X19571428Y-35630000D01*
X19619047Y-35677619D01*
X19666666Y-35772857D01*
X19666666Y-35868095D01*
X19619047Y-36010952D01*
X19047619Y-36582380D01*
X19666666Y-36582380D01*
%TO.C,J3*%
X18666666Y-55582380D02*
X18666666Y-56296666D01*
X18619047Y-56439523D01*
X18523809Y-56534761D01*
X18380952Y-56582380D01*
X18285714Y-56582380D01*
X19047619Y-55582380D02*
X19666666Y-55582380D01*
X19333333Y-55963333D01*
X19476190Y-55963333D01*
X19571428Y-56010952D01*
X19619047Y-56058571D01*
X19666666Y-56153809D01*
X19666666Y-56391904D01*
X19619047Y-56487142D01*
X19571428Y-56534761D01*
X19476190Y-56582380D01*
X19190476Y-56582380D01*
X19095238Y-56534761D01*
X19047619Y-56487142D01*
%TO.C,J4*%
X35666666Y-35542380D02*
X35666666Y-36256666D01*
X35619047Y-36399523D01*
X35523809Y-36494761D01*
X35380952Y-36542380D01*
X35285714Y-36542380D01*
X36571428Y-35875714D02*
X36571428Y-36542380D01*
X36333333Y-35494761D02*
X36095238Y-36209047D01*
X36714285Y-36209047D01*
%TO.C,J5*%
X35666666Y-55452380D02*
X35666666Y-56166666D01*
X35619047Y-56309523D01*
X35523809Y-56404761D01*
X35380952Y-56452380D01*
X35285714Y-56452380D01*
X36619047Y-55452380D02*
X36142857Y-55452380D01*
X36095238Y-55928571D01*
X36142857Y-55880952D01*
X36238095Y-55833333D01*
X36476190Y-55833333D01*
X36571428Y-55880952D01*
X36619047Y-55928571D01*
X36666666Y-56023809D01*
X36666666Y-56261904D01*
X36619047Y-56357142D01*
X36571428Y-56404761D01*
X36476190Y-56452380D01*
X36238095Y-56452380D01*
X36142857Y-56404761D01*
X36095238Y-56357142D01*
%TO.C,J6*%
X87806666Y-68082380D02*
X87806666Y-68796666D01*
X87759047Y-68939523D01*
X87663809Y-69034761D01*
X87520952Y-69082380D01*
X87425714Y-69082380D01*
X88711428Y-68082380D02*
X88520952Y-68082380D01*
X88425714Y-68130000D01*
X88378095Y-68177619D01*
X88282857Y-68320476D01*
X88235238Y-68510952D01*
X88235238Y-68891904D01*
X88282857Y-68987142D01*
X88330476Y-69034761D01*
X88425714Y-69082380D01*
X88616190Y-69082380D01*
X88711428Y-69034761D01*
X88759047Y-68987142D01*
X88806666Y-68891904D01*
X88806666Y-68653809D01*
X88759047Y-68558571D01*
X88711428Y-68510952D01*
X88616190Y-68463333D01*
X88425714Y-68463333D01*
X88330476Y-68510952D01*
X88282857Y-68558571D01*
X88235238Y-68653809D01*
%TO.C,J7*%
X48816666Y-75582380D02*
X48816666Y-76296666D01*
X48769047Y-76439523D01*
X48673809Y-76534761D01*
X48530952Y-76582380D01*
X48435714Y-76582380D01*
X49197619Y-75582380D02*
X49864285Y-75582380D01*
X49435714Y-76582380D01*
%TO.C,J8*%
X48666666Y-35582380D02*
X48666666Y-36296666D01*
X48619047Y-36439523D01*
X48523809Y-36534761D01*
X48380952Y-36582380D01*
X48285714Y-36582380D01*
X49285714Y-36010952D02*
X49190476Y-35963333D01*
X49142857Y-35915714D01*
X49095238Y-35820476D01*
X49095238Y-35772857D01*
X49142857Y-35677619D01*
X49190476Y-35630000D01*
X49285714Y-35582380D01*
X49476190Y-35582380D01*
X49571428Y-35630000D01*
X49619047Y-35677619D01*
X49666666Y-35772857D01*
X49666666Y-35820476D01*
X49619047Y-35915714D01*
X49571428Y-35963333D01*
X49476190Y-36010952D01*
X49285714Y-36010952D01*
X49190476Y-36058571D01*
X49142857Y-36106190D01*
X49095238Y-36201428D01*
X49095238Y-36391904D01*
X49142857Y-36487142D01*
X49190476Y-36534761D01*
X49285714Y-36582380D01*
X49476190Y-36582380D01*
X49571428Y-36534761D01*
X49619047Y-36487142D01*
X49666666Y-36391904D01*
X49666666Y-36201428D01*
X49619047Y-36106190D01*
X49571428Y-36058571D01*
X49476190Y-36010952D01*
%TO.C,J9*%
X104666666Y-67952380D02*
X104666666Y-68666666D01*
X104619047Y-68809523D01*
X104523809Y-68904761D01*
X104380952Y-68952380D01*
X104285714Y-68952380D01*
X105190476Y-68952380D02*
X105380952Y-68952380D01*
X105476190Y-68904761D01*
X105523809Y-68857142D01*
X105619047Y-68714285D01*
X105666666Y-68523809D01*
X105666666Y-68142857D01*
X105619047Y-68047619D01*
X105571428Y-68000000D01*
X105476190Y-67952380D01*
X105285714Y-67952380D01*
X105190476Y-68000000D01*
X105142857Y-68047619D01*
X105095238Y-68142857D01*
X105095238Y-68380952D01*
X105142857Y-68476190D01*
X105190476Y-68523809D01*
X105285714Y-68571428D01*
X105476190Y-68571428D01*
X105571428Y-68523809D01*
X105619047Y-68476190D01*
X105666666Y-68380952D01*
%TO.C,J10*%
X65560476Y-67952380D02*
X65560476Y-68666666D01*
X65512857Y-68809523D01*
X65417619Y-68904761D01*
X65274761Y-68952380D01*
X65179523Y-68952380D01*
X66560476Y-68952380D02*
X65989047Y-68952380D01*
X66274761Y-68952380D02*
X66274761Y-67952380D01*
X66179523Y-68095238D01*
X66084285Y-68190476D01*
X65989047Y-68238095D01*
X67179523Y-67952380D02*
X67274761Y-67952380D01*
X67370000Y-68000000D01*
X67417619Y-68047619D01*
X67465238Y-68142857D01*
X67512857Y-68333333D01*
X67512857Y-68571428D01*
X67465238Y-68761904D01*
X67417619Y-68857142D01*
X67370000Y-68904761D01*
X67274761Y-68952380D01*
X67179523Y-68952380D01*
X67084285Y-68904761D01*
X67036666Y-68857142D01*
X66989047Y-68761904D01*
X66941428Y-68571428D01*
X66941428Y-68333333D01*
X66989047Y-68142857D01*
X67036666Y-68047619D01*
X67084285Y-68000000D01*
X67179523Y-67952380D01*
%TO.C,J11*%
X65560476Y-75582380D02*
X65560476Y-76296666D01*
X65512857Y-76439523D01*
X65417619Y-76534761D01*
X65274761Y-76582380D01*
X65179523Y-76582380D01*
X66560476Y-76582380D02*
X65989047Y-76582380D01*
X66274761Y-76582380D02*
X66274761Y-75582380D01*
X66179523Y-75725238D01*
X66084285Y-75820476D01*
X65989047Y-75868095D01*
X67512857Y-76582380D02*
X66941428Y-76582380D01*
X67227142Y-76582380D02*
X67227142Y-75582380D01*
X67131904Y-75725238D01*
X67036666Y-75820476D01*
X66941428Y-75868095D01*
%TO.C,J12*%
X65690476Y-35452380D02*
X65690476Y-36166666D01*
X65642857Y-36309523D01*
X65547619Y-36404761D01*
X65404761Y-36452380D01*
X65309523Y-36452380D01*
X66690476Y-36452380D02*
X66119047Y-36452380D01*
X66404761Y-36452380D02*
X66404761Y-35452380D01*
X66309523Y-35595238D01*
X66214285Y-35690476D01*
X66119047Y-35738095D01*
X67071428Y-35547619D02*
X67119047Y-35500000D01*
X67214285Y-35452380D01*
X67452380Y-35452380D01*
X67547619Y-35500000D01*
X67595238Y-35547619D01*
X67642857Y-35642857D01*
X67642857Y-35738095D01*
X67595238Y-35880952D01*
X67023809Y-36452380D01*
X67642857Y-36452380D01*
%TO.C,J13*%
X85190476Y-35582380D02*
X85190476Y-36296666D01*
X85142857Y-36439523D01*
X85047619Y-36534761D01*
X84904761Y-36582380D01*
X84809523Y-36582380D01*
X86190476Y-36582380D02*
X85619047Y-36582380D01*
X85904761Y-36582380D02*
X85904761Y-35582380D01*
X85809523Y-35725238D01*
X85714285Y-35820476D01*
X85619047Y-35868095D01*
X86523809Y-35582380D02*
X87142857Y-35582380D01*
X86809523Y-35963333D01*
X86952380Y-35963333D01*
X87047619Y-36010952D01*
X87095238Y-36058571D01*
X87142857Y-36153809D01*
X87142857Y-36391904D01*
X87095238Y-36487142D01*
X87047619Y-36534761D01*
X86952380Y-36582380D01*
X86666666Y-36582380D01*
X86571428Y-36534761D01*
X86523809Y-36487142D01*
%TO.C,J14*%
X18690476Y-75622380D02*
X18690476Y-76336666D01*
X18642857Y-76479523D01*
X18547619Y-76574761D01*
X18404761Y-76622380D01*
X18309523Y-76622380D01*
X19690476Y-76622380D02*
X19119047Y-76622380D01*
X19404761Y-76622380D02*
X19404761Y-75622380D01*
X19309523Y-75765238D01*
X19214285Y-75860476D01*
X19119047Y-75908095D01*
X20547619Y-75955714D02*
X20547619Y-76622380D01*
X20309523Y-75574761D02*
X20071428Y-76289047D01*
X20690476Y-76289047D01*
%TO.C,J15*%
X48690476Y-55622380D02*
X48690476Y-56336666D01*
X48642857Y-56479523D01*
X48547619Y-56574761D01*
X48404761Y-56622380D01*
X48309523Y-56622380D01*
X49690476Y-56622380D02*
X49119047Y-56622380D01*
X49404761Y-56622380D02*
X49404761Y-55622380D01*
X49309523Y-55765238D01*
X49214285Y-55860476D01*
X49119047Y-55908095D01*
X50595238Y-55622380D02*
X50119047Y-55622380D01*
X50071428Y-56098571D01*
X50119047Y-56050952D01*
X50214285Y-56003333D01*
X50452380Y-56003333D01*
X50547619Y-56050952D01*
X50595238Y-56098571D01*
X50642857Y-56193809D01*
X50642857Y-56431904D01*
X50595238Y-56527142D01*
X50547619Y-56574761D01*
X50452380Y-56622380D01*
X50214285Y-56622380D01*
X50119047Y-56574761D01*
X50071428Y-56527142D01*
%TO.C,J16*%
X104690476Y-35452380D02*
X104690476Y-36166666D01*
X104642857Y-36309523D01*
X104547619Y-36404761D01*
X104404761Y-36452380D01*
X104309523Y-36452380D01*
X105690476Y-36452380D02*
X105119047Y-36452380D01*
X105404761Y-36452380D02*
X105404761Y-35452380D01*
X105309523Y-35595238D01*
X105214285Y-35690476D01*
X105119047Y-35738095D01*
X106547619Y-35452380D02*
X106357142Y-35452380D01*
X106261904Y-35500000D01*
X106214285Y-35547619D01*
X106119047Y-35690476D01*
X106071428Y-35880952D01*
X106071428Y-36261904D01*
X106119047Y-36357142D01*
X106166666Y-36404761D01*
X106261904Y-36452380D01*
X106452380Y-36452380D01*
X106547619Y-36404761D01*
X106595238Y-36357142D01*
X106642857Y-36261904D01*
X106642857Y-36023809D01*
X106595238Y-35928571D01*
X106547619Y-35880952D01*
X106452380Y-35833333D01*
X106261904Y-35833333D01*
X106166666Y-35880952D01*
X106119047Y-35928571D01*
X106071428Y-36023809D01*
%TO.C,J17*%
X35690476Y-75452380D02*
X35690476Y-76166666D01*
X35642857Y-76309523D01*
X35547619Y-76404761D01*
X35404761Y-76452380D01*
X35309523Y-76452380D01*
X36690476Y-76452380D02*
X36119047Y-76452380D01*
X36404761Y-76452380D02*
X36404761Y-75452380D01*
X36309523Y-75595238D01*
X36214285Y-75690476D01*
X36119047Y-75738095D01*
X37023809Y-75452380D02*
X37690476Y-75452380D01*
X37261904Y-76452380D01*
%TO.C,J18*%
X65690476Y-55452380D02*
X65690476Y-56166666D01*
X65642857Y-56309523D01*
X65547619Y-56404761D01*
X65404761Y-56452380D01*
X65309523Y-56452380D01*
X66690476Y-56452380D02*
X66119047Y-56452380D01*
X66404761Y-56452380D02*
X66404761Y-55452380D01*
X66309523Y-55595238D01*
X66214285Y-55690476D01*
X66119047Y-55738095D01*
X67261904Y-55880952D02*
X67166666Y-55833333D01*
X67119047Y-55785714D01*
X67071428Y-55690476D01*
X67071428Y-55642857D01*
X67119047Y-55547619D01*
X67166666Y-55500000D01*
X67261904Y-55452380D01*
X67452380Y-55452380D01*
X67547619Y-55500000D01*
X67595238Y-55547619D01*
X67642857Y-55642857D01*
X67642857Y-55690476D01*
X67595238Y-55785714D01*
X67547619Y-55833333D01*
X67452380Y-55880952D01*
X67261904Y-55880952D01*
X67166666Y-55928571D01*
X67119047Y-55976190D01*
X67071428Y-56071428D01*
X67071428Y-56261904D01*
X67119047Y-56357142D01*
X67166666Y-56404761D01*
X67261904Y-56452380D01*
X67452380Y-56452380D01*
X67547619Y-56404761D01*
X67595238Y-56357142D01*
X67642857Y-56261904D01*
X67642857Y-56071428D01*
X67595238Y-55976190D01*
X67547619Y-55928571D01*
X67452380Y-55880952D01*
%TO.C,L1*%
X95833333Y-29452380D02*
X95357142Y-29452380D01*
X95357142Y-28452380D01*
X96690476Y-29452380D02*
X96119047Y-29452380D01*
X96404761Y-29452380D02*
X96404761Y-28452380D01*
X96309523Y-28595238D01*
X96214285Y-28690476D01*
X96119047Y-28738095D01*
%TO.C,Q1*%
X29904761Y-34047619D02*
X29809523Y-34000000D01*
X29714285Y-33904761D01*
X29571428Y-33761904D01*
X29476190Y-33714285D01*
X29380952Y-33714285D01*
X29428571Y-33952380D02*
X29333333Y-33904761D01*
X29238095Y-33809523D01*
X29190476Y-33619047D01*
X29190476Y-33285714D01*
X29238095Y-33095238D01*
X29333333Y-33000000D01*
X29428571Y-32952380D01*
X29619047Y-32952380D01*
X29714285Y-33000000D01*
X29809523Y-33095238D01*
X29857142Y-33285714D01*
X29857142Y-33619047D01*
X29809523Y-33809523D01*
X29714285Y-33904761D01*
X29619047Y-33952380D01*
X29428571Y-33952380D01*
X30809523Y-33952380D02*
X30238095Y-33952380D01*
X30523809Y-33952380D02*
X30523809Y-32952380D01*
X30428571Y-33095238D01*
X30333333Y-33190476D01*
X30238095Y-33238095D01*
%TO.C,Q2*%
X26904761Y-54547619D02*
X26809523Y-54500000D01*
X26714285Y-54404761D01*
X26571428Y-54261904D01*
X26476190Y-54214285D01*
X26380952Y-54214285D01*
X26428571Y-54452380D02*
X26333333Y-54404761D01*
X26238095Y-54309523D01*
X26190476Y-54119047D01*
X26190476Y-53785714D01*
X26238095Y-53595238D01*
X26333333Y-53500000D01*
X26428571Y-53452380D01*
X26619047Y-53452380D01*
X26714285Y-53500000D01*
X26809523Y-53595238D01*
X26857142Y-53785714D01*
X26857142Y-54119047D01*
X26809523Y-54309523D01*
X26714285Y-54404761D01*
X26619047Y-54452380D01*
X26428571Y-54452380D01*
X27238095Y-53547619D02*
X27285714Y-53500000D01*
X27380952Y-53452380D01*
X27619047Y-53452380D01*
X27714285Y-53500000D01*
X27761904Y-53547619D01*
X27809523Y-53642857D01*
X27809523Y-53738095D01*
X27761904Y-53880952D01*
X27190476Y-54452380D01*
X27809523Y-54452380D01*
%TO.C,Q3*%
X98904761Y-66787619D02*
X98809523Y-66740000D01*
X98714285Y-66644761D01*
X98571428Y-66501904D01*
X98476190Y-66454285D01*
X98380952Y-66454285D01*
X98428571Y-66692380D02*
X98333333Y-66644761D01*
X98238095Y-66549523D01*
X98190476Y-66359047D01*
X98190476Y-66025714D01*
X98238095Y-65835238D01*
X98333333Y-65740000D01*
X98428571Y-65692380D01*
X98619047Y-65692380D01*
X98714285Y-65740000D01*
X98809523Y-65835238D01*
X98857142Y-66025714D01*
X98857142Y-66359047D01*
X98809523Y-66549523D01*
X98714285Y-66644761D01*
X98619047Y-66692380D01*
X98428571Y-66692380D01*
X99190476Y-65692380D02*
X99809523Y-65692380D01*
X99476190Y-66073333D01*
X99619047Y-66073333D01*
X99714285Y-66120952D01*
X99761904Y-66168571D01*
X99809523Y-66263809D01*
X99809523Y-66501904D01*
X99761904Y-66597142D01*
X99714285Y-66644761D01*
X99619047Y-66692380D01*
X99333333Y-66692380D01*
X99238095Y-66644761D01*
X99190476Y-66597142D01*
%TO.C,Q4*%
X56904761Y-74047619D02*
X56809523Y-74000000D01*
X56714285Y-73904761D01*
X56571428Y-73761904D01*
X56476190Y-73714285D01*
X56380952Y-73714285D01*
X56428571Y-73952380D02*
X56333333Y-73904761D01*
X56238095Y-73809523D01*
X56190476Y-73619047D01*
X56190476Y-73285714D01*
X56238095Y-73095238D01*
X56333333Y-73000000D01*
X56428571Y-72952380D01*
X56619047Y-72952380D01*
X56714285Y-73000000D01*
X56809523Y-73095238D01*
X56857142Y-73285714D01*
X56857142Y-73619047D01*
X56809523Y-73809523D01*
X56714285Y-73904761D01*
X56619047Y-73952380D01*
X56428571Y-73952380D01*
X57714285Y-73285714D02*
X57714285Y-73952380D01*
X57476190Y-72904761D02*
X57238095Y-73619047D01*
X57857142Y-73619047D01*
%TO.C,Q5*%
X56904761Y-34047619D02*
X56809523Y-34000000D01*
X56714285Y-33904761D01*
X56571428Y-33761904D01*
X56476190Y-33714285D01*
X56380952Y-33714285D01*
X56428571Y-33952380D02*
X56333333Y-33904761D01*
X56238095Y-33809523D01*
X56190476Y-33619047D01*
X56190476Y-33285714D01*
X56238095Y-33095238D01*
X56333333Y-33000000D01*
X56428571Y-32952380D01*
X56619047Y-32952380D01*
X56714285Y-33000000D01*
X56809523Y-33095238D01*
X56857142Y-33285714D01*
X56857142Y-33619047D01*
X56809523Y-33809523D01*
X56714285Y-33904761D01*
X56619047Y-33952380D01*
X56428571Y-33952380D01*
X57761904Y-32952380D02*
X57285714Y-32952380D01*
X57238095Y-33428571D01*
X57285714Y-33380952D01*
X57380952Y-33333333D01*
X57619047Y-33333333D01*
X57714285Y-33380952D01*
X57761904Y-33428571D01*
X57809523Y-33523809D01*
X57809523Y-33761904D01*
X57761904Y-33857142D01*
X57714285Y-33904761D01*
X57619047Y-33952380D01*
X57380952Y-33952380D01*
X57285714Y-33904761D01*
X57238095Y-33857142D01*
%TO.C,Q6*%
X96904761Y-34097619D02*
X96809523Y-34050000D01*
X96714285Y-33954761D01*
X96571428Y-33811904D01*
X96476190Y-33764285D01*
X96380952Y-33764285D01*
X96428571Y-34002380D02*
X96333333Y-33954761D01*
X96238095Y-33859523D01*
X96190476Y-33669047D01*
X96190476Y-33335714D01*
X96238095Y-33145238D01*
X96333333Y-33050000D01*
X96428571Y-33002380D01*
X96619047Y-33002380D01*
X96714285Y-33050000D01*
X96809523Y-33145238D01*
X96857142Y-33335714D01*
X96857142Y-33669047D01*
X96809523Y-33859523D01*
X96714285Y-33954761D01*
X96619047Y-34002380D01*
X96428571Y-34002380D01*
X97714285Y-33002380D02*
X97523809Y-33002380D01*
X97428571Y-33050000D01*
X97380952Y-33097619D01*
X97285714Y-33240476D01*
X97238095Y-33430952D01*
X97238095Y-33811904D01*
X97285714Y-33907142D01*
X97333333Y-33954761D01*
X97428571Y-34002380D01*
X97619047Y-34002380D01*
X97714285Y-33954761D01*
X97761904Y-33907142D01*
X97809523Y-33811904D01*
X97809523Y-33573809D01*
X97761904Y-33478571D01*
X97714285Y-33430952D01*
X97619047Y-33383333D01*
X97428571Y-33383333D01*
X97333333Y-33430952D01*
X97285714Y-33478571D01*
X97238095Y-33573809D01*
%TO.C,Q7*%
X26834761Y-74097619D02*
X26739523Y-74050000D01*
X26644285Y-73954761D01*
X26501428Y-73811904D01*
X26406190Y-73764285D01*
X26310952Y-73764285D01*
X26358571Y-74002380D02*
X26263333Y-73954761D01*
X26168095Y-73859523D01*
X26120476Y-73669047D01*
X26120476Y-73335714D01*
X26168095Y-73145238D01*
X26263333Y-73050000D01*
X26358571Y-73002380D01*
X26549047Y-73002380D01*
X26644285Y-73050000D01*
X26739523Y-73145238D01*
X26787142Y-73335714D01*
X26787142Y-73669047D01*
X26739523Y-73859523D01*
X26644285Y-73954761D01*
X26549047Y-74002380D01*
X26358571Y-74002380D01*
X27120476Y-73002380D02*
X27787142Y-73002380D01*
X27358571Y-74002380D01*
%TO.C,Q8*%
X56904761Y-54547619D02*
X56809523Y-54500000D01*
X56714285Y-54404761D01*
X56571428Y-54261904D01*
X56476190Y-54214285D01*
X56380952Y-54214285D01*
X56428571Y-54452380D02*
X56333333Y-54404761D01*
X56238095Y-54309523D01*
X56190476Y-54119047D01*
X56190476Y-53785714D01*
X56238095Y-53595238D01*
X56333333Y-53500000D01*
X56428571Y-53452380D01*
X56619047Y-53452380D01*
X56714285Y-53500000D01*
X56809523Y-53595238D01*
X56857142Y-53785714D01*
X56857142Y-54119047D01*
X56809523Y-54309523D01*
X56714285Y-54404761D01*
X56619047Y-54452380D01*
X56428571Y-54452380D01*
X57428571Y-53880952D02*
X57333333Y-53833333D01*
X57285714Y-53785714D01*
X57238095Y-53690476D01*
X57238095Y-53642857D01*
X57285714Y-53547619D01*
X57333333Y-53500000D01*
X57428571Y-53452380D01*
X57619047Y-53452380D01*
X57714285Y-53500000D01*
X57761904Y-53547619D01*
X57809523Y-53642857D01*
X57809523Y-53690476D01*
X57761904Y-53785714D01*
X57714285Y-53833333D01*
X57619047Y-53880952D01*
X57428571Y-53880952D01*
X57333333Y-53928571D01*
X57285714Y-53976190D01*
X57238095Y-54071428D01*
X57238095Y-54261904D01*
X57285714Y-54357142D01*
X57333333Y-54404761D01*
X57428571Y-54452380D01*
X57619047Y-54452380D01*
X57714285Y-54404761D01*
X57761904Y-54357142D01*
X57809523Y-54261904D01*
X57809523Y-54071428D01*
X57761904Y-53976190D01*
X57714285Y-53928571D01*
X57619047Y-53880952D01*
%TO.C,R1*%
X23833333Y-29452380D02*
X23500000Y-28976190D01*
X23261904Y-29452380D02*
X23261904Y-28452380D01*
X23642857Y-28452380D01*
X23738095Y-28500000D01*
X23785714Y-28547619D01*
X23833333Y-28642857D01*
X23833333Y-28785714D01*
X23785714Y-28880952D01*
X23738095Y-28928571D01*
X23642857Y-28976190D01*
X23261904Y-28976190D01*
X24785714Y-29452380D02*
X24214285Y-29452380D01*
X24500000Y-29452380D02*
X24500000Y-28452380D01*
X24404761Y-28595238D01*
X24309523Y-28690476D01*
X24214285Y-28738095D01*
%TO.C,R2*%
X26833333Y-39327380D02*
X26500000Y-38851190D01*
X26261904Y-39327380D02*
X26261904Y-38327380D01*
X26642857Y-38327380D01*
X26738095Y-38375000D01*
X26785714Y-38422619D01*
X26833333Y-38517857D01*
X26833333Y-38660714D01*
X26785714Y-38755952D01*
X26738095Y-38803571D01*
X26642857Y-38851190D01*
X26261904Y-38851190D01*
X27214285Y-38422619D02*
X27261904Y-38375000D01*
X27357142Y-38327380D01*
X27595238Y-38327380D01*
X27690476Y-38375000D01*
X27738095Y-38422619D01*
X27785714Y-38517857D01*
X27785714Y-38613095D01*
X27738095Y-38755952D01*
X27166666Y-39327380D01*
X27785714Y-39327380D01*
%TO.C,R3*%
X23833333Y-49952380D02*
X23500000Y-49476190D01*
X23261904Y-49952380D02*
X23261904Y-48952380D01*
X23642857Y-48952380D01*
X23738095Y-49000000D01*
X23785714Y-49047619D01*
X23833333Y-49142857D01*
X23833333Y-49285714D01*
X23785714Y-49380952D01*
X23738095Y-49428571D01*
X23642857Y-49476190D01*
X23261904Y-49476190D01*
X24166666Y-48952380D02*
X24785714Y-48952380D01*
X24452380Y-49333333D01*
X24595238Y-49333333D01*
X24690476Y-49380952D01*
X24738095Y-49428571D01*
X24785714Y-49523809D01*
X24785714Y-49761904D01*
X24738095Y-49857142D01*
X24690476Y-49904761D01*
X24595238Y-49952380D01*
X24309523Y-49952380D01*
X24214285Y-49904761D01*
X24166666Y-49857142D01*
%TO.C,R4*%
X26833333Y-59452380D02*
X26500000Y-58976190D01*
X26261904Y-59452380D02*
X26261904Y-58452380D01*
X26642857Y-58452380D01*
X26738095Y-58500000D01*
X26785714Y-58547619D01*
X26833333Y-58642857D01*
X26833333Y-58785714D01*
X26785714Y-58880952D01*
X26738095Y-58928571D01*
X26642857Y-58976190D01*
X26261904Y-58976190D01*
X27690476Y-58785714D02*
X27690476Y-59452380D01*
X27452380Y-58404761D02*
X27214285Y-59119047D01*
X27833333Y-59119047D01*
%TO.C,R5*%
X26833333Y-29452380D02*
X26500000Y-28976190D01*
X26261904Y-29452380D02*
X26261904Y-28452380D01*
X26642857Y-28452380D01*
X26738095Y-28500000D01*
X26785714Y-28547619D01*
X26833333Y-28642857D01*
X26833333Y-28785714D01*
X26785714Y-28880952D01*
X26738095Y-28928571D01*
X26642857Y-28976190D01*
X26261904Y-28976190D01*
X27738095Y-28452380D02*
X27261904Y-28452380D01*
X27214285Y-28928571D01*
X27261904Y-28880952D01*
X27357142Y-28833333D01*
X27595238Y-28833333D01*
X27690476Y-28880952D01*
X27738095Y-28928571D01*
X27785714Y-29023809D01*
X27785714Y-29261904D01*
X27738095Y-29357142D01*
X27690476Y-29404761D01*
X27595238Y-29452380D01*
X27357142Y-29452380D01*
X27261904Y-29404761D01*
X27214285Y-29357142D01*
%TO.C,R6*%
X29833333Y-39327380D02*
X29500000Y-38851190D01*
X29261904Y-39327380D02*
X29261904Y-38327380D01*
X29642857Y-38327380D01*
X29738095Y-38375000D01*
X29785714Y-38422619D01*
X29833333Y-38517857D01*
X29833333Y-38660714D01*
X29785714Y-38755952D01*
X29738095Y-38803571D01*
X29642857Y-38851190D01*
X29261904Y-38851190D01*
X30690476Y-38327380D02*
X30500000Y-38327380D01*
X30404761Y-38375000D01*
X30357142Y-38422619D01*
X30261904Y-38565476D01*
X30214285Y-38755952D01*
X30214285Y-39136904D01*
X30261904Y-39232142D01*
X30309523Y-39279761D01*
X30404761Y-39327380D01*
X30595238Y-39327380D01*
X30690476Y-39279761D01*
X30738095Y-39232142D01*
X30785714Y-39136904D01*
X30785714Y-38898809D01*
X30738095Y-38803571D01*
X30690476Y-38755952D01*
X30595238Y-38708333D01*
X30404761Y-38708333D01*
X30309523Y-38755952D01*
X30261904Y-38803571D01*
X30214285Y-38898809D01*
%TO.C,R7*%
X26833333Y-49952380D02*
X26500000Y-49476190D01*
X26261904Y-49952380D02*
X26261904Y-48952380D01*
X26642857Y-48952380D01*
X26738095Y-49000000D01*
X26785714Y-49047619D01*
X26833333Y-49142857D01*
X26833333Y-49285714D01*
X26785714Y-49380952D01*
X26738095Y-49428571D01*
X26642857Y-49476190D01*
X26261904Y-49476190D01*
X27166666Y-48952380D02*
X27833333Y-48952380D01*
X27404761Y-49952380D01*
%TO.C,R8*%
X29833333Y-59452380D02*
X29500000Y-58976190D01*
X29261904Y-59452380D02*
X29261904Y-58452380D01*
X29642857Y-58452380D01*
X29738095Y-58500000D01*
X29785714Y-58547619D01*
X29833333Y-58642857D01*
X29833333Y-58785714D01*
X29785714Y-58880952D01*
X29738095Y-58928571D01*
X29642857Y-58976190D01*
X29261904Y-58976190D01*
X30404761Y-58880952D02*
X30309523Y-58833333D01*
X30261904Y-58785714D01*
X30214285Y-58690476D01*
X30214285Y-58642857D01*
X30261904Y-58547619D01*
X30309523Y-58500000D01*
X30404761Y-58452380D01*
X30595238Y-58452380D01*
X30690476Y-58500000D01*
X30738095Y-58547619D01*
X30785714Y-58642857D01*
X30785714Y-58690476D01*
X30738095Y-58785714D01*
X30690476Y-58833333D01*
X30595238Y-58880952D01*
X30404761Y-58880952D01*
X30309523Y-58928571D01*
X30261904Y-58976190D01*
X30214285Y-59071428D01*
X30214285Y-59261904D01*
X30261904Y-59357142D01*
X30309523Y-59404761D01*
X30404761Y-59452380D01*
X30595238Y-59452380D01*
X30690476Y-59404761D01*
X30738095Y-59357142D01*
X30785714Y-59261904D01*
X30785714Y-59071428D01*
X30738095Y-58976190D01*
X30690476Y-58928571D01*
X30595238Y-58880952D01*
%TO.C,R9*%
X83833333Y-57952380D02*
X83500000Y-57476190D01*
X83261904Y-57952380D02*
X83261904Y-56952380D01*
X83642857Y-56952380D01*
X83738095Y-57000000D01*
X83785714Y-57047619D01*
X83833333Y-57142857D01*
X83833333Y-57285714D01*
X83785714Y-57380952D01*
X83738095Y-57428571D01*
X83642857Y-57476190D01*
X83261904Y-57476190D01*
X84309523Y-57952380D02*
X84500000Y-57952380D01*
X84595238Y-57904761D01*
X84642857Y-57857142D01*
X84738095Y-57714285D01*
X84785714Y-57523809D01*
X84785714Y-57142857D01*
X84738095Y-57047619D01*
X84690476Y-57000000D01*
X84595238Y-56952380D01*
X84404761Y-56952380D01*
X84309523Y-57000000D01*
X84261904Y-57047619D01*
X84214285Y-57142857D01*
X84214285Y-57380952D01*
X84261904Y-57476190D01*
X84309523Y-57523809D01*
X84404761Y-57571428D01*
X84595238Y-57571428D01*
X84690476Y-57523809D01*
X84738095Y-57476190D01*
X84785714Y-57380952D01*
%TO.C,R10*%
X80857142Y-57952380D02*
X80523809Y-57476190D01*
X80285714Y-57952380D02*
X80285714Y-56952380D01*
X80666666Y-56952380D01*
X80761904Y-57000000D01*
X80809523Y-57047619D01*
X80857142Y-57142857D01*
X80857142Y-57285714D01*
X80809523Y-57380952D01*
X80761904Y-57428571D01*
X80666666Y-57476190D01*
X80285714Y-57476190D01*
X81809523Y-57952380D02*
X81238095Y-57952380D01*
X81523809Y-57952380D02*
X81523809Y-56952380D01*
X81428571Y-57095238D01*
X81333333Y-57190476D01*
X81238095Y-57238095D01*
X82428571Y-56952380D02*
X82523809Y-56952380D01*
X82619047Y-57000000D01*
X82666666Y-57047619D01*
X82714285Y-57142857D01*
X82761904Y-57333333D01*
X82761904Y-57571428D01*
X82714285Y-57761904D01*
X82666666Y-57857142D01*
X82619047Y-57904761D01*
X82523809Y-57952380D01*
X82428571Y-57952380D01*
X82333333Y-57904761D01*
X82285714Y-57857142D01*
X82238095Y-57761904D01*
X82190476Y-57571428D01*
X82190476Y-57333333D01*
X82238095Y-57142857D01*
X82285714Y-57047619D01*
X82333333Y-57000000D01*
X82428571Y-56952380D01*
%TO.C,R11*%
X98857142Y-61952380D02*
X98523809Y-61476190D01*
X98285714Y-61952380D02*
X98285714Y-60952380D01*
X98666666Y-60952380D01*
X98761904Y-61000000D01*
X98809523Y-61047619D01*
X98857142Y-61142857D01*
X98857142Y-61285714D01*
X98809523Y-61380952D01*
X98761904Y-61428571D01*
X98666666Y-61476190D01*
X98285714Y-61476190D01*
X99809523Y-61952380D02*
X99238095Y-61952380D01*
X99523809Y-61952380D02*
X99523809Y-60952380D01*
X99428571Y-61095238D01*
X99333333Y-61190476D01*
X99238095Y-61238095D01*
X100761904Y-61952380D02*
X100190476Y-61952380D01*
X100476190Y-61952380D02*
X100476190Y-60952380D01*
X100380952Y-61095238D01*
X100285714Y-61190476D01*
X100190476Y-61238095D01*
%TO.C,R12*%
X92857142Y-71952380D02*
X92523809Y-71476190D01*
X92285714Y-71952380D02*
X92285714Y-70952380D01*
X92666666Y-70952380D01*
X92761904Y-71000000D01*
X92809523Y-71047619D01*
X92857142Y-71142857D01*
X92857142Y-71285714D01*
X92809523Y-71380952D01*
X92761904Y-71428571D01*
X92666666Y-71476190D01*
X92285714Y-71476190D01*
X93809523Y-71952380D02*
X93238095Y-71952380D01*
X93523809Y-71952380D02*
X93523809Y-70952380D01*
X93428571Y-71095238D01*
X93333333Y-71190476D01*
X93238095Y-71238095D01*
X94190476Y-71047619D02*
X94238095Y-71000000D01*
X94333333Y-70952380D01*
X94571428Y-70952380D01*
X94666666Y-71000000D01*
X94714285Y-71047619D01*
X94761904Y-71142857D01*
X94761904Y-71238095D01*
X94714285Y-71380952D01*
X94142857Y-71952380D01*
X94761904Y-71952380D01*
%TO.C,R13*%
X56857142Y-69452380D02*
X56523809Y-68976190D01*
X56285714Y-69452380D02*
X56285714Y-68452380D01*
X56666666Y-68452380D01*
X56761904Y-68500000D01*
X56809523Y-68547619D01*
X56857142Y-68642857D01*
X56857142Y-68785714D01*
X56809523Y-68880952D01*
X56761904Y-68928571D01*
X56666666Y-68976190D01*
X56285714Y-68976190D01*
X57809523Y-69452380D02*
X57238095Y-69452380D01*
X57523809Y-69452380D02*
X57523809Y-68452380D01*
X57428571Y-68595238D01*
X57333333Y-68690476D01*
X57238095Y-68738095D01*
X58142857Y-68452380D02*
X58761904Y-68452380D01*
X58428571Y-68833333D01*
X58571428Y-68833333D01*
X58666666Y-68880952D01*
X58714285Y-68928571D01*
X58761904Y-69023809D01*
X58761904Y-69261904D01*
X58714285Y-69357142D01*
X58666666Y-69404761D01*
X58571428Y-69452380D01*
X58285714Y-69452380D01*
X58190476Y-69404761D01*
X58142857Y-69357142D01*
%TO.C,R14*%
X53857142Y-79452380D02*
X53523809Y-78976190D01*
X53285714Y-79452380D02*
X53285714Y-78452380D01*
X53666666Y-78452380D01*
X53761904Y-78500000D01*
X53809523Y-78547619D01*
X53857142Y-78642857D01*
X53857142Y-78785714D01*
X53809523Y-78880952D01*
X53761904Y-78928571D01*
X53666666Y-78976190D01*
X53285714Y-78976190D01*
X54809523Y-79452380D02*
X54238095Y-79452380D01*
X54523809Y-79452380D02*
X54523809Y-78452380D01*
X54428571Y-78595238D01*
X54333333Y-78690476D01*
X54238095Y-78738095D01*
X55666666Y-78785714D02*
X55666666Y-79452380D01*
X55428571Y-78404761D02*
X55190476Y-79119047D01*
X55809523Y-79119047D01*
%TO.C,R15*%
X56857142Y-29452380D02*
X56523809Y-28976190D01*
X56285714Y-29452380D02*
X56285714Y-28452380D01*
X56666666Y-28452380D01*
X56761904Y-28500000D01*
X56809523Y-28547619D01*
X56857142Y-28642857D01*
X56857142Y-28785714D01*
X56809523Y-28880952D01*
X56761904Y-28928571D01*
X56666666Y-28976190D01*
X56285714Y-28976190D01*
X57809523Y-29452380D02*
X57238095Y-29452380D01*
X57523809Y-29452380D02*
X57523809Y-28452380D01*
X57428571Y-28595238D01*
X57333333Y-28690476D01*
X57238095Y-28738095D01*
X58714285Y-28452380D02*
X58238095Y-28452380D01*
X58190476Y-28928571D01*
X58238095Y-28880952D01*
X58333333Y-28833333D01*
X58571428Y-28833333D01*
X58666666Y-28880952D01*
X58714285Y-28928571D01*
X58761904Y-29023809D01*
X58761904Y-29261904D01*
X58714285Y-29357142D01*
X58666666Y-29404761D01*
X58571428Y-29452380D01*
X58333333Y-29452380D01*
X58238095Y-29404761D01*
X58190476Y-29357142D01*
%TO.C,R16*%
X53857142Y-39452380D02*
X53523809Y-38976190D01*
X53285714Y-39452380D02*
X53285714Y-38452380D01*
X53666666Y-38452380D01*
X53761904Y-38500000D01*
X53809523Y-38547619D01*
X53857142Y-38642857D01*
X53857142Y-38785714D01*
X53809523Y-38880952D01*
X53761904Y-38928571D01*
X53666666Y-38976190D01*
X53285714Y-38976190D01*
X54809523Y-39452380D02*
X54238095Y-39452380D01*
X54523809Y-39452380D02*
X54523809Y-38452380D01*
X54428571Y-38595238D01*
X54333333Y-38690476D01*
X54238095Y-38738095D01*
X55666666Y-38452380D02*
X55476190Y-38452380D01*
X55380952Y-38500000D01*
X55333333Y-38547619D01*
X55238095Y-38690476D01*
X55190476Y-38880952D01*
X55190476Y-39261904D01*
X55238095Y-39357142D01*
X55285714Y-39404761D01*
X55380952Y-39452380D01*
X55571428Y-39452380D01*
X55666666Y-39404761D01*
X55714285Y-39357142D01*
X55761904Y-39261904D01*
X55761904Y-39023809D01*
X55714285Y-38928571D01*
X55666666Y-38880952D01*
X55571428Y-38833333D01*
X55380952Y-38833333D01*
X55285714Y-38880952D01*
X55238095Y-38928571D01*
X55190476Y-39023809D01*
%TO.C,R17*%
X101857142Y-61952380D02*
X101523809Y-61476190D01*
X101285714Y-61952380D02*
X101285714Y-60952380D01*
X101666666Y-60952380D01*
X101761904Y-61000000D01*
X101809523Y-61047619D01*
X101857142Y-61142857D01*
X101857142Y-61285714D01*
X101809523Y-61380952D01*
X101761904Y-61428571D01*
X101666666Y-61476190D01*
X101285714Y-61476190D01*
X102809523Y-61952380D02*
X102238095Y-61952380D01*
X102523809Y-61952380D02*
X102523809Y-60952380D01*
X102428571Y-61095238D01*
X102333333Y-61190476D01*
X102238095Y-61238095D01*
X103142857Y-60952380D02*
X103809523Y-60952380D01*
X103380952Y-61952380D01*
%TO.C,R18*%
X95857142Y-71952380D02*
X95523809Y-71476190D01*
X95285714Y-71952380D02*
X95285714Y-70952380D01*
X95666666Y-70952380D01*
X95761904Y-71000000D01*
X95809523Y-71047619D01*
X95857142Y-71142857D01*
X95857142Y-71285714D01*
X95809523Y-71380952D01*
X95761904Y-71428571D01*
X95666666Y-71476190D01*
X95285714Y-71476190D01*
X96809523Y-71952380D02*
X96238095Y-71952380D01*
X96523809Y-71952380D02*
X96523809Y-70952380D01*
X96428571Y-71095238D01*
X96333333Y-71190476D01*
X96238095Y-71238095D01*
X97380952Y-71380952D02*
X97285714Y-71333333D01*
X97238095Y-71285714D01*
X97190476Y-71190476D01*
X97190476Y-71142857D01*
X97238095Y-71047619D01*
X97285714Y-71000000D01*
X97380952Y-70952380D01*
X97571428Y-70952380D01*
X97666666Y-71000000D01*
X97714285Y-71047619D01*
X97761904Y-71142857D01*
X97761904Y-71190476D01*
X97714285Y-71285714D01*
X97666666Y-71333333D01*
X97571428Y-71380952D01*
X97380952Y-71380952D01*
X97285714Y-71428571D01*
X97238095Y-71476190D01*
X97190476Y-71571428D01*
X97190476Y-71761904D01*
X97238095Y-71857142D01*
X97285714Y-71904761D01*
X97380952Y-71952380D01*
X97571428Y-71952380D01*
X97666666Y-71904761D01*
X97714285Y-71857142D01*
X97761904Y-71761904D01*
X97761904Y-71571428D01*
X97714285Y-71476190D01*
X97666666Y-71428571D01*
X97571428Y-71380952D01*
%TO.C,R19*%
X59857142Y-69452380D02*
X59523809Y-68976190D01*
X59285714Y-69452380D02*
X59285714Y-68452380D01*
X59666666Y-68452380D01*
X59761904Y-68500000D01*
X59809523Y-68547619D01*
X59857142Y-68642857D01*
X59857142Y-68785714D01*
X59809523Y-68880952D01*
X59761904Y-68928571D01*
X59666666Y-68976190D01*
X59285714Y-68976190D01*
X60809523Y-69452380D02*
X60238095Y-69452380D01*
X60523809Y-69452380D02*
X60523809Y-68452380D01*
X60428571Y-68595238D01*
X60333333Y-68690476D01*
X60238095Y-68738095D01*
X61285714Y-69452380D02*
X61476190Y-69452380D01*
X61571428Y-69404761D01*
X61619047Y-69357142D01*
X61714285Y-69214285D01*
X61761904Y-69023809D01*
X61761904Y-68642857D01*
X61714285Y-68547619D01*
X61666666Y-68500000D01*
X61571428Y-68452380D01*
X61380952Y-68452380D01*
X61285714Y-68500000D01*
X61238095Y-68547619D01*
X61190476Y-68642857D01*
X61190476Y-68880952D01*
X61238095Y-68976190D01*
X61285714Y-69023809D01*
X61380952Y-69071428D01*
X61571428Y-69071428D01*
X61666666Y-69023809D01*
X61714285Y-68976190D01*
X61761904Y-68880952D01*
%TO.C,R20*%
X56857142Y-79452380D02*
X56523809Y-78976190D01*
X56285714Y-79452380D02*
X56285714Y-78452380D01*
X56666666Y-78452380D01*
X56761904Y-78500000D01*
X56809523Y-78547619D01*
X56857142Y-78642857D01*
X56857142Y-78785714D01*
X56809523Y-78880952D01*
X56761904Y-78928571D01*
X56666666Y-78976190D01*
X56285714Y-78976190D01*
X57238095Y-78547619D02*
X57285714Y-78500000D01*
X57380952Y-78452380D01*
X57619047Y-78452380D01*
X57714285Y-78500000D01*
X57761904Y-78547619D01*
X57809523Y-78642857D01*
X57809523Y-78738095D01*
X57761904Y-78880952D01*
X57190476Y-79452380D01*
X57809523Y-79452380D01*
X58428571Y-78452380D02*
X58523809Y-78452380D01*
X58619047Y-78500000D01*
X58666666Y-78547619D01*
X58714285Y-78642857D01*
X58761904Y-78833333D01*
X58761904Y-79071428D01*
X58714285Y-79261904D01*
X58666666Y-79357142D01*
X58619047Y-79404761D01*
X58523809Y-79452380D01*
X58428571Y-79452380D01*
X58333333Y-79404761D01*
X58285714Y-79357142D01*
X58238095Y-79261904D01*
X58190476Y-79071428D01*
X58190476Y-78833333D01*
X58238095Y-78642857D01*
X58285714Y-78547619D01*
X58333333Y-78500000D01*
X58428571Y-78452380D01*
%TO.C,R21*%
X59857142Y-29452380D02*
X59523809Y-28976190D01*
X59285714Y-29452380D02*
X59285714Y-28452380D01*
X59666666Y-28452380D01*
X59761904Y-28500000D01*
X59809523Y-28547619D01*
X59857142Y-28642857D01*
X59857142Y-28785714D01*
X59809523Y-28880952D01*
X59761904Y-28928571D01*
X59666666Y-28976190D01*
X59285714Y-28976190D01*
X60238095Y-28547619D02*
X60285714Y-28500000D01*
X60380952Y-28452380D01*
X60619047Y-28452380D01*
X60714285Y-28500000D01*
X60761904Y-28547619D01*
X60809523Y-28642857D01*
X60809523Y-28738095D01*
X60761904Y-28880952D01*
X60190476Y-29452380D01*
X60809523Y-29452380D01*
X61761904Y-29452380D02*
X61190476Y-29452380D01*
X61476190Y-29452380D02*
X61476190Y-28452380D01*
X61380952Y-28595238D01*
X61285714Y-28690476D01*
X61190476Y-28738095D01*
%TO.C,R22*%
X56857142Y-39452380D02*
X56523809Y-38976190D01*
X56285714Y-39452380D02*
X56285714Y-38452380D01*
X56666666Y-38452380D01*
X56761904Y-38500000D01*
X56809523Y-38547619D01*
X56857142Y-38642857D01*
X56857142Y-38785714D01*
X56809523Y-38880952D01*
X56761904Y-38928571D01*
X56666666Y-38976190D01*
X56285714Y-38976190D01*
X57238095Y-38547619D02*
X57285714Y-38500000D01*
X57380952Y-38452380D01*
X57619047Y-38452380D01*
X57714285Y-38500000D01*
X57761904Y-38547619D01*
X57809523Y-38642857D01*
X57809523Y-38738095D01*
X57761904Y-38880952D01*
X57190476Y-39452380D01*
X57809523Y-39452380D01*
X58190476Y-38547619D02*
X58238095Y-38500000D01*
X58333333Y-38452380D01*
X58571428Y-38452380D01*
X58666666Y-38500000D01*
X58714285Y-38547619D01*
X58761904Y-38642857D01*
X58761904Y-38738095D01*
X58714285Y-38880952D01*
X58142857Y-39452380D01*
X58761904Y-39452380D01*
%TO.C,R23*%
X89857142Y-29452380D02*
X89523809Y-28976190D01*
X89285714Y-29452380D02*
X89285714Y-28452380D01*
X89666666Y-28452380D01*
X89761904Y-28500000D01*
X89809523Y-28547619D01*
X89857142Y-28642857D01*
X89857142Y-28785714D01*
X89809523Y-28880952D01*
X89761904Y-28928571D01*
X89666666Y-28976190D01*
X89285714Y-28976190D01*
X90238095Y-28547619D02*
X90285714Y-28500000D01*
X90380952Y-28452380D01*
X90619047Y-28452380D01*
X90714285Y-28500000D01*
X90761904Y-28547619D01*
X90809523Y-28642857D01*
X90809523Y-28738095D01*
X90761904Y-28880952D01*
X90190476Y-29452380D01*
X90809523Y-29452380D01*
X91142857Y-28452380D02*
X91761904Y-28452380D01*
X91428571Y-28833333D01*
X91571428Y-28833333D01*
X91666666Y-28880952D01*
X91714285Y-28928571D01*
X91761904Y-29023809D01*
X91761904Y-29261904D01*
X91714285Y-29357142D01*
X91666666Y-29404761D01*
X91571428Y-29452380D01*
X91285714Y-29452380D01*
X91190476Y-29404761D01*
X91142857Y-29357142D01*
%TO.C,R24*%
X92857142Y-39452380D02*
X92523809Y-38976190D01*
X92285714Y-39452380D02*
X92285714Y-38452380D01*
X92666666Y-38452380D01*
X92761904Y-38500000D01*
X92809523Y-38547619D01*
X92857142Y-38642857D01*
X92857142Y-38785714D01*
X92809523Y-38880952D01*
X92761904Y-38928571D01*
X92666666Y-38976190D01*
X92285714Y-38976190D01*
X93238095Y-38547619D02*
X93285714Y-38500000D01*
X93380952Y-38452380D01*
X93619047Y-38452380D01*
X93714285Y-38500000D01*
X93761904Y-38547619D01*
X93809523Y-38642857D01*
X93809523Y-38738095D01*
X93761904Y-38880952D01*
X93190476Y-39452380D01*
X93809523Y-39452380D01*
X94666666Y-38785714D02*
X94666666Y-39452380D01*
X94428571Y-38404761D02*
X94190476Y-39119047D01*
X94809523Y-39119047D01*
%TO.C,R25*%
X23857142Y-69452380D02*
X23523809Y-68976190D01*
X23285714Y-69452380D02*
X23285714Y-68452380D01*
X23666666Y-68452380D01*
X23761904Y-68500000D01*
X23809523Y-68547619D01*
X23857142Y-68642857D01*
X23857142Y-68785714D01*
X23809523Y-68880952D01*
X23761904Y-68928571D01*
X23666666Y-68976190D01*
X23285714Y-68976190D01*
X24238095Y-68547619D02*
X24285714Y-68500000D01*
X24380952Y-68452380D01*
X24619047Y-68452380D01*
X24714285Y-68500000D01*
X24761904Y-68547619D01*
X24809523Y-68642857D01*
X24809523Y-68738095D01*
X24761904Y-68880952D01*
X24190476Y-69452380D01*
X24809523Y-69452380D01*
X25714285Y-68452380D02*
X25238095Y-68452380D01*
X25190476Y-68928571D01*
X25238095Y-68880952D01*
X25333333Y-68833333D01*
X25571428Y-68833333D01*
X25666666Y-68880952D01*
X25714285Y-68928571D01*
X25761904Y-69023809D01*
X25761904Y-69261904D01*
X25714285Y-69357142D01*
X25666666Y-69404761D01*
X25571428Y-69452380D01*
X25333333Y-69452380D01*
X25238095Y-69404761D01*
X25190476Y-69357142D01*
%TO.C,R26*%
X26857142Y-79452380D02*
X26523809Y-78976190D01*
X26285714Y-79452380D02*
X26285714Y-78452380D01*
X26666666Y-78452380D01*
X26761904Y-78500000D01*
X26809523Y-78547619D01*
X26857142Y-78642857D01*
X26857142Y-78785714D01*
X26809523Y-78880952D01*
X26761904Y-78928571D01*
X26666666Y-78976190D01*
X26285714Y-78976190D01*
X27238095Y-78547619D02*
X27285714Y-78500000D01*
X27380952Y-78452380D01*
X27619047Y-78452380D01*
X27714285Y-78500000D01*
X27761904Y-78547619D01*
X27809523Y-78642857D01*
X27809523Y-78738095D01*
X27761904Y-78880952D01*
X27190476Y-79452380D01*
X27809523Y-79452380D01*
X28666666Y-78452380D02*
X28476190Y-78452380D01*
X28380952Y-78500000D01*
X28333333Y-78547619D01*
X28238095Y-78690476D01*
X28190476Y-78880952D01*
X28190476Y-79261904D01*
X28238095Y-79357142D01*
X28285714Y-79404761D01*
X28380952Y-79452380D01*
X28571428Y-79452380D01*
X28666666Y-79404761D01*
X28714285Y-79357142D01*
X28761904Y-79261904D01*
X28761904Y-79023809D01*
X28714285Y-78928571D01*
X28666666Y-78880952D01*
X28571428Y-78833333D01*
X28380952Y-78833333D01*
X28285714Y-78880952D01*
X28238095Y-78928571D01*
X28190476Y-79023809D01*
%TO.C,R27*%
X59857142Y-49452380D02*
X59523809Y-48976190D01*
X59285714Y-49452380D02*
X59285714Y-48452380D01*
X59666666Y-48452380D01*
X59761904Y-48500000D01*
X59809523Y-48547619D01*
X59857142Y-48642857D01*
X59857142Y-48785714D01*
X59809523Y-48880952D01*
X59761904Y-48928571D01*
X59666666Y-48976190D01*
X59285714Y-48976190D01*
X60238095Y-48547619D02*
X60285714Y-48500000D01*
X60380952Y-48452380D01*
X60619047Y-48452380D01*
X60714285Y-48500000D01*
X60761904Y-48547619D01*
X60809523Y-48642857D01*
X60809523Y-48738095D01*
X60761904Y-48880952D01*
X60190476Y-49452380D01*
X60809523Y-49452380D01*
X61142857Y-48452380D02*
X61809523Y-48452380D01*
X61380952Y-49452380D01*
%TO.C,R28*%
X53857142Y-59452380D02*
X53523809Y-58976190D01*
X53285714Y-59452380D02*
X53285714Y-58452380D01*
X53666666Y-58452380D01*
X53761904Y-58500000D01*
X53809523Y-58547619D01*
X53857142Y-58642857D01*
X53857142Y-58785714D01*
X53809523Y-58880952D01*
X53761904Y-58928571D01*
X53666666Y-58976190D01*
X53285714Y-58976190D01*
X54238095Y-58547619D02*
X54285714Y-58500000D01*
X54380952Y-58452380D01*
X54619047Y-58452380D01*
X54714285Y-58500000D01*
X54761904Y-58547619D01*
X54809523Y-58642857D01*
X54809523Y-58738095D01*
X54761904Y-58880952D01*
X54190476Y-59452380D01*
X54809523Y-59452380D01*
X55380952Y-58880952D02*
X55285714Y-58833333D01*
X55238095Y-58785714D01*
X55190476Y-58690476D01*
X55190476Y-58642857D01*
X55238095Y-58547619D01*
X55285714Y-58500000D01*
X55380952Y-58452380D01*
X55571428Y-58452380D01*
X55666666Y-58500000D01*
X55714285Y-58547619D01*
X55761904Y-58642857D01*
X55761904Y-58690476D01*
X55714285Y-58785714D01*
X55666666Y-58833333D01*
X55571428Y-58880952D01*
X55380952Y-58880952D01*
X55285714Y-58928571D01*
X55238095Y-58976190D01*
X55190476Y-59071428D01*
X55190476Y-59261904D01*
X55238095Y-59357142D01*
X55285714Y-59404761D01*
X55380952Y-59452380D01*
X55571428Y-59452380D01*
X55666666Y-59404761D01*
X55714285Y-59357142D01*
X55761904Y-59261904D01*
X55761904Y-59071428D01*
X55714285Y-58976190D01*
X55666666Y-58928571D01*
X55571428Y-58880952D01*
%TO.C,R29*%
X95857142Y-39452380D02*
X95523809Y-38976190D01*
X95285714Y-39452380D02*
X95285714Y-38452380D01*
X95666666Y-38452380D01*
X95761904Y-38500000D01*
X95809523Y-38547619D01*
X95857142Y-38642857D01*
X95857142Y-38785714D01*
X95809523Y-38880952D01*
X95761904Y-38928571D01*
X95666666Y-38976190D01*
X95285714Y-38976190D01*
X96238095Y-38547619D02*
X96285714Y-38500000D01*
X96380952Y-38452380D01*
X96619047Y-38452380D01*
X96714285Y-38500000D01*
X96761904Y-38547619D01*
X96809523Y-38642857D01*
X96809523Y-38738095D01*
X96761904Y-38880952D01*
X96190476Y-39452380D01*
X96809523Y-39452380D01*
X97285714Y-39452380D02*
X97476190Y-39452380D01*
X97571428Y-39404761D01*
X97619047Y-39357142D01*
X97714285Y-39214285D01*
X97761904Y-39023809D01*
X97761904Y-38642857D01*
X97714285Y-38547619D01*
X97666666Y-38500000D01*
X97571428Y-38452380D01*
X97380952Y-38452380D01*
X97285714Y-38500000D01*
X97238095Y-38547619D01*
X97190476Y-38642857D01*
X97190476Y-38880952D01*
X97238095Y-38976190D01*
X97285714Y-39023809D01*
X97380952Y-39071428D01*
X97571428Y-39071428D01*
X97666666Y-39023809D01*
X97714285Y-38976190D01*
X97761904Y-38880952D01*
%TO.C,R30*%
X26857142Y-69452380D02*
X26523809Y-68976190D01*
X26285714Y-69452380D02*
X26285714Y-68452380D01*
X26666666Y-68452380D01*
X26761904Y-68500000D01*
X26809523Y-68547619D01*
X26857142Y-68642857D01*
X26857142Y-68785714D01*
X26809523Y-68880952D01*
X26761904Y-68928571D01*
X26666666Y-68976190D01*
X26285714Y-68976190D01*
X27190476Y-68452380D02*
X27809523Y-68452380D01*
X27476190Y-68833333D01*
X27619047Y-68833333D01*
X27714285Y-68880952D01*
X27761904Y-68928571D01*
X27809523Y-69023809D01*
X27809523Y-69261904D01*
X27761904Y-69357142D01*
X27714285Y-69404761D01*
X27619047Y-69452380D01*
X27333333Y-69452380D01*
X27238095Y-69404761D01*
X27190476Y-69357142D01*
X28428571Y-68452380D02*
X28523809Y-68452380D01*
X28619047Y-68500000D01*
X28666666Y-68547619D01*
X28714285Y-68642857D01*
X28761904Y-68833333D01*
X28761904Y-69071428D01*
X28714285Y-69261904D01*
X28666666Y-69357142D01*
X28619047Y-69404761D01*
X28523809Y-69452380D01*
X28428571Y-69452380D01*
X28333333Y-69404761D01*
X28285714Y-69357142D01*
X28238095Y-69261904D01*
X28190476Y-69071428D01*
X28190476Y-68833333D01*
X28238095Y-68642857D01*
X28285714Y-68547619D01*
X28333333Y-68500000D01*
X28428571Y-68452380D01*
%TO.C,R31*%
X29857142Y-79452380D02*
X29523809Y-78976190D01*
X29285714Y-79452380D02*
X29285714Y-78452380D01*
X29666666Y-78452380D01*
X29761904Y-78500000D01*
X29809523Y-78547619D01*
X29857142Y-78642857D01*
X29857142Y-78785714D01*
X29809523Y-78880952D01*
X29761904Y-78928571D01*
X29666666Y-78976190D01*
X29285714Y-78976190D01*
X30190476Y-78452380D02*
X30809523Y-78452380D01*
X30476190Y-78833333D01*
X30619047Y-78833333D01*
X30714285Y-78880952D01*
X30761904Y-78928571D01*
X30809523Y-79023809D01*
X30809523Y-79261904D01*
X30761904Y-79357142D01*
X30714285Y-79404761D01*
X30619047Y-79452380D01*
X30333333Y-79452380D01*
X30238095Y-79404761D01*
X30190476Y-79357142D01*
X31761904Y-79452380D02*
X31190476Y-79452380D01*
X31476190Y-79452380D02*
X31476190Y-78452380D01*
X31380952Y-78595238D01*
X31285714Y-78690476D01*
X31190476Y-78738095D01*
%TO.C,R32*%
X62857142Y-49452380D02*
X62523809Y-48976190D01*
X62285714Y-49452380D02*
X62285714Y-48452380D01*
X62666666Y-48452380D01*
X62761904Y-48500000D01*
X62809523Y-48547619D01*
X62857142Y-48642857D01*
X62857142Y-48785714D01*
X62809523Y-48880952D01*
X62761904Y-48928571D01*
X62666666Y-48976190D01*
X62285714Y-48976190D01*
X63190476Y-48452380D02*
X63809523Y-48452380D01*
X63476190Y-48833333D01*
X63619047Y-48833333D01*
X63714285Y-48880952D01*
X63761904Y-48928571D01*
X63809523Y-49023809D01*
X63809523Y-49261904D01*
X63761904Y-49357142D01*
X63714285Y-49404761D01*
X63619047Y-49452380D01*
X63333333Y-49452380D01*
X63238095Y-49404761D01*
X63190476Y-49357142D01*
X64190476Y-48547619D02*
X64238095Y-48500000D01*
X64333333Y-48452380D01*
X64571428Y-48452380D01*
X64666666Y-48500000D01*
X64714285Y-48547619D01*
X64761904Y-48642857D01*
X64761904Y-48738095D01*
X64714285Y-48880952D01*
X64142857Y-49452380D01*
X64761904Y-49452380D01*
%TO.C,R33*%
X56857142Y-59452380D02*
X56523809Y-58976190D01*
X56285714Y-59452380D02*
X56285714Y-58452380D01*
X56666666Y-58452380D01*
X56761904Y-58500000D01*
X56809523Y-58547619D01*
X56857142Y-58642857D01*
X56857142Y-58785714D01*
X56809523Y-58880952D01*
X56761904Y-58928571D01*
X56666666Y-58976190D01*
X56285714Y-58976190D01*
X57190476Y-58452380D02*
X57809523Y-58452380D01*
X57476190Y-58833333D01*
X57619047Y-58833333D01*
X57714285Y-58880952D01*
X57761904Y-58928571D01*
X57809523Y-59023809D01*
X57809523Y-59261904D01*
X57761904Y-59357142D01*
X57714285Y-59404761D01*
X57619047Y-59452380D01*
X57333333Y-59452380D01*
X57238095Y-59404761D01*
X57190476Y-59357142D01*
X58142857Y-58452380D02*
X58761904Y-58452380D01*
X58428571Y-58833333D01*
X58571428Y-58833333D01*
X58666666Y-58880952D01*
X58714285Y-58928571D01*
X58761904Y-59023809D01*
X58761904Y-59261904D01*
X58714285Y-59357142D01*
X58666666Y-59404761D01*
X58571428Y-59452380D01*
X58285714Y-59452380D01*
X58190476Y-59404761D01*
X58142857Y-59357142D01*
%TO.C,R34*%
X59857142Y-59452380D02*
X59523809Y-58976190D01*
X59285714Y-59452380D02*
X59285714Y-58452380D01*
X59666666Y-58452380D01*
X59761904Y-58500000D01*
X59809523Y-58547619D01*
X59857142Y-58642857D01*
X59857142Y-58785714D01*
X59809523Y-58880952D01*
X59761904Y-58928571D01*
X59666666Y-58976190D01*
X59285714Y-58976190D01*
X60190476Y-58452380D02*
X60809523Y-58452380D01*
X60476190Y-58833333D01*
X60619047Y-58833333D01*
X60714285Y-58880952D01*
X60761904Y-58928571D01*
X60809523Y-59023809D01*
X60809523Y-59261904D01*
X60761904Y-59357142D01*
X60714285Y-59404761D01*
X60619047Y-59452380D01*
X60333333Y-59452380D01*
X60238095Y-59404761D01*
X60190476Y-59357142D01*
X61666666Y-58785714D02*
X61666666Y-59452380D01*
X61428571Y-58404761D02*
X61190476Y-59119047D01*
X61809523Y-59119047D01*
%TO.C,U1*%
X81838095Y-27552380D02*
X81838095Y-28361904D01*
X81885714Y-28457142D01*
X81933333Y-28504761D01*
X82028571Y-28552380D01*
X82219047Y-28552380D01*
X82314285Y-28504761D01*
X82361904Y-28457142D01*
X82409523Y-28361904D01*
X82409523Y-27552380D01*
X83409523Y-28552380D02*
X82838095Y-28552380D01*
X83123809Y-28552380D02*
X83123809Y-27552380D01*
X83028571Y-27695238D01*
X82933333Y-27790476D01*
X82838095Y-27838095D01*
%TO.C,U2*%
X80238095Y-48452380D02*
X80238095Y-49261904D01*
X80285714Y-49357142D01*
X80333333Y-49404761D01*
X80428571Y-49452380D01*
X80619047Y-49452380D01*
X80714285Y-49404761D01*
X80761904Y-49357142D01*
X80809523Y-49261904D01*
X80809523Y-48452380D01*
X81238095Y-48547619D02*
X81285714Y-48500000D01*
X81380952Y-48452380D01*
X81619047Y-48452380D01*
X81714285Y-48500000D01*
X81761904Y-48547619D01*
X81809523Y-48642857D01*
X81809523Y-48738095D01*
X81761904Y-48880952D01*
X81190476Y-49452380D01*
X81809523Y-49452380D01*
%TD*%
M02*
