M48
; DRILL file {KiCad (5.1.6)-1} date 12/18/20 22:44:18
; FORMAT={-:-/ absolute / metric / decimal}
; #@! TF.CreationDate,2020-12-18T22:44:18+08:00
; #@! TF.GenerationSoftware,Kicad,Pcbnew,(5.1.6)-1
; #@! TF.FileFunction,Plated,1,2,PTH
FMAT,2
METRIC
T1C0.400
T2C1.000
%
G90
G05
T1
X18.0Y-22.5
X18.0Y-24.5
X18.0Y-41.0
X18.0Y-61.0
X18.0Y-81.0
X20.0Y-24.5
X20.0Y-43.0
X20.0Y-63.0
X20.0Y-83.0
X22.0Y-22.5
X22.0Y-24.5
X25.5Y-42.0
X25.5Y-62.0
X25.5Y-82.0
X27.0Y-43.5
X27.0Y-63.5
X27.0Y-83.5
X28.5Y-42.0
X28.5Y-62.0
X28.5Y-82.0
X30.0Y-43.5
X30.0Y-54.0
X30.0Y-63.5
X30.0Y-73.5
X30.0Y-83.5
X31.5Y-42.0
X31.5Y-52.5
X31.5Y-62.0
X31.5Y-72.0
X31.5Y-82.0
X33.0Y-54.0
X33.0Y-73.5
X33.0Y-83.5
X34.5Y-52.5
X34.5Y-72.0
X34.5Y-82.0
X37.0Y-43.0
X37.0Y-63.0
X39.0Y-41.0
X39.0Y-61.0
X48.0Y-41.0
X48.0Y-61.0
X49.5Y-32.0
X49.5Y-72.0
X50.0Y-43.0
X50.0Y-63.0
X51.0Y-33.5
X51.0Y-73.5
X52.0Y-41.0
X52.0Y-61.0
X52.5Y-32.0
X52.5Y-42.0
X52.5Y-52.0
X52.5Y-62.0
X52.5Y-72.0
X52.5Y-82.0
X54.0Y-33.5
X54.0Y-43.5
X54.0Y-53.5
X54.0Y-63.5
X54.0Y-73.5
X54.0Y-83.5
X55.5Y-32.0
X55.5Y-42.0
X55.5Y-52.0
X55.5Y-62.0
X55.5Y-72.0
X55.5Y-82.0
X57.0Y-43.5
X57.0Y-83.5
X58.5Y-42.0
X58.5Y-82.0
X60.0Y-63.5
X61.5Y-62.0
X63.0Y-63.5
X64.5Y-62.0
X65.0Y-41.0
X65.0Y-61.0
X65.0Y-73.5
X65.0Y-78.5
X67.0Y-43.0
X67.0Y-63.0
X67.0Y-75.5
X67.0Y-76.5
X69.0Y-41.0
X69.0Y-61.0
X69.0Y-73.5
X69.0Y-78.5
X73.5Y-52.0
X75.0Y-53.5
X75.5Y-34.0
X76.5Y-52.0
X77.0Y-32.0
X78.0Y-53.5
X78.5Y-34.0
X80.5Y-28.5
X80.5Y-33.5
X84.0Y-41.0
X84.0Y-62.0
X85.5Y-32.0
X85.5Y-60.5
X86.0Y-43.0
X87.0Y-33.5
X87.0Y-73.5
X88.0Y-41.0
X88.5Y-32.0
X89.0Y-75.5
X91.0Y-57.5
X91.0Y-73.5
X91.5Y-64.5
X91.5Y-74.5
X92.5Y-56.0
X93.0Y-43.5
X93.0Y-66.0
X93.0Y-76.0
X94.0Y-57.5
X94.5Y-42.0
X94.5Y-64.5
X94.5Y-74.5
X96.0Y-43.5
X96.0Y-66.0
X96.0Y-76.0
X97.5Y-32.0
X97.5Y-42.0
X97.5Y-74.5
X99.0Y-33.5
X99.0Y-43.5
X99.0Y-76.0
X100.5Y-32.0
X100.5Y-42.0
X102.0Y-33.5
X103.5Y-32.0
X104.0Y-41.0
X106.0Y-43.0
X106.0Y-75.5
X108.0Y-41.0
X108.0Y-73.5
T2
X67.0Y-38.46
X67.0Y-41.0
X67.0Y-78.46
X67.0Y-81.0
X20.0Y-78.5
X20.0Y-81.04
X50.0Y-38.46
X50.0Y-41.0
X89.0Y-70.96
X89.0Y-73.5
X20.0Y-58.46
X20.0Y-61.0
X20.0Y-38.46
X20.0Y-41.0
X67.0Y-70.96
X67.0Y-73.5
X67.0Y-58.46
X67.0Y-61.0
X37.0Y-38.46
X37.0Y-41.0
X106.0Y-70.96
X106.0Y-73.5
X106.0Y-38.46
X106.0Y-41.0
X37.0Y-58.46
X37.0Y-61.0
X50.0Y-78.46
X50.0Y-81.0
X37.0Y-78.46
X37.0Y-81.0
X50.02Y-58.5
X50.02Y-61.04
X86.0Y-38.46
X86.0Y-41.0
X20.0Y-20.0
X20.0Y-22.54
T0
M30
