%TF.GenerationSoftware,KiCad,Pcbnew,(5.1.6)-1*%
%TF.CreationDate,2020-12-18T22:44:25+08:00*%
%TF.ProjectId,_______,2c00e03e-2735-4ef2-9e6b-696361645f70,1.0.1*%
%TF.SameCoordinates,Original*%
%TF.FileFunction,Paste,Top*%
%TF.FilePolarity,Positive*%
%FSLAX46Y46*%
G04 Gerber Fmt 4.6, Leading zero omitted, Abs format (unit mm)*
G04 Created by KiCad (PCBNEW (5.1.6)-1) date 2020-12-18 22:44:25*
%MOMM*%
%LPD*%
G01*
G04 APERTURE LIST*
%ADD10R,0.900000X0.800000*%
%ADD11R,1.060000X0.650000*%
%ADD12R,2.000000X3.800000*%
%ADD13R,2.000000X1.500000*%
G04 APERTURE END LIST*
%TO.C,C1*%
G36*
G01*
X75737500Y-32525000D02*
X75262500Y-32525000D01*
G75*
G02*
X75025000Y-32287500I0J237500D01*
G01*
X75025000Y-31712500D01*
G75*
G02*
X75262500Y-31475000I237500J0D01*
G01*
X75737500Y-31475000D01*
G75*
G02*
X75975000Y-31712500I0J-237500D01*
G01*
X75975000Y-32287500D01*
G75*
G02*
X75737500Y-32525000I-237500J0D01*
G01*
G37*
G36*
G01*
X75737500Y-30775000D02*
X75262500Y-30775000D01*
G75*
G02*
X75025000Y-30537500I0J237500D01*
G01*
X75025000Y-29962500D01*
G75*
G02*
X75262500Y-29725000I237500J0D01*
G01*
X75737500Y-29725000D01*
G75*
G02*
X75975000Y-29962500I0J-237500D01*
G01*
X75975000Y-30537500D01*
G75*
G02*
X75737500Y-30775000I-237500J0D01*
G01*
G37*
%TD*%
%TO.C,C2*%
G36*
G01*
X78737500Y-30775000D02*
X78262500Y-30775000D01*
G75*
G02*
X78025000Y-30537500I0J237500D01*
G01*
X78025000Y-29962500D01*
G75*
G02*
X78262500Y-29725000I237500J0D01*
G01*
X78737500Y-29725000D01*
G75*
G02*
X78975000Y-29962500I0J-237500D01*
G01*
X78975000Y-30537500D01*
G75*
G02*
X78737500Y-30775000I-237500J0D01*
G01*
G37*
G36*
G01*
X78737500Y-32525000D02*
X78262500Y-32525000D01*
G75*
G02*
X78025000Y-32287500I0J237500D01*
G01*
X78025000Y-31712500D01*
G75*
G02*
X78262500Y-31475000I237500J0D01*
G01*
X78737500Y-31475000D01*
G75*
G02*
X78975000Y-31712500I0J-237500D01*
G01*
X78975000Y-32287500D01*
G75*
G02*
X78737500Y-32525000I-237500J0D01*
G01*
G37*
%TD*%
%TO.C,C3*%
G36*
G01*
X23762500Y-41350000D02*
X24237500Y-41350000D01*
G75*
G02*
X24475000Y-41587500I0J-237500D01*
G01*
X24475000Y-42162500D01*
G75*
G02*
X24237500Y-42400000I-237500J0D01*
G01*
X23762500Y-42400000D01*
G75*
G02*
X23525000Y-42162500I0J237500D01*
G01*
X23525000Y-41587500D01*
G75*
G02*
X23762500Y-41350000I237500J0D01*
G01*
G37*
G36*
G01*
X23762500Y-39600000D02*
X24237500Y-39600000D01*
G75*
G02*
X24475000Y-39837500I0J-237500D01*
G01*
X24475000Y-40412500D01*
G75*
G02*
X24237500Y-40650000I-237500J0D01*
G01*
X23762500Y-40650000D01*
G75*
G02*
X23525000Y-40412500I0J237500D01*
G01*
X23525000Y-39837500D01*
G75*
G02*
X23762500Y-39600000I237500J0D01*
G01*
G37*
%TD*%
%TO.C,C4*%
G36*
G01*
X23762500Y-59725000D02*
X24237500Y-59725000D01*
G75*
G02*
X24475000Y-59962500I0J-237500D01*
G01*
X24475000Y-60537500D01*
G75*
G02*
X24237500Y-60775000I-237500J0D01*
G01*
X23762500Y-60775000D01*
G75*
G02*
X23525000Y-60537500I0J237500D01*
G01*
X23525000Y-59962500D01*
G75*
G02*
X23762500Y-59725000I237500J0D01*
G01*
G37*
G36*
G01*
X23762500Y-61475000D02*
X24237500Y-61475000D01*
G75*
G02*
X24475000Y-61712500I0J-237500D01*
G01*
X24475000Y-62287500D01*
G75*
G02*
X24237500Y-62525000I-237500J0D01*
G01*
X23762500Y-62525000D01*
G75*
G02*
X23525000Y-62287500I0J237500D01*
G01*
X23525000Y-61712500D01*
G75*
G02*
X23762500Y-61475000I237500J0D01*
G01*
G37*
%TD*%
%TO.C,C5*%
G36*
G01*
X87237500Y-32525000D02*
X86762500Y-32525000D01*
G75*
G02*
X86525000Y-32287500I0J237500D01*
G01*
X86525000Y-31712500D01*
G75*
G02*
X86762500Y-31475000I237500J0D01*
G01*
X87237500Y-31475000D01*
G75*
G02*
X87475000Y-31712500I0J-237500D01*
G01*
X87475000Y-32287500D01*
G75*
G02*
X87237500Y-32525000I-237500J0D01*
G01*
G37*
G36*
G01*
X87237500Y-30775000D02*
X86762500Y-30775000D01*
G75*
G02*
X86525000Y-30537500I0J237500D01*
G01*
X86525000Y-29962500D01*
G75*
G02*
X86762500Y-29725000I237500J0D01*
G01*
X87237500Y-29725000D01*
G75*
G02*
X87475000Y-29962500I0J-237500D01*
G01*
X87475000Y-30537500D01*
G75*
G02*
X87237500Y-30775000I-237500J0D01*
G01*
G37*
%TD*%
%TO.C,C6*%
G36*
G01*
X75237500Y-52525000D02*
X74762500Y-52525000D01*
G75*
G02*
X74525000Y-52287500I0J237500D01*
G01*
X74525000Y-51712500D01*
G75*
G02*
X74762500Y-51475000I237500J0D01*
G01*
X75237500Y-51475000D01*
G75*
G02*
X75475000Y-51712500I0J-237500D01*
G01*
X75475000Y-52287500D01*
G75*
G02*
X75237500Y-52525000I-237500J0D01*
G01*
G37*
G36*
G01*
X75237500Y-50775000D02*
X74762500Y-50775000D01*
G75*
G02*
X74525000Y-50537500I0J237500D01*
G01*
X74525000Y-49962500D01*
G75*
G02*
X74762500Y-49725000I237500J0D01*
G01*
X75237500Y-49725000D01*
G75*
G02*
X75475000Y-49962500I0J-237500D01*
G01*
X75475000Y-50537500D01*
G75*
G02*
X75237500Y-50775000I-237500J0D01*
G01*
G37*
%TD*%
%TO.C,C7*%
G36*
G01*
X78237500Y-52525000D02*
X77762500Y-52525000D01*
G75*
G02*
X77525000Y-52287500I0J237500D01*
G01*
X77525000Y-51712500D01*
G75*
G02*
X77762500Y-51475000I237500J0D01*
G01*
X78237500Y-51475000D01*
G75*
G02*
X78475000Y-51712500I0J-237500D01*
G01*
X78475000Y-52287500D01*
G75*
G02*
X78237500Y-52525000I-237500J0D01*
G01*
G37*
G36*
G01*
X78237500Y-50775000D02*
X77762500Y-50775000D01*
G75*
G02*
X77525000Y-50537500I0J237500D01*
G01*
X77525000Y-49962500D01*
G75*
G02*
X77762500Y-49725000I237500J0D01*
G01*
X78237500Y-49725000D01*
G75*
G02*
X78475000Y-49962500I0J-237500D01*
G01*
X78475000Y-50537500D01*
G75*
G02*
X78237500Y-50775000I-237500J0D01*
G01*
G37*
%TD*%
%TO.C,C8*%
G36*
G01*
X30237500Y-32525000D02*
X29762500Y-32525000D01*
G75*
G02*
X29525000Y-32287500I0J237500D01*
G01*
X29525000Y-31712500D01*
G75*
G02*
X29762500Y-31475000I237500J0D01*
G01*
X30237500Y-31475000D01*
G75*
G02*
X30475000Y-31712500I0J-237500D01*
G01*
X30475000Y-32287500D01*
G75*
G02*
X30237500Y-32525000I-237500J0D01*
G01*
G37*
G36*
G01*
X30237500Y-30775000D02*
X29762500Y-30775000D01*
G75*
G02*
X29525000Y-30537500I0J237500D01*
G01*
X29525000Y-29962500D01*
G75*
G02*
X29762500Y-29725000I237500J0D01*
G01*
X30237500Y-29725000D01*
G75*
G02*
X30475000Y-29962500I0J-237500D01*
G01*
X30475000Y-30537500D01*
G75*
G02*
X30237500Y-30775000I-237500J0D01*
G01*
G37*
%TD*%
%TO.C,C9*%
G36*
G01*
X30237500Y-53025000D02*
X29762500Y-53025000D01*
G75*
G02*
X29525000Y-52787500I0J237500D01*
G01*
X29525000Y-52212500D01*
G75*
G02*
X29762500Y-51975000I237500J0D01*
G01*
X30237500Y-51975000D01*
G75*
G02*
X30475000Y-52212500I0J-237500D01*
G01*
X30475000Y-52787500D01*
G75*
G02*
X30237500Y-53025000I-237500J0D01*
G01*
G37*
G36*
G01*
X30237500Y-51275000D02*
X29762500Y-51275000D01*
G75*
G02*
X29525000Y-51037500I0J237500D01*
G01*
X29525000Y-50462500D01*
G75*
G02*
X29762500Y-50225000I237500J0D01*
G01*
X30237500Y-50225000D01*
G75*
G02*
X30475000Y-50462500I0J-237500D01*
G01*
X30475000Y-51037500D01*
G75*
G02*
X30237500Y-51275000I-237500J0D01*
G01*
G37*
%TD*%
%TO.C,C10*%
G36*
G01*
X33237500Y-42525000D02*
X32762500Y-42525000D01*
G75*
G02*
X32525000Y-42287500I0J237500D01*
G01*
X32525000Y-41712500D01*
G75*
G02*
X32762500Y-41475000I237500J0D01*
G01*
X33237500Y-41475000D01*
G75*
G02*
X33475000Y-41712500I0J-237500D01*
G01*
X33475000Y-42287500D01*
G75*
G02*
X33237500Y-42525000I-237500J0D01*
G01*
G37*
G36*
G01*
X33237500Y-40775000D02*
X32762500Y-40775000D01*
G75*
G02*
X32525000Y-40537500I0J237500D01*
G01*
X32525000Y-39962500D01*
G75*
G02*
X32762500Y-39725000I237500J0D01*
G01*
X33237500Y-39725000D01*
G75*
G02*
X33475000Y-39962500I0J-237500D01*
G01*
X33475000Y-40537500D01*
G75*
G02*
X33237500Y-40775000I-237500J0D01*
G01*
G37*
%TD*%
%TO.C,C11*%
G36*
G01*
X33237500Y-62525000D02*
X32762500Y-62525000D01*
G75*
G02*
X32525000Y-62287500I0J237500D01*
G01*
X32525000Y-61712500D01*
G75*
G02*
X32762500Y-61475000I237500J0D01*
G01*
X33237500Y-61475000D01*
G75*
G02*
X33475000Y-61712500I0J-237500D01*
G01*
X33475000Y-62287500D01*
G75*
G02*
X33237500Y-62525000I-237500J0D01*
G01*
G37*
G36*
G01*
X33237500Y-60775000D02*
X32762500Y-60775000D01*
G75*
G02*
X32525000Y-60537500I0J237500D01*
G01*
X32525000Y-59962500D01*
G75*
G02*
X32762500Y-59725000I237500J0D01*
G01*
X33237500Y-59725000D01*
G75*
G02*
X33475000Y-59962500I0J-237500D01*
G01*
X33475000Y-60537500D01*
G75*
G02*
X33237500Y-60775000I-237500J0D01*
G01*
G37*
%TD*%
%TO.C,C12*%
G36*
G01*
X33237500Y-30775000D02*
X32762500Y-30775000D01*
G75*
G02*
X32525000Y-30537500I0J237500D01*
G01*
X32525000Y-29962500D01*
G75*
G02*
X32762500Y-29725000I237500J0D01*
G01*
X33237500Y-29725000D01*
G75*
G02*
X33475000Y-29962500I0J-237500D01*
G01*
X33475000Y-30537500D01*
G75*
G02*
X33237500Y-30775000I-237500J0D01*
G01*
G37*
G36*
G01*
X33237500Y-32525000D02*
X32762500Y-32525000D01*
G75*
G02*
X32525000Y-32287500I0J237500D01*
G01*
X32525000Y-31712500D01*
G75*
G02*
X32762500Y-31475000I237500J0D01*
G01*
X33237500Y-31475000D01*
G75*
G02*
X33475000Y-31712500I0J-237500D01*
G01*
X33475000Y-32287500D01*
G75*
G02*
X33237500Y-32525000I-237500J0D01*
G01*
G37*
%TD*%
%TO.C,C13*%
G36*
G01*
X33237500Y-51275000D02*
X32762500Y-51275000D01*
G75*
G02*
X32525000Y-51037500I0J237500D01*
G01*
X32525000Y-50462500D01*
G75*
G02*
X32762500Y-50225000I237500J0D01*
G01*
X33237500Y-50225000D01*
G75*
G02*
X33475000Y-50462500I0J-237500D01*
G01*
X33475000Y-51037500D01*
G75*
G02*
X33237500Y-51275000I-237500J0D01*
G01*
G37*
G36*
G01*
X33237500Y-53025000D02*
X32762500Y-53025000D01*
G75*
G02*
X32525000Y-52787500I0J237500D01*
G01*
X32525000Y-52212500D01*
G75*
G02*
X32762500Y-51975000I237500J0D01*
G01*
X33237500Y-51975000D01*
G75*
G02*
X33475000Y-52212500I0J-237500D01*
G01*
X33475000Y-52787500D01*
G75*
G02*
X33237500Y-53025000I-237500J0D01*
G01*
G37*
%TD*%
%TO.C,C14*%
G36*
G01*
X94237500Y-54775000D02*
X93762500Y-54775000D01*
G75*
G02*
X93525000Y-54537500I0J237500D01*
G01*
X93525000Y-53962500D01*
G75*
G02*
X93762500Y-53725000I237500J0D01*
G01*
X94237500Y-53725000D01*
G75*
G02*
X94475000Y-53962500I0J-237500D01*
G01*
X94475000Y-54537500D01*
G75*
G02*
X94237500Y-54775000I-237500J0D01*
G01*
G37*
G36*
G01*
X94237500Y-56525000D02*
X93762500Y-56525000D01*
G75*
G02*
X93525000Y-56287500I0J237500D01*
G01*
X93525000Y-55712500D01*
G75*
G02*
X93762500Y-55475000I237500J0D01*
G01*
X94237500Y-55475000D01*
G75*
G02*
X94475000Y-55712500I0J-237500D01*
G01*
X94475000Y-56287500D01*
G75*
G02*
X94237500Y-56525000I-237500J0D01*
G01*
G37*
%TD*%
%TO.C,C15*%
G36*
G01*
X91237500Y-54775000D02*
X90762500Y-54775000D01*
G75*
G02*
X90525000Y-54537500I0J237500D01*
G01*
X90525000Y-53962500D01*
G75*
G02*
X90762500Y-53725000I237500J0D01*
G01*
X91237500Y-53725000D01*
G75*
G02*
X91475000Y-53962500I0J-237500D01*
G01*
X91475000Y-54537500D01*
G75*
G02*
X91237500Y-54775000I-237500J0D01*
G01*
G37*
G36*
G01*
X91237500Y-56525000D02*
X90762500Y-56525000D01*
G75*
G02*
X90525000Y-56287500I0J237500D01*
G01*
X90525000Y-55712500D01*
G75*
G02*
X90762500Y-55475000I237500J0D01*
G01*
X91237500Y-55475000D01*
G75*
G02*
X91475000Y-55712500I0J-237500D01*
G01*
X91475000Y-56287500D01*
G75*
G02*
X91237500Y-56525000I-237500J0D01*
G01*
G37*
%TD*%
%TO.C,C16*%
G36*
G01*
X92762500Y-67225000D02*
X93237500Y-67225000D01*
G75*
G02*
X93475000Y-67462500I0J-237500D01*
G01*
X93475000Y-68037500D01*
G75*
G02*
X93237500Y-68275000I-237500J0D01*
G01*
X92762500Y-68275000D01*
G75*
G02*
X92525000Y-68037500I0J237500D01*
G01*
X92525000Y-67462500D01*
G75*
G02*
X92762500Y-67225000I237500J0D01*
G01*
G37*
G36*
G01*
X92762500Y-68975000D02*
X93237500Y-68975000D01*
G75*
G02*
X93475000Y-69212500I0J-237500D01*
G01*
X93475000Y-69787500D01*
G75*
G02*
X93237500Y-70025000I-237500J0D01*
G01*
X92762500Y-70025000D01*
G75*
G02*
X92525000Y-69787500I0J237500D01*
G01*
X92525000Y-69212500D01*
G75*
G02*
X92762500Y-68975000I237500J0D01*
G01*
G37*
%TD*%
%TO.C,C17*%
G36*
G01*
X54237500Y-75775000D02*
X53762500Y-75775000D01*
G75*
G02*
X53525000Y-75537500I0J237500D01*
G01*
X53525000Y-74962500D01*
G75*
G02*
X53762500Y-74725000I237500J0D01*
G01*
X54237500Y-74725000D01*
G75*
G02*
X54475000Y-74962500I0J-237500D01*
G01*
X54475000Y-75537500D01*
G75*
G02*
X54237500Y-75775000I-237500J0D01*
G01*
G37*
G36*
G01*
X54237500Y-77525000D02*
X53762500Y-77525000D01*
G75*
G02*
X53525000Y-77287500I0J237500D01*
G01*
X53525000Y-76712500D01*
G75*
G02*
X53762500Y-76475000I237500J0D01*
G01*
X54237500Y-76475000D01*
G75*
G02*
X54475000Y-76712500I0J-237500D01*
G01*
X54475000Y-77287500D01*
G75*
G02*
X54237500Y-77525000I-237500J0D01*
G01*
G37*
%TD*%
%TO.C,C18*%
G36*
G01*
X54237500Y-35775000D02*
X53762500Y-35775000D01*
G75*
G02*
X53525000Y-35537500I0J237500D01*
G01*
X53525000Y-34962500D01*
G75*
G02*
X53762500Y-34725000I237500J0D01*
G01*
X54237500Y-34725000D01*
G75*
G02*
X54475000Y-34962500I0J-237500D01*
G01*
X54475000Y-35537500D01*
G75*
G02*
X54237500Y-35775000I-237500J0D01*
G01*
G37*
G36*
G01*
X54237500Y-37525000D02*
X53762500Y-37525000D01*
G75*
G02*
X53525000Y-37287500I0J237500D01*
G01*
X53525000Y-36712500D01*
G75*
G02*
X53762500Y-36475000I237500J0D01*
G01*
X54237500Y-36475000D01*
G75*
G02*
X54475000Y-36712500I0J-237500D01*
G01*
X54475000Y-37287500D01*
G75*
G02*
X54237500Y-37525000I-237500J0D01*
G01*
G37*
%TD*%
%TO.C,C19*%
G36*
G01*
X98762500Y-72225000D02*
X99237500Y-72225000D01*
G75*
G02*
X99475000Y-72462500I0J-237500D01*
G01*
X99475000Y-73037500D01*
G75*
G02*
X99237500Y-73275000I-237500J0D01*
G01*
X98762500Y-73275000D01*
G75*
G02*
X98525000Y-73037500I0J237500D01*
G01*
X98525000Y-72462500D01*
G75*
G02*
X98762500Y-72225000I237500J0D01*
G01*
G37*
G36*
G01*
X98762500Y-73975000D02*
X99237500Y-73975000D01*
G75*
G02*
X99475000Y-74212500I0J-237500D01*
G01*
X99475000Y-74787500D01*
G75*
G02*
X99237500Y-75025000I-237500J0D01*
G01*
X98762500Y-75025000D01*
G75*
G02*
X98525000Y-74787500I0J237500D01*
G01*
X98525000Y-74212500D01*
G75*
G02*
X98762500Y-73975000I237500J0D01*
G01*
G37*
%TD*%
%TO.C,C20*%
G36*
G01*
X96237500Y-63275000D02*
X95762500Y-63275000D01*
G75*
G02*
X95525000Y-63037500I0J237500D01*
G01*
X95525000Y-62462500D01*
G75*
G02*
X95762500Y-62225000I237500J0D01*
G01*
X96237500Y-62225000D01*
G75*
G02*
X96475000Y-62462500I0J-237500D01*
G01*
X96475000Y-63037500D01*
G75*
G02*
X96237500Y-63275000I-237500J0D01*
G01*
G37*
G36*
G01*
X96237500Y-65025000D02*
X95762500Y-65025000D01*
G75*
G02*
X95525000Y-64787500I0J237500D01*
G01*
X95525000Y-64212500D01*
G75*
G02*
X95762500Y-63975000I237500J0D01*
G01*
X96237500Y-63975000D01*
G75*
G02*
X96475000Y-64212500I0J-237500D01*
G01*
X96475000Y-64787500D01*
G75*
G02*
X96237500Y-65025000I-237500J0D01*
G01*
G37*
%TD*%
%TO.C,C21*%
G36*
G01*
X51237500Y-70775000D02*
X50762500Y-70775000D01*
G75*
G02*
X50525000Y-70537500I0J237500D01*
G01*
X50525000Y-69962500D01*
G75*
G02*
X50762500Y-69725000I237500J0D01*
G01*
X51237500Y-69725000D01*
G75*
G02*
X51475000Y-69962500I0J-237500D01*
G01*
X51475000Y-70537500D01*
G75*
G02*
X51237500Y-70775000I-237500J0D01*
G01*
G37*
G36*
G01*
X51237500Y-72525000D02*
X50762500Y-72525000D01*
G75*
G02*
X50525000Y-72287500I0J237500D01*
G01*
X50525000Y-71712500D01*
G75*
G02*
X50762500Y-71475000I237500J0D01*
G01*
X51237500Y-71475000D01*
G75*
G02*
X51475000Y-71712500I0J-237500D01*
G01*
X51475000Y-72287500D01*
G75*
G02*
X51237500Y-72525000I-237500J0D01*
G01*
G37*
%TD*%
%TO.C,C22*%
G36*
G01*
X102237500Y-73275000D02*
X101762500Y-73275000D01*
G75*
G02*
X101525000Y-73037500I0J237500D01*
G01*
X101525000Y-72462500D01*
G75*
G02*
X101762500Y-72225000I237500J0D01*
G01*
X102237500Y-72225000D01*
G75*
G02*
X102475000Y-72462500I0J-237500D01*
G01*
X102475000Y-73037500D01*
G75*
G02*
X102237500Y-73275000I-237500J0D01*
G01*
G37*
G36*
G01*
X102237500Y-75025000D02*
X101762500Y-75025000D01*
G75*
G02*
X101525000Y-74787500I0J237500D01*
G01*
X101525000Y-74212500D01*
G75*
G02*
X101762500Y-73975000I237500J0D01*
G01*
X102237500Y-73975000D01*
G75*
G02*
X102475000Y-74212500I0J-237500D01*
G01*
X102475000Y-74787500D01*
G75*
G02*
X102237500Y-75025000I-237500J0D01*
G01*
G37*
%TD*%
%TO.C,C23*%
G36*
G01*
X62762500Y-71475000D02*
X63237500Y-71475000D01*
G75*
G02*
X63475000Y-71712500I0J-237500D01*
G01*
X63475000Y-72287500D01*
G75*
G02*
X63237500Y-72525000I-237500J0D01*
G01*
X62762500Y-72525000D01*
G75*
G02*
X62525000Y-72287500I0J237500D01*
G01*
X62525000Y-71712500D01*
G75*
G02*
X62762500Y-71475000I237500J0D01*
G01*
G37*
G36*
G01*
X62762500Y-69725000D02*
X63237500Y-69725000D01*
G75*
G02*
X63475000Y-69962500I0J-237500D01*
G01*
X63475000Y-70537500D01*
G75*
G02*
X63237500Y-70775000I-237500J0D01*
G01*
X62762500Y-70775000D01*
G75*
G02*
X62525000Y-70537500I0J237500D01*
G01*
X62525000Y-69962500D01*
G75*
G02*
X62762500Y-69725000I237500J0D01*
G01*
G37*
%TD*%
%TO.C,C24*%
G36*
G01*
X60237500Y-80775000D02*
X59762500Y-80775000D01*
G75*
G02*
X59525000Y-80537500I0J237500D01*
G01*
X59525000Y-79962500D01*
G75*
G02*
X59762500Y-79725000I237500J0D01*
G01*
X60237500Y-79725000D01*
G75*
G02*
X60475000Y-79962500I0J-237500D01*
G01*
X60475000Y-80537500D01*
G75*
G02*
X60237500Y-80775000I-237500J0D01*
G01*
G37*
G36*
G01*
X60237500Y-82525000D02*
X59762500Y-82525000D01*
G75*
G02*
X59525000Y-82287500I0J237500D01*
G01*
X59525000Y-81712500D01*
G75*
G02*
X59762500Y-81475000I237500J0D01*
G01*
X60237500Y-81475000D01*
G75*
G02*
X60475000Y-81712500I0J-237500D01*
G01*
X60475000Y-82287500D01*
G75*
G02*
X60237500Y-82525000I-237500J0D01*
G01*
G37*
%TD*%
%TO.C,C25*%
G36*
G01*
X63237500Y-32525000D02*
X62762500Y-32525000D01*
G75*
G02*
X62525000Y-32287500I0J237500D01*
G01*
X62525000Y-31712500D01*
G75*
G02*
X62762500Y-31475000I237500J0D01*
G01*
X63237500Y-31475000D01*
G75*
G02*
X63475000Y-31712500I0J-237500D01*
G01*
X63475000Y-32287500D01*
G75*
G02*
X63237500Y-32525000I-237500J0D01*
G01*
G37*
G36*
G01*
X63237500Y-30775000D02*
X62762500Y-30775000D01*
G75*
G02*
X62525000Y-30537500I0J237500D01*
G01*
X62525000Y-29962500D01*
G75*
G02*
X62762500Y-29725000I237500J0D01*
G01*
X63237500Y-29725000D01*
G75*
G02*
X63475000Y-29962500I0J-237500D01*
G01*
X63475000Y-30537500D01*
G75*
G02*
X63237500Y-30775000I-237500J0D01*
G01*
G37*
%TD*%
%TO.C,C26*%
G36*
G01*
X63237500Y-37525000D02*
X62762500Y-37525000D01*
G75*
G02*
X62525000Y-37287500I0J237500D01*
G01*
X62525000Y-36712500D01*
G75*
G02*
X62762500Y-36475000I237500J0D01*
G01*
X63237500Y-36475000D01*
G75*
G02*
X63475000Y-36712500I0J-237500D01*
G01*
X63475000Y-37287500D01*
G75*
G02*
X63237500Y-37525000I-237500J0D01*
G01*
G37*
G36*
G01*
X63237500Y-35775000D02*
X62762500Y-35775000D01*
G75*
G02*
X62525000Y-35537500I0J237500D01*
G01*
X62525000Y-34962500D01*
G75*
G02*
X62762500Y-34725000I237500J0D01*
G01*
X63237500Y-34725000D01*
G75*
G02*
X63475000Y-34962500I0J-237500D01*
G01*
X63475000Y-35537500D01*
G75*
G02*
X63237500Y-35775000I-237500J0D01*
G01*
G37*
%TD*%
%TO.C,C27*%
G36*
G01*
X93237500Y-63275000D02*
X92762500Y-63275000D01*
G75*
G02*
X92525000Y-63037500I0J237500D01*
G01*
X92525000Y-62462500D01*
G75*
G02*
X92762500Y-62225000I237500J0D01*
G01*
X93237500Y-62225000D01*
G75*
G02*
X93475000Y-62462500I0J-237500D01*
G01*
X93475000Y-63037500D01*
G75*
G02*
X93237500Y-63275000I-237500J0D01*
G01*
G37*
G36*
G01*
X93237500Y-65025000D02*
X92762500Y-65025000D01*
G75*
G02*
X92525000Y-64787500I0J237500D01*
G01*
X92525000Y-64212500D01*
G75*
G02*
X92762500Y-63975000I237500J0D01*
G01*
X93237500Y-63975000D01*
G75*
G02*
X93475000Y-64212500I0J-237500D01*
G01*
X93475000Y-64787500D01*
G75*
G02*
X93237500Y-65025000I-237500J0D01*
G01*
G37*
%TD*%
%TO.C,C28*%
G36*
G01*
X54237500Y-70775000D02*
X53762500Y-70775000D01*
G75*
G02*
X53525000Y-70537500I0J237500D01*
G01*
X53525000Y-69962500D01*
G75*
G02*
X53762500Y-69725000I237500J0D01*
G01*
X54237500Y-69725000D01*
G75*
G02*
X54475000Y-69962500I0J-237500D01*
G01*
X54475000Y-70537500D01*
G75*
G02*
X54237500Y-70775000I-237500J0D01*
G01*
G37*
G36*
G01*
X54237500Y-72525000D02*
X53762500Y-72525000D01*
G75*
G02*
X53525000Y-72287500I0J237500D01*
G01*
X53525000Y-71712500D01*
G75*
G02*
X53762500Y-71475000I237500J0D01*
G01*
X54237500Y-71475000D01*
G75*
G02*
X54475000Y-71712500I0J-237500D01*
G01*
X54475000Y-72287500D01*
G75*
G02*
X54237500Y-72525000I-237500J0D01*
G01*
G37*
%TD*%
%TO.C,C29*%
G36*
G01*
X54237500Y-32525000D02*
X53762500Y-32525000D01*
G75*
G02*
X53525000Y-32287500I0J237500D01*
G01*
X53525000Y-31712500D01*
G75*
G02*
X53762500Y-31475000I237500J0D01*
G01*
X54237500Y-31475000D01*
G75*
G02*
X54475000Y-31712500I0J-237500D01*
G01*
X54475000Y-32287500D01*
G75*
G02*
X54237500Y-32525000I-237500J0D01*
G01*
G37*
G36*
G01*
X54237500Y-30775000D02*
X53762500Y-30775000D01*
G75*
G02*
X53525000Y-30537500I0J237500D01*
G01*
X53525000Y-29962500D01*
G75*
G02*
X53762500Y-29725000I237500J0D01*
G01*
X54237500Y-29725000D01*
G75*
G02*
X54475000Y-29962500I0J-237500D01*
G01*
X54475000Y-30537500D01*
G75*
G02*
X54237500Y-30775000I-237500J0D01*
G01*
G37*
%TD*%
%TO.C,C30*%
G36*
G01*
X51237500Y-30775000D02*
X50762500Y-30775000D01*
G75*
G02*
X50525000Y-30537500I0J237500D01*
G01*
X50525000Y-29962500D01*
G75*
G02*
X50762500Y-29725000I237500J0D01*
G01*
X51237500Y-29725000D01*
G75*
G02*
X51475000Y-29962500I0J-237500D01*
G01*
X51475000Y-30537500D01*
G75*
G02*
X51237500Y-30775000I-237500J0D01*
G01*
G37*
G36*
G01*
X51237500Y-32525000D02*
X50762500Y-32525000D01*
G75*
G02*
X50525000Y-32287500I0J237500D01*
G01*
X50525000Y-31712500D01*
G75*
G02*
X50762500Y-31475000I237500J0D01*
G01*
X51237500Y-31475000D01*
G75*
G02*
X51475000Y-31712500I0J-237500D01*
G01*
X51475000Y-32287500D01*
G75*
G02*
X51237500Y-32525000I-237500J0D01*
G01*
G37*
%TD*%
%TO.C,C31*%
G36*
G01*
X90237500Y-40775000D02*
X89762500Y-40775000D01*
G75*
G02*
X89525000Y-40537500I0J237500D01*
G01*
X89525000Y-39962500D01*
G75*
G02*
X89762500Y-39725000I237500J0D01*
G01*
X90237500Y-39725000D01*
G75*
G02*
X90475000Y-39962500I0J-237500D01*
G01*
X90475000Y-40537500D01*
G75*
G02*
X90237500Y-40775000I-237500J0D01*
G01*
G37*
G36*
G01*
X90237500Y-42525000D02*
X89762500Y-42525000D01*
G75*
G02*
X89525000Y-42287500I0J237500D01*
G01*
X89525000Y-41712500D01*
G75*
G02*
X89762500Y-41475000I237500J0D01*
G01*
X90237500Y-41475000D01*
G75*
G02*
X90475000Y-41712500I0J-237500D01*
G01*
X90475000Y-42287500D01*
G75*
G02*
X90237500Y-42525000I-237500J0D01*
G01*
G37*
%TD*%
%TO.C,C32*%
G36*
G01*
X23762500Y-81475000D02*
X24237500Y-81475000D01*
G75*
G02*
X24475000Y-81712500I0J-237500D01*
G01*
X24475000Y-82287500D01*
G75*
G02*
X24237500Y-82525000I-237500J0D01*
G01*
X23762500Y-82525000D01*
G75*
G02*
X23525000Y-82287500I0J237500D01*
G01*
X23525000Y-81712500D01*
G75*
G02*
X23762500Y-81475000I237500J0D01*
G01*
G37*
G36*
G01*
X23762500Y-79725000D02*
X24237500Y-79725000D01*
G75*
G02*
X24475000Y-79962500I0J-237500D01*
G01*
X24475000Y-80537500D01*
G75*
G02*
X24237500Y-80775000I-237500J0D01*
G01*
X23762500Y-80775000D01*
G75*
G02*
X23525000Y-80537500I0J237500D01*
G01*
X23525000Y-79962500D01*
G75*
G02*
X23762500Y-79725000I237500J0D01*
G01*
G37*
%TD*%
%TO.C,C33*%
G36*
G01*
X54237500Y-55775000D02*
X53762500Y-55775000D01*
G75*
G02*
X53525000Y-55537500I0J237500D01*
G01*
X53525000Y-54962500D01*
G75*
G02*
X53762500Y-54725000I237500J0D01*
G01*
X54237500Y-54725000D01*
G75*
G02*
X54475000Y-54962500I0J-237500D01*
G01*
X54475000Y-55537500D01*
G75*
G02*
X54237500Y-55775000I-237500J0D01*
G01*
G37*
G36*
G01*
X54237500Y-57525000D02*
X53762500Y-57525000D01*
G75*
G02*
X53525000Y-57287500I0J237500D01*
G01*
X53525000Y-56712500D01*
G75*
G02*
X53762500Y-56475000I237500J0D01*
G01*
X54237500Y-56475000D01*
G75*
G02*
X54475000Y-56712500I0J-237500D01*
G01*
X54475000Y-57287500D01*
G75*
G02*
X54237500Y-57525000I-237500J0D01*
G01*
G37*
%TD*%
%TO.C,C34*%
G36*
G01*
X93237500Y-32525000D02*
X92762500Y-32525000D01*
G75*
G02*
X92525000Y-32287500I0J237500D01*
G01*
X92525000Y-31712500D01*
G75*
G02*
X92762500Y-31475000I237500J0D01*
G01*
X93237500Y-31475000D01*
G75*
G02*
X93475000Y-31712500I0J-237500D01*
G01*
X93475000Y-32287500D01*
G75*
G02*
X93237500Y-32525000I-237500J0D01*
G01*
G37*
G36*
G01*
X93237500Y-30775000D02*
X92762500Y-30775000D01*
G75*
G02*
X92525000Y-30537500I0J237500D01*
G01*
X92525000Y-29962500D01*
G75*
G02*
X92762500Y-29725000I237500J0D01*
G01*
X93237500Y-29725000D01*
G75*
G02*
X93475000Y-29962500I0J-237500D01*
G01*
X93475000Y-30537500D01*
G75*
G02*
X93237500Y-30775000I-237500J0D01*
G01*
G37*
%TD*%
%TO.C,C35*%
G36*
G01*
X99237500Y-42525000D02*
X98762500Y-42525000D01*
G75*
G02*
X98525000Y-42287500I0J237500D01*
G01*
X98525000Y-41712500D01*
G75*
G02*
X98762500Y-41475000I237500J0D01*
G01*
X99237500Y-41475000D01*
G75*
G02*
X99475000Y-41712500I0J-237500D01*
G01*
X99475000Y-42287500D01*
G75*
G02*
X99237500Y-42525000I-237500J0D01*
G01*
G37*
G36*
G01*
X99237500Y-40775000D02*
X98762500Y-40775000D01*
G75*
G02*
X98525000Y-40537500I0J237500D01*
G01*
X98525000Y-39962500D01*
G75*
G02*
X98762500Y-39725000I237500J0D01*
G01*
X99237500Y-39725000D01*
G75*
G02*
X99475000Y-39962500I0J-237500D01*
G01*
X99475000Y-40537500D01*
G75*
G02*
X99237500Y-40775000I-237500J0D01*
G01*
G37*
%TD*%
%TO.C,C36*%
G36*
G01*
X33237500Y-82525000D02*
X32762500Y-82525000D01*
G75*
G02*
X32525000Y-82287500I0J237500D01*
G01*
X32525000Y-81712500D01*
G75*
G02*
X32762500Y-81475000I237500J0D01*
G01*
X33237500Y-81475000D01*
G75*
G02*
X33475000Y-81712500I0J-237500D01*
G01*
X33475000Y-82287500D01*
G75*
G02*
X33237500Y-82525000I-237500J0D01*
G01*
G37*
G36*
G01*
X33237500Y-80775000D02*
X32762500Y-80775000D01*
G75*
G02*
X32525000Y-80537500I0J237500D01*
G01*
X32525000Y-79962500D01*
G75*
G02*
X32762500Y-79725000I237500J0D01*
G01*
X33237500Y-79725000D01*
G75*
G02*
X33475000Y-79962500I0J-237500D01*
G01*
X33475000Y-80537500D01*
G75*
G02*
X33237500Y-80775000I-237500J0D01*
G01*
G37*
%TD*%
%TO.C,C37*%
G36*
G01*
X101762500Y-34725000D02*
X102237500Y-34725000D01*
G75*
G02*
X102475000Y-34962500I0J-237500D01*
G01*
X102475000Y-35537500D01*
G75*
G02*
X102237500Y-35775000I-237500J0D01*
G01*
X101762500Y-35775000D01*
G75*
G02*
X101525000Y-35537500I0J237500D01*
G01*
X101525000Y-34962500D01*
G75*
G02*
X101762500Y-34725000I237500J0D01*
G01*
G37*
G36*
G01*
X101762500Y-36475000D02*
X102237500Y-36475000D01*
G75*
G02*
X102475000Y-36712500I0J-237500D01*
G01*
X102475000Y-37287500D01*
G75*
G02*
X102237500Y-37525000I-237500J0D01*
G01*
X101762500Y-37525000D01*
G75*
G02*
X101525000Y-37287500I0J237500D01*
G01*
X101525000Y-36712500D01*
G75*
G02*
X101762500Y-36475000I237500J0D01*
G01*
G37*
%TD*%
%TO.C,C38*%
G36*
G01*
X57237500Y-52525000D02*
X56762500Y-52525000D01*
G75*
G02*
X56525000Y-52287500I0J237500D01*
G01*
X56525000Y-51712500D01*
G75*
G02*
X56762500Y-51475000I237500J0D01*
G01*
X57237500Y-51475000D01*
G75*
G02*
X57475000Y-51712500I0J-237500D01*
G01*
X57475000Y-52287500D01*
G75*
G02*
X57237500Y-52525000I-237500J0D01*
G01*
G37*
G36*
G01*
X57237500Y-50775000D02*
X56762500Y-50775000D01*
G75*
G02*
X56525000Y-50537500I0J237500D01*
G01*
X56525000Y-49962500D01*
G75*
G02*
X56762500Y-49725000I237500J0D01*
G01*
X57237500Y-49725000D01*
G75*
G02*
X57475000Y-49962500I0J-237500D01*
G01*
X57475000Y-50537500D01*
G75*
G02*
X57237500Y-50775000I-237500J0D01*
G01*
G37*
%TD*%
%TO.C,C39*%
G36*
G01*
X63237500Y-62525000D02*
X62762500Y-62525000D01*
G75*
G02*
X62525000Y-62287500I0J237500D01*
G01*
X62525000Y-61712500D01*
G75*
G02*
X62762500Y-61475000I237500J0D01*
G01*
X63237500Y-61475000D01*
G75*
G02*
X63475000Y-61712500I0J-237500D01*
G01*
X63475000Y-62287500D01*
G75*
G02*
X63237500Y-62525000I-237500J0D01*
G01*
G37*
G36*
G01*
X63237500Y-60775000D02*
X62762500Y-60775000D01*
G75*
G02*
X62525000Y-60537500I0J237500D01*
G01*
X62525000Y-59962500D01*
G75*
G02*
X62762500Y-59725000I237500J0D01*
G01*
X63237500Y-59725000D01*
G75*
G02*
X63475000Y-59962500I0J-237500D01*
G01*
X63475000Y-60537500D01*
G75*
G02*
X63237500Y-60775000I-237500J0D01*
G01*
G37*
%TD*%
%TO.C,C40*%
G36*
G01*
X30237500Y-72525000D02*
X29762500Y-72525000D01*
G75*
G02*
X29525000Y-72287500I0J237500D01*
G01*
X29525000Y-71712500D01*
G75*
G02*
X29762500Y-71475000I237500J0D01*
G01*
X30237500Y-71475000D01*
G75*
G02*
X30475000Y-71712500I0J-237500D01*
G01*
X30475000Y-72287500D01*
G75*
G02*
X30237500Y-72525000I-237500J0D01*
G01*
G37*
G36*
G01*
X30237500Y-70775000D02*
X29762500Y-70775000D01*
G75*
G02*
X29525000Y-70537500I0J237500D01*
G01*
X29525000Y-69962500D01*
G75*
G02*
X29762500Y-69725000I237500J0D01*
G01*
X30237500Y-69725000D01*
G75*
G02*
X30475000Y-69962500I0J-237500D01*
G01*
X30475000Y-70537500D01*
G75*
G02*
X30237500Y-70775000I-237500J0D01*
G01*
G37*
%TD*%
%TO.C,C41*%
G36*
G01*
X33237500Y-75775000D02*
X32762500Y-75775000D01*
G75*
G02*
X32525000Y-75537500I0J237500D01*
G01*
X32525000Y-74962500D01*
G75*
G02*
X32762500Y-74725000I237500J0D01*
G01*
X33237500Y-74725000D01*
G75*
G02*
X33475000Y-74962500I0J-237500D01*
G01*
X33475000Y-75537500D01*
G75*
G02*
X33237500Y-75775000I-237500J0D01*
G01*
G37*
G36*
G01*
X33237500Y-77525000D02*
X32762500Y-77525000D01*
G75*
G02*
X32525000Y-77287500I0J237500D01*
G01*
X32525000Y-76712500D01*
G75*
G02*
X32762500Y-76475000I237500J0D01*
G01*
X33237500Y-76475000D01*
G75*
G02*
X33475000Y-76712500I0J-237500D01*
G01*
X33475000Y-77287500D01*
G75*
G02*
X33237500Y-77525000I-237500J0D01*
G01*
G37*
%TD*%
%TO.C,C42*%
G36*
G01*
X63237500Y-57525000D02*
X62762500Y-57525000D01*
G75*
G02*
X62525000Y-57287500I0J237500D01*
G01*
X62525000Y-56712500D01*
G75*
G02*
X62762500Y-56475000I237500J0D01*
G01*
X63237500Y-56475000D01*
G75*
G02*
X63475000Y-56712500I0J-237500D01*
G01*
X63475000Y-57287500D01*
G75*
G02*
X63237500Y-57525000I-237500J0D01*
G01*
G37*
G36*
G01*
X63237500Y-55775000D02*
X62762500Y-55775000D01*
G75*
G02*
X62525000Y-55537500I0J237500D01*
G01*
X62525000Y-54962500D01*
G75*
G02*
X62762500Y-54725000I237500J0D01*
G01*
X63237500Y-54725000D01*
G75*
G02*
X63475000Y-54962500I0J-237500D01*
G01*
X63475000Y-55537500D01*
G75*
G02*
X63237500Y-55775000I-237500J0D01*
G01*
G37*
%TD*%
%TO.C,C43*%
G36*
G01*
X99237500Y-32505000D02*
X98762500Y-32505000D01*
G75*
G02*
X98525000Y-32267500I0J237500D01*
G01*
X98525000Y-31692500D01*
G75*
G02*
X98762500Y-31455000I237500J0D01*
G01*
X99237500Y-31455000D01*
G75*
G02*
X99475000Y-31692500I0J-237500D01*
G01*
X99475000Y-32267500D01*
G75*
G02*
X99237500Y-32505000I-237500J0D01*
G01*
G37*
G36*
G01*
X99237500Y-30755000D02*
X98762500Y-30755000D01*
G75*
G02*
X98525000Y-30517500I0J237500D01*
G01*
X98525000Y-29942500D01*
G75*
G02*
X98762500Y-29705000I237500J0D01*
G01*
X99237500Y-29705000D01*
G75*
G02*
X99475000Y-29942500I0J-237500D01*
G01*
X99475000Y-30517500D01*
G75*
G02*
X99237500Y-30755000I-237500J0D01*
G01*
G37*
%TD*%
%TO.C,C44*%
G36*
G01*
X54237500Y-50775000D02*
X53762500Y-50775000D01*
G75*
G02*
X53525000Y-50537500I0J237500D01*
G01*
X53525000Y-49962500D01*
G75*
G02*
X53762500Y-49725000I237500J0D01*
G01*
X54237500Y-49725000D01*
G75*
G02*
X54475000Y-49962500I0J-237500D01*
G01*
X54475000Y-50537500D01*
G75*
G02*
X54237500Y-50775000I-237500J0D01*
G01*
G37*
G36*
G01*
X54237500Y-52525000D02*
X53762500Y-52525000D01*
G75*
G02*
X53525000Y-52287500I0J237500D01*
G01*
X53525000Y-51712500D01*
G75*
G02*
X53762500Y-51475000I237500J0D01*
G01*
X54237500Y-51475000D01*
G75*
G02*
X54475000Y-51712500I0J-237500D01*
G01*
X54475000Y-52287500D01*
G75*
G02*
X54237500Y-52525000I-237500J0D01*
G01*
G37*
%TD*%
%TO.C,C45*%
G36*
G01*
X33237500Y-70775000D02*
X32762500Y-70775000D01*
G75*
G02*
X32525000Y-70537500I0J237500D01*
G01*
X32525000Y-69962500D01*
G75*
G02*
X32762500Y-69725000I237500J0D01*
G01*
X33237500Y-69725000D01*
G75*
G02*
X33475000Y-69962500I0J-237500D01*
G01*
X33475000Y-70537500D01*
G75*
G02*
X33237500Y-70775000I-237500J0D01*
G01*
G37*
G36*
G01*
X33237500Y-72525000D02*
X32762500Y-72525000D01*
G75*
G02*
X32525000Y-72287500I0J237500D01*
G01*
X32525000Y-71712500D01*
G75*
G02*
X32762500Y-71475000I237500J0D01*
G01*
X33237500Y-71475000D01*
G75*
G02*
X33475000Y-71712500I0J-237500D01*
G01*
X33475000Y-72287500D01*
G75*
G02*
X33237500Y-72525000I-237500J0D01*
G01*
G37*
%TD*%
%TO.C,C46*%
G36*
G01*
X102237500Y-30775000D02*
X101762500Y-30775000D01*
G75*
G02*
X101525000Y-30537500I0J237500D01*
G01*
X101525000Y-29962500D01*
G75*
G02*
X101762500Y-29725000I237500J0D01*
G01*
X102237500Y-29725000D01*
G75*
G02*
X102475000Y-29962500I0J-237500D01*
G01*
X102475000Y-30537500D01*
G75*
G02*
X102237500Y-30775000I-237500J0D01*
G01*
G37*
G36*
G01*
X102237500Y-32525000D02*
X101762500Y-32525000D01*
G75*
G02*
X101525000Y-32287500I0J237500D01*
G01*
X101525000Y-31712500D01*
G75*
G02*
X101762500Y-31475000I237500J0D01*
G01*
X102237500Y-31475000D01*
G75*
G02*
X102475000Y-31712500I0J-237500D01*
G01*
X102475000Y-32287500D01*
G75*
G02*
X102237500Y-32525000I-237500J0D01*
G01*
G37*
%TD*%
%TO.C,D1*%
G36*
G01*
X96237500Y-70025000D02*
X95762500Y-70025000D01*
G75*
G02*
X95525000Y-69787500I0J237500D01*
G01*
X95525000Y-69212500D01*
G75*
G02*
X95762500Y-68975000I237500J0D01*
G01*
X96237500Y-68975000D01*
G75*
G02*
X96475000Y-69212500I0J-237500D01*
G01*
X96475000Y-69787500D01*
G75*
G02*
X96237500Y-70025000I-237500J0D01*
G01*
G37*
G36*
G01*
X96237500Y-68275000D02*
X95762500Y-68275000D01*
G75*
G02*
X95525000Y-68037500I0J237500D01*
G01*
X95525000Y-67462500D01*
G75*
G02*
X95762500Y-67225000I237500J0D01*
G01*
X96237500Y-67225000D01*
G75*
G02*
X96475000Y-67462500I0J-237500D01*
G01*
X96475000Y-68037500D01*
G75*
G02*
X96237500Y-68275000I-237500J0D01*
G01*
G37*
%TD*%
%TO.C,L1*%
G36*
G01*
X95762500Y-29725000D02*
X96237500Y-29725000D01*
G75*
G02*
X96475000Y-29962500I0J-237500D01*
G01*
X96475000Y-30537500D01*
G75*
G02*
X96237500Y-30775000I-237500J0D01*
G01*
X95762500Y-30775000D01*
G75*
G02*
X95525000Y-30537500I0J237500D01*
G01*
X95525000Y-29962500D01*
G75*
G02*
X95762500Y-29725000I237500J0D01*
G01*
G37*
G36*
G01*
X95762500Y-31475000D02*
X96237500Y-31475000D01*
G75*
G02*
X96475000Y-31712500I0J-237500D01*
G01*
X96475000Y-32287500D01*
G75*
G02*
X96237500Y-32525000I-237500J0D01*
G01*
X95762500Y-32525000D01*
G75*
G02*
X95525000Y-32287500I0J237500D01*
G01*
X95525000Y-31712500D01*
G75*
G02*
X95762500Y-31475000I237500J0D01*
G01*
G37*
%TD*%
D10*
%TO.C,Q1*%
X30000000Y-35050000D03*
X30000000Y-36950000D03*
X32000000Y-36000000D03*
%TD*%
%TO.C,Q2*%
X27000000Y-55550000D03*
X27000000Y-57450000D03*
X29000000Y-56500000D03*
%TD*%
%TO.C,Q3*%
X101000000Y-68740000D03*
X99000000Y-69690000D03*
X99000000Y-67790000D03*
%TD*%
%TO.C,Q4*%
X59000000Y-75950000D03*
X57000000Y-76900000D03*
X57000000Y-75000000D03*
%TD*%
%TO.C,Q5*%
X59000000Y-36000000D03*
X57000000Y-36950000D03*
X57000000Y-35050000D03*
%TD*%
%TO.C,Q6*%
X96000000Y-35100000D03*
X96000000Y-37000000D03*
X98000000Y-36050000D03*
%TD*%
%TO.C,Q7*%
X29000000Y-76050000D03*
X27000000Y-77000000D03*
X27000000Y-75100000D03*
%TD*%
%TO.C,Q8*%
X57000000Y-55300000D03*
X57000000Y-57200000D03*
X59000000Y-56250000D03*
%TD*%
%TO.C,R1*%
G36*
G01*
X23762500Y-29725000D02*
X24237500Y-29725000D01*
G75*
G02*
X24475000Y-29962500I0J-237500D01*
G01*
X24475000Y-30537500D01*
G75*
G02*
X24237500Y-30775000I-237500J0D01*
G01*
X23762500Y-30775000D01*
G75*
G02*
X23525000Y-30537500I0J237500D01*
G01*
X23525000Y-29962500D01*
G75*
G02*
X23762500Y-29725000I237500J0D01*
G01*
G37*
G36*
G01*
X23762500Y-31475000D02*
X24237500Y-31475000D01*
G75*
G02*
X24475000Y-31712500I0J-237500D01*
G01*
X24475000Y-32287500D01*
G75*
G02*
X24237500Y-32525000I-237500J0D01*
G01*
X23762500Y-32525000D01*
G75*
G02*
X23525000Y-32287500I0J237500D01*
G01*
X23525000Y-31712500D01*
G75*
G02*
X23762500Y-31475000I237500J0D01*
G01*
G37*
%TD*%
%TO.C,R2*%
G36*
G01*
X26762500Y-39600000D02*
X27237500Y-39600000D01*
G75*
G02*
X27475000Y-39837500I0J-237500D01*
G01*
X27475000Y-40412500D01*
G75*
G02*
X27237500Y-40650000I-237500J0D01*
G01*
X26762500Y-40650000D01*
G75*
G02*
X26525000Y-40412500I0J237500D01*
G01*
X26525000Y-39837500D01*
G75*
G02*
X26762500Y-39600000I237500J0D01*
G01*
G37*
G36*
G01*
X26762500Y-41350000D02*
X27237500Y-41350000D01*
G75*
G02*
X27475000Y-41587500I0J-237500D01*
G01*
X27475000Y-42162500D01*
G75*
G02*
X27237500Y-42400000I-237500J0D01*
G01*
X26762500Y-42400000D01*
G75*
G02*
X26525000Y-42162500I0J237500D01*
G01*
X26525000Y-41587500D01*
G75*
G02*
X26762500Y-41350000I237500J0D01*
G01*
G37*
%TD*%
%TO.C,R3*%
G36*
G01*
X23762500Y-51975000D02*
X24237500Y-51975000D01*
G75*
G02*
X24475000Y-52212500I0J-237500D01*
G01*
X24475000Y-52787500D01*
G75*
G02*
X24237500Y-53025000I-237500J0D01*
G01*
X23762500Y-53025000D01*
G75*
G02*
X23525000Y-52787500I0J237500D01*
G01*
X23525000Y-52212500D01*
G75*
G02*
X23762500Y-51975000I237500J0D01*
G01*
G37*
G36*
G01*
X23762500Y-50225000D02*
X24237500Y-50225000D01*
G75*
G02*
X24475000Y-50462500I0J-237500D01*
G01*
X24475000Y-51037500D01*
G75*
G02*
X24237500Y-51275000I-237500J0D01*
G01*
X23762500Y-51275000D01*
G75*
G02*
X23525000Y-51037500I0J237500D01*
G01*
X23525000Y-50462500D01*
G75*
G02*
X23762500Y-50225000I237500J0D01*
G01*
G37*
%TD*%
%TO.C,R4*%
G36*
G01*
X26762500Y-61475000D02*
X27237500Y-61475000D01*
G75*
G02*
X27475000Y-61712500I0J-237500D01*
G01*
X27475000Y-62287500D01*
G75*
G02*
X27237500Y-62525000I-237500J0D01*
G01*
X26762500Y-62525000D01*
G75*
G02*
X26525000Y-62287500I0J237500D01*
G01*
X26525000Y-61712500D01*
G75*
G02*
X26762500Y-61475000I237500J0D01*
G01*
G37*
G36*
G01*
X26762500Y-59725000D02*
X27237500Y-59725000D01*
G75*
G02*
X27475000Y-59962500I0J-237500D01*
G01*
X27475000Y-60537500D01*
G75*
G02*
X27237500Y-60775000I-237500J0D01*
G01*
X26762500Y-60775000D01*
G75*
G02*
X26525000Y-60537500I0J237500D01*
G01*
X26525000Y-59962500D01*
G75*
G02*
X26762500Y-59725000I237500J0D01*
G01*
G37*
%TD*%
%TO.C,R5*%
G36*
G01*
X26762500Y-31475000D02*
X27237500Y-31475000D01*
G75*
G02*
X27475000Y-31712500I0J-237500D01*
G01*
X27475000Y-32287500D01*
G75*
G02*
X27237500Y-32525000I-237500J0D01*
G01*
X26762500Y-32525000D01*
G75*
G02*
X26525000Y-32287500I0J237500D01*
G01*
X26525000Y-31712500D01*
G75*
G02*
X26762500Y-31475000I237500J0D01*
G01*
G37*
G36*
G01*
X26762500Y-29725000D02*
X27237500Y-29725000D01*
G75*
G02*
X27475000Y-29962500I0J-237500D01*
G01*
X27475000Y-30537500D01*
G75*
G02*
X27237500Y-30775000I-237500J0D01*
G01*
X26762500Y-30775000D01*
G75*
G02*
X26525000Y-30537500I0J237500D01*
G01*
X26525000Y-29962500D01*
G75*
G02*
X26762500Y-29725000I237500J0D01*
G01*
G37*
%TD*%
%TO.C,R6*%
G36*
G01*
X29762500Y-41350000D02*
X30237500Y-41350000D01*
G75*
G02*
X30475000Y-41587500I0J-237500D01*
G01*
X30475000Y-42162500D01*
G75*
G02*
X30237500Y-42400000I-237500J0D01*
G01*
X29762500Y-42400000D01*
G75*
G02*
X29525000Y-42162500I0J237500D01*
G01*
X29525000Y-41587500D01*
G75*
G02*
X29762500Y-41350000I237500J0D01*
G01*
G37*
G36*
G01*
X29762500Y-39600000D02*
X30237500Y-39600000D01*
G75*
G02*
X30475000Y-39837500I0J-237500D01*
G01*
X30475000Y-40412500D01*
G75*
G02*
X30237500Y-40650000I-237500J0D01*
G01*
X29762500Y-40650000D01*
G75*
G02*
X29525000Y-40412500I0J237500D01*
G01*
X29525000Y-39837500D01*
G75*
G02*
X29762500Y-39600000I237500J0D01*
G01*
G37*
%TD*%
%TO.C,R7*%
G36*
G01*
X26762500Y-50225000D02*
X27237500Y-50225000D01*
G75*
G02*
X27475000Y-50462500I0J-237500D01*
G01*
X27475000Y-51037500D01*
G75*
G02*
X27237500Y-51275000I-237500J0D01*
G01*
X26762500Y-51275000D01*
G75*
G02*
X26525000Y-51037500I0J237500D01*
G01*
X26525000Y-50462500D01*
G75*
G02*
X26762500Y-50225000I237500J0D01*
G01*
G37*
G36*
G01*
X26762500Y-51975000D02*
X27237500Y-51975000D01*
G75*
G02*
X27475000Y-52212500I0J-237500D01*
G01*
X27475000Y-52787500D01*
G75*
G02*
X27237500Y-53025000I-237500J0D01*
G01*
X26762500Y-53025000D01*
G75*
G02*
X26525000Y-52787500I0J237500D01*
G01*
X26525000Y-52212500D01*
G75*
G02*
X26762500Y-51975000I237500J0D01*
G01*
G37*
%TD*%
%TO.C,R8*%
G36*
G01*
X29762500Y-59725000D02*
X30237500Y-59725000D01*
G75*
G02*
X30475000Y-59962500I0J-237500D01*
G01*
X30475000Y-60537500D01*
G75*
G02*
X30237500Y-60775000I-237500J0D01*
G01*
X29762500Y-60775000D01*
G75*
G02*
X29525000Y-60537500I0J237500D01*
G01*
X29525000Y-59962500D01*
G75*
G02*
X29762500Y-59725000I237500J0D01*
G01*
G37*
G36*
G01*
X29762500Y-61475000D02*
X30237500Y-61475000D01*
G75*
G02*
X30475000Y-61712500I0J-237500D01*
G01*
X30475000Y-62287500D01*
G75*
G02*
X30237500Y-62525000I-237500J0D01*
G01*
X29762500Y-62525000D01*
G75*
G02*
X29525000Y-62287500I0J237500D01*
G01*
X29525000Y-61712500D01*
G75*
G02*
X29762500Y-61475000I237500J0D01*
G01*
G37*
%TD*%
%TO.C,R9*%
G36*
G01*
X83762500Y-58225000D02*
X84237500Y-58225000D01*
G75*
G02*
X84475000Y-58462500I0J-237500D01*
G01*
X84475000Y-59037500D01*
G75*
G02*
X84237500Y-59275000I-237500J0D01*
G01*
X83762500Y-59275000D01*
G75*
G02*
X83525000Y-59037500I0J237500D01*
G01*
X83525000Y-58462500D01*
G75*
G02*
X83762500Y-58225000I237500J0D01*
G01*
G37*
G36*
G01*
X83762500Y-59975000D02*
X84237500Y-59975000D01*
G75*
G02*
X84475000Y-60212500I0J-237500D01*
G01*
X84475000Y-60787500D01*
G75*
G02*
X84237500Y-61025000I-237500J0D01*
G01*
X83762500Y-61025000D01*
G75*
G02*
X83525000Y-60787500I0J237500D01*
G01*
X83525000Y-60212500D01*
G75*
G02*
X83762500Y-59975000I237500J0D01*
G01*
G37*
%TD*%
%TO.C,R10*%
G36*
G01*
X80762500Y-59975000D02*
X81237500Y-59975000D01*
G75*
G02*
X81475000Y-60212500I0J-237500D01*
G01*
X81475000Y-60787500D01*
G75*
G02*
X81237500Y-61025000I-237500J0D01*
G01*
X80762500Y-61025000D01*
G75*
G02*
X80525000Y-60787500I0J237500D01*
G01*
X80525000Y-60212500D01*
G75*
G02*
X80762500Y-59975000I237500J0D01*
G01*
G37*
G36*
G01*
X80762500Y-58225000D02*
X81237500Y-58225000D01*
G75*
G02*
X81475000Y-58462500I0J-237500D01*
G01*
X81475000Y-59037500D01*
G75*
G02*
X81237500Y-59275000I-237500J0D01*
G01*
X80762500Y-59275000D01*
G75*
G02*
X80525000Y-59037500I0J237500D01*
G01*
X80525000Y-58462500D01*
G75*
G02*
X80762500Y-58225000I237500J0D01*
G01*
G37*
%TD*%
%TO.C,R11*%
G36*
G01*
X98762500Y-63975000D02*
X99237500Y-63975000D01*
G75*
G02*
X99475000Y-64212500I0J-237500D01*
G01*
X99475000Y-64787500D01*
G75*
G02*
X99237500Y-65025000I-237500J0D01*
G01*
X98762500Y-65025000D01*
G75*
G02*
X98525000Y-64787500I0J237500D01*
G01*
X98525000Y-64212500D01*
G75*
G02*
X98762500Y-63975000I237500J0D01*
G01*
G37*
G36*
G01*
X98762500Y-62225000D02*
X99237500Y-62225000D01*
G75*
G02*
X99475000Y-62462500I0J-237500D01*
G01*
X99475000Y-63037500D01*
G75*
G02*
X99237500Y-63275000I-237500J0D01*
G01*
X98762500Y-63275000D01*
G75*
G02*
X98525000Y-63037500I0J237500D01*
G01*
X98525000Y-62462500D01*
G75*
G02*
X98762500Y-62225000I237500J0D01*
G01*
G37*
%TD*%
%TO.C,R12*%
G36*
G01*
X92762500Y-73975000D02*
X93237500Y-73975000D01*
G75*
G02*
X93475000Y-74212500I0J-237500D01*
G01*
X93475000Y-74787500D01*
G75*
G02*
X93237500Y-75025000I-237500J0D01*
G01*
X92762500Y-75025000D01*
G75*
G02*
X92525000Y-74787500I0J237500D01*
G01*
X92525000Y-74212500D01*
G75*
G02*
X92762500Y-73975000I237500J0D01*
G01*
G37*
G36*
G01*
X92762500Y-72225000D02*
X93237500Y-72225000D01*
G75*
G02*
X93475000Y-72462500I0J-237500D01*
G01*
X93475000Y-73037500D01*
G75*
G02*
X93237500Y-73275000I-237500J0D01*
G01*
X92762500Y-73275000D01*
G75*
G02*
X92525000Y-73037500I0J237500D01*
G01*
X92525000Y-72462500D01*
G75*
G02*
X92762500Y-72225000I237500J0D01*
G01*
G37*
%TD*%
%TO.C,R13*%
G36*
G01*
X56762500Y-71475000D02*
X57237500Y-71475000D01*
G75*
G02*
X57475000Y-71712500I0J-237500D01*
G01*
X57475000Y-72287500D01*
G75*
G02*
X57237500Y-72525000I-237500J0D01*
G01*
X56762500Y-72525000D01*
G75*
G02*
X56525000Y-72287500I0J237500D01*
G01*
X56525000Y-71712500D01*
G75*
G02*
X56762500Y-71475000I237500J0D01*
G01*
G37*
G36*
G01*
X56762500Y-69725000D02*
X57237500Y-69725000D01*
G75*
G02*
X57475000Y-69962500I0J-237500D01*
G01*
X57475000Y-70537500D01*
G75*
G02*
X57237500Y-70775000I-237500J0D01*
G01*
X56762500Y-70775000D01*
G75*
G02*
X56525000Y-70537500I0J237500D01*
G01*
X56525000Y-69962500D01*
G75*
G02*
X56762500Y-69725000I237500J0D01*
G01*
G37*
%TD*%
%TO.C,R14*%
G36*
G01*
X53762500Y-81475000D02*
X54237500Y-81475000D01*
G75*
G02*
X54475000Y-81712500I0J-237500D01*
G01*
X54475000Y-82287500D01*
G75*
G02*
X54237500Y-82525000I-237500J0D01*
G01*
X53762500Y-82525000D01*
G75*
G02*
X53525000Y-82287500I0J237500D01*
G01*
X53525000Y-81712500D01*
G75*
G02*
X53762500Y-81475000I237500J0D01*
G01*
G37*
G36*
G01*
X53762500Y-79725000D02*
X54237500Y-79725000D01*
G75*
G02*
X54475000Y-79962500I0J-237500D01*
G01*
X54475000Y-80537500D01*
G75*
G02*
X54237500Y-80775000I-237500J0D01*
G01*
X53762500Y-80775000D01*
G75*
G02*
X53525000Y-80537500I0J237500D01*
G01*
X53525000Y-79962500D01*
G75*
G02*
X53762500Y-79725000I237500J0D01*
G01*
G37*
%TD*%
%TO.C,R15*%
G36*
G01*
X56762500Y-29725000D02*
X57237500Y-29725000D01*
G75*
G02*
X57475000Y-29962500I0J-237500D01*
G01*
X57475000Y-30537500D01*
G75*
G02*
X57237500Y-30775000I-237500J0D01*
G01*
X56762500Y-30775000D01*
G75*
G02*
X56525000Y-30537500I0J237500D01*
G01*
X56525000Y-29962500D01*
G75*
G02*
X56762500Y-29725000I237500J0D01*
G01*
G37*
G36*
G01*
X56762500Y-31475000D02*
X57237500Y-31475000D01*
G75*
G02*
X57475000Y-31712500I0J-237500D01*
G01*
X57475000Y-32287500D01*
G75*
G02*
X57237500Y-32525000I-237500J0D01*
G01*
X56762500Y-32525000D01*
G75*
G02*
X56525000Y-32287500I0J237500D01*
G01*
X56525000Y-31712500D01*
G75*
G02*
X56762500Y-31475000I237500J0D01*
G01*
G37*
%TD*%
%TO.C,R16*%
G36*
G01*
X53762500Y-39725000D02*
X54237500Y-39725000D01*
G75*
G02*
X54475000Y-39962500I0J-237500D01*
G01*
X54475000Y-40537500D01*
G75*
G02*
X54237500Y-40775000I-237500J0D01*
G01*
X53762500Y-40775000D01*
G75*
G02*
X53525000Y-40537500I0J237500D01*
G01*
X53525000Y-39962500D01*
G75*
G02*
X53762500Y-39725000I237500J0D01*
G01*
G37*
G36*
G01*
X53762500Y-41475000D02*
X54237500Y-41475000D01*
G75*
G02*
X54475000Y-41712500I0J-237500D01*
G01*
X54475000Y-42287500D01*
G75*
G02*
X54237500Y-42525000I-237500J0D01*
G01*
X53762500Y-42525000D01*
G75*
G02*
X53525000Y-42287500I0J237500D01*
G01*
X53525000Y-41712500D01*
G75*
G02*
X53762500Y-41475000I237500J0D01*
G01*
G37*
%TD*%
%TO.C,R17*%
G36*
G01*
X101762500Y-63975000D02*
X102237500Y-63975000D01*
G75*
G02*
X102475000Y-64212500I0J-237500D01*
G01*
X102475000Y-64787500D01*
G75*
G02*
X102237500Y-65025000I-237500J0D01*
G01*
X101762500Y-65025000D01*
G75*
G02*
X101525000Y-64787500I0J237500D01*
G01*
X101525000Y-64212500D01*
G75*
G02*
X101762500Y-63975000I237500J0D01*
G01*
G37*
G36*
G01*
X101762500Y-62225000D02*
X102237500Y-62225000D01*
G75*
G02*
X102475000Y-62462500I0J-237500D01*
G01*
X102475000Y-63037500D01*
G75*
G02*
X102237500Y-63275000I-237500J0D01*
G01*
X101762500Y-63275000D01*
G75*
G02*
X101525000Y-63037500I0J237500D01*
G01*
X101525000Y-62462500D01*
G75*
G02*
X101762500Y-62225000I237500J0D01*
G01*
G37*
%TD*%
%TO.C,R18*%
G36*
G01*
X95762500Y-72225000D02*
X96237500Y-72225000D01*
G75*
G02*
X96475000Y-72462500I0J-237500D01*
G01*
X96475000Y-73037500D01*
G75*
G02*
X96237500Y-73275000I-237500J0D01*
G01*
X95762500Y-73275000D01*
G75*
G02*
X95525000Y-73037500I0J237500D01*
G01*
X95525000Y-72462500D01*
G75*
G02*
X95762500Y-72225000I237500J0D01*
G01*
G37*
G36*
G01*
X95762500Y-73975000D02*
X96237500Y-73975000D01*
G75*
G02*
X96475000Y-74212500I0J-237500D01*
G01*
X96475000Y-74787500D01*
G75*
G02*
X96237500Y-75025000I-237500J0D01*
G01*
X95762500Y-75025000D01*
G75*
G02*
X95525000Y-74787500I0J237500D01*
G01*
X95525000Y-74212500D01*
G75*
G02*
X95762500Y-73975000I237500J0D01*
G01*
G37*
%TD*%
%TO.C,R19*%
G36*
G01*
X59762500Y-69725000D02*
X60237500Y-69725000D01*
G75*
G02*
X60475000Y-69962500I0J-237500D01*
G01*
X60475000Y-70537500D01*
G75*
G02*
X60237500Y-70775000I-237500J0D01*
G01*
X59762500Y-70775000D01*
G75*
G02*
X59525000Y-70537500I0J237500D01*
G01*
X59525000Y-69962500D01*
G75*
G02*
X59762500Y-69725000I237500J0D01*
G01*
G37*
G36*
G01*
X59762500Y-71475000D02*
X60237500Y-71475000D01*
G75*
G02*
X60475000Y-71712500I0J-237500D01*
G01*
X60475000Y-72287500D01*
G75*
G02*
X60237500Y-72525000I-237500J0D01*
G01*
X59762500Y-72525000D01*
G75*
G02*
X59525000Y-72287500I0J237500D01*
G01*
X59525000Y-71712500D01*
G75*
G02*
X59762500Y-71475000I237500J0D01*
G01*
G37*
%TD*%
%TO.C,R20*%
G36*
G01*
X56762500Y-79725000D02*
X57237500Y-79725000D01*
G75*
G02*
X57475000Y-79962500I0J-237500D01*
G01*
X57475000Y-80537500D01*
G75*
G02*
X57237500Y-80775000I-237500J0D01*
G01*
X56762500Y-80775000D01*
G75*
G02*
X56525000Y-80537500I0J237500D01*
G01*
X56525000Y-79962500D01*
G75*
G02*
X56762500Y-79725000I237500J0D01*
G01*
G37*
G36*
G01*
X56762500Y-81475000D02*
X57237500Y-81475000D01*
G75*
G02*
X57475000Y-81712500I0J-237500D01*
G01*
X57475000Y-82287500D01*
G75*
G02*
X57237500Y-82525000I-237500J0D01*
G01*
X56762500Y-82525000D01*
G75*
G02*
X56525000Y-82287500I0J237500D01*
G01*
X56525000Y-81712500D01*
G75*
G02*
X56762500Y-81475000I237500J0D01*
G01*
G37*
%TD*%
%TO.C,R21*%
G36*
G01*
X59762500Y-31475000D02*
X60237500Y-31475000D01*
G75*
G02*
X60475000Y-31712500I0J-237500D01*
G01*
X60475000Y-32287500D01*
G75*
G02*
X60237500Y-32525000I-237500J0D01*
G01*
X59762500Y-32525000D01*
G75*
G02*
X59525000Y-32287500I0J237500D01*
G01*
X59525000Y-31712500D01*
G75*
G02*
X59762500Y-31475000I237500J0D01*
G01*
G37*
G36*
G01*
X59762500Y-29725000D02*
X60237500Y-29725000D01*
G75*
G02*
X60475000Y-29962500I0J-237500D01*
G01*
X60475000Y-30537500D01*
G75*
G02*
X60237500Y-30775000I-237500J0D01*
G01*
X59762500Y-30775000D01*
G75*
G02*
X59525000Y-30537500I0J237500D01*
G01*
X59525000Y-29962500D01*
G75*
G02*
X59762500Y-29725000I237500J0D01*
G01*
G37*
%TD*%
%TO.C,R22*%
G36*
G01*
X56762500Y-41475000D02*
X57237500Y-41475000D01*
G75*
G02*
X57475000Y-41712500I0J-237500D01*
G01*
X57475000Y-42287500D01*
G75*
G02*
X57237500Y-42525000I-237500J0D01*
G01*
X56762500Y-42525000D01*
G75*
G02*
X56525000Y-42287500I0J237500D01*
G01*
X56525000Y-41712500D01*
G75*
G02*
X56762500Y-41475000I237500J0D01*
G01*
G37*
G36*
G01*
X56762500Y-39725000D02*
X57237500Y-39725000D01*
G75*
G02*
X57475000Y-39962500I0J-237500D01*
G01*
X57475000Y-40537500D01*
G75*
G02*
X57237500Y-40775000I-237500J0D01*
G01*
X56762500Y-40775000D01*
G75*
G02*
X56525000Y-40537500I0J237500D01*
G01*
X56525000Y-39962500D01*
G75*
G02*
X56762500Y-39725000I237500J0D01*
G01*
G37*
%TD*%
%TO.C,R23*%
G36*
G01*
X89762500Y-31475000D02*
X90237500Y-31475000D01*
G75*
G02*
X90475000Y-31712500I0J-237500D01*
G01*
X90475000Y-32287500D01*
G75*
G02*
X90237500Y-32525000I-237500J0D01*
G01*
X89762500Y-32525000D01*
G75*
G02*
X89525000Y-32287500I0J237500D01*
G01*
X89525000Y-31712500D01*
G75*
G02*
X89762500Y-31475000I237500J0D01*
G01*
G37*
G36*
G01*
X89762500Y-29725000D02*
X90237500Y-29725000D01*
G75*
G02*
X90475000Y-29962500I0J-237500D01*
G01*
X90475000Y-30537500D01*
G75*
G02*
X90237500Y-30775000I-237500J0D01*
G01*
X89762500Y-30775000D01*
G75*
G02*
X89525000Y-30537500I0J237500D01*
G01*
X89525000Y-29962500D01*
G75*
G02*
X89762500Y-29725000I237500J0D01*
G01*
G37*
%TD*%
%TO.C,R24*%
G36*
G01*
X92762500Y-41475000D02*
X93237500Y-41475000D01*
G75*
G02*
X93475000Y-41712500I0J-237500D01*
G01*
X93475000Y-42287500D01*
G75*
G02*
X93237500Y-42525000I-237500J0D01*
G01*
X92762500Y-42525000D01*
G75*
G02*
X92525000Y-42287500I0J237500D01*
G01*
X92525000Y-41712500D01*
G75*
G02*
X92762500Y-41475000I237500J0D01*
G01*
G37*
G36*
G01*
X92762500Y-39725000D02*
X93237500Y-39725000D01*
G75*
G02*
X93475000Y-39962500I0J-237500D01*
G01*
X93475000Y-40537500D01*
G75*
G02*
X93237500Y-40775000I-237500J0D01*
G01*
X92762500Y-40775000D01*
G75*
G02*
X92525000Y-40537500I0J237500D01*
G01*
X92525000Y-39962500D01*
G75*
G02*
X92762500Y-39725000I237500J0D01*
G01*
G37*
%TD*%
%TO.C,R25*%
G36*
G01*
X23762500Y-69725000D02*
X24237500Y-69725000D01*
G75*
G02*
X24475000Y-69962500I0J-237500D01*
G01*
X24475000Y-70537500D01*
G75*
G02*
X24237500Y-70775000I-237500J0D01*
G01*
X23762500Y-70775000D01*
G75*
G02*
X23525000Y-70537500I0J237500D01*
G01*
X23525000Y-69962500D01*
G75*
G02*
X23762500Y-69725000I237500J0D01*
G01*
G37*
G36*
G01*
X23762500Y-71475000D02*
X24237500Y-71475000D01*
G75*
G02*
X24475000Y-71712500I0J-237500D01*
G01*
X24475000Y-72287500D01*
G75*
G02*
X24237500Y-72525000I-237500J0D01*
G01*
X23762500Y-72525000D01*
G75*
G02*
X23525000Y-72287500I0J237500D01*
G01*
X23525000Y-71712500D01*
G75*
G02*
X23762500Y-71475000I237500J0D01*
G01*
G37*
%TD*%
%TO.C,R26*%
G36*
G01*
X26762500Y-79725000D02*
X27237500Y-79725000D01*
G75*
G02*
X27475000Y-79962500I0J-237500D01*
G01*
X27475000Y-80537500D01*
G75*
G02*
X27237500Y-80775000I-237500J0D01*
G01*
X26762500Y-80775000D01*
G75*
G02*
X26525000Y-80537500I0J237500D01*
G01*
X26525000Y-79962500D01*
G75*
G02*
X26762500Y-79725000I237500J0D01*
G01*
G37*
G36*
G01*
X26762500Y-81475000D02*
X27237500Y-81475000D01*
G75*
G02*
X27475000Y-81712500I0J-237500D01*
G01*
X27475000Y-82287500D01*
G75*
G02*
X27237500Y-82525000I-237500J0D01*
G01*
X26762500Y-82525000D01*
G75*
G02*
X26525000Y-82287500I0J237500D01*
G01*
X26525000Y-81712500D01*
G75*
G02*
X26762500Y-81475000I237500J0D01*
G01*
G37*
%TD*%
%TO.C,R27*%
G36*
G01*
X59762500Y-51475000D02*
X60237500Y-51475000D01*
G75*
G02*
X60475000Y-51712500I0J-237500D01*
G01*
X60475000Y-52287500D01*
G75*
G02*
X60237500Y-52525000I-237500J0D01*
G01*
X59762500Y-52525000D01*
G75*
G02*
X59525000Y-52287500I0J237500D01*
G01*
X59525000Y-51712500D01*
G75*
G02*
X59762500Y-51475000I237500J0D01*
G01*
G37*
G36*
G01*
X59762500Y-49725000D02*
X60237500Y-49725000D01*
G75*
G02*
X60475000Y-49962500I0J-237500D01*
G01*
X60475000Y-50537500D01*
G75*
G02*
X60237500Y-50775000I-237500J0D01*
G01*
X59762500Y-50775000D01*
G75*
G02*
X59525000Y-50537500I0J237500D01*
G01*
X59525000Y-49962500D01*
G75*
G02*
X59762500Y-49725000I237500J0D01*
G01*
G37*
%TD*%
%TO.C,R28*%
G36*
G01*
X53762500Y-59725000D02*
X54237500Y-59725000D01*
G75*
G02*
X54475000Y-59962500I0J-237500D01*
G01*
X54475000Y-60537500D01*
G75*
G02*
X54237500Y-60775000I-237500J0D01*
G01*
X53762500Y-60775000D01*
G75*
G02*
X53525000Y-60537500I0J237500D01*
G01*
X53525000Y-59962500D01*
G75*
G02*
X53762500Y-59725000I237500J0D01*
G01*
G37*
G36*
G01*
X53762500Y-61475000D02*
X54237500Y-61475000D01*
G75*
G02*
X54475000Y-61712500I0J-237500D01*
G01*
X54475000Y-62287500D01*
G75*
G02*
X54237500Y-62525000I-237500J0D01*
G01*
X53762500Y-62525000D01*
G75*
G02*
X53525000Y-62287500I0J237500D01*
G01*
X53525000Y-61712500D01*
G75*
G02*
X53762500Y-61475000I237500J0D01*
G01*
G37*
%TD*%
%TO.C,R29*%
G36*
G01*
X95762500Y-39725000D02*
X96237500Y-39725000D01*
G75*
G02*
X96475000Y-39962500I0J-237500D01*
G01*
X96475000Y-40537500D01*
G75*
G02*
X96237500Y-40775000I-237500J0D01*
G01*
X95762500Y-40775000D01*
G75*
G02*
X95525000Y-40537500I0J237500D01*
G01*
X95525000Y-39962500D01*
G75*
G02*
X95762500Y-39725000I237500J0D01*
G01*
G37*
G36*
G01*
X95762500Y-41475000D02*
X96237500Y-41475000D01*
G75*
G02*
X96475000Y-41712500I0J-237500D01*
G01*
X96475000Y-42287500D01*
G75*
G02*
X96237500Y-42525000I-237500J0D01*
G01*
X95762500Y-42525000D01*
G75*
G02*
X95525000Y-42287500I0J237500D01*
G01*
X95525000Y-41712500D01*
G75*
G02*
X95762500Y-41475000I237500J0D01*
G01*
G37*
%TD*%
%TO.C,R30*%
G36*
G01*
X26762500Y-71475000D02*
X27237500Y-71475000D01*
G75*
G02*
X27475000Y-71712500I0J-237500D01*
G01*
X27475000Y-72287500D01*
G75*
G02*
X27237500Y-72525000I-237500J0D01*
G01*
X26762500Y-72525000D01*
G75*
G02*
X26525000Y-72287500I0J237500D01*
G01*
X26525000Y-71712500D01*
G75*
G02*
X26762500Y-71475000I237500J0D01*
G01*
G37*
G36*
G01*
X26762500Y-69725000D02*
X27237500Y-69725000D01*
G75*
G02*
X27475000Y-69962500I0J-237500D01*
G01*
X27475000Y-70537500D01*
G75*
G02*
X27237500Y-70775000I-237500J0D01*
G01*
X26762500Y-70775000D01*
G75*
G02*
X26525000Y-70537500I0J237500D01*
G01*
X26525000Y-69962500D01*
G75*
G02*
X26762500Y-69725000I237500J0D01*
G01*
G37*
%TD*%
%TO.C,R31*%
G36*
G01*
X29762500Y-79725000D02*
X30237500Y-79725000D01*
G75*
G02*
X30475000Y-79962500I0J-237500D01*
G01*
X30475000Y-80537500D01*
G75*
G02*
X30237500Y-80775000I-237500J0D01*
G01*
X29762500Y-80775000D01*
G75*
G02*
X29525000Y-80537500I0J237500D01*
G01*
X29525000Y-79962500D01*
G75*
G02*
X29762500Y-79725000I237500J0D01*
G01*
G37*
G36*
G01*
X29762500Y-81475000D02*
X30237500Y-81475000D01*
G75*
G02*
X30475000Y-81712500I0J-237500D01*
G01*
X30475000Y-82287500D01*
G75*
G02*
X30237500Y-82525000I-237500J0D01*
G01*
X29762500Y-82525000D01*
G75*
G02*
X29525000Y-82287500I0J237500D01*
G01*
X29525000Y-81712500D01*
G75*
G02*
X29762500Y-81475000I237500J0D01*
G01*
G37*
%TD*%
%TO.C,R32*%
G36*
G01*
X62762500Y-49725000D02*
X63237500Y-49725000D01*
G75*
G02*
X63475000Y-49962500I0J-237500D01*
G01*
X63475000Y-50537500D01*
G75*
G02*
X63237500Y-50775000I-237500J0D01*
G01*
X62762500Y-50775000D01*
G75*
G02*
X62525000Y-50537500I0J237500D01*
G01*
X62525000Y-49962500D01*
G75*
G02*
X62762500Y-49725000I237500J0D01*
G01*
G37*
G36*
G01*
X62762500Y-51475000D02*
X63237500Y-51475000D01*
G75*
G02*
X63475000Y-51712500I0J-237500D01*
G01*
X63475000Y-52287500D01*
G75*
G02*
X63237500Y-52525000I-237500J0D01*
G01*
X62762500Y-52525000D01*
G75*
G02*
X62525000Y-52287500I0J237500D01*
G01*
X62525000Y-51712500D01*
G75*
G02*
X62762500Y-51475000I237500J0D01*
G01*
G37*
%TD*%
%TO.C,R33*%
G36*
G01*
X56762500Y-61475000D02*
X57237500Y-61475000D01*
G75*
G02*
X57475000Y-61712500I0J-237500D01*
G01*
X57475000Y-62287500D01*
G75*
G02*
X57237500Y-62525000I-237500J0D01*
G01*
X56762500Y-62525000D01*
G75*
G02*
X56525000Y-62287500I0J237500D01*
G01*
X56525000Y-61712500D01*
G75*
G02*
X56762500Y-61475000I237500J0D01*
G01*
G37*
G36*
G01*
X56762500Y-59725000D02*
X57237500Y-59725000D01*
G75*
G02*
X57475000Y-59962500I0J-237500D01*
G01*
X57475000Y-60537500D01*
G75*
G02*
X57237500Y-60775000I-237500J0D01*
G01*
X56762500Y-60775000D01*
G75*
G02*
X56525000Y-60537500I0J237500D01*
G01*
X56525000Y-59962500D01*
G75*
G02*
X56762500Y-59725000I237500J0D01*
G01*
G37*
%TD*%
%TO.C,R34*%
G36*
G01*
X59762500Y-59725000D02*
X60237500Y-59725000D01*
G75*
G02*
X60475000Y-59962500I0J-237500D01*
G01*
X60475000Y-60537500D01*
G75*
G02*
X60237500Y-60775000I-237500J0D01*
G01*
X59762500Y-60775000D01*
G75*
G02*
X59525000Y-60537500I0J237500D01*
G01*
X59525000Y-59962500D01*
G75*
G02*
X59762500Y-59725000I237500J0D01*
G01*
G37*
G36*
G01*
X59762500Y-61475000D02*
X60237500Y-61475000D01*
G75*
G02*
X60475000Y-61712500I0J-237500D01*
G01*
X60475000Y-62287500D01*
G75*
G02*
X60237500Y-62525000I-237500J0D01*
G01*
X59762500Y-62525000D01*
G75*
G02*
X59525000Y-62287500I0J237500D01*
G01*
X59525000Y-61712500D01*
G75*
G02*
X59762500Y-61475000I237500J0D01*
G01*
G37*
%TD*%
D11*
%TO.C,U1*%
X81500000Y-30050000D03*
X81500000Y-31000000D03*
X81500000Y-31950000D03*
X83700000Y-31950000D03*
X83700000Y-30050000D03*
%TD*%
D12*
%TO.C,U2*%
X81350000Y-53000000D03*
D13*
X87650000Y-53000000D03*
X87650000Y-50700000D03*
X87650000Y-55300000D03*
%TD*%
M02*
